# Blender 4.1.1
# www.blender.org
mtllib drum.mtl
o Cube
v -0.670730 -0.291276 -0.670730
v 0.670730 -0.291276 -0.670730
v -0.670730 -0.291276 0.670730
v 0.670730 -0.291276 0.670730
v 0.670730 4.028071 -0.670730
v 0.670730 4.028071 0.670730
v -0.670730 4.028071 -0.670730
v -0.670730 4.028071 0.670730
v 0.925028 4.028070 -0.858761
v 0.925028 4.028070 0.857832
v -0.926283 4.028070 -0.858761
v -0.926283 4.028070 0.857833
v 0.925028 4.366702 -0.000464
v -0.926283 4.366702 -0.000464
v -0.000610 4.366701 -0.001159
v 0.483207 4.366701 -0.001159
v -0.484428 4.366701 -0.001159
v -0.000610 4.366701 -0.493855
v -0.000610 4.366701 0.491536
v -0.484428 4.366701 0.491536
v -0.484428 4.366701 -0.493855
v 0.483207 4.366701 -0.493855
v 0.483207 4.366701 0.491536
v 2.186101 7.432063 -0.001159
v -2.187321 7.432063 -0.001159
v 1.468489 7.432063 -0.001159
v -0.000610 7.432063 -2.424807
v -1.469710 7.432063 -0.001159
v -0.000610 7.432063 2.422489
v -1.469710 7.432063 2.422489
v -1.469710 7.432063 -2.424807
v 1.468489 7.432063 -2.424807
v 1.468489 7.432063 2.422489
v 2.186101 7.801135 -1.358857
v 2.186101 7.801135 -0.001159
v -2.187321 7.801135 1.356539
v -2.187321 7.801135 -0.001159
v 1.468489 7.801135 -0.001159
v 2.186101 7.801135 1.356539
v -2.187321 7.801135 -1.358857
v -1.469710 7.801135 -0.001159
v -1.469710 7.801135 2.422489
v -1.469710 7.801135 -2.424807
v 1.468489 7.801135 -2.424807
v 1.468489 7.801135 2.422489
v -0.670730 0.500230 -0.189568
v -0.670730 0.082323 -0.670730
v 0.670730 0.500230 -0.189568
v 0.670730 0.082323 -0.670730
v -0.189568 0.500230 0.670730
v -0.670730 0.500230 0.189568
v -0.670730 0.082323 0.670730
v 0.670730 0.500230 0.189568
v 0.189568 0.500230 0.670730
v 0.670730 0.082323 0.670730
v 0.786011 3.819117 -0.211664
v 0.670730 4.028071 -0.670730
v 0.670730 4.028071 0.670730
v 0.189568 3.819118 0.670730
v 0.786011 3.819117 0.210736
v -0.670730 4.028071 -0.670730
v -0.787266 3.819117 -0.211664
v -0.670730 4.028071 0.670730
v -0.787266 3.819117 0.210736
v -0.189568 3.819118 0.670730
v -0.670730 0.291276 -0.670730
v -0.189568 0.500230 -0.670730
v 0.189568 0.500230 -0.670730
v 0.670730 0.291276 -0.670730
v -0.189568 3.819118 -0.670730
v -0.670730 4.028071 -0.670730
v 0.670730 4.028071 -0.670730
v 0.189568 3.819118 -0.670730
v 0.886252 4.588810 -1.297047
v 0.926440 4.501639 -1.426463
v 0.860919 4.589723 1.211509
v 0.840209 4.508432 1.371717
v -0.862140 4.589723 -1.213827
v -0.841430 4.508432 -1.374035
v -0.887472 4.588810 1.294729
v -0.927661 4.501639 1.424145
v 1.052967 4.582803 0.486760
v 1.038539 4.546523 0.228455
v -1.054188 4.582803 -0.489079
v -1.039760 4.546523 -0.230773
v 1.052967 4.582803 -0.489079
v 1.038539 4.546523 -0.230773
v -1.054188 4.582803 0.486761
v -1.039760 4.546523 0.228455
v 2.100159 7.215961 1.337390
v 2.113051 7.248380 1.094852
v 2.171673 7.395783 2.568467
v 1.925436 7.243605 2.787137
v 2.021220 7.218805 -2.714575
v 2.064299 7.432063 -2.716555
v -2.022441 7.218805 2.712257
v -1.955573 7.242600 2.810738
v -2.101379 7.215961 -1.339708
v -2.114272 7.248380 -1.097170
v -2.172893 7.395783 -2.570785
v -1.926656 7.243605 -2.789456
v 2.100159 7.215961 -1.339709
v 2.113051 7.248380 -1.097170
v -2.101379 7.215961 1.337390
v -2.114272 7.248380 1.094852
v -0.148453 4.589235 -1.112142
v 0.147232 4.589235 -1.112142
v -0.000627 4.351422 -0.858853
v 0.147232 4.589235 1.109824
v -0.148453 4.589235 1.109824
v -0.000627 4.351422 0.857924
v 0.512161 4.589228 -1.112286
v 0.885194 4.521966 -1.074807
v -0.513382 4.589228 1.109968
v -0.886414 4.521966 1.072488
v -0.898884 4.518140 -1.082376
v -0.517013 4.589119 -1.114501
v 0.897663 4.518140 1.080058
v 0.515792 4.589119 1.112183
v 1.045565 7.209522 -2.591091
v 1.382009 7.247175 -2.612550
v -1.046785 7.209522 2.588773
v -1.383229 7.247175 2.610232
v -1.383926 7.246980 -2.617275
v -1.046601 7.209427 -2.593019
v -0.148453 7.209528 -2.590963
v -0.000610 7.432063 -2.566000
v 0.147232 7.209528 -2.590963
v 1.382706 7.246980 2.614957
v 1.045380 7.209427 2.590700
v 0.147232 7.209528 2.588645
v -0.000610 7.432063 2.563682
v -0.148453 7.209528 2.588645
v 0.925028 4.366702 0.320648
v 0.938830 4.402981 0.545637
v 0.938831 4.402981 0.766532
v 0.860732 4.332585 0.857832
v -0.926283 4.366702 -0.321576
v -0.940085 4.402981 -0.546566
v -0.940085 4.402981 -0.767461
v -0.861987 4.332585 -0.858761
v 1.994451 7.219770 2.689556
v 2.064299 7.432063 2.714237
v 0.925028 4.332585 -0.843180
v 0.938830 4.402981 -0.767461
v 0.938830 4.402981 -0.546566
v 0.925028 4.366702 -0.321576
v -0.926283 4.332585 0.842252
v -0.940085 4.402981 0.766532
v -0.940085 4.402981 0.545638
v -0.926283 4.366702 0.320648
v -1.995671 7.219770 -2.691875
v -2.065520 7.432063 -2.716555
v 2.171673 7.395783 -1.472654
v 2.184380 7.427736 -1.233603
v 1.954353 7.242600 -2.813057
v 2.171673 7.395783 -2.570785
v 2.171673 7.395783 1.470335
v 2.184380 7.427736 1.231284
v -2.172893 7.395783 -1.472653
v -2.185601 7.427736 -1.233602
v -2.172893 7.395783 2.568467
v -2.065520 7.432063 2.714237
v -2.185601 7.427736 1.231284
v -2.172893 7.395783 1.470335
v 1.038539 4.546523 -0.001159
v -1.039760 4.546523 -0.001159
v 2.114582 7.252228 -0.001159
v -2.115802 7.252228 -0.001159
v -0.142056 4.410598 -0.880340
v 0.140801 4.410598 -0.880340
v 0.140801 4.410598 0.879411
v -0.142056 4.410598 0.879411
v 0.147232 7.388165 -2.691781
v -0.148453 7.388165 -2.691781
v -0.148453 7.388165 2.689462
v 0.147232 7.388165 2.689462
v -0.628287 4.352591 -0.858761
v -0.330130 4.410598 -0.880340
v 0.627032 4.352591 0.857833
v 0.328876 4.410598 0.879411
v 1.264475 7.424769 2.712524
v 0.935917 7.388165 2.689462
v 0.328875 4.410598 -0.880340
v 0.625674 4.354651 -0.853258
v -0.330130 4.410598 0.879411
v -0.626929 4.354651 0.852329
v -1.265696 7.424769 -2.714843
v -0.937137 7.388165 -2.691781
v 1.263555 7.424835 -2.712638
v 0.935916 7.388165 -2.691781
v -1.264775 7.424835 2.710320
v -0.937137 7.388165 2.689462
v -0.189568 0.500230 -0.823972
v 0.189568 0.500230 -0.823972
v 0.189568 3.819118 -0.823972
v -0.189568 3.819118 -0.823972
v 0.670730 0.500230 -0.000000
v 0.786011 3.819117 -0.000464
v 0.786011 2.159672 -0.211664
v 0.786011 2.159672 0.210736
v 0.786011 2.159672 -0.000464
v 1.613118 5.070807 0.105136
v -0.670730 0.500230 0.000000
v -0.787266 3.819117 -0.000464
v -0.787266 2.159672 0.210736
v -0.670730 2.159674 -0.189568
v -0.787266 2.159672 -0.000464
v -1.626658 5.070807 0.105136
v -0.000000 4.584486 -1.252729
v -1.966335 5.056579 -0.106064
v 1.978031 5.086545 -0.106064
v 2.404767 6.687950 0.330247
v -2.454546 6.850599 0.330247
v 0.000000 -0.291276 0.670730
v 0.000000 0.082323 0.670730
v -0.670730 -0.104477 0.670730
v 0.670730 -0.104477 0.670730
v 0.000000 -0.291276 1.705841
v 0.000000 -0.291276 1.232777
v 0.670730 -0.291276 1.232777
v 0.000000 0.082323 1.232777
v 0.670730 0.082323 1.232777
v -0.670730 -0.104477 1.232777
v -0.670730 0.082323 1.232777
v 0.670730 -0.104477 1.232777
v -0.670730 -0.291276 1.232777
v 0.000000 -0.104477 1.232777
v 0.670730 -0.291276 1.705841
v 0.670730 -0.104477 1.705841
v -0.670730 -0.291276 1.705841
v -0.670730 -0.104477 1.705841
v 0.000000 -0.104477 1.705841
v 0.670730 -0.291276 -0.000000
v 0.670730 0.082323 -0.000000
v 0.670730 -0.104477 -0.670730
v 0.670730 -0.197876 0.670730
v 0.670730 -0.011077 0.670730
v 1.024984 -0.291276 -0.000000
v 1.024984 -0.291276 -0.670730
v 1.024984 0.082323 -0.000000
v 1.024984 0.082323 -0.670730
v 1.024984 -0.104477 -0.670730
v 1.024984 -0.197876 0.670730
v 1.024984 -0.291276 0.670730
v 1.024984 -0.011077 0.670730
v 1.024984 -0.104477 0.670730
v 1.024984 0.082323 0.670730
v -0.670730 -0.291276 -0.670730
v -0.670730 -0.291276 0.670730
v -0.670730 0.082323 -0.670730
v -0.670730 0.082323 0.670730
v -0.670730 -0.104477 0.670730
v -0.670730 -0.291276 0.000000
v -0.670730 0.082323 0.000000
v -0.670730 -0.011077 0.670730
v -0.670730 -0.104477 -0.670730
v -0.670730 -0.197876 0.670730
v -0.964330 -0.291276 0.000000
v -0.964330 -0.291276 0.670730
v -0.964330 0.082323 0.000000
v -0.964330 0.082323 0.670730
v -0.964330 -0.011077 0.670730
v -0.964330 -0.104477 -0.670730
v -0.964330 -0.291276 -0.670730
v -0.964330 -0.197876 0.670730
v -0.964330 -0.104477 0.670730
v -0.964330 0.082323 -0.670730
v -1.252373 0.137238 0.099960
v 2.186101 7.801135 0.677690
v 1.827295 7.801135 -0.001159
v 1.315338 0.112925 0.099960
v -2.187321 7.801135 0.677690
v -1.828515 7.801135 -0.001159
v -1.828515 7.801135 1.889514
v -1.469710 7.801135 1.210665
v 1.827295 7.801135 1.889514
v 1.468489 7.801135 1.210665
v -2.187321 8.167782 0.677690
v -2.187321 8.167782 -0.001159
v 1.827295 8.167782 -0.001159
v 2.186101 8.167782 -0.001159
v 2.186101 8.167782 0.677690
v 2.186101 8.167782 1.356539
v -1.828515 8.167782 -0.001159
v -1.469710 8.167782 -0.001159
v -1.828515 8.167782 1.889514
v -1.469710 8.167782 2.422489
v -1.469710 8.167782 1.210665
v 1.827295 8.167782 1.889514
v 1.468489 8.167782 1.210665
v 1.468489 8.167782 -0.001159
v 1.468489 8.167782 2.422489
v -2.187321 8.167782 1.356539
v 2.723431 8.982141 0.944177
v -2.724652 8.982141 0.944178
vn -0.0000 1.0000 -0.0000
vn -0.7284 0.6851 -0.0000
vn -0.0000 -0.0000 1.0000
vn -0.0000 -1.0000 -0.0000
vn -0.9609 -0.2771 -0.0000
vn -0.0000 -0.0000 -1.0000
vn 0.8906 -0.4146 -0.1869
vn 0.9007 -0.4285 0.0716
vn -0.9469 0.2682 -0.1776
vn 1.0000 -0.0000 -0.0000
vn -0.9007 -0.4285 -0.0716
vn 0.6687 -0.4546 0.5883
vn -0.7631 0.6463 0.0033
vn 0.9520 0.3060 -0.0000
vn 0.0057 1.0000 -0.0000
vn -0.0000 0.5330 0.8461
vn 0.0001 -0.4915 0.8709
vn 0.9469 0.2682 0.1776
vn -0.0000 0.5330 -0.8461
vn 0.3142 -0.3321 0.8894
vn -0.9520 0.3060 -0.0000
vn -0.0014 1.0000 -0.0028
vn 1.0000 -0.0000 -0.0014
vn -0.0000 0.9997 0.0251
vn 0.0092 0.9998 -0.0187
vn -0.8295 -0.0000 -0.5585
vn -0.0058 1.0000 -0.0000
vn -0.0091 0.9998 -0.0186
vn 0.0014 1.0000 -0.0028
vn -0.9292 -0.3695 -0.0000
vn -0.0057 -0.4915 0.8709
vn -0.8906 -0.4146 0.1869
vn 0.0057 -0.4915 -0.8709
vn -0.0160 -0.0460 0.9988
vn -0.9832 -0.1696 -0.0669
vn -0.3142 -0.3321 -0.8894
vn 0.9292 -0.3695 -0.0000
vn 0.8295 -0.0000 0.5585
vn -1.0000 -0.0000 -0.0000
vn 0.8148 -0.1878 0.5485
vn -0.8295 -0.0000 0.5585
vn 0.8437 -0.1742 -0.5077
vn -1.0000 -0.0046 -0.0000
vn -0.5484 0.6314 0.5484
vn 0.5484 0.6314 0.5484
vn 0.3539 -0.8150 0.4589
vn -0.3538 -0.8146 0.4597
vn 0.8756 0.4831 -0.0000
vn -0.8734 0.4871 -0.0000
vn 0.8689 -0.0669 -0.4905
vn 0.6107 -0.0000 0.7919
vn -0.6099 -0.0000 0.7925
vn 0.7777 -0.6264 0.0533
vn -0.7777 -0.6264 -0.0533
vn 0.9374 -0.3442 -0.0535
vn 0.9813 -0.1924 -0.0000
vn -0.9813 -0.1924 -0.0000
vn -0.9374 -0.3442 0.0535
vn 0.9118 -0.1482 0.3830
vn 0.9769 0.1989 0.0785
vn -0.9769 0.1989 -0.0785
vn 0.3201 0.9474 -0.0000
vn -0.3201 0.9474 -0.0000
vn -0.9118 -0.1482 -0.3830
vn -0.0001 -0.4915 -0.8709
vn -0.0000 -0.3413 -0.9400
vn -0.0000 -0.3413 0.9400
vn -0.0000 0.9442 -0.3295
vn -0.0000 0.9442 0.3295
vn -0.0008 -0.3451 -0.9386
vn 0.0008 -0.3451 0.9386
vn -0.0083 -0.4891 0.8722
vn 0.0083 -0.4891 -0.8722
vn 0.1063 0.3733 -0.9216
vn -0.1063 0.3733 0.9216
vn -0.0011 -0.4913 -0.8710
vn -0.0000 -0.4915 -0.8709
vn 0.0011 -0.4913 0.8710
vn -0.0000 -0.4915 0.8709
vn 0.0160 -0.0460 -0.9988
vn 0.8525 -0.5218 0.0318
vn 0.8443 -0.5359 -0.0000
vn 0.9871 0.0488 0.1524
vn -0.8524 -0.5219 -0.0319
vn -0.8444 -0.5358 -0.0000
vn -0.9872 0.0484 -0.1521
vn 0.7305 -0.3011 0.6130
vn 0.9879 -0.1496 -0.0410
vn 0.9363 -0.2918 -0.1954
vn 0.8479 -0.5295 -0.0270
vn -0.9879 -0.1495 0.0411
vn -0.9368 -0.2903 0.1954
vn -0.8480 -0.5293 0.0270
vn -0.7305 -0.3011 -0.6130
vn 0.7884 -0.1967 -0.5828
vn 0.7047 -0.7095 -0.0000
vn -0.7047 -0.7095 -0.0000
vn -0.7884 -0.1967 0.5829
vn 0.8456 -0.5338 -0.0000
vn -0.8457 -0.5337 -0.0000
vn -0.0000 -0.7921 -0.6104
vn -0.0000 -0.7903 0.6127
vn 0.0841 -0.7495 -0.6566
vn 0.0041 -0.7936 -0.6084
vn -0.0836 -0.7477 0.6588
vn -0.0042 -0.7919 0.6107
vn -0.0071 -0.4869 0.8734
vn -0.0834 -0.7566 -0.6486
vn 0.0829 -0.7548 0.6507
vn 0.0071 -0.4869 -0.8734
vn -0.0006 -0.4911 -0.8711
vn -0.0001 -0.4911 -0.8711
vn 0.0006 -0.4911 0.8711
vn 0.0001 -0.4911 0.8711
vn 0.0808 -0.9443 -0.3190
vn -0.0361 -0.7767 -0.6288
vn -0.0808 -0.9440 0.3198
vn 0.0359 -0.7748 0.6311
vn -0.2706 0.5570 -0.7852
vn 0.2706 0.5570 0.7852
vn 0.2480 -0.5876 -0.7702
vn -0.2480 -0.5876 0.7702
vn -0.9146 -0.0000 -0.4044
vn 0.1266 -0.0000 0.9919
vn 0.1471 -0.0105 -0.9891
vn 0.9976 -0.0693 -0.0000
vn 0.9619 -0.2733 -0.0000
vn 0.1266 -0.0000 -0.9919
vn -0.8343 0.5513 -0.0000
vn 0.7240 0.6898 -0.0000
vn 0.5294 -0.8483 -0.0000
vn -0.0000 0.4887 0.8724
vn 0.8305 0.5570 -0.0000
vn -0.1248 -0.0000 -0.9922
vn -0.1248 -0.0000 0.9922
vn -0.1111 -0.0210 -0.9936
vn 0.9146 -0.0000 -0.4044
vn -0.0000 -0.1044 -0.9945
vn 0.0882 -0.0000 0.9961
vn -0.7996 -0.3434 -0.4927
vn -0.0892 -0.0000 0.9960
vn 0.0882 -0.0000 -0.9961
vn 0.9261 -0.3772 -0.0000
vn -0.5407 -0.2150 -0.8133
vn 0.5293 -0.2105 -0.8219
vn 0.8430 -0.5379 -0.0000
vn 0.8886 0.4587 0.0029
vn -0.8522 -0.5233 -0.0000
vn -0.7014 -0.4549 0.5488
vn -0.9746 0.2241 -0.0000
vn 0.1251 -0.0213 0.9919
vn -0.5150 -0.8572 -0.0000
vn 0.9681 0.2504 -0.0000
vn -0.1623 -0.0117 -0.9867
vn -0.1386 -0.0224 0.9901
vn 0.4870 0.8346 0.2574
vn 0.8347 -0.5507 -0.0000
vn -0.4870 0.8346 0.2574
vn -0.0000 0.7576 -0.6527
vn -0.8347 -0.5507 -0.0000
vn 0.9062 -0.4196 -0.0529
vn 0.8745 -0.4239 0.2358
vn -0.2854 -0.3487 0.8927
vn 0.9784 0.2066 -0.0000
vn 0.9423 -0.3217 0.0924
vn -0.8745 -0.4239 -0.2358
vn -0.0000 0.9997 -0.0251
vn 0.0004 -0.4915 0.8709
vn 0.2854 -0.3487 -0.8927
vn 0.9863 0.1109 0.1221
vn 1.0000 -0.0051 0.0014
vn 0.0091 0.9998 0.0186
vn 1.0000 -0.0046 -0.0000
vn 0.0058 1.0000 -0.0000
vn -0.0014 1.0000 0.0028
vn -0.8437 -0.1742 -0.5077
vn 0.0014 1.0000 0.0028
vn -0.0057 1.0000 -0.0000
vn -0.0092 0.9998 0.0187
vn -0.0020 -0.4911 0.8711
vn -0.9062 -0.4196 0.0529
vn 0.0020 -0.4911 -0.8711
vn -0.0000 0.0511 0.9987
vn -0.0101 -0.2992 0.9541
vn 0.0001 0.0001 1.0000
vn -0.9784 0.2066 -0.0000
vn -0.4687 -0.8833 -0.0000
vn -0.9863 0.1109 -0.1221
vn 0.8571 -0.0000 0.5151
vn -0.8437 -0.1742 0.5077
vn 0.8295 -0.0000 -0.5585
vn -1.0000 -0.0000 0.0014
vn -1.0000 -0.0000 -0.0014
vn 0.9699 -0.0000 -0.2436
vn 0.7059 -0.0580 0.7059
vn -0.7059 -0.0586 0.7059
vn -0.9586 -0.0710 -0.2757
vn 0.6695 -0.7428 -0.0000
vn -0.6695 -0.7428 -0.0000
vn 0.5966 -0.5729 0.5619
vn 0.9651 -0.2612 0.0171
vn -0.9651 -0.2612 -0.0171
vn -0.5966 -0.5729 -0.5619
vn 0.6141 -0.5631 -0.5530
vn 0.9769 0.1989 -0.0785
vn -0.9769 0.1989 0.0785
vn -0.6141 -0.5631 0.5530
vn -0.0004 -0.4915 -0.8709
vn -0.0174 -0.4887 0.8723
vn 0.0102 -0.3912 -0.9203
vn -0.0102 -0.3912 0.9203
vn 0.0174 -0.4887 -0.8723
vn -0.1031 0.4043 -0.9088
vn 0.1031 0.4043 0.9088
vn -0.0006 -0.4914 -0.8710
vn 0.0006 -0.4914 0.8710
vn -0.0000 0.0511 -0.9987
vn 0.0101 -0.2992 -0.9541
vn -0.0001 0.0001 -1.0000
vn 0.8480 -0.5294 0.0270
vn 0.9452 -0.2072 0.2524
vn 0.7854 -0.5753 0.2282
vn -0.8479 -0.5294 -0.0270
vn -0.9448 -0.2088 -0.2524
vn -0.7853 -0.5757 -0.2278
vn 0.7324 -0.3262 0.5977
vn 0.9278 0.3711 0.0381
vn 0.8524 -0.5220 -0.0319
vn -0.9278 0.3711 -0.0381
vn -0.8525 -0.5217 0.0318
vn -0.7324 -0.3262 -0.5977
vn 0.7798 -0.1420 -0.6097
vn 0.9073 -0.4141 0.0721
vn -0.9073 -0.4142 -0.0721
vn 0.7792 -0.6250 -0.0460
vn -0.7798 -0.1420 0.6097
vn -0.7792 -0.6250 0.0460
vn 0.0990 -0.7516 -0.6521
vn -0.0985 -0.7499 0.6542
vn -0.0088 -0.4856 0.8742
vn -0.0003 -0.7922 -0.6103
vn -0.0705 -0.7546 -0.6524
vn 0.0003 -0.7904 0.6126
vn 0.0700 -0.7528 0.6546
vn 0.0088 -0.4856 -0.8742
vn 0.0021 -0.4846 -0.8747
vn -0.0021 -0.4846 0.8747
vn -0.0005 -0.4912 -0.8710
vn 0.0005 -0.4912 0.8710
vn 0.4807 0.8744 0.0656
vn -0.9454 -0.3124 -0.0928
vn -0.4809 0.8743 -0.0656
vn 0.9455 -0.3120 0.0929
vn 0.0002 -0.4908 -0.8713
vn -0.0002 -0.4908 0.8713
vn 0.0053 0.3642 -0.9313
vn -0.0053 0.3642 0.9313
vn -0.8498 -0.0598 -0.5237
vn 0.8019 -0.2558 0.5399
vn -0.5614 0.8107 -0.1662
vn 0.8121 -0.3954 -0.4292
vn 0.5614 0.8107 -0.1662
vn -0.8019 -0.2558 0.5399
vt 0.625000 0.750000
vt 0.333327 0.492310
vt 0.343495 0.492312
vt 0.934445 0.859385
vt 0.954782 0.449575
vt 0.954782 0.859384
vt 0.071957 0.701002
vt 0.107936 0.629045
vt 0.143915 0.665024
vt 0.872660 0.654552
vt 0.862493 0.654550
vt 0.000000 0.953839
vt 0.071957 0.976906
vt 0.071957 0.999975
vt 0.025810 0.902229
vt 0.046147 0.902229
vt 0.625000 1.000000
vt 0.625000 0.500000
vt 0.000000 0.000000
vt 0.625000 0.250000
vt 0.625000 0.000000
vt 0.051371 0.398006
vt 0.050289 0.072314
vt 0.080869 0.398006
vt 0.144771 0.397842
vt 0.148027 0.072314
vt 0.197393 0.072314
vt 0.619012 0.784621
vt 0.598852 0.446700
vt 0.616964 0.785176
vt 0.062674 0.466560
vt 0.085184 0.424735
vt 0.112102 0.424735
vt 0.342994 0.397777
vt 0.346297 0.072310
vt 0.395662 0.072310
vt 0.139178 0.068304
vt 0.107058 0.402493
vt 0.161904 0.665024
vt 0.179893 0.647034
vt 0.179893 0.665024
vt 0.257422 0.068301
vt 0.297436 0.067825
vt 0.161904 0.647034
vt 0.680475 0.423773
vt 0.661990 0.045599
vt 0.750474 0.045614
vt 0.115451 0.547802
vt 0.125960 0.500798
vt 0.120606 0.547802
vt 0.234780 0.843142
vt 0.252895 0.466498
vt 0.252769 0.843142
vt 0.669426 0.776345
vt 0.655786 0.451372
vt 0.689188 0.451372
vt 0.442031 0.784394
vt 0.421885 0.446745
vt 0.439983 0.784949
vt 0.763599 0.800869
vt 0.781685 0.423773
vt 0.781589 0.800869
vt 0.644500 0.423767
vt 0.662487 0.423770
vt 0.179893 0.629045
vt 0.684840 0.785050
vt 0.701697 0.446701
vt 0.722982 0.446061
vt 0.143915 0.647034
vt 0.161904 0.629045
vt 0.467570 0.423831
vt 0.485023 0.045599
vt 0.485557 0.423833
vt 0.099197 0.045585
vt 0.123974 0.000000
vt 0.148758 0.000000
vt 0.573506 0.045585
vt 0.661990 0.000014
vt 0.126103 0.624580
vt 0.136755 0.602427
vt 0.180249 0.629045
vt 0.054201 0.046120
vt 0.099190 0.000000
vt 0.136755 0.547802
vt 0.126166 0.500764
vt 0.136755 0.493178
vt 0.126103 0.624580
vt 0.115451 0.602427
vt 0.126034 0.594844
vt 0.385565 0.045863
vt 0.347032 0.000000
vt 0.385558 0.000277
vt 0.706232 0.000022
vt 0.750474 0.000029
vt 0.126040 0.594841
vt 0.115451 0.493178
vt 0.126103 0.471025
vt 0.125954 0.500795
vt 0.126246 0.594807
vt 0.126103 0.471025
vt 0.180249 0.466560
vt 0.305286 0.402434
vt 0.337449 0.068301
vt 0.631160 0.776344
vt 0.644792 0.451372
vt 0.644863 0.776344
vt 0.503544 0.423836
vt 0.573506 0.045612
vt 0.249600 0.397947
vt 0.248561 0.072310
vt 0.279097 0.397947
vt 0.454179 0.776121
vt 0.467825 0.451413
vt 0.467883 0.776121
vt 0.270758 0.843142
vt 0.307519 0.466497
vt 0.614386 0.845756
vt 0.650366 0.805830
vt 0.686346 0.808173
vt 0.260899 0.466498
vt 0.296868 0.424672
vt 0.332807 0.428912
vt 0.507859 0.784820
vt 0.524730 0.446746
vt 0.546015 0.446106
vt 0.799578 0.800869
vt 0.836309 0.423773
vt 0.090293 0.402493
vt 0.099165 0.067828
vt 0.098675 0.402493
vt 0.071957 0.953837
vt 0.379470 0.965392
vt 0.379470 0.953856
vt 0.379470 0.976928
vt 0.071957 0.928033
vt 0.750474 0.088492
vt 0.777156 0.088492
vt 0.777156 0.138065
vt 0.168035 0.000160
vt 0.187312 0.000319
vt 0.777156 0.265477
vt 0.750474 0.265477
vt 0.750474 0.176985
vt 0.272681 0.000000
vt 0.297465 0.000000
vt 0.144191 0.046120
vt 0.396540 0.045586
vt 0.440781 0.000007
vt 0.485023 0.000013
vt 0.208599 0.045863
vt 0.228245 0.000139
vt 0.247897 0.000000
vt 0.573506 0.000027
vt 0.010351 0.045904
vt 0.049622 0.000000
vt 0.252476 0.046121
vt 0.342465 0.046121
vt 0.836309 0.859779
vt 0.862493 0.859515
vt 0.836685 0.911128
vt 0.908675 0.860067
vt 0.908635 0.910988
vt 0.908635 0.423776
vt 0.934445 0.449576
vt 0.908675 0.450258
vt 0.980592 0.423773
vt 0.980633 0.450255
vt 0.343495 0.902234
vt 0.343495 0.953850
vt 0.944614 0.910986
vt 0.872660 0.859516
vt 0.908635 0.911139
vt 0.379470 0.466509
vt 0.908635 0.423784
vt 0.872660 0.449587
vt 0.862493 0.449585
vt 0.307519 0.466498
vt 0.333327 0.697271
vt 0.333327 0.902232
vt 0.908675 0.655162
vt 0.836309 0.449850
vt 0.882828 0.654553
vt 0.000000 0.928035
vt 0.071957 0.466560
vt 0.025810 0.492366
vt 0.000000 0.466562
vt 0.046147 0.492365
vt 0.836685 0.934201
vt 0.121539 0.420248
vt 0.134585 0.428979
vt 0.319764 0.420185
vt 0.310327 0.424672
vt 0.199418 0.068519
vt 0.148829 0.407328
vt 0.075760 0.420248
vt 0.063321 0.428949
vt 0.066501 0.420248
vt 0.273985 0.420185
vt 0.261547 0.428886
vt 0.264727 0.420185
vt 0.397679 0.068502
vt 0.347049 0.407257
vt 0.059150 0.068304
vt -0.002042 0.068462
vt 0.044857 0.408793
vt 0.198271 0.045639
vt 0.152913 0.050072
vt 0.396540 0.045633
vt 0.351186 0.050072
vt -0.000000 0.045639
vt 0.045468 0.050072
vt 0.005377 0.050072
vt 0.198271 0.045633
vt 0.243743 0.050072
vt 0.203652 0.050072
vt 0.116495 0.398006
vt 0.196221 0.068444
vt 0.243085 0.408733
vt 0.314723 0.397947
vt 0.492446 0.776122
vt 0.478819 0.451413
vt 0.512221 0.451413
vt 0.467887 0.798258
vt 0.478881 0.798258
vt 0.473385 0.805585
vt 0.644868 0.798499
vt 0.655862 0.798498
vt 0.473318 0.429276
vt 0.473317 0.424731
vt 0.478815 0.429276
vt 0.644787 0.429217
vt 0.650283 0.424669
vt 0.650284 0.429217
vt 0.460577 0.798258
vt 0.448989 0.805440
vt 0.637558 0.798499
vt 0.625970 0.805685
vt 0.611397 0.451372
vt 0.486191 0.798258
vt 0.663173 0.798499
vt 0.434430 0.451413
vt 0.473317 0.423836
vt 0.438496 0.429276
vt 0.432664 0.423836
vt 0.650283 0.423773
vt 0.615462 0.429217
vt 0.609630 0.423773
vt 0.508140 0.429276
vt 0.685106 0.429217
vt 0.655781 0.429217
vt 0.506318 0.784458
vt 0.478877 0.776121
vt 0.683298 0.784687
vt 0.437405 0.845517
vt 0.509364 0.807924
vt 0.130798 0.420248
vt 0.329023 0.420185
vt 0.193004 0.050072
vt 0.288520 0.402434
vt 0.391277 0.050072
vt 0.000095 0.072314
vt 0.198367 0.072310
vt 0.098643 0.424735
vt 0.283409 0.424672
vt 0.296903 0.402434
vt 0.297471 0.045586
vt 0.655858 0.776344
vt 0.603244 0.424663
vt 0.497729 0.805191
vt 0.674710 0.805437
vt 0.426278 0.424726
vt 0.467821 0.429276
vt 0.520321 0.424731
vt 0.697287 0.424668
vt 0.439905 0.807911
vt 0.616887 0.808155
vt 0.550095 0.423836
vt 0.727061 0.423773
vt 0.401654 0.446141
vt 0.578621 0.446096
vt 0.343495 0.697273
vt 0.353662 0.697274
vt 0.353662 0.492313
vt 0.882828 0.449589
vt 0.882828 0.859518
vt 0.143915 0.701002
vt 0.836685 0.957273
vt 0.980592 0.934051
vt 0.944614 0.934052
vt 0.379470 1.000000
vt 0.908635 0.934054
vt 0.980592 0.910985
vt 0.379470 0.988464
vt 0.143915 0.629045
vt 0.980592 0.957116
vt 0.944614 0.957118
vt 0.908635 0.957119
vt 0.343495 0.999994
vt 0.071957 0.629045
vt 0.307519 0.953844
vt 0.872660 0.911134
vt 0.000000 0.999976
vt 0.107936 0.701002
vt 0.836685 0.922664
vt 0.872660 0.957278
vt 0.000000 0.976908
vt 0.836685 0.945737
vt 0.353662 0.902235
vt 0.763815 0.088492
vt 0.396540 -0.000000
vt 0.208592 0.000277
vt 0.763815 0.265477
vt 0.763815 0.334510
vt 0.750474 0.309723
vt 0.763815 0.299993
vt 0.763815 0.053976
vt 0.777156 0.038920
vt 0.777156 0.063706
vt 0.750474 0.044246
vt 0.763815 0.019460
vt 0.777156 0.315050
vt 0.777156 0.290263
vt 0.134625 0.466560
vt 0.198271 0.466498
vt 0.727061 0.423773
vt 0.573506 -0.000000
vt 0.126252 0.594810
vt 0.131600 0.547802
vt 0.071957 0.629045
vt 0.071957 0.466560
vt 0.126172 0.500761
vt 0.686343 0.845756
vt 0.674710 0.805437
vt 0.332849 0.466498
vt 0.777156 0.215905
vt 0.187319 0.045904
vt 0.010343 0.000319
vt 0.836685 0.423773
vt 0.513970 0.423836
vt 0.690936 0.423773
vt 0.509363 0.845517
vt 0.396540 0.423836
vt 0.573506 0.423773
vt 0.307519 0.999988
vt 0.307519 0.976916
vt 0.908635 0.934211
vt 0.908635 0.957284
vt 0.750474 0.353970
vt 0.750474 -0.000000
s 0
usemtl Material
f 57/1/1 69/1/1 72/1/1
f 56/2/2 199/3/2 212/2/2
f 54/4/3 65/5/3 50/6/3
f 1/7/4 234/8/4 215/9/4
f 208/10/5 206/11/5 209/10/5
f 47/12/6 236/13/6 2/14/6
f 67/15/4 195/16/4 68/16/4
f 58/17/1 5/1/1 6/17/1
f 57/1/1 7/18/1 5/1/1
f 47/19/1 71/18/1 66/18/1
f 8/20/4 10/21/4 12/20/4
f 63/20/1 6/21/1 8/20/1
f 61/18/1 8/20/1 7/18/1
f 61/18/1 72/1/1 71/18/1
f 74/22/7 102/23/7 86/24/7
f 5/1/4 10/17/4 6/17/4
f 7/18/4 12/20/4 11/18/4
f 7/18/4 9/1/4 5/1/4
f 76/25/8 90/26/8 142/27/8
f 77/28/9 129/29/9 118/30/9
f 9/31/10 147/32/10 134/33/10
f 78/34/11 98/35/11 152/36/11
f 91/37/12 83/38/12 213/37/12
f 17/39/1 18/40/1 21/41/1
f 105/42/13 169/43/13 214/42/13
f 20/9/1 15/44/1 17/39/1
f 20/45/14 28/46/14 30/47/14
f 27/48/15 190/49/15 127/50/15
f 22/51/16 27/52/16 18/53/16
f 114/54/17 133/55/17 122/56/17
f 79/57/18 124/58/18 116/59/18
f 20/60/19 29/61/19 19/62/19
f 21/63/14 28/46/14 17/64/14
f 15/44/1 22/65/1 18/40/1
f 81/66/20 123/67/20 97/68/20
f 19/69/1 16/70/1 15/44/1
f 23/71/21 26/72/21 16/73/21
f 24/74/10 270/75/10 39/76/10
f 31/77/10 41/78/10 28/46/10
f 163/79/22 30/80/22 164/81/22
f 155/82/23 35/83/23 24/74/23
f 29/84/24 182/85/24 33/86/24
f 153/87/25 31/88/25 188/89/25
f 31/90/26 40/91/26 43/92/26
f 28/46/10 276/93/10 42/94/10
f 188/95/27 27/48/27 127/50/27
f 32/96/28 95/97/28 190/98/28
f 192/99/24 29/84/24 30/80/24
f 33/86/29 143/100/29 159/101/29
f 85/102/30 169/43/30 99/103/30
f 119/104/31 131/105/31 109/106/31
f 22/107/21 26/72/21 32/108/21
f 80/109/32 104/110/32 88/111/32
f 117/112/33 126/113/33 106/114/33
f 21/115/16 27/52/16 31/116/16
f 10/117/34 111/118/34 148/119/34
f 12/120/35 14/121/35 141/122/35
f 75/123/36 121/124/36 156/125/36
f 23/126/19 29/61/19 33/127/19
f 87/128/37 168/129/37 166/130/37
f 49/131/6 243/13/6 236/13/6
f 238/132/10 223/133/10 226/134/10
f 47/12/6 69/135/6 49/131/6
f 38/136/1 35/137/1 34/138/1
f 277/139/38 293/140/38 45/140/38
f 37/141/1 41/142/1 43/143/1
f 273/144/39 280/145/39 37/145/39
f 159/146/40 277/139/40 45/140/40
f 33/147/39 278/148/39 38/149/39
f 30/150/41 275/151/41 36/152/41
f 26/72/39 44/153/39 32/108/39
f 32/154/42 34/155/42 155/82/42
f 164/156/43 273/144/43 37/145/43
f 161/157/43 37/145/43 40/91/43
f 50/158/44 51/159/44 52/160/44
f 53/161/45 54/4/45 55/162/45
f 58/163/46 59/164/46 60/165/46
f 63/166/47 64/167/47 65/5/47
f 198/168/10 55/133/10 235/169/10
f 50/6/3 216/170/3 55/162/3
f 204/171/39 47/172/39 52/160/39
f 58/173/48 199/3/48 56/2/48
f 63/166/3 59/164/3 58/163/3
f 61/174/49 205/175/49 64/176/49
f 57/177/50 200/178/50 48/179/50
f 54/4/51 201/180/51 60/165/51
f 206/11/52 50/158/52 65/181/52
f 207/182/39 61/174/39 47/172/39
f 68/16/6 66/183/6 67/15/6
f 72/184/6 70/185/6 71/186/6
f 73/187/6 69/135/6 68/16/6
f 71/186/6 67/15/6 66/183/6
f 52/160/1 252/160/1 253/188/1
f 135/189/53 137/190/53 134/33/53
f 139/191/54 141/122/54 138/192/54
f 76/25/55 93/193/55 77/194/55
f 146/195/56 144/196/56 145/197/56
f 150/198/57 148/199/57 149/200/57
f 78/34/58 101/201/58 79/202/58
f 103/203/37 86/24/37 102/23/37
f 156/204/59 74/22/59 75/205/59
f 143/206/60 158/207/60 159/146/60
f 153/208/61 160/209/61 161/157/61
f 95/210/62 154/211/62 157/212/62
f 163/213/63 165/214/63 162/215/63
f 91/37/37 82/216/37 83/38/37
f 97/217/64 80/109/64 81/218/64
f 105/42/30 88/111/30 104/110/30
f 99/103/30 84/219/30 85/102/30
f 112/220/65 128/221/65 120/222/65
f 170/223/66 171/224/66 108/225/66
f 172/226/67 173/227/67 111/118/67
f 175/228/68 127/229/68 174/230/68
f 177/231/69 132/232/69 176/233/69
f 179/234/70 108/225/70 178/235/70
f 181/236/71 111/118/71 180/237/71
f 130/238/72 118/30/72 129/29/72
f 184/239/66 108/225/66 171/224/66
f 186/240/67 111/118/67 173/227/67
f 125/241/73 116/59/73 124/58/73
f 127/242/74 189/243/74 188/244/74
f 132/245/75 183/246/75 182/247/75
f 127/242/68 191/248/68 174/230/68
f 132/245/69 193/249/69 176/250/69
f 120/222/76 113/251/76 112/220/76
f 107/252/77 126/113/77 128/221/77
f 122/56/78 115/253/78 114/54/78
f 133/55/79 109/106/79 131/105/79
f 11/254/80 108/225/80 144/255/80
f 83/38/81 135/189/81 134/33/81
f 82/216/82 136/256/82 135/189/82
f 77/194/83 136/256/83 76/25/83
f 85/102/84 139/191/84 138/192/84
f 84/219/85 140/257/85 139/191/85
f 79/202/86 140/257/86 78/34/86
f 93/193/87 92/258/87 143/206/87
f 75/205/88 145/197/88 144/196/88
f 86/24/89 145/197/89 74/22/89
f 87/128/90 146/195/90 86/24/90
f 81/218/91 149/200/91 148/199/91
f 88/111/92 149/200/92 80/109/92
f 89/259/93 150/198/93 88/111/93
f 101/201/94 100/260/94 153/208/94
f 102/23/37 155/82/37 103/203/37
f 156/204/95 157/212/95 94/261/95
f 90/26/37 159/146/37 158/207/37
f 142/27/96 158/207/96 92/258/96
f 98/35/30 161/157/30 160/209/30
f 152/36/97 160/209/97 100/260/97
f 102/23/37 157/212/37 154/211/37
f 97/217/98 162/215/98 96/262/98
f 104/110/30 164/156/30 105/42/30
f 104/110/30 162/215/30 165/214/30
f 87/128/99 13/263/99 147/32/99
f 83/38/99 13/263/99 166/130/99
f 89/259/100 14/121/100 151/264/100
f 85/102/100 14/121/100 167/265/100
f 91/37/37 24/74/37 159/146/37
f 99/103/30 25/266/30 161/157/30
f 103/203/37 24/74/37 168/129/37
f 105/42/30 25/266/30 169/43/30
f 106/114/101 171/224/101 170/223/101
f 110/267/102 172/226/102 109/106/102
f 126/113/77 174/230/77 128/221/77
f 131/105/79 176/250/79 133/55/79
f 117/112/103 178/235/103 116/59/103
f 106/114/104 179/234/104 117/112/104
f 119/104/105 180/237/105 118/30/105
f 109/106/106 181/236/106 119/104/106
f 130/238/107 182/268/107 183/246/107
f 107/252/101 184/239/101 171/224/101
f 112/220/108 185/269/108 184/239/108
f 110/267/102 186/240/102 173/227/102
f 114/54/109 187/270/109 186/240/109
f 125/241/110 188/271/110 189/243/110
f 126/113/77 189/243/77 175/272/77
f 131/105/79 183/246/79 177/231/79
f 120/222/111 190/273/111 121/124/111
f 128/221/112 191/248/112 120/222/112
f 122/56/113 192/274/113 123/67/113
f 133/55/114 193/249/114 122/56/114
f 79/57/115 178/235/115 141/275/115
f 113/251/116 144/255/116 185/269/116
f 77/28/117 180/237/117 137/276/117
f 115/253/118 148/119/118 187/270/118
f 121/124/119 95/277/119 156/125/119
f 123/67/120 163/278/120 97/68/120
f 101/279/121 188/271/121 124/58/121
f 93/280/122 182/268/122 129/29/122
f 194/15/123 197/185/123 210/15/123
f 68/16/10 196/187/10 73/187/10
f 70/185/39 194/15/39 67/15/39
f 73/187/1 197/185/1 70/185/1
f 60/165/124 201/180/124 203/165/124
f 198/168/125 202/281/125 272/168/125
f 48/179/126 202/281/126 198/168/126
f 201/282/127 202/281/127 203/282/127
f 202/281/128 199/3/128 203/281/128
f 199/3/129 60/283/129 203/3/129
f 205/175/130 62/284/130 211/175/130
f 204/171/39 207/182/39 46/285/39
f 204/171/131 51/159/131 269/171/131
f 197/185/132 196/187/132 210/185/132
f 64/176/133 205/175/133 209/176/133
f 205/175/134 208/10/134 209/175/134
f 206/11/135 64/176/135 209/11/135
f 62/284/136 207/182/136 211/284/136
f 196/187/137 195/16/137 210/187/137
f 195/16/138 194/15/138 210/16/138
f 199/3/139 202/281/139 212/3/139
f 207/182/140 208/10/140 211/182/140
f 208/10/141 205/175/141 211/10/141
f 200/178/142 56/2/142 212/178/142
f 202/281/143 200/178/143 212/281/143
f 169/43/144 167/265/144 214/43/144
f 166/130/145 168/129/145 213/130/145
f 83/38/146 166/130/146 213/38/146
f 168/129/147 91/37/147 213/129/147
f 167/265/148 89/259/148 214/265/148
f 89/259/149 105/42/149 214/259/149
f 215/9/4 227/286/4 3/286/4
f 3/287/39 224/188/39 217/188/39
f 216/170/1 223/162/1 55/162/1
f 222/170/3 224/288/3 228/289/3
f 226/134/10 229/290/10 221/290/10
f 228/289/1 230/291/1 226/291/1
f 223/162/3 228/289/3 226/291/3
f 217/188/39 225/160/39 52/160/39
f 52/292/1 222/170/1 216/170/1
f 237/293/10 226/134/10 221/290/10
f 4/294/4 220/9/4 215/9/4
f 233/289/3 231/295/3 219/296/3
f 230/291/3 219/296/3 229/297/3
f 224/288/1 233/289/1 228/289/1
f 227/287/39 232/188/39 224/188/39
f 220/9/4 231/286/4 227/286/4
f 221/294/4 219/9/4 220/9/4
f 241/169/10 244/293/10 239/298/10
f 237/293/3 247/134/3 218/134/3
f 2/299/4 239/8/4 234/8/4
f 234/8/4 245/294/4 4/294/4
f 238/132/3 248/133/3 55/133/3
f 55/133/1 241/169/1 235/169/1
f 218/134/3 246/132/3 238/132/3
f 236/13/6 240/14/6 2/14/6
f 235/169/1 242/300/1 49/300/1
f 4/290/3 244/293/3 237/293/3
f 251/172/1 261/301/1 255/301/1
f 1/302/1 249/302/1 251/12/1
f 217/188/1 253/188/1 250/287/1
f 1/7/1 3/286/1 254/303/1
f 52/160/1 47/172/1 255/301/1
f 263/304/39 261/301/39 259/305/39
f 255/301/1 262/160/1 252/160/1
f 256/304/3 267/188/3 253/188/3
f 252/160/3 263/304/3 256/304/3
f 257/306/6 268/12/6 251/12/6
f 249/302/6 264/306/6 257/306/6
f 254/303/4 265/7/4 249/7/4
f 250/286/4 259/303/4 254/303/4
f 258/307/3 260/287/3 250/287/3
f 253/188/3 266/307/3 258/307/3
f 206/11/150 208/10/150 269/11/150
f 201/180/151 53/161/151 272/180/151
f 53/308/152 198/168/152 272/308/152
f 202/281/153 201/282/153 272/281/153
f 38/136/6 281/309/6 271/309/6
f 208/10/154 204/171/154 269/10/154
f 51/159/155 206/11/155 269/159/155
f 45/310/39 291/148/39 278/148/39
f 41/78/10 289/93/10 276/93/10
f 35/83/10 283/75/10 270/75/10
f 42/311/41 287/151/41 275/151/41
f 37/141/6 285/312/6 274/312/6
f 287/313/156 289/314/156 296/315/156
f 295/316/157 284/317/157 283/318/157
f 291/319/1 281/309/1 292/136/1
f 281/309/1 283/318/1 282/137/1
f 291/319/158 290/320/158 295/316/158
f 285/312/1 289/314/1 286/142/1
f 280/141/159 296/315/159 285/312/159
f 294/321/160 296/315/160 279/322/160
f 271/309/6 282/137/6 35/137/6
f 276/93/10 288/94/10 42/94/10
f 270/75/10 284/76/10 39/76/10
f 36/152/39 279/144/39 273/144/39
f 39/76/38 290/139/38 277/139/38
f 275/151/41 294/152/41 36/152/41
f 274/312/6 286/142/6 41/142/6
f 278/148/39 292/149/39 38/149/39
f 57/1/39 49/19/39 69/1/39
f 54/4/3 59/164/3 65/5/3
f 215/9/4 3/286/4 1/7/4
f 1/7/4 2/299/4 234/8/4
f 234/8/4 4/294/4 215/9/4
f 2/14/6 1/302/6 47/12/6
f 47/12/6 49/131/6 236/13/6
f 67/15/4 194/15/4 195/16/4
f 58/17/1 57/1/1 5/1/1
f 57/1/1 61/18/1 7/18/1
f 47/19/1 61/18/1 71/18/1
f 8/20/4 6/21/4 10/21/4
f 63/20/1 58/21/1 6/21/1
f 61/18/1 63/20/1 8/20/1
f 61/18/1 57/1/1 72/1/1
f 74/22/161 94/261/161 102/23/161
f 5/1/4 9/1/4 10/17/4
f 7/18/4 8/20/4 12/20/4
f 7/18/4 11/18/4 9/1/4
f 76/25/162 82/216/162 90/26/162
f 77/28/163 93/280/163 129/29/163
f 137/190/164 10/323/164 9/31/164
f 9/31/10 144/196/10 147/32/10
f 147/32/4 13/263/4 134/33/4
f 134/33/165 137/190/165 9/31/165
f 78/34/166 84/219/166 98/35/166
f 17/39/1 15/44/1 18/40/1
f 20/9/1 19/69/1 15/44/1
f 20/45/14 17/64/14 28/46/14
f 27/48/167 32/96/167 190/49/167
f 22/51/16 32/324/16 27/52/16
f 114/54/168 110/267/168 133/55/168
f 79/57/169 101/279/169 124/58/169
f 20/60/19 30/325/19 29/61/19
f 21/63/14 31/77/14 28/46/14
f 15/44/1 16/70/1 22/65/1
f 81/66/170 115/253/170 123/67/170
f 19/69/1 23/294/1 16/70/1
f 23/71/21 33/147/21 26/72/21
f 39/76/171 159/146/171 24/74/171
f 24/74/10 35/83/10 270/75/10
f 31/77/10 43/326/10 41/78/10
f 163/79/172 192/327/172 30/80/172
f 155/82/173 34/155/173 35/83/173
f 29/84/174 132/328/174 182/85/174
f 153/87/175 161/329/175 31/88/175
f 31/90/176 161/157/176 40/91/176
f 42/94/10 30/47/10 28/46/10
f 28/46/10 41/78/10 276/93/10
f 188/95/167 31/88/167 27/48/167
f 32/96/177 155/330/177 95/97/177
f 192/99/178 132/328/178 29/84/178
f 33/86/179 182/331/179 143/100/179
f 85/102/30 167/265/30 169/43/30
f 119/104/180 130/238/180 131/105/180
f 22/107/21 16/73/21 26/72/21
f 80/109/181 96/262/181 104/110/181
f 117/112/182 125/241/182 126/113/182
f 21/115/16 18/53/16 27/52/16
f 148/119/183 12/332/183 10/117/183
f 10/117/3 137/276/3 180/237/3
f 111/118/184 187/333/184 148/119/184
f 10/117/185 180/237/185 111/118/185
f 141/122/186 11/334/186 12/120/186
f 12/120/39 148/199/39 151/264/39
f 14/121/187 138/192/187 141/122/187
f 12/120/39 151/264/39 14/121/39
f 75/123/188 113/251/188 121/124/188
f 23/126/19 19/62/19 29/61/19
f 87/128/37 103/203/37 168/129/37
f 49/131/6 242/131/6 243/13/6
f 226/134/10 218/134/10 238/132/10
f 238/132/10 55/133/10 223/133/10
f 47/12/6 66/183/6 69/135/6
f 34/138/1 44/143/1 38/136/1
f 38/136/1 271/309/1 35/137/1
f 277/139/38 290/139/38 293/140/38
f 43/143/1 40/335/1 37/141/1
f 37/141/1 274/312/1 41/142/1
f 273/144/39 279/144/39 280/145/39
f 45/140/189 33/336/189 159/146/189
f 159/146/40 39/76/40 277/139/40
f 38/149/39 26/72/39 33/147/39
f 33/147/39 45/310/39 278/148/39
f 36/152/190 164/156/190 30/150/190
f 30/150/41 42/311/41 275/151/41
f 26/72/39 38/149/39 44/153/39
f 32/154/191 44/337/191 34/155/191
f 37/145/192 25/266/192 164/156/192
f 164/156/43 36/152/43 273/144/43
f 161/157/193 25/266/193 37/145/193
f 49/300/10 48/179/10 198/168/10
f 198/168/10 53/308/10 55/133/10
f 235/169/10 49/300/10 198/168/10
f 55/162/3 54/4/3 50/6/3
f 50/6/3 52/292/3 216/170/3
f 52/160/39 51/159/39 204/171/39
f 204/171/39 46/285/39 47/172/39
f 56/2/48 57/177/48 58/173/48
f 58/173/48 60/283/48 199/3/48
f 63/166/3 65/5/3 59/164/3
f 64/176/49 63/338/49 61/174/49
f 61/174/49 62/284/49 205/175/49
f 48/179/10 49/300/10 57/177/10
f 57/177/194 56/2/194 200/178/194
f 60/165/51 59/164/51 54/4/51
f 54/4/195 53/161/195 201/180/195
f 65/181/52 64/176/52 206/11/52
f 206/11/196 51/159/196 50/158/196
f 47/172/39 46/285/39 207/182/39
f 207/182/197 62/284/197 61/174/197
f 68/16/6 69/135/6 66/183/6
f 72/184/6 73/187/6 70/185/6
f 73/187/6 72/184/6 69/135/6
f 71/186/6 70/185/6 67/15/6
f 253/188/1 217/188/1 52/160/1
f 252/160/1 256/304/1 253/188/1
f 135/189/198 136/256/198 137/190/198
f 139/191/199 140/257/199 141/122/199
f 76/25/200 142/27/200 93/193/200
f 146/195/201 147/32/201 144/196/201
f 150/198/202 151/264/202 148/199/202
f 78/34/203 152/36/203 101/201/203
f 103/203/37 87/128/37 86/24/37
f 156/204/204 94/261/204 74/22/204
f 143/206/62 92/258/62 158/207/62
f 153/208/63 100/260/63 160/209/63
f 95/210/205 155/82/205 154/211/205
f 163/213/206 164/156/206 165/214/206
f 91/37/37 90/26/37 82/216/37
f 97/217/207 96/262/207 80/109/207
f 105/42/30 89/259/30 88/111/30
f 99/103/30 98/35/30 84/219/30
f 112/220/208 107/252/208 128/221/208
f 179/234/66 170/223/66 108/225/66
f 181/236/67 172/226/67 111/118/67
f 130/238/209 119/104/209 118/30/209
f 184/239/210 185/269/210 108/225/210
f 186/240/211 187/333/211 111/118/211
f 125/241/212 117/112/212 116/59/212
f 127/242/68 175/272/68 189/243/68
f 132/245/69 177/231/69 183/246/69
f 127/242/213 190/339/213 191/248/213
f 132/245/214 192/340/214 193/249/214
f 120/222/215 121/124/215 113/251/215
f 107/252/77 106/114/77 126/113/77
f 122/56/216 123/67/216 115/253/216
f 133/55/79 110/267/79 109/106/79
f 144/255/217 9/341/217 11/254/217
f 11/254/6 141/275/6 178/235/6
f 108/225/218 185/269/218 144/255/218
f 11/254/219 178/235/219 108/225/219
f 83/38/220 82/216/220 135/189/220
f 82/216/221 76/25/221 136/256/221
f 77/194/222 137/190/222 136/256/222
f 85/102/223 84/219/223 139/191/223
f 84/219/224 78/34/224 140/257/224
f 79/202/225 141/122/225 140/257/225
f 93/193/226 142/27/226 92/258/226
f 75/205/227 74/22/227 145/197/227
f 86/24/82 146/195/82 145/197/82
f 87/128/228 147/32/228 146/195/228
f 81/218/229 80/109/229 149/200/229
f 88/111/85 150/198/85 149/200/85
f 89/259/230 151/264/230 150/198/230
f 101/201/231 152/36/231 100/260/231
f 102/23/37 154/211/37 155/82/37
f 156/204/232 95/210/232 157/212/232
f 90/26/37 91/37/37 159/146/37
f 142/27/233 90/26/233 158/207/233
f 98/35/30 99/103/30 161/157/30
f 152/36/234 98/35/234 160/209/234
f 102/23/235 94/261/235 157/212/235
f 97/217/236 163/213/236 162/215/236
f 104/110/30 165/214/30 164/156/30
f 104/110/237 96/262/237 162/215/237
f 87/128/99 166/130/99 13/263/99
f 83/38/99 134/33/99 13/263/99
f 89/259/100 167/265/100 14/121/100
f 85/102/100 138/192/100 14/121/100
f 91/37/37 168/129/37 24/74/37
f 99/103/30 169/43/30 25/266/30
f 103/203/37 155/82/37 24/74/37
f 105/42/30 164/156/30 25/266/30
f 106/114/101 107/252/101 171/224/101
f 110/267/102 173/227/102 172/226/102
f 126/113/77 175/272/77 174/230/77
f 131/105/79 177/231/79 176/250/79
f 117/112/238 179/234/238 178/235/238
f 106/114/101 170/223/101 179/234/101
f 119/104/239 181/236/239 180/237/239
f 109/106/102 172/226/102 181/236/102
f 130/238/240 129/29/240 182/268/240
f 107/252/241 112/220/241 184/239/241
f 112/220/242 113/251/242 185/269/242
f 110/267/243 114/54/243 186/240/243
f 114/54/244 115/253/244 187/270/244
f 125/241/245 124/58/245 188/271/245
f 126/113/246 125/241/246 189/243/246
f 131/105/247 130/238/247 183/246/247
f 120/222/248 191/248/248 190/273/248
f 128/221/77 174/230/77 191/248/77
f 122/56/249 193/249/249 192/274/249
f 133/55/79 176/250/79 193/249/79
f 79/57/250 116/59/250 178/235/250
f 113/251/251 75/123/251 144/255/251
f 77/28/252 118/30/252 180/237/252
f 115/253/253 81/66/253 148/119/253
f 121/124/254 190/273/254 95/277/254
f 123/67/255 192/274/255 163/278/255
f 101/279/256 153/342/256 188/271/256
f 93/280/257 143/343/257 182/268/257
f 68/16/10 195/16/10 196/187/10
f 70/185/39 197/185/39 194/15/39
f 73/187/1 196/187/1 197/185/1
f 48/179/126 200/178/126 202/281/126
f 204/171/258 208/10/258 207/182/258
f 215/9/4 220/9/4 227/286/4
f 3/287/39 227/287/39 224/188/39
f 216/170/1 222/170/1 223/162/1
f 222/170/3 225/292/3 224/288/3
f 226/134/10 230/134/10 229/290/10
f 228/289/1 233/289/1 230/291/1
f 223/162/3 222/170/3 228/289/3
f 217/188/39 224/188/39 225/160/39
f 52/292/1 225/292/1 222/170/1
f 221/290/10 4/290/10 237/293/10
f 237/293/10 218/134/10 226/134/10
f 4/294/4 221/294/4 220/9/4
f 233/289/3 232/288/3 231/295/3
f 230/291/3 233/289/3 219/296/3
f 224/288/1 232/288/1 233/289/1
f 227/287/39 231/287/39 232/188/39
f 220/9/4 219/9/4 231/286/4
f 221/294/4 229/294/4 219/9/4
f 239/298/10 240/344/10 243/345/10
f 243/345/10 242/300/10 241/169/10
f 241/169/10 248/133/10 246/132/10
f 241/169/10 246/132/10 247/134/10
f 239/298/10 243/345/10 241/169/10
f 244/293/10 245/290/10 239/298/10
f 241/169/10 247/134/10 244/293/10
f 237/293/3 244/293/3 247/134/3
f 2/299/4 240/299/4 239/8/4
f 234/8/4 239/8/4 245/294/4
f 238/132/3 246/132/3 248/133/3
f 55/133/1 248/133/1 241/169/1
f 218/134/3 247/134/3 246/132/3
f 236/13/6 243/13/6 240/14/6
f 235/169/1 241/169/1 242/300/1
f 4/290/3 245/290/3 244/293/3
f 251/172/1 268/172/1 261/301/1
f 251/12/1 47/12/1 1/302/1
f 249/302/1 257/306/1 251/12/1
f 250/287/1 3/287/1 217/188/1
f 253/188/1 258/307/1 250/287/1
f 3/286/1 250/286/1 254/303/1
f 254/303/1 249/7/1 1/7/1
f 47/172/1 251/172/1 255/301/1
f 255/301/1 252/160/1 52/160/1
f 259/305/39 260/287/39 266/307/39
f 259/305/39 266/307/39 267/188/39
f 264/346/39 265/347/39 259/305/39
f 261/301/39 268/172/39 264/346/39
f 263/304/39 262/160/39 261/301/39
f 259/305/39 267/188/39 263/304/39
f 261/301/39 264/346/39 259/305/39
f 255/301/1 261/301/1 262/160/1
f 256/304/3 263/304/3 267/188/3
f 252/160/3 262/160/3 263/304/3
f 257/306/6 264/306/6 268/12/6
f 249/302/6 265/302/6 264/306/6
f 254/303/4 259/303/4 265/7/4
f 250/286/4 260/286/4 259/303/4
f 258/307/3 266/307/3 260/287/3
f 253/188/3 267/188/3 266/307/3
f 38/136/6 292/136/6 281/309/6
f 45/310/39 293/310/39 291/148/39
f 41/78/10 286/78/10 289/93/10
f 35/83/10 282/83/10 283/75/10
f 42/311/41 288/311/41 287/151/41
f 37/141/6 280/141/6 285/312/6
f 287/313/1 288/348/1 289/314/1
f 295/316/259 290/320/259 284/317/259
f 291/319/260 295/316/260 281/309/260
f 281/309/261 295/316/261 283/318/261
f 291/319/1 293/349/1 290/320/1
f 285/312/262 296/315/262 289/314/262
f 280/141/160 279/322/160 296/315/160
f 294/321/263 287/313/263 296/315/263
f 271/309/6 281/309/6 282/137/6
f 276/93/10 289/93/10 288/94/10
f 270/75/10 283/75/10 284/76/10
f 36/152/39 294/152/39 279/144/39
f 39/76/38 284/76/38 290/139/38
f 275/151/41 287/151/41 294/152/41
f 274/312/6 285/312/6 286/142/6
f 278/148/39 291/148/39 292/149/39
