# Blender 4.1.1
# www.blender.org
mtllib pinball-flipper2.mtl
g Cube_Mesh
v 1.989135 -0.314180 0.837745
v 1.989134 0.309870 0.837745
v 2.015510 -0.314180 -0.720275
v 2.015510 0.309870 -0.720275
v -2.161855 -0.152957 0.506849
v -1.679157 -0.197067 0.521891
v -2.161853 0.148648 0.506849
v -1.678139 0.192762 0.521927
v -2.141616 -0.152952 -0.688558
v -1.657967 -0.193856 -0.669657
v -1.656551 0.197213 -0.669938
v -2.141542 0.148880 -0.688616
v 2.018540 -0.444124 0.059319
v 2.018540 0.439814 0.059319
v -1.676067 0.553994 -0.073906
v -2.189598 0.256849 -0.092218
v -1.679697 -0.557533 -0.073880
v -2.189654 -0.261159 -0.092220
v -0.878273 0.265176 0.609921
v -0.881532 -0.269461 0.609810
v -0.856066 -0.259182 -0.701861
v -0.850917 0.281334 -0.703248
v -0.872921 -0.759423 -0.044914
v -0.860499 0.758395 -0.045120
v 0.146920 -0.341059 0.716892
v 0.177088 -0.323527 -0.736638
v 0.157244 -0.860531 -0.007964
v 0.152478 0.336797 0.717081
v 0.187235 0.368596 -0.740088
v 0.180041 0.863163 -0.008480
v 1.014005 -0.456504 0.831277
v 1.045811 -0.442628 -0.787540
v 1.027536 -0.913676 0.023632
v 1.018404 0.452194 0.831435
v 1.052315 0.472615 -0.789050
v 1.042952 0.909809 0.024069
v 1.657749 -0.538599 0.916922
v 1.687207 -0.538599 -0.823208
v 1.672519 -0.916643 0.046858
v 1.657749 0.534289 0.916922
v 1.687255 0.534437 -0.823246
v 1.672566 0.912333 0.046860
v 1.856214 -0.474480 0.880242
v 1.884189 -0.474480 -0.772287
v 1.872383 -0.855629 0.054056
v 1.856214 0.470169 0.880242
v 1.884189 0.470169 -0.772287
v 1.872383 0.851319 0.054056
v 1.425382 0.519091 0.904036
v 1.456918 0.526029 -0.828832
v 1.442376 0.913418 0.038571
v 1.425242 -0.523401 0.904031
v 1.454690 -0.522957 -0.827181
v 1.439895 -0.917728 0.038482
v 2.008550 0.421053 0.525370
v -2.190348 0.230950 0.275817
v -1.683597 -0.468206 0.291756
v 2.008550 -0.425364 0.525370
v -1.680958 0.463993 0.291828
v -2.190404 -0.235259 0.275815
v -0.870019 0.639652 0.352847
v -0.879304 -0.643522 0.352617
v 0.149934 -0.753012 0.424327
v 0.167459 0.749711 0.424714
v 1.019668 -0.834571 0.488355
v 1.030683 0.830261 0.488751
v 1.664299 -0.908021 0.532393
v 1.664346 0.903711 0.532395
v 1.864316 -0.801531 0.525727
v 1.864316 0.797220 0.525727
v 1.434020 0.903922 0.523866
v 1.431679 -0.908232 0.523782
v 2.024331 -0.425364 -0.406884
v -1.667579 0.467112 -0.440029
v -2.177950 -0.235259 -0.459860
v 2.024331 0.421053 -0.406884
v -2.177893 0.230953 -0.459859
v -1.671005 -0.467533 -0.439478
v -0.864934 -0.640680 -0.442937
v -0.853392 0.649516 -0.444497
v 0.166469 -0.747080 -0.441279
v 0.187416 0.766281 -0.443604
v 1.035545 -0.834128 -0.441203
v 1.050880 0.844137 -0.444232
v 1.680738 -0.908021 -0.438676
v 1.680786 0.903711 -0.438675
v 1.880286 -0.801531 -0.417621
v 1.880286 0.797220 -0.417622
v 1.450593 0.904366 -0.446847
v 1.448110 -0.908232 -0.446819
vn 0.8942 0.3339 -0.2981
vn -0.0787 -0.5586 -0.8257
vn -0.0411 -0.0022 -0.9992
vn 0.9996 -0.0000 -0.0281
vn -0.9925 -0.0000 0.1224
vn -0.3792 0.8502 -0.3653
vn 0.0386 -0.0009 -0.9993
vn -0.0311 -0.0000 0.9995
vn -0.4002 -0.8466 0.3510
vn 0.3045 -0.0000 0.9525
vn -0.4127 -0.9076 -0.0771
vn -0.4120 0.8860 0.2125
vn -0.9995 0.0001 -0.0318
vn 0.9998 -0.0000 0.0214
vn -0.2245 -0.9365 0.2694
vn 0.9407 0.3348 0.0545
vn -0.2443 0.9424 0.2286
vn -0.1191 -0.9640 0.2377
vn -0.1094 0.0005 0.9940
vn -0.0351 -0.0045 -0.9994
vn -0.0631 -0.5698 -0.8194
vn -0.1471 0.6379 -0.7559
vn -0.1334 -0.6547 -0.7440
vn -0.0564 -0.0012 -0.9984
vn -0.1041 -0.9808 0.1652
vn -0.1059 0.9536 0.2820
vn -0.1034 0.0006 0.9946
vn -0.0771 0.5729 -0.8160
vn -0.1773 -0.9840 0.0163
vn -0.0977 -0.0009 -0.9952
vn -0.2026 -0.6862 -0.6986
vn -0.0617 0.9660 0.2512
vn -0.1310 0.0005 0.9914
vn -0.1164 0.5937 -0.7962
vn 0.4216 -0.6689 -0.6122
vn 0.2505 -0.0000 -0.9681
vn 0.2863 -0.9513 0.1140
vn 0.0040 0.9998 0.0196
vn -0.0554 -0.0000 0.9985
vn -0.0089 0.7104 -0.7038
vn 0.9332 -0.3578 0.0344
vn 0.3682 -0.0000 -0.9297
vn 0.7882 -0.5726 -0.2253
vn 0.4705 0.8821 0.0236
vn 0.1817 -0.0000 0.9833
vn 0.3831 0.6695 -0.6364
vn -0.1067 0.6762 -0.7290
vn -0.1756 -0.0000 0.9845
vn -0.0150 0.9856 0.1683
vn 0.0249 -0.7211 -0.6924
vn 0.0243 -0.0016 -0.9997
vn 0.0003 -0.9998 0.0178
vn -0.0852 -0.7192 0.6895
vn -0.1843 0.6634 0.7253
vn 0.3392 0.6755 0.6547
vn 0.7766 -0.5767 0.2535
vn -0.0257 0.7028 0.7109
vn 0.3806 -0.6753 0.6317
vn -0.1138 0.5769 0.8089
vn -0.2335 -0.6854 0.6897
vn -0.1165 0.5639 0.8176
vn -0.1840 -0.6619 0.7267
vn -0.1242 -0.5751 0.8086
vn -0.1936 0.6335 0.7491
vn 0.8810 0.3375 0.3315
vn -0.1408 -0.5615 0.8154
vn 0.9981 -0.0000 0.0620
vn -0.0825 0.6442 0.7604
vn -0.5032 -0.8621 0.0596
vn -1.0000 0.0001 -0.0020
vn 0.0053 -0.9998 -0.0177
vn -0.0039 0.9903 -0.1389
vn 0.4715 0.8818 -0.0077
vn 0.9339 -0.3575 -0.0028
vn 0.0035 0.9998 -0.0186
vn 0.2938 -0.9502 -0.1041
vn -0.0878 0.9720 -0.2179
vn -0.1770 -0.9840 -0.0223
vn -0.1073 0.9587 -0.2633
vn -0.0982 -0.9806 -0.1695
vn -0.2139 0.9493 -0.2302
vn -0.0854 -0.9634 -0.2541
vn -0.9876 0.0002 -0.1570
vn -0.0244 -0.6428 -0.7656
vn -0.4837 0.8490 -0.2127
vn 0.9999 -0.0000 0.0124
vn -0.2233 -0.9328 -0.2828
vn 0.9422 0.3344 -0.0226
vn 0.7882 0.5726 -0.2253
vn -0.1393 -0.6335 -0.7611
vn -0.0402 -0.0006 -0.9992
vn -0.9925 0.0001 0.1226
vn -0.0352 0.6472 -0.7615
vn 0.0390 -0.0002 -0.9992
vn -0.0312 -0.0000 0.9995
vn -0.0826 -0.6441 0.7605
vn -0.4842 -0.8468 -0.2200
vn -0.5015 0.8631 0.0597
vn -0.2441 -0.9426 0.2277
vn 0.9332 0.3578 0.0344
vn -0.2232 0.9355 0.2738
vn -0.1037 -0.9553 0.2769
vn -0.1095 0.0002 0.9940
vn -0.0338 -0.0022 -0.9994
vn -0.0564 -0.5598 -0.8267
vn -0.0934 0.5721 -0.8149
vn -0.0570 -0.5701 -0.8196
vn -0.0591 -0.0041 -0.9982
vn -0.0678 -0.9685 0.2397
vn -0.1192 0.9613 0.2483
vn -0.1035 0.0004 0.9946
vn -0.0662 0.5964 -0.7999
vn -0.0157 -0.9857 0.1675
vn -0.0968 -0.0014 -0.9953
vn -0.1278 -0.6553 -0.7445
vn -0.1038 0.9808 0.1652
vn -0.1307 0.0008 0.9914
vn -0.0617 0.6788 -0.7317
vn 0.3825 -0.6695 -0.6367
vn 0.2503 -0.0000 -0.9682
vn 0.4704 -0.8821 0.0236
vn 0.0003 0.9998 0.0178
vn 0.0266 0.7213 -0.6921
vn 0.9407 -0.3348 0.0545
vn 0.8942 -0.3339 -0.2981
vn 0.2864 0.9513 0.1140
vn 0.4217 0.6689 -0.6122
vn -0.1608 0.6999 -0.6959
vn -0.1741 0.0007 0.9847
vn -0.1810 0.9834 0.0161
vn -0.0351 -0.7018 -0.7115
vn 0.0171 -0.0000 -0.9999
vn 0.0040 -0.9998 0.0196
vn -0.0257 -0.7028 0.7109
vn -0.2356 0.6857 0.6887
vn 0.3807 0.6753 0.6317
vn 0.8810 -0.3375 0.3315
vn -0.0853 0.7192 0.6895
vn 0.3392 -0.6755 0.6547
vn -0.1842 0.6634 0.7253
vn -0.1809 -0.6622 0.7271
vn -0.1240 0.5764 0.8077
vn -0.1136 -0.5758 0.8096
vn -0.1169 -0.5632 0.8180
vn -0.1406 0.5624 0.8148
vn 0.7766 0.5767 0.2535
vn -0.1947 -0.6329 0.7494
vn -0.3987 0.8473 0.3510
vn -0.4136 -0.8854 0.2119
vn 0.0016 -0.9998 -0.0195
vn -0.1491 0.9886 -0.0210
vn 0.2939 0.9502 -0.1041
vn 0.9422 -0.3344 -0.0226
vn 0.0054 0.9998 -0.0177
vn 0.4714 -0.8819 -0.0077
vn -0.0482 0.9890 -0.1395
vn -0.0036 -0.9857 -0.1687
vn -0.0902 0.9718 -0.2179
vn -0.0498 -0.9659 -0.2540
vn -0.2261 0.9388 -0.2600
vn -0.0979 -0.9531 -0.2863
vn -0.9876 0.0001 -0.1569
vn -0.3754 -0.8515 -0.3661
vn -0.4163 0.9060 -0.0771
vn -0.2049 -0.9493 -0.2386
vn 0.9339 0.3575 -0.0028
vt 1.001849 0.424149
vt 0.967098 0.365472
vt 0.967597 0.423245
vt 0.315542 0.435220
vt 0.126296 0.402953
vt 0.316607 0.393007
vt 0.316607 0.520838
vt 0.126631 0.484151
vt 0.317824 0.477389
vt 0.541337 0.534196
vt 0.490358 0.475095
vt 0.541337 0.466158
vt 0.677215 0.481439
vt 0.714667 0.512299
vt 0.714667 0.488055
vt 0.124936 0.440400
vt 0.011377 0.402701
vt 0.003664 0.440163
vt 0.126296 0.515587
vt 0.011377 0.488036
vt 0.126054 0.515845
vt 0.011359 0.488055
vt 0.011359 0.512299
vt 0.124074 0.559652
vt 0.011359 0.597480
vt 0.003650 0.560028
vt 0.967098 0.538144
vt 0.998494 0.475095
vt 0.967098 0.462210
vt 0.124125 0.440510
vt 0.002348 0.500096
vt 0.003650 0.440164
vt 0.124392 0.500066
vt 0.003663 0.560028
vt 0.124701 0.559648
vt 0.557351 0.518915
vt 0.617283 0.479357
vt 0.557351 0.481439
vt 0.693229 0.534196
vt 0.617283 0.464650
vt 0.693229 0.466158
vt 0.315246 0.500078
vt 0.315328 0.564846
vt 0.967597 0.576946
vt 1.002348 0.500096
vt 0.967617 0.500096
vt 0.318195 0.499971
vt 0.560044 0.500054
vt 0.560046 0.570487
vt 0.126296 0.484509
vt 0.315833 0.521664
vt 0.316607 0.478688
vt 0.561828 0.526010
vt 0.564223 0.470375
vt 0.560493 0.429442
vt 0.561828 0.381287
vt 0.318277 0.434898
vt 0.126631 0.402899
vt 0.766888 0.424359
vt 0.767933 0.367904
vt 0.767933 0.535584
vt 0.769472 0.462013
vt 0.766854 0.500096
vt 0.766854 0.575813
vt 0.317534 0.564829
vt 0.565457 0.499836
vt 0.560507 0.527420
vt 0.561828 0.472931
vt 0.564223 0.380665
vt 0.317824 0.392751
vt 0.864844 0.500096
vt 0.864844 0.579166
vt 0.865400 0.457720
vt 0.864844 0.421025
vt 0.864877 0.359052
vt 0.564210 0.570447
vt 0.770517 0.500076
vt 0.766888 0.536699
vt 0.767933 0.463655
vt 0.565458 0.428941
vt 0.769472 0.367620
vt 0.920123 0.420987
vt 0.920113 0.543299
vt 0.920124 0.457044
vt 0.920123 0.500096
vt 0.865400 0.579166
vt 0.920134 0.500096
vt 0.865433 0.500096
vt 0.864877 0.458277
vt 0.920113 0.457056
vt 0.865433 0.421006
vt 0.920124 0.358329
vt 0.865400 0.358770
vt 1.001849 0.576042
vt 0.998494 0.373171
vt 0.920134 0.579204
vt 0.920134 0.420987
vt 0.770517 0.423776
vt 0.864844 0.542077
vt 0.769472 0.575813
vt 0.920113 0.358335
vt 0.864877 0.542041
vt 0.920123 0.579204
vt 0.864844 0.641120
vt 0.920113 0.641856
vt 0.767933 0.631685
vt 0.967098 0.634719
vt 0.998494 0.627020
vt 0.864877 0.641120
vt 0.561828 0.618142
vt 0.766888 0.631685
vt 0.316607 0.606737
vt 0.560507 0.618144
vt 0.315833 0.606738
vt 0.126296 0.597099
vt 0.126054 0.597099
vt 0.744208 0.525259
vt 0.744208 0.475095
vt 0.011359 0.597480
vt 0.123530 0.500092
vt 0.677215 0.518915
vt 0.519899 0.512299
vt 0.519889 0.488036
vt 0.011359 0.402711
vt 0.002362 0.500096
vt 0.617283 0.535704
vt 0.490358 0.525259
vt 0.011359 0.512299
vt 0.998494 0.525259
vt 0.617283 0.520997
s 0
g off
usemtl Material
f 76/1/1 47/2/1 88/3/1
f 79/4/2 10/5/2 21/6/2
f 21/7/3 11/8/3 22/9/3
f 73/10/4 4/11/4 76/12/4
f 56/13/5 5/14/5 7/15/5
f 74/16/6 12/17/6 77/18/6
f 10/19/7 12/20/7 11/8/7
f 6/21/8 7/22/8 5/23/8
f 57/24/9 5/25/9 60/26/9
f 43/27/10 2/28/10 46/29/10
f 78/30/11 18/31/11 75/32/11
f 15/33/12 56/34/12 59/35/12
f 75/36/13 16/37/13 77/38/13
f 58/39/14 14/40/14 55/41/14
f 57/24/15 23/42/15 62/43/15
f 70/44/16 14/45/16 48/46/16
f 59/35/17 24/47/17 15/33/17
f 62/43/18 27/48/18 63/49/18
f 8/50/19 20/51/19 19/52/19
f 26/53/20 22/9/20 29/54/20
f 81/55/21 21/6/21 26/56/21
f 80/57/22 11/58/22 74/16/22
f 83/59/23 26/56/23 32/60/23
f 32/61/24 29/54/24 35/62/24
f 63/49/25 33/63/25 65/64/25
f 61/65/26 30/66/26 24/47/26
f 19/52/27 25/67/27 28/68/27
f 80/57/28 29/69/28 22/70/28
f 65/64/29 54/71/29 72/72/29
f 50/73/30 32/61/30 35/62/30
f 90/74/31 32/60/31 53/75/31
f 64/76/32 36/77/32 30/66/32
f 28/68/33 31/78/33 34/79/33
f 82/80/34 35/81/34 29/69/34
f 85/82/35 44/2/35 87/3/35
f 47/29/36 38/83/36 41/84/36
f 69/44/37 39/85/37 45/46/37
f 71/86/38 42/87/38 51/88/38
f 49/89/39 37/83/39 40/90/39
f 89/91/40 41/92/40 50/93/40
f 69/44/41 13/45/41 58/94/41
f 4/28/42 44/27/42 47/29/42
f 73/1/43 44/2/43 3/95/43
f 70/44/44 42/87/44 68/96/44
f 37/83/45 46/29/45 40/90/45
f 86/97/46 47/2/46 41/92/46
f 89/91/47 35/81/47 84/98/47
f 34/79/48 52/99/48 49/89/48
f 66/100/49 51/88/49 36/77/49
f 90/74/50 38/101/50 85/82/50
f 41/84/51 53/102/51 50/73/51
f 72/72/52 39/85/52 67/103/52
f 52/104/53 67/103/53 37/105/53
f 34/106/54 71/86/54 66/100/54
f 46/107/55 68/96/55 40/105/55
f 43/107/56 58/94/56 1/108/56
f 49/109/57 68/96/57 71/86/57
f 43/107/58 67/103/58 69/44/58
f 28/110/59 66/100/59 64/76/59
f 31/111/60 72/72/60 52/104/60
f 19/112/61 64/76/61 61/65/61
f 25/113/62 65/64/62 31/111/62
f 20/114/63 63/49/63 25/113/63
f 8/115/64 61/65/64 59/35/64
f 46/107/65 55/94/65 70/44/65
f 6/116/66 62/43/66 20/114/66
f 1/117/67 55/41/67 2/118/67
f 59/35/68 7/119/68 8/115/68
f 17/120/69 60/26/69 18/31/69
f 16/37/70 60/121/70 56/13/70
f 54/71/71 85/82/71 39/85/71
f 51/88/72 84/98/72 36/77/72
f 42/87/73 88/3/73 86/97/73
f 13/45/74 87/3/74 73/1/74
f 51/88/75 86/97/75 89/91/75
f 39/85/76 87/3/76 45/46/76
f 30/66/77 84/98/77 82/80/77
f 54/71/78 83/59/78 90/74/78
f 24/47/79 82/80/79 80/57/79
f 33/63/80 81/55/80 83/59/80
f 15/33/81 80/57/81 74/16/81
f 23/42/82 81/55/82 27/48/82
f 9/122/83 77/38/83 12/123/83
f 78/30/84 9/124/84 10/5/84
f 74/16/85 16/125/85 15/33/85
f 13/126/86 76/12/86 14/40/86
f 17/120/87 79/4/87 23/42/87
f 14/45/88 88/3/88 48/46/88
f 76/1/89 4/95/89 47/2/89
f 79/4/90 78/30/90 10/5/90
f 21/7/91 10/19/91 11/8/91
f 73/10/4 3/127/4 4/11/4
f 56/13/92 60/121/92 5/14/92
f 74/16/93 11/58/93 12/17/93
f 10/19/94 9/128/94 12/20/94
f 6/21/95 8/50/95 7/22/95
f 57/24/96 6/116/96 5/25/96
f 43/27/10 1/129/10 2/28/10
f 78/30/97 17/120/97 18/31/97
f 15/33/98 16/125/98 56/34/98
f 75/36/13 18/130/13 16/37/13
f 58/39/14 13/126/14 14/40/14
f 57/24/99 17/120/99 23/42/99
f 70/44/100 55/94/100 14/45/100
f 59/35/101 61/65/101 24/47/101
f 62/43/102 23/42/102 27/48/102
f 8/50/103 6/21/103 20/51/103
f 26/53/104 21/7/104 22/9/104
f 81/55/105 79/4/105 21/6/105
f 80/57/106 22/70/106 11/58/106
f 83/59/107 81/55/107 26/56/107
f 32/61/108 26/53/108 29/54/108
f 63/49/109 27/48/109 33/63/109
f 61/65/110 64/76/110 30/66/110
f 19/52/111 20/51/111 25/67/111
f 80/57/112 82/80/112 29/69/112
f 65/64/113 33/63/113 54/71/113
f 50/73/114 53/102/114 32/61/114
f 90/74/115 83/59/115 32/60/115
f 64/76/116 66/100/116 36/77/116
f 28/68/117 25/67/117 31/78/117
f 82/80/118 84/98/118 35/81/118
f 85/82/119 38/101/119 44/2/119
f 47/29/120 44/27/120 38/83/120
f 69/44/121 67/103/121 39/85/121
f 71/86/122 68/96/122 42/87/122
f 49/89/39 52/99/39 37/83/39
f 89/91/123 86/97/123 41/92/123
f 69/44/124 45/46/124 13/45/124
f 4/28/42 3/129/42 44/27/42
f 73/1/125 87/3/125 44/2/125
f 70/44/126 48/46/126 42/87/126
f 37/83/45 43/27/45 46/29/45
f 86/97/127 88/3/127 47/2/127
f 89/91/128 50/93/128 35/81/128
f 34/79/129 31/78/129 52/99/129
f 66/100/130 71/86/130 51/88/130
f 90/74/131 53/75/131 38/101/131
f 41/84/132 38/83/132 53/102/132
f 72/72/133 54/71/133 39/85/133
f 52/104/134 72/72/134 67/103/134
f 34/106/135 49/109/135 71/86/135
f 46/107/136 70/44/136 68/96/136
f 43/107/137 69/44/137 58/94/137
f 49/109/138 40/105/138 68/96/138
f 43/107/139 37/105/139 67/103/139
f 28/110/140 34/106/140 66/100/140
f 31/111/141 65/64/141 72/72/141
f 19/112/142 28/110/142 64/76/142
f 25/113/143 63/49/143 65/64/143
f 20/114/144 62/43/144 63/49/144
f 8/115/145 19/112/145 61/65/145
f 46/107/146 2/108/146 55/94/146
f 6/116/147 57/24/147 62/43/147
f 1/117/67 58/39/67 55/41/67
f 59/35/148 56/34/148 7/119/148
f 17/120/149 57/24/149 60/26/149
f 16/37/70 18/130/70 60/121/70
f 54/71/150 90/74/150 85/82/150
f 51/88/151 89/91/151 84/98/151
f 42/87/152 48/46/152 88/3/152
f 13/45/153 45/46/153 87/3/153
f 51/88/154 42/87/154 86/97/154
f 39/85/155 85/82/155 87/3/155
f 30/66/156 36/77/156 84/98/156
f 54/71/157 33/63/157 83/59/157
f 24/47/158 30/66/158 82/80/158
f 33/63/159 27/48/159 81/55/159
f 15/33/160 24/47/160 80/57/160
f 23/42/161 79/4/161 81/55/161
f 9/122/162 75/36/162 77/38/162
f 78/30/163 75/32/163 9/124/163
f 74/16/164 77/18/164 16/125/164
f 13/126/86 73/10/86 76/12/86
f 17/120/165 78/30/165 79/4/165
f 14/45/166 76/1/166 88/3/166
