# Blender 4.1.1
# www.blender.org
mtllib roulette-static-2.mtl
o wheel_housing
v -16.315056 48.692375 -91.081230
v -16.786266 48.692375 -89.415512
v -15.574582 48.692375 -88.588997
v -14.511718 48.692375 -89.002495
v -14.125139 48.692375 -90.133324
v -14.849579 48.692375 -91.150314
v -16.229189 47.181133 -91.126350
v -16.840668 47.181133 -89.794838
v -16.231302 47.181133 -88.829521
v -14.936571 47.181133 -88.657875
v -14.079991 47.181133 -90.100838
v -14.923864 47.181133 -91.170143
v -14.517368 47.178905 -113.235550
v -27.081757 47.180275 -109.995789
v -35.952095 47.179073 -101.024269
v -38.554428 47.180790 -89.945686
v -36.068928 47.179440 -79.149788
v -26.811787 47.179520 -69.646835
v -16.702507 47.180920 -66.942284
v -7.975045 47.180576 -68.082741
v -0.602651 47.180965 -72.379318
v 5.353090 47.179935 -79.760719
v 7.593159 47.180763 -89.945679
v 5.107878 47.179520 -100.741615
v -2.837708 47.180542 -109.297012
v -16.670258 50.339985 -119.767212
v -25.381081 50.322964 -118.015152
v -33.093445 50.330643 -114.012154
v -39.134880 50.337048 -108.011841
v -43.221199 50.320324 -100.838692
v -45.300312 50.330566 -91.179008
v -43.974930 50.339462 -81.142815
v -39.735374 50.310780 -72.628082
v -32.822945 50.350502 -65.656082
v -25.140354 50.316681 -61.807808
v -17.939905 50.345093 -60.267059
v -9.080570 50.319668 -60.817398
v -2.253412 50.334496 -63.328506
v 3.780787 50.310783 -67.203827
v 10.862082 50.342213 -75.744362
v 14.093138 50.330696 -86.259247
v 13.530363 50.330002 -97.292198
v 8.585920 50.330639 -107.558426
v 2.556789 50.330891 -113.621689
v -5.781025 50.330299 -118.199493
v -17.041313 56.597298 -127.680527
v -26.703188 56.549259 -126.086334
v -36.479546 56.582306 -121.371155
v -42.372173 56.597458 -116.446762
v -47.334427 56.582211 -110.289032
v -51.353798 56.582142 -101.846718
v -53.177605 56.582047 -92.676300
v -52.910889 56.597176 -85.001678
v -51.099525 56.581909 -77.303818
v -46.019196 56.548775 -67.596123
v -38.531879 56.657043 -59.923149
v -30.460192 56.497719 -55.310158
v -21.315069 56.581661 -52.602833
v -10.802068 56.556213 -52.412380
v 0.896524 56.428249 -55.926216
v 11.137125 56.656532 -62.934357
v 17.571722 56.581795 -71.613525
v 22.278822 58.486008 -79.236145
v 22.309240 56.548901 -87.938461
v 17.944357 56.582127 -107.589081
v 11.590439 56.549149 -116.389114
v 2.851456 56.582287 -122.997917
v -7.280877 56.549267 -126.889679
v 21.443098 56.856762 -98.841217
v 10.088552 46.271030 -101.428856
v -11.494473 46.272797 -117.620163
v -18.185787 46.272629 -117.732742
v -25.653801 46.272190 -116.017258
v -32.613297 46.273148 -112.011108
v -36.797363 46.273205 -107.940735
v -40.033005 46.272247 -103.270226
v -42.231369 46.274246 -97.862579
v -43.391769 46.272362 -91.668510
v -42.845192 46.271484 -84.215881
v -41.018013 46.272800 -78.619621
v -37.772717 46.272671 -73.130470
v -33.525211 46.271889 -68.581856
v -27.683411 46.272118 -64.786026
v -19.406065 46.271534 -62.202965
v -9.669132 46.272064 -62.565613
v -2.185308 46.273579 -65.377876
v 3.440475 46.272575 -69.391708
v 7.844051 46.272511 -74.570915
v 10.690958 46.271618 -80.064156
v 12.532536 46.271790 -89.386894
v 4.851620 46.271332 -109.195335
v -2.722525 46.271584 -114.895630
v -32.097687 56.748386 -121.702637
v -38.758369 56.857857 -117.355499
v -42.952415 56.857830 -113.150284
v -47.190979 56.851868 -106.995956
v -50.099472 56.748196 -99.228584
v -51.276749 56.923756 -94.266914
v -50.966576 56.789715 -84.460434
v -49.997581 56.923626 -79.523598
v -47.098389 56.851593 -72.723999
v -42.890533 56.857452 -66.667694
v -37.703121 56.777153 -61.762306
v -31.164185 56.855087 -57.591824
v -23.905441 56.373260 -55.736687
v -14.696179 56.667301 -54.167606
v -9.483837 57.599392 -53.538387
v -3.307925 56.787430 -56.171852
v 1.986639 56.789490 -58.572983
v 7.294258 56.962444 -61.845100
v 10.089853 56.775311 -64.836067
v 13.757912 56.857445 -69.010612
v 17.451330 56.851582 -75.393753
v 20.015886 56.851658 -83.923416
v 20.266024 56.789772 -93.339622
v 18.037264 56.857704 -102.972900
v 15.436029 56.857746 -108.311859
v 11.991301 56.857792 -113.150139
v 6.780922 56.668358 -117.868057
v 1.682903 57.012444 -121.839691
v -5.206939 56.602337 -123.993584
v -12.003170 56.912113 -125.861313
v -18.539761 57.319412 -126.452728
v -16.812836 59.098465 -127.797852
v -21.680216 58.620430 -127.049820
v -26.314651 59.295334 -126.284271
v -26.083759 57.448296 -125.152100
v -32.096603 58.815071 -123.873596
v -36.092396 58.394775 -121.364059
v -39.916931 58.815022 -118.756470
v -44.325729 58.814980 -114.341476
v -47.094833 58.815811 -110.569435
v -49.431877 58.814919 -106.513931
v -51.695900 58.814850 -100.699776
v -52.972023 58.814796 -94.592262
v -52.115379 57.332935 -89.134544
v -52.965454 58.814705 -85.246300
v -51.680756 58.814644 -79.140594
v -49.408539 58.814594 -73.329605
v -47.066635 58.815418 -69.278664
v -44.291412 58.814510 -65.509277
v -39.876434 58.814465 -61.100502
v -36.045319 58.611908 -58.385685
v -32.048691 58.814407 -55.994247
v -26.286148 59.294674 -53.598507
v -25.946503 57.729885 -54.452934
v -20.156387 59.294617 -52.315716
v -18.642773 57.851051 -52.930595
v -11.067652 59.040913 -52.356476
v -4.833401 58.802128 -53.721275
v 0.859175 58.743908 -55.933727
v 6.450064 58.814404 -59.184563
v 11.214624 58.991364 -63.145576
v 14.439817 58.786194 -66.851624
v 17.153990 58.723152 -71.021446
v 19.703630 58.814564 -76.188179
v 21.104559 58.815491 -80.654411
v 22.004263 58.814674 -85.246452
v 21.509161 57.753551 -89.912193
v 22.010824 58.814758 -94.592148
v 20.232267 57.332993 -98.152687
v 19.722918 58.814835 -103.653664
v 17.728765 58.815735 -107.888275
v 15.280544 58.814922 -111.876183
v 11.098913 58.691601 -116.726433
v 6.493149 58.815002 -120.675934
v 1.199459 58.991970 -123.896393
v -2.001369 58.078102 -124.676888
v -4.646608 59.295341 -126.284286
v -7.616669 58.003098 -126.308960
v -11.031755 59.059616 -127.541771
v -15.552709 60.980988 -127.888664
v -20.133928 60.583191 -127.715660
v -29.294804 60.701057 -125.373779
v -34.937592 60.701035 -122.616898
v -40.049782 60.701012 -118.968750
v -44.491722 60.700962 -114.528969
v -47.287647 60.700325 -110.726547
v -49.638794 60.700890 -106.654961
v -51.923218 60.700829 -100.804832
v -53.213531 60.700768 -94.658379
v -53.600639 60.226242 -89.968697
v -53.215813 60.700684 -85.251259
v -51.928505 60.700607 -79.104240
v -49.646912 60.700569 -73.252960
v -44.503685 60.700493 -65.376480
v -40.063942 60.700443 -60.934566
v -35.164001 60.641228 -57.401535
v -26.339653 60.700356 -53.503040
v -20.193462 60.700348 -52.212723
v -15.481217 59.624718 -51.947155
v -13.507572 60.740494 -51.985489
v -7.619173 60.680149 -52.739056
v 2.640549 60.568481 -56.502834
v 6.623236 60.700401 -59.003716
v 10.295773 60.568527 -61.974640
v 13.542542 60.700470 -65.376579
v 17.190702 60.700500 -70.488785
v 19.947519 60.700562 -76.131462
v 21.350714 60.699989 -80.618965
v 22.254610 60.700653 -85.251381
v 22.639414 60.226227 -89.968727
v 22.252317 60.700752 -94.658295
v 21.467299 60.226303 -99.325943
v 19.940779 60.700829 -103.777130
v 17.181253 60.700871 -109.418381
v 13.530569 60.700939 -114.528877
v 10.251760 60.700363 -117.898819
v 6.608027 60.700993 -120.898453
v 1.393541 60.620136 -124.052963
v -4.639161 60.701038 -126.393509
v -10.786069 60.701096 -127.680855
v -17.810827 61.794514 -127.128082
v -23.509499 60.954319 -127.058372
v -52.640572 61.631733 -94.642921
v -47.630692 61.227341 -69.904709
v -31.938223 60.999977 -55.742977
v -23.260555 61.618797 -53.295475
v -2.630627 61.790028 -54.965275
v -1.615084 60.824406 -54.530880
v 19.947912 61.646236 -102.222977
v 15.843134 61.632996 -110.576492
v 6.202600 61.641350 -120.476471
v -4.854994 61.632004 -125.862556
v -20.680731 61.797150 -125.750877
v -22.910870 61.977318 -125.197311
v -29.950157 61.846092 -123.060127
v -36.141304 61.821381 -119.567223
v -40.974064 61.956230 -115.410347
v -43.556507 61.788582 -113.186119
v -44.797417 61.969147 -110.887337
v -47.861053 61.956131 -105.752991
v -48.698967 61.797501 -104.402649
v -50.808495 61.835457 -97.348923
v -51.494781 61.913910 -91.500847
v -51.517586 61.813789 -87.156807
v -50.680389 61.834484 -81.935997
v -48.540932 61.855339 -75.365334
v -44.874771 61.829376 -68.989975
v -39.974159 61.852570 -63.381012
v -35.890289 61.810612 -60.169144
v -31.432673 61.810410 -57.548187
v -27.244808 61.908180 -55.899357
v -22.823923 61.815559 -54.581211
v -16.949352 61.955620 -53.942772
v -10.972445 61.799080 -54.084431
v -5.211782 61.923218 -55.393929
v 0.142909 61.823448 -57.398518
v 5.209887 61.830807 -60.353432
v 9.987507 61.954258 -64.454987
v 12.821032 61.826378 -67.476669
v 15.776472 61.834427 -71.887680
v 18.069368 61.968605 -76.811661
v 19.605822 61.813690 -81.263206
v 20.298372 61.913811 -85.552055
v 20.622984 61.811138 -92.595863
v 20.262869 62.009495 -94.379456
v 18.970049 61.812336 -100.968567
v 18.077398 61.972771 -103.053314
v 14.902174 61.833508 -109.510979
v 11.317411 61.828781 -114.144905
v 6.732128 61.944038 -118.392143
v 0.362891 61.953716 -122.309357
v 3.707844 61.778839 -120.971756
v -6.521317 61.848801 -124.954483
v -13.532634 61.829239 -126.003235
v -25.473820 61.875210 -125.752289
v -33.145412 61.873589 -122.722122
v -39.359489 61.879593 -118.418976
v -44.856297 61.804840 -112.972839
v -51.024353 61.887028 -100.815056
v -48.831474 61.874489 -106.354782
v -51.265259 61.870529 -79.862228
v -52.633156 61.858898 -87.078667
v -49.338654 61.884010 -74.733704
v -42.958126 61.880482 -64.834534
v -37.306122 61.872997 -59.853912
v -29.437065 61.872223 -55.484764
v -17.230453 61.848957 -52.763500
v -12.359242 61.860695 -52.926743
v -7.434780 61.862648 -53.627857
v 3.666916 61.879387 -58.096062
v 8.731483 61.774540 -61.561218
v 13.168804 61.872589 -66.234772
v 16.501026 61.879387 -71.023483
v 19.895590 61.763718 -77.893188
v 21.417650 61.871399 -94.476875
v 21.660074 61.846775 -86.764351
v 17.635260 61.880325 -106.435081
v 10.731743 61.880112 -116.287018
v 1.182989 61.882652 -123.177460
v -10.995102 61.879086 -126.834717
v -20.471493 63.222008 -126.116470
v -16.976807 62.941811 -125.967072
v -22.862324 62.897949 -125.220528
v -28.653488 63.116776 -123.591217
v -33.969784 63.140415 -121.029861
v -37.244011 63.125763 -118.802063
v -40.950802 62.896690 -115.441788
v -44.296059 63.210323 -112.253555
v -45.676437 62.918373 -109.728775
v -49.737724 63.212162 -102.396744
v -49.627052 62.897125 -101.623276
v -52.042313 63.218307 -91.024170
v -51.240181 62.896492 -94.421600
v -51.489182 62.896435 -88.474808
v -50.752647 63.101326 -82.083412
v -49.059166 62.895233 -76.859718
v -47.629921 63.124687 -73.462387
v -44.610413 63.117897 -68.541817
v -39.852409 63.170708 -63.059303
v -38.785400 62.825737 -62.478737
v -33.215866 63.075077 -58.455025
v -27.846790 63.127647 -55.984776
v -21.911018 63.145912 -54.302868
v -10.274265 63.208595 -53.869888
v -18.402315 62.931786 -53.965775
v -9.548454 62.872822 -54.348618
v -2.384298 63.111465 -56.273083
v 3.484568 63.114853 -59.173340
v 7.825075 62.896149 -62.457008
v 14.899151 63.158974 -70.159302
v 10.686300 63.060669 -65.099541
v 13.857801 62.895119 -69.016792
v 18.012117 63.117935 -76.347595
v 19.742411 63.134766 -81.880333
v 20.272985 62.875809 -85.469734
v 20.634176 63.104095 -88.659843
v 20.203516 63.168030 -96.254395
v 20.278982 62.896446 -94.421394
v 18.373091 63.116127 -102.615791
v 14.722687 62.844074 -109.676147
v 14.733303 63.205040 -110.236938
v 9.712292 63.103104 -115.857162
v 5.472815 62.876156 -119.259651
v 1.768860 63.219139 -122.062592
v -1.044286 62.855530 -123.012436
v -7.352500 63.127579 -125.175316
v -11.912837 63.074570 -125.859894
v -17.164007 62.703770 -130.645248
v -23.768547 62.475872 -129.854721
v -23.759472 63.165504 -129.430557
v -30.077547 62.525795 -128.003937
v -32.928505 63.176937 -126.390854
v -36.336121 62.558548 -124.966812
v -41.737656 62.661598 -121.107658
v -41.343033 63.246841 -120.636780
v -46.464996 62.784443 -116.368187
v -50.561073 62.633713 -110.685699
v -49.709305 63.223381 -111.003601
v -53.367386 62.525581 -104.982140
v -53.224792 63.174881 -104.123779
v -55.371559 62.558296 -98.320892
v -55.200478 63.191784 -96.792343
v -56.206001 62.558239 -91.640770
v -55.561409 63.204647 -85.142426
v -55.929565 62.558174 -84.914497
v -54.614243 62.525330 -78.541183
v -53.133362 63.167400 -75.439453
v -51.295715 62.586098 -70.381851
v -49.674728 63.190514 -68.765221
v -46.722672 62.623783 -63.775803
v -44.591167 63.212524 -62.143219
v -41.887459 62.543762 -58.895760
v -36.588024 62.613846 -55.083088
v -35.932755 63.210915 -55.144253
v -30.582026 62.542625 -52.084465
v -26.634911 62.860237 -50.833828
v -20.533192 62.557808 -49.499378
v -21.066246 63.209335 -50.104660
v -13.921207 62.605312 -49.212429
v -12.813232 63.220013 -49.853249
v -7.028748 62.795425 -50.115177
v -2.217961 62.673607 -51.453766
v 2.431026 62.557831 -53.331413
v -0.451602 63.224472 -52.678936
v 8.459110 62.537582 -56.956360
v 5.856123 63.190010 -55.775150
v 10.999352 63.205196 -59.645912
v 13.399918 62.543747 -61.182259
v 16.093969 62.853222 -64.303703
v 19.656179 62.525188 -69.283905
v 18.832544 63.190712 -68.812439
v 23.202715 62.518940 -76.919380
v 22.548937 63.165665 -76.372986
v 24.968355 62.558121 -84.914604
v 24.752356 63.224617 -87.534416
v 25.227854 62.635738 -91.848328
v 24.364229 62.525475 -98.541702
v 24.069571 63.170792 -97.794540
v 22.460566 62.571960 -104.840927
v 21.990618 63.202583 -104.566887
v 18.642332 62.542686 -112.345512
v 18.895124 63.209091 -110.867897
v 11.987591 62.519363 -120.138107
v 14.030306 63.173492 -117.457054
v 5.562857 63.210518 -124.336357
v 5.374680 62.558533 -124.966934
v -0.712214 62.674568 -127.922516
v -8.849571 62.575401 -130.221405
v -6.569249 63.208927 -129.200394
v -14.210452 63.225594 -130.146896
v -17.109962 59.008614 -129.339920
v -21.844259 58.992409 -128.819366
v -26.677433 58.990749 -127.746140
v -32.746536 58.990719 -125.387634
v -36.923683 58.992363 -122.988899
v -40.918591 58.990685 -120.064690
v -45.529068 58.990643 -115.466957
v -48.390968 58.992249 -111.592140
v -50.874649 58.990566 -107.309639
v -53.249977 58.990513 -101.247139
v -54.595016 58.990471 -94.876274
v -54.873085 58.990379 -88.370972
v -54.076660 58.990330 -81.908623
v -52.776726 58.991940 -77.270325
v -50.922577 58.990223 -72.679688
v -47.597504 58.990173 -67.081848
v -43.396114 58.990131 -62.107307
v -38.433159 58.990097 -57.892086
v -34.335510 58.991707 -55.360157
v -29.862465 58.990032 -53.238560
v -23.624393 58.989998 -51.371979
v -17.125103 58.974205 -50.560112
v -10.563667 58.988911 -50.829334
v -4.179368 58.989998 -52.176216
v 1.883259 58.990025 -54.551510
v 7.472332 58.990059 -57.892387
v 11.287580 58.991753 -61.047043
v 14.638506 58.990105 -64.507759
v 18.414736 58.990150 -69.812241
v 21.266218 58.990215 -75.665611
v 23.647299 58.990303 -85.123459
v 23.910353 58.992039 -90.067146
v 23.633802 58.990402 -94.876114
v 22.675180 58.992088 -99.733322
v 21.226526 58.990494 -104.327370
v 19.104910 58.992195 -108.800507
v 16.572702 58.990562 -112.898460
v 12.357485 58.990635 -117.861382
v 7.383354 58.990654 -122.062386
v 3.160583 58.992355 -124.646774
v -1.200567 58.990707 -126.692429
v -7.443759 58.990738 -128.541702
v -12.348841 58.992416 -129.212097
v -19.161539 52.113583 -119.475174
v -23.972343 52.116230 -118.468460
v -29.652073 52.108677 -116.156700
v -34.705479 52.114929 -112.661415
v -38.182178 52.114929 -109.187286
v -41.666588 52.114223 -104.171951
v -44.003376 52.116199 -98.437515
v -45.010139 52.113537 -93.626305
v -45.214680 52.114933 -88.726761
v -44.608536 52.114937 -83.849319
v -42.790894 52.114227 -78.019180
v -39.008003 52.119583 -71.648155
v -33.781487 52.105221 -66.432404
v -28.560608 52.114868 -63.215279
v -23.972315 52.116203 -61.422867
v -19.161489 52.113586 -60.416145
v -14.250761 52.116238 -60.211044
v -8.166216 52.105217 -61.061508
v -2.420393 52.114819 -63.205616
v 1.802856 52.114819 -65.720032
v 5.562912 52.116203 -68.902138
v 9.494162 52.114227 -73.686684
v 12.241634 52.113537 -79.128189
v 13.642776 52.114811 -83.827835
v 14.254000 52.116196 -88.716080
v 13.907837 52.108677 -94.861725
v 12.246618 52.114815 -100.753082
v 9.481508 52.113987 -106.224045
v 5.562674 52.116196 -110.989433
v 0.778313 52.114223 -114.920471
v -4.663186 52.113525 -117.667908
v -9.373671 52.116196 -119.072357
v -14.261958 52.114857 -119.679733
v 17.888048 54.818745 -89.945694
v 17.574785 55.237846 -89.945724
v 18.517946 55.293015 -92.024742
v 18.210489 55.704037 -92.023445
v 18.518007 55.293118 -87.866577
v 18.210295 55.703972 -87.868134
v 19.150545 55.764217 -89.946121
v 18.836359 56.182693 -89.945419
v 17.877554 56.148422 -89.945717
v 9.118603 55.291561 -113.429420
v 8.896152 55.710457 -113.208221
v 7.383186 54.046936 -112.809692
v 7.166479 54.458584 -112.592773
v 9.736689 56.539215 -115.163200
v 9.518583 56.949303 -114.944733
v 8.003269 55.291397 -114.544853
v 7.781834 55.710239 -114.322792
v 8.107130 56.148411 -113.533478
v -15.480257 54.818752 -123.314178
v -15.480957 55.238029 -123.001060
v -17.559801 55.293118 -123.944275
v -17.558237 55.704037 -123.636642
v -13.401632 55.293148 -123.944397
v -13.402933 55.703865 -123.636536
v -15.480681 55.764088 -124.576782
v -15.480654 56.182648 -124.262810
v -15.480659 56.148422 -123.303825
v -38.964584 55.291420 -114.544800
v -38.743122 55.710232 -114.322708
v -38.344475 54.046932 -112.809616
v -38.127846 54.458584 -112.592621
v -40.698109 56.539322 -115.163086
v -40.479630 56.949268 -114.944687
v -40.079620 55.291237 -113.429214
v -39.857758 55.710529 -113.208298
v -39.068420 56.148415 -113.533401
v -48.849266 54.818745 -89.945641
v -48.536003 55.237846 -89.945610
v -49.479164 55.293015 -87.866585
v -49.171707 55.704037 -87.867889
v -49.479225 55.293118 -92.024757
v -49.171509 55.703972 -92.023193
v -50.111763 55.764217 -89.945213
v -49.797577 56.182693 -89.945915
v -48.838768 56.148422 -89.945618
v -40.079750 55.291420 -66.461685
v -39.857655 55.710232 -66.683151
v -38.344402 54.046902 -67.081802
v -38.127689 54.458725 -67.298431
v -40.698036 56.539318 -64.728165
v -40.479630 56.949268 -64.946648
v -38.964489 55.291397 -65.346474
v -38.743053 55.710239 -65.568542
v -39.068352 56.148411 -66.357849
v -15.480956 54.818752 -56.577145
v -15.480256 55.238029 -56.890266
v -13.401413 55.293118 -55.947048
v -13.402976 55.704037 -56.254681
v -17.559469 55.293045 -55.946991
v -17.558428 55.703865 -56.254684
v -15.480910 55.764221 -55.314510
v -15.480268 56.182693 -55.628696
v -15.480555 56.148422 -56.587502
v 8.003151 55.291561 -65.346451
v 7.781952 55.710457 -65.568901
v 7.383417 54.046936 -67.081871
v 7.166504 54.458584 -67.298576
v 9.736927 56.539215 -64.728363
v 9.518461 56.949303 -64.946472
v 9.118584 55.291397 -66.461784
v 8.896519 55.710239 -66.683220
v 8.107206 56.148411 -66.357925
vn 0.7699 0.6272 -0.1182
vn 0.9950 -0.0409 -0.0912
vn 0.3492 0.6152 -0.7068
vn -0.4846 0.6065 -0.6303
vn -0.9989 -0.0257 0.0382
vn -0.7392 0.6173 0.2692
vn -0.0876 0.6348 0.7677
vn 0.4274 -0.0712 0.9012
vn 0.5781 0.6260 0.5234
vn -0.5387 -0.0095 -0.8424
vn -0.5392 -0.0433 0.8410
vn -0.0000 1.0000 -0.0000
vn -0.1317 0.9709 0.1998
vn -0.0000 1.0000 -0.0001
vn 0.2150 0.9696 0.1170
vn -0.0001 1.0000 -0.0000
vn -0.0791 0.9716 -0.2231
vn -0.1552 0.9713 -0.1804
vn 0.2395 0.9709 0.0026
vn 0.2140 0.9699 -0.1159
vn -0.2181 0.9700 -0.1071
vn 0.0142 0.9719 -0.2351
vn 0.1215 0.9706 0.2078
vn -0.1344 0.9086 0.3955
vn -0.0092 0.9691 0.2467
vn 0.4170 0.9086 0.0235
vn 0.4064 0.9062 -0.1170
vn -0.2720 0.9100 -0.3129
vn -0.3704 0.9059 -0.2052
vn -0.4210 0.9053 -0.0566
vn -0.2381 0.9712 -0.0000
vn 0.1223 0.9700 -0.2103
vn 0.3309 0.9090 -0.2536
vn 0.2566 0.9069 -0.3341
vn 0.1295 0.9103 0.3932
vn 0.2559 0.9093 0.3283
vn 0.1318 0.9069 -0.4002
vn 0.0341 0.9055 -0.4229
vn 0.3213 0.9093 0.2646
vn -0.2159 0.9696 0.1153
vn -0.4097 0.9066 0.1013
vn -0.3365 0.9070 0.2534
vn -0.2611 0.9057 0.3340
vn -0.0838 0.9060 -0.4148
vn -0.1939 0.9088 -0.3695
vn -0.7090 0.4926 -0.5047
vn -0.6204 0.7368 -0.2688
vn -0.8080 0.5172 -0.2823
vn 0.6770 0.4801 -0.5578
vn 0.5929 0.7362 -0.3264
vn 0.5149 0.7376 -0.4369
vn -0.6632 0.7389 -0.1193
vn -0.8389 0.5024 -0.2095
vn 0.5656 0.4671 -0.6796
vn 0.4151 0.7451 -0.5221
vn 0.1329 0.4876 0.8629
vn 0.2170 0.6769 0.7033
vn 0.2334 0.4778 0.8469
vn -0.8650 0.5017 -0.0037
vn 0.4079 0.5028 0.7622
vn 0.3061 0.7509 0.5852
vn -0.6611 0.7484 0.0533
vn -0.8636 0.4919 0.1109
vn 0.2918 0.7457 -0.5990
vn 0.3868 0.4962 -0.7773
vn 0.2376 0.4673 -0.8515
vn 0.1394 0.7871 -0.6008
vn 0.5821 0.4772 0.6583
vn 0.4356 0.7439 0.5069
vn -0.6204 0.7424 0.2529
vn -0.7772 0.5298 0.3394
vn 0.6603 0.4754 0.5814
vn 0.5148 0.7397 0.4334
vn -0.5823 0.7376 0.3418
vn -0.7476 0.4918 0.4464
vn 0.1284 0.4598 -0.8787
vn -0.0200 0.7520 -0.6589
vn -0.0471 0.5013 -0.8640
vn 0.7581 0.4997 0.4189
vn 0.5959 0.7375 0.3178
vn -0.5144 0.7381 0.4366
vn -0.6132 0.4982 0.6131
vn 0.8376 0.4956 0.2297
vn 0.6476 0.7401 0.1814
vn -0.4187 0.7460 0.5178
vn -0.4562 0.5019 0.7348
vn -0.2359 0.4550 -0.8586
vn -0.3283 0.7411 -0.5857
vn -0.3783 0.4600 -0.8033
vn -0.3319 0.7205 0.6089
vn 0.8630 0.4874 0.1332
vn 0.6692 0.7376 0.0897
vn -0.3468 0.4451 0.8256
vn -0.4384 0.7244 -0.5320
vn -0.4979 0.4732 -0.7268
vn 0.8712 0.4869 -0.0626
vn 0.7523 0.6588 -0.0086
vn -0.1854 0.7702 0.6102
vn -0.1544 0.5172 0.8418
vn -0.4927 0.7264 -0.4792
vn -0.6334 0.5016 -0.5892
vn 0.8539 0.4950 -0.1607
vn 0.6595 0.7428 -0.1152
vn -0.0590 0.7253 0.6859
vn -0.0574 0.4835 0.8734
vn -0.5447 0.7437 -0.3876
vn 0.7832 0.5085 -0.3578
vn 0.6440 0.7394 -0.1964
vn 0.7862 -0.4494 -0.4241
vn 0.6809 -0.6351 -0.3647
vn 0.7047 -0.4804 -0.5222
vn -0.0323 -0.4800 0.8767
vn -0.1182 -0.6304 0.7672
vn 0.0978 -0.6305 0.7700
vn 0.1158 -0.4432 0.8889
vn 0.5554 -0.6313 -0.5413
vn 0.6373 -0.4470 -0.6278
vn -0.7914 -0.4749 -0.3848
vn -0.6555 -0.6305 -0.4157
vn -0.7368 -0.6308 -0.2434
vn 0.2486 -0.4821 0.8401
vn 0.5153 -0.4789 -0.7107
vn 0.3374 -0.6317 0.6980
vn 0.3957 -0.4491 0.8011
vn -0.8757 -0.4678 -0.1199
vn -0.7736 -0.6310 -0.0581
vn 0.3768 -0.6347 -0.6746
vn 0.4145 -0.4498 -0.7911
vn 0.3155 -0.4753 -0.8213
vn 0.5017 -0.4908 0.7123
vn -0.8830 -0.4679 0.0355
vn -0.7682 -0.6325 0.0988
vn 0.1722 -0.6279 -0.7590
vn 0.1928 -0.4467 -0.8737
vn 0.5441 -0.6278 0.5566
vn 0.5999 -0.4488 0.6624
vn 0.6907 -0.4668 0.5523
vn -0.8641 -0.4704 0.1789
vn -0.7291 -0.6309 0.2653
vn 0.0575 -0.4621 -0.8850
vn 0.6788 -0.6312 0.3752
vn 0.7574 -0.4592 0.4642
vn -0.7907 -0.4777 0.3829
vn -0.6283 -0.6274 0.4600
vn 0.8107 -0.4762 0.3407
vn 0.8255 -0.5195 0.2205
vn 0.7747 -0.6310 0.0404
vn 0.8811 -0.4576 0.1190
vn -0.6227 -0.4791 0.6187
vn -0.4766 -0.6296 0.6136
vn 0.8911 -0.4538 -0.0075
vn -0.5771 -0.4617 -0.6736
vn -0.4255 -0.6314 -0.6483
vn -0.5533 -0.6301 -0.5448
vn 0.8696 -0.4827 -0.1038
vn -0.4244 -0.4726 0.7723
vn -0.3053 -0.6337 0.7108
vn 0.7540 -0.6325 -0.1773
vn 0.8613 -0.4529 -0.2302
vn 0.8198 -0.4771 -0.3167
vn -0.1997 -0.4587 0.8659
vn -0.6779 -0.4556 -0.5769
vn 0.0778 0.0120 -0.9969
vn 0.5878 -0.0240 0.8087
vn 0.7980 0.0070 0.6026
vn -0.9658 -0.0520 0.2540
vn -0.8048 -0.0009 0.5935
vn -0.2044 -0.0024 -0.9789
vn 0.9317 -0.0137 0.3629
vn -0.6138 0.0096 0.7894
vn -0.4396 0.0315 -0.8977
vn 0.9991 -0.0098 0.0414
vn -0.3204 -0.0140 0.9472
vn -0.6529 0.0044 -0.7574
vn 0.9563 -0.0173 -0.2918
vn 0.0386 -0.0109 0.9992
vn -0.8827 -0.0522 -0.4671
vn 0.8222 0.0053 -0.5692
vn -0.9922 0.0152 -0.1236
vn 0.5762 -0.0115 -0.8172
vn 0.3378 0.0096 0.9412
vn 0.3293 0.0246 -0.9439
vn -0.3816 -0.4817 -0.7889
vn -0.2336 -0.6274 -0.7428
vn -0.8776 0.2785 0.3902
vn -0.5207 0.8510 0.0684
vn -0.6157 0.7568 0.2196
vn 0.2602 0.5517 -0.7925
vn 0.1016 0.7553 -0.6474
vn 0.1553 -0.7404 -0.6540
vn 0.3434 -0.7660 0.5435
vn 0.6953 -0.0783 0.7144
vn 0.6850 -0.0194 0.7282
vn -0.5326 -0.7811 0.3259
vn -0.8128 0.2968 0.5013
vn 0.0593 -0.2896 -0.9553
vn 0.0006 0.5295 -0.8483
vn 0.8548 0.1070 0.5077
vn 0.7785 -0.3103 0.5456
vn -0.1997 0.3470 -0.9164
vn -0.0393 -0.7992 -0.5998
vn 0.8545 -0.2374 0.4621
vn -0.4809 -0.7765 0.4071
vn -0.4590 0.7473 0.4805
vn 0.8897 0.3792 0.2543
vn 0.4286 -0.8736 0.2305
vn -0.6189 0.2392 0.7482
vn -0.5763 -0.0765 0.8137
vn -0.2249 0.5588 -0.7982
vn -0.2310 0.7432 -0.6279
vn 0.5881 -0.7981 0.1310
vn -0.4217 0.0532 0.9052
vn -0.3549 0.0978 0.9298
vn -0.2840 -0.7631 -0.5806
vn -0.3474 0.7415 -0.5739
vn 0.9805 0.1057 0.1655
vn 0.8459 0.5315 0.0446
vn -0.3841 -0.7597 -0.5248
vn -0.6005 -0.3726 -0.7076
vn 0.9598 0.2733 -0.0643
vn 0.6266 -0.7773 -0.0562
vn -0.1795 -0.7525 0.6337
vn -0.1418 0.7319 0.6664
vn 0.6699 0.7269 -0.1509
vn 0.6677 -0.7263 -0.1633
vn -0.5814 0.5348 -0.6132
vn -0.5496 -0.6419 -0.5347
vn -0.0254 -0.7582 0.6516
vn -0.0958 -0.5844 0.8058
vn -0.4963 -0.7730 -0.3952
vn -0.7875 0.1423 -0.5997
vn 0.8911 -0.3298 -0.3117
vn 0.6074 -0.7508 -0.2596
vn -0.1341 -0.4781 -0.8680
vn -0.0321 -0.6354 -0.7715
vn -0.5955 -0.7427 -0.3062
vn -0.4726 0.8073 -0.3533
vn -0.7832 0.5341 -0.3185
vn -0.5981 0.7568 -0.2636
vn 0.5395 0.7370 -0.4073
vn 0.5483 -0.7486 -0.3727
vn 0.0080 0.1382 0.9904
vn -0.5967 -0.7892 -0.1451
vn -0.6795 0.7198 -0.1419
vn 0.3938 0.7814 -0.4840
vn 0.4756 -0.7005 -0.5321
vn 0.0817 -0.8453 0.5281
vn 0.2510 0.2472 0.9359
vn 0.2604 0.2436 0.9343
vn -0.8210 0.5656 -0.0771
vn -0.9874 -0.1101 -0.1138
vn 0.2165 0.7419 0.6346
vn 0.2736 -0.7452 0.6081
vn -0.4958 -0.8652 0.0749
vn -0.6124 0.7895 -0.0418
vn 0.3446 0.7288 -0.5918
vn 0.3606 -0.8046 -0.4719
vn -0.9865 -0.0287 0.1611
vn -0.9918 0.0881 0.0921
vn 0.2790 -0.7549 -0.5936
vn 0.4207 0.7439 0.5193
vn -0.4465 -0.8783 0.1712
vn 0.2245 0.7433 -0.6301
vn 0.1236 0.8738 -0.4704
vn 0.0281 0.8749 -0.4835
vn 0.1956 0.9678 0.1582
vn -0.3481 0.9105 -0.2233
vn 0.2730 0.9548 0.1172
vn -0.4757 0.8644 -0.1629
vn -0.0264 0.9505 -0.3097
vn 0.1659 0.9051 0.3915
vn -0.5015 0.8622 -0.0716
vn 0.2210 0.9752 0.0093
vn -0.5012 0.8633 0.0589
vn 0.4693 0.8626 0.1890
vn 0.5175 0.8552 0.0269
vn -0.5408 0.8132 0.2149
vn 0.5601 0.7635 -0.3216
vn 0.4862 0.8696 -0.0865
vn -0.3788 0.8902 0.2532
vn 0.3995 0.9035 -0.1552
vn 0.0239 0.9729 0.2299
vn -0.1126 0.8600 -0.4978
vn 0.4118 0.8835 -0.2230
vn -0.2910 0.9316 0.2178
vn -0.2520 0.8119 -0.5265
vn -0.3486 0.8717 0.3443
vn -0.2386 0.8688 0.4338
vn 0.4486 0.8021 -0.3943
vn 0.3048 0.8345 0.4589
vn -0.2364 0.9257 -0.2952
vn 0.2732 0.8694 -0.4116
vn -0.1317 0.9632 0.2343
vn -0.0633 0.8983 0.4347
vn 0.0337 0.9076 0.4186
vn 0.2683 0.8564 0.4411
vn 0.3197 0.8714 0.3722
vn 0.1479 0.2170 -0.9649
vn -0.0331 -0.4493 -0.8927
vn -0.0450 0.2839 -0.9578
vn -0.7540 0.2376 0.6124
vn -0.7319 -0.4444 0.5165
vn -0.1990 0.0859 -0.9762
vn 0.9455 0.1367 0.2954
vn 0.9658 0.2126 0.1486
vn -0.2549 -0.4510 -0.8554
vn -0.6236 0.2404 0.7439
vn -0.5139 -0.4596 0.7244
vn 0.9621 0.2678 -0.0508
vn -0.3385 0.1834 -0.9229
vn -0.5255 0.1272 0.8412
vn 0.9656 0.1295 -0.2256
vn -0.3615 0.2209 0.9058
vn -0.3080 -0.4622 0.8316
vn -0.5168 0.2398 -0.8218
vn -0.4887 -0.4525 -0.7459
vn -0.6263 0.2248 -0.7464
vn 0.9159 0.1710 -0.3633
vn -0.2502 0.4419 0.8615
vn -0.6995 0.3884 -0.6000
vn 0.8121 0.1888 -0.5521
vn -0.1111 0.1647 0.9801
vn -0.8441 0.2114 -0.4928
vn -0.7430 -0.4447 -0.5002
vn 0.0244 0.2168 0.9759
vn 0.6475 0.2217 -0.7291
vn 0.1908 0.3943 0.8989
vn -0.9175 0.1276 -0.3767
vn -0.8520 -0.4616 -0.2468
vn 0.3091 0.2428 0.9195
vn 0.4989 0.1241 -0.8577
vn 0.4335 0.2006 0.8786
vn -0.9621 0.1635 -0.2184
vn 0.3406 0.3363 -0.8780
vn 0.5796 0.1753 0.7958
vn -0.9656 0.2572 -0.0375
vn 0.6969 0.1752 0.6954
vn -0.9873 0.0948 0.1278
vn 0.7158 0.4103 0.5650
vn -0.9418 0.2001 0.2701
vn -0.8434 -0.4496 0.2942
vn 0.8615 0.1330 0.4900
vn -0.8592 0.2208 0.4615
vn -0.1539 -0.9079 -0.3898
vn -0.0574 -0.9058 0.4198
vn -0.2509 -0.9098 -0.3307
vn -0.3134 -0.9117 -0.2656
vn 0.3915 -0.9042 -0.1707
vn 0.3109 -0.9043 -0.2924
vn 0.0842 -0.9069 0.4128
vn -0.3640 -0.9105 -0.1962
vn 0.1958 -0.9052 -0.3771
vn 0.2010 -0.9080 0.3675
vn -0.4207 -0.9069 -0.0234
vn 0.2803 -0.9084 0.3103
vn -0.4095 -0.9090 0.0781
vn 0.0641 -0.9085 -0.4130
vn 0.3438 -0.9100 0.2316
vn -0.0423 -0.9098 -0.4128
vn -0.3772 -0.9101 0.1715
vn 0.3979 -0.9070 0.1382
vn 0.4263 -0.9046 0.0026
vn -0.2692 -0.9086 0.3192
vn 0.3979 0.4029 0.8242
vn 0.4866 0.4879 0.7247
vn 0.5955 0.4117 0.6898
vn 0.6890 0.4201 0.5905
vn 0.7549 0.4270 0.4977
vn 0.8663 0.4246 0.2631
vn 0.8998 0.4182 0.1246
vn 0.9014 0.4139 -0.1270
vn 0.8719 0.4143 -0.2611
vn 0.8192 0.4149 -0.3959
vn 0.6894 0.4227 -0.5882
vn 0.5941 0.4204 -0.6858
vn 0.4885 0.4620 -0.7402
vn 0.3925 0.4019 -0.8273
vn 0.2110 0.6628 -0.7184
vn 0.0653 0.6445 -0.7618
vn -0.1207 0.7091 -0.6947
vn -0.1004 0.3414 -0.9346
vn -0.2242 0.7446 -0.6287
vn -0.2644 0.4058 -0.8749
vn -0.3853 0.4358 -0.8134
vn -0.5229 0.4197 -0.7419
vn -0.6473 0.4127 -0.6408
vn -0.7208 0.4149 -0.5552
vn -0.7809 0.4416 -0.4418
vn -0.8459 0.4237 -0.3241
vn -0.8701 0.4351 -0.2317
vn -0.9012 0.4168 -0.1189
vn -0.7687 0.6396 -0.0069
vn -0.9013 0.4183 0.1124
vn -0.7309 0.6584 0.1795
vn -0.8406 0.4238 0.3374
vn -0.8053 0.4202 0.4183
vn -0.7411 0.4103 0.5315
vn -0.6295 0.4437 0.6379
vn -0.5263 0.4251 0.7364
vn -0.4156 0.3802 0.8263
vn -0.2834 0.6109 0.7393
vn -0.1671 0.6179 0.7683
vn -0.0982 0.3670 0.9250
vn 0.0527 0.6969 0.7153
vn 0.0128 0.3407 0.9401
vn 0.1228 -0.1874 0.9746
vn 0.1568 0.4400 0.8842
vn 0.2746 0.2724 0.9222
vn 0.1907 -0.3409 0.9206
vn 0.3559 -0.2687 0.8951
vn 0.5160 -0.2306 0.8249
vn 0.6273 -0.2435 0.7398
vn 0.7255 -0.2392 0.6454
vn 0.8136 -0.2584 0.5208
vn 0.8742 -0.2429 0.4205
vn 0.8210 0.4225 0.3840
vn 0.9306 -0.2385 0.2778
vn 0.9680 -0.2160 0.1276
vn 0.9988 -0.0482 0.0042
vn 0.9570 -0.2516 -0.1442
vn 0.9288 -0.2420 -0.2808
vn 0.8766 -0.2334 -0.4208
vn 0.7471 -0.4707 -0.4694
vn 0.7604 0.4062 -0.5067
vn 0.7428 -0.2295 -0.6290
vn 0.6277 -0.2638 -0.7324
vn 0.5126 -0.2266 -0.8282
vn 0.2731 0.2893 -0.9174
vn 0.2847 -0.2703 -0.9197
vn 0.1388 0.2964 -0.9449
vn 0.1229 -0.2698 -0.9550
vn 0.0067 0.2139 -0.9768
vn -0.0598 -0.2852 -0.9566
vn -0.1974 -0.2203 -0.9552
vn -0.4693 -0.2005 -0.8600
vn -0.5598 -0.2575 -0.7876
vn -0.6637 -0.2002 -0.7207
vn -0.7386 -0.2454 -0.6279
vn -0.8360 -0.2395 -0.4936
vn -0.8966 -0.2375 -0.3738
vn -0.9379 -0.2680 -0.2201
vn -0.9572 -0.2516 -0.1430
vn -0.9975 -0.0706 0.0049
vn -0.9565 -0.2636 0.1253
vn -0.9716 -0.0498 0.2314
vn -0.8946 -0.2314 0.3823
vn -0.8477 -0.2263 0.4798
vn -0.7387 -0.2445 0.6281
vn -0.6430 -0.2473 0.7249
vn -0.5702 -0.2119 0.7937
vn -0.4292 -0.2269 0.8743
vn -0.2706 0.2933 0.9169
vn -0.2797 -0.2334 0.9313
vn -0.1300 -0.2502 0.9594
vn -0.0145 -0.3499 0.9367
vn 0.0439 -0.8556 0.5158
vn 0.1297 -0.8947 0.4274
vn 0.2255 -0.8742 0.4301
vn 0.2870 -0.8951 0.3411
vn 0.3964 -0.8642 0.3100
vn 0.3935 -0.8991 0.1918
vn 0.4254 -0.8944 0.1381
vn 0.6160 -0.7845 0.0712
vn 0.4971 -0.8673 -0.0247
vn 0.4480 -0.8862 -0.1181
vn 0.4168 -0.8923 -0.1735
vn 0.3493 -0.8763 -0.3319
vn 0.2708 -0.8842 -0.3805
vn 0.4043 -0.3624 -0.8398
vn 0.1574 -0.8961 -0.4150
vn 0.1366 -0.7551 -0.6412
vn 0.0224 -0.8678 -0.4965
vn -0.0970 -0.8878 -0.4499
vn -0.3583 -0.2597 -0.8967
vn -0.1741 -0.8527 -0.4925
vn -0.2361 -0.8859 -0.3993
vn -0.3711 -0.8222 -0.4316
vn -0.3578 -0.8883 -0.2878
vn -0.3897 -0.8925 -0.2270
vn -0.5257 -0.8329 -0.1728
vn -0.5077 -0.8609 -0.0320
vn -0.4507 -0.8908 0.0571
vn -0.6113 -0.7673 0.1940
vn -0.5383 -0.7582 0.3679
vn -0.3194 -0.8910 0.3226
vn -0.3719 -0.7715 0.5162
vn -0.2025 -0.8944 0.3988
vn -0.1831 -0.7774 0.6018
vn -0.0573 -0.8947 0.4430
vn 0.1087 -0.9902 0.0873
vn -0.0535 -0.8946 -0.4437
vn -0.3440 -0.9236 0.1690
vn 0.0215 -0.9997 -0.0153
vn 0.4075 0.8778 0.2521
vn 0.3261 -0.4354 0.8391
vn -0.9796 -0.2010 -0.0000
vn -0.2375 -0.9714 -0.0000
vn -0.2861 0.3825 -0.8786
vn -0.5994 0.8004 -0.0000
vn 0.4684 0.8835 0.0002
vn -0.2864 0.3824 0.8785
vn 0.3259 -0.4357 -0.8390
vn 0.9990 -0.0453 -0.0002
vn 0.2950 0.9089 -0.2947
vn 0.8154 -0.5082 0.2772
vn 0.7053 0.0674 -0.7057
vn -0.6997 -0.1443 0.6998
vn -0.4239 0.8005 0.4238
vn -0.8203 0.3412 -0.4590
vn 0.4586 0.3415 0.8204
vn -0.2444 -0.9384 0.2442
vn -0.2769 -0.5085 -0.8153
vn 0.8786 0.3822 0.2864
vn 0.0002 -0.9713 0.2377
vn 0.8390 -0.4354 -0.3263
vn -0.8785 0.3825 0.2863
vn -0.0000 0.8005 0.5994
vn -0.0000 0.8834 -0.4686
vn -0.0002 -0.2008 0.9796
vn -0.8391 -0.4354 -0.3260
vn -0.0000 -0.0456 -0.9990
vn -0.7055 0.0676 -0.7055
vn 0.8203 0.3412 -0.4590
vn 0.2769 -0.5085 -0.8154
vn 0.6996 -0.1443 0.6998
vn 0.4239 0.8004 0.4238
vn -0.4590 0.3415 0.8202
vn -0.2947 0.9090 -0.2948
vn 0.2445 -0.9384 0.2441
vn -0.8153 -0.5085 0.2772
vn -0.3261 -0.4354 -0.8391
vn 0.9796 -0.2010 -0.0000
vn 0.2375 -0.9714 -0.0000
vn 0.2861 0.3825 0.8786
vn 0.5994 0.8004 -0.0000
vn -0.4684 0.8835 -0.0002
vn 0.2864 0.3824 -0.8785
vn -0.3259 -0.4357 0.8390
vn -0.9990 -0.0453 0.0002
vn -0.7055 0.0676 0.7055
vn -0.4590 0.3412 -0.8203
vn -0.8154 -0.5085 -0.2769
vn 0.6998 -0.1441 -0.6997
vn 0.4238 0.8005 -0.4238
vn 0.8203 0.3412 0.4590
vn -0.2947 0.9090 0.2947
vn 0.2444 -0.9384 -0.2445
vn 0.2769 -0.5085 0.8153
vn -0.8787 0.3821 -0.2862
vn -0.0002 -0.9713 -0.2377
vn -0.8389 -0.4357 0.3263
vn 0.8785 0.3825 -0.2863
vn -0.0001 0.8005 -0.5994
vn 0.0002 0.8835 0.4684
vn 0.0002 -0.2008 -0.9796
vn 0.8391 -0.4354 0.3260
vn -0.0002 -0.0453 0.9990
vn 0.2947 0.9089 0.2950
vn -0.2772 -0.5082 0.8154
vn 0.7057 0.0673 0.7053
vn -0.6998 -0.1443 -0.6997
vn -0.4238 0.8005 -0.4239
vn 0.4590 0.3412 -0.8203
vn -0.8204 0.3415 0.4586
vn -0.2442 -0.9384 -0.2444
vn 0.8153 -0.5085 -0.2769
vn 0.4079 -0.0081 -0.9130
vn 0.0220 0.9027 0.4296
vn 0.3959 0.9079 0.1376
vn 0.5585 0.2054 -0.8037
vn -0.1787 -0.9081 0.3787
vn -0.3988 -0.9098 -0.1145
vn -0.3304 -0.9105 0.2486
vt 0.516119 0.502264
vt 0.515664 0.501680
vt 0.507586 0.514521
vt 0.490588 0.512635
vt 0.483820 0.498236
vt 0.485389 0.494107
vt 0.498890 0.483652
vt 0.506248 0.485378
vt 0.511826 0.488516
vt 0.491432 0.513395
vt 0.490742 0.486253
vt 0.660588 0.745747
vt 0.506870 0.515085
vt 0.243637 0.638645
vt 0.595294 0.222333
vt 0.690400 0.275189
vt 0.206084 0.499952
vt 0.241738 0.364424
vt 0.762849 0.371465
vt 0.484354 0.205884
vt 0.353385 0.753469
vt 0.623488 0.859850
vt 0.511833 0.790539
vt 0.119158 0.515760
vt 0.135690 0.387439
vt 0.746471 0.208987
vt 0.834550 0.319609
vt 0.878477 0.452818
vt 0.793916 0.499952
vt 0.357809 0.245267
vt 0.189633 0.278410
vt 0.278491 0.189770
vt 0.372946 0.860242
vt 0.274796 0.807692
vt 0.375966 0.138655
vt 0.468478 0.119331
vt 0.196347 0.731928
vt 0.758372 0.635551
vt 0.868424 0.593335
vt 0.807693 0.725203
vt 0.731504 0.803866
vt 0.581847 0.127613
vt 0.670266 0.157382
vt 0.820847 0.291265
vt 0.902345 0.321823
vt 0.857117 0.360684
vt 0.197419 0.265625
vt 0.113743 0.289207
vt 0.164216 0.214613
vt 0.933773 0.426046
vt 0.875058 0.420945
vt 0.264409 0.198330
vt 0.228512 0.154453
vt 0.453038 0.880469
vt 0.371912 0.930640
vt 0.391072 0.867463
vt 0.883018 0.484801
vt 0.318587 0.837072
vt 0.298002 0.890107
vt 0.938464 0.541491
vt 0.877486 0.563454
vt 0.306884 0.104179
vt 0.330868 0.156034
vt 0.390013 0.132805
vt 0.397748 0.081287
vt 0.253062 0.793206
vt 0.214615 0.835783
vt 0.910804 0.659485
vt 0.857043 0.639520
vt 0.208178 0.748555
vt 0.163239 0.784231
vt 0.878953 0.724923
vt 0.820539 0.709211
vt 0.452126 0.119669
vt 0.510154 0.064195
vt 0.515387 0.117028
vt 0.164071 0.683537
vt 0.112272 0.708053
vt 0.836762 0.784230
vt 0.771017 0.771073
vt 0.132798 0.609990
vt 0.076179 0.615598
vt 0.771882 0.840647
vt 0.708611 0.820947
vt 0.594194 0.128993
vt 0.714124 0.115132
vt 0.667986 0.155463
vt 0.710521 0.890976
vt 0.119703 0.548020
vt 0.059707 0.551634
vt 0.639313 0.857110
vt 0.779323 0.155357
vt 0.722130 0.187639
vt 0.116947 0.485221
vt 0.053678 0.493838
vt 0.625084 0.917525
vt 0.578935 0.875069
vt 0.812155 0.190662
vt 0.771059 0.228991
vt 0.124631 0.422381
vt 0.064767 0.432584
vt 0.543858 0.938768
vt 0.515539 0.882985
vt 0.858204 0.243316
vt 0.148823 0.347629
vt 0.076051 0.370420
vt 0.925153 0.730081
vt 0.908887 0.715822
vt 0.893570 0.779994
vt 0.481095 0.017413
vt 0.428637 0.043191
vt 0.557077 0.041983
vt 0.559291 0.020702
vt 0.830113 0.822412
vt 0.842115 0.840957
vt 0.065713 0.711396
vt 0.110333 0.748850
vt 0.061130 0.645602
vt 0.637029 0.036840
vt 0.781333 0.892614
vt 0.700120 0.084336
vt 0.711376 0.065756
vt 0.020603 0.558928
vt 0.038817 0.533412
vt 0.724261 0.904319
vt 0.730081 0.925153
vt 0.676332 0.949635
vt 0.779996 0.106431
vt 0.017442 0.479218
vt 0.040998 0.439368
vt 0.600017 0.950467
vt 0.599911 0.972491
vt 0.823884 0.171308
vt 0.827410 0.144338
vt 0.868042 0.187209
vt 0.027444 0.400075
vt 0.064283 0.345347
vt 0.539920 0.981768
vt 0.904320 0.275739
vt 0.914508 0.252053
vt 0.066435 0.287126
vt 0.127660 0.227485
vt 0.949664 0.323658
vt 0.960501 0.376088
vt 0.960762 0.475511
vt 0.979194 0.439441
vt 0.159046 0.157883
vt 0.218502 0.133302
vt 0.983417 0.500000
vt 0.187207 0.868042
vt 0.243138 0.884346
vt 0.170229 0.824977
vt 0.979397 0.558926
vt 0.269919 0.074847
vt 0.316518 0.075745
vt 0.951163 0.601575
vt 0.968625 0.618672
vt 0.950262 0.674809
vt 0.401686 0.027107
vt 0.130928 0.811508
vt 0.145014 0.639405
vt 0.484801 0.880877
vt 0.287125 0.933565
vt 0.363150 0.940651
vt 0.911783 0.660495
vt 0.937315 0.577925
vt 0.915565 0.655618
vt 0.356196 0.081114
vt 0.420874 0.063249
vt 0.410966 0.066417
vt 0.246353 0.863155
vt 0.187519 0.813068
vt 0.186653 0.811978
vt 0.872568 0.739621
vt 0.869453 0.741508
vt 0.463868 0.059780
vt 0.482696 0.058204
vt 0.130791 0.742557
vt 0.140242 0.756750
vt 0.572753 0.064514
vt 0.554333 0.060541
vt 0.102332 0.693331
vt 0.827746 0.799214
vt 0.808592 0.818306
vt 0.082258 0.643032
vt 0.093268 0.676720
vt 0.772242 0.847662
vt 0.756984 0.859741
vt 0.625291 0.075812
vt 0.662610 0.087181
vt 0.066552 0.590064
vt 0.694842 0.896950
vt 0.676089 0.904950
vt 0.690947 0.101116
vt 0.733168 0.122970
vt 0.061114 0.555125
vt 0.058157 0.518664
vt 0.752996 0.136881
vt 0.786194 0.162734
vt 0.058026 0.482137
vt 0.058055 0.464047
vt 0.610234 0.928873
vt 0.599544 0.931913
vt 0.067490 0.403412
vt 0.068846 0.401486
vt 0.811903 0.186538
vt 0.822375 0.194825
vt 0.524152 0.942000
vt 0.543369 0.941827
vt 0.847236 0.224596
vt 0.860297 0.243450
vt 0.087747 0.339753
vt 0.095213 0.320683
vt 0.420440 0.976774
vt 0.480868 0.962581
vt 0.882849 0.278585
vt 0.871889 0.257994
vt 0.911496 0.338677
vt 0.911139 0.333196
vt 0.142466 0.237421
vt 0.138941 0.242983
vt 0.482165 0.942233
vt 0.930000 0.391794
vt 0.933695 0.401172
vt 0.202069 0.170928
vt 0.199991 0.174753
vt 0.435995 0.939467
vt 0.409815 0.933069
vt 0.408383 0.932357
vt 0.938890 0.445686
vt 0.938694 0.445209
vt 0.338899 0.914112
vt 0.322547 0.905480
vt 0.942843 0.531638
vt 0.945007 0.485167
vt 0.282430 0.114085
vt 0.250140 0.132832
vt 0.938441 0.554268
vt 0.938887 0.555123
vt 0.304491 0.101627
vt 0.233489 0.853562
vt 0.922862 0.634904
vt 0.348287 0.083528
vt 0.609690 0.982018
vt 0.515567 0.991922
vt 0.148372 0.773400
vt 0.079860 0.757692
vt 0.081476 0.652799
vt 0.035758 0.673391
vt 0.563910 0.058791
vt 0.682673 0.043228
vt 0.013407 0.582910
vt 0.055632 0.513908
vt 0.011569 0.440217
vt 0.965539 0.332642
vt 0.991891 0.469680
vt 0.039186 0.319799
vt 0.104126 0.297225
vt 0.985598 0.595375
vt 0.080037 0.239611
vt 0.960450 0.678507
vt 0.439004 0.941314
vt 0.399069 0.984713
vt 0.921474 0.756504
vt 0.869666 0.748975
vt 0.286018 0.944482
vt 0.143039 0.158841
vt 0.250024 0.076363
vt 0.862415 0.836966
vt 0.273053 0.883009
vt 0.183424 0.875343
vt 0.756841 0.920534
vt 0.710512 0.892423
vt 0.431708 0.011165
vt 0.533063 0.007880
vt 0.761941 0.079870
vt 0.825424 0.127782
vt 0.581836 0.991606
vt 0.480811 0.982665
vt 0.479307 0.998109
vt 0.118091 0.179080
vt 0.107385 0.218669
vt 0.398401 0.989024
vt 0.972573 0.341000
vt 0.995341 0.438477
vt 0.361403 0.962646
vt 0.177668 0.118905
vt 0.220009 0.106428
vt 0.998281 0.523010
vt 0.321376 0.966244
vt 0.243089 0.072438
vt 0.988027 0.605477
vt 0.315424 0.036116
vt 0.325189 0.049739
vt 0.244682 0.928906
vt 0.235647 0.904623
vt 0.177941 0.880776
vt 0.964757 0.681974
vt 0.364124 0.021514
vt 0.120491 0.822043
vt 0.916823 0.773356
vt 0.438041 0.004711
vt 0.070478 0.753631
vt 0.095299 0.764404
vt 0.519865 0.001451
vt 0.835440 0.868898
vt 0.602394 0.012877
vt 0.035987 0.684358
vt 0.036841 0.637032
vt 0.662013 0.028073
vt 0.756142 0.928397
vt 0.719420 0.051667
vt 0.011521 0.602646
vt 0.680884 0.964574
vt 0.792650 0.095517
vt 0.001288 0.520844
vt 0.853436 0.147508
vt 0.004659 0.438475
vt 0.885977 0.186618
vt 0.020593 0.360484
vt 0.042775 0.343035
vt 0.930492 0.247071
vt 0.062673 0.260906
vt 0.368786 0.833424
vt 0.448760 0.146138
vt 0.282380 0.785368
vt 0.227415 0.734328
vt 0.831198 0.647197
vt 0.771383 0.741176
vt 0.574930 0.149839
vt 0.186936 0.678399
vt 0.663280 0.817958
vt 0.670079 0.183813
vt 0.142411 0.522552
vt 0.739683 0.230907
vt 0.138353 0.423003
vt 0.548768 0.855122
vt 0.800449 0.303708
vt 0.457262 0.859493
vt 0.169199 0.358564
vt 0.844810 0.378409
vt 0.857471 0.494536
vt 0.273432 0.216384
vt 0.298927 0.910905
vt 0.252032 0.879544
vt 0.204210 0.848971
vt 0.150805 0.795527
vt 0.116699 0.750423
vt 0.061505 0.630366
vt 0.046028 0.556414
vt 0.046071 0.443242
vt 0.061604 0.369302
vt 0.089096 0.298927
vt 0.151029 0.204209
vt 0.204474 0.150805
vt 0.250740 0.118480
vt 0.299242 0.088942
vt 0.371021 0.065575
vt 0.460331 0.046565
vt 0.573200 0.054835
vt 0.537982 0.041625
vt 0.648485 0.084941
vt 0.629869 0.060259
vt 0.698283 0.087732
vt 0.765683 0.127595
vt 0.811586 0.161528
vt 0.848972 0.204210
vt 0.892898 0.265684
vt 0.926106 0.333546
vt 0.943845 0.387603
vt 0.953929 0.443243
vt 0.953367 0.500000
vt 0.953972 0.556413
vt 0.934177 0.603592
vt 0.926232 0.666131
vt 0.902672 0.717915
vt 0.872406 0.765681
vt 0.821549 0.823772
vt 0.765964 0.872205
vt 0.718961 0.904604
vt 0.664638 0.925770
vt 0.595802 0.945944
vt 0.537991 0.958482
vt 0.463221 0.946220
vt 0.500000 0.960163
vt 0.913205 0.235106
vt 0.873100 0.209991
vt 0.879061 0.179653
vt 0.831423 0.140636
vt 0.839502 0.133091
vt 0.840961 0.181608
vt 0.789511 0.129081
vt 0.770060 0.087363
vt 0.724446 0.086483
vt 0.717842 0.055449
vt 0.653217 0.055155
vt 0.660354 0.033649
vt 0.577790 0.035981
vt 0.581290 0.013592
vt 0.519611 0.029501
vt 0.520560 0.006814
vt 0.461318 0.031074
vt 0.459210 0.008511
vt 0.384545 0.043840
vt 0.378747 0.021934
vt 0.310927 0.069085
vt 0.301598 0.048435
vt 0.255607 0.090330
vt 0.243641 0.070261
vt 0.210791 0.128747
vt 0.196674 0.111028
vt 0.153559 0.181453
vt 0.136720 0.166305
vt 0.105792 0.242857
vt 0.086689 0.230684
vt 0.087107 0.288187
vt 0.056148 0.283587
vt 0.054645 0.347580
vt 0.033124 0.340487
vt 0.035651 0.423000
vt 0.013316 0.419568
vt 0.027806 0.497237
vt 0.005960 0.480010
vt 0.008543 0.541003
vt 0.026090 0.619973
vt 0.015551 0.623164
vt 0.043748 0.615282
vt 0.052267 0.696229
vt 0.050445 0.716803
vt 0.068941 0.688685
vt 0.083466 0.747903
vt 0.109358 0.760496
vt 0.110011 0.798387
vt 0.153873 0.818912
vt 0.301935 0.951602
vt 0.258152 0.905988
vt 0.311253 0.930946
vt 0.378463 0.976849
vt 0.365398 0.952976
vt 0.423012 0.964085
vt 0.441422 0.989710
vt 0.500566 0.970404
vt 0.581639 0.986244
vt 0.578116 0.963858
vt 0.641508 0.972763
vt 0.634994 0.951015
vt 0.698680 0.951230
vt 0.689769 0.930401
vt 0.756832 0.929213
vt 0.744839 0.909166
vt 0.803521 0.888559
vt 0.789770 0.870558
vt 0.854481 0.852946
vt 0.837939 0.836457
vt 0.889766 0.802085
vt 0.872020 0.788009
vt 0.924675 0.751638
vt 0.914450 0.722814
vt 0.952113 0.697079
vt 0.945536 0.651583
vt 0.979008 0.619455
vt 0.961236 0.595757
vt 0.991559 0.540262
vt 0.969156 0.538188
vt 0.990631 0.460245
vt 0.970273 0.463293
vt 0.992871 0.416198
vt 0.974072 0.380241
vt 0.956326 0.384517
vt 0.973794 0.340341
vt 0.948500 0.299878
vt 0.931148 0.311182
vt 0.901800 0.261121
vt 0.876438 0.243208
vt 0.814579 0.171066
vt 0.733729 0.108804
vt 0.652266 0.072457
vt 0.557480 0.048629
vt 0.461586 0.045486
vt 0.389537 0.056464
vt 0.316706 0.081571
vt 0.238523 0.127873
vt 0.168962 0.187364
vt 0.125883 0.239257
vt 0.063131 0.369466
vt 0.045940 0.459451
vt 0.034795 0.542094
vt 0.051530 0.570149
vt 0.067535 0.647615
vt 0.097275 0.715073
vt 0.169400 0.812225
vt 0.211414 0.870335
vt 0.212856 0.853632
vt 0.284138 0.900636
vt 0.353461 0.931693
vt 0.427402 0.951487
vt 0.497731 0.954729
vt 0.594818 0.945508
vt 0.698968 0.909274
vt 0.776983 0.858088
vt 0.849162 0.793326
vt 0.910826 0.698377
vt 0.941292 0.613045
vt 0.955501 0.536969
vt 0.948163 0.433409
vt 0.942989 0.387618
vt 0.918084 0.320228
vt 0.405302 0.941695
vt 0.300622 0.906528
vt 0.214379 0.849026
vt 0.157724 0.781996
vt 0.087256 0.685410
vt 0.060814 0.603479
vt 0.047259 0.504091
vt 0.060597 0.398838
vt 0.101155 0.286301
vt 0.155993 0.207692
vt 0.219244 0.144908
vt 0.322370 0.084461
vt 0.434029 0.052052
vt 0.508707 0.047292
vt 0.610696 0.062167
vt 0.739479 0.117514
vt 0.827626 0.188847
vt 0.885249 0.264630
vt 0.949645 0.439973
vt 0.948626 0.550662
vt 0.878735 0.742114
vt 0.903478 0.701614
vt 0.825441 0.812795
vt 0.952121 0.500058
vt 0.706395 0.898617
vt 0.562032 0.946962
vt 0.733529 0.877248
vt 0.144524 0.781133
vt 0.682527 0.083881
vt 0.920612 0.239787
vt 0.386265 0.749351
vt 0.616603 0.998677
vt 0.387527 0.999469
vt 0.864981 0.505749
vt 0.749681 0.624933
vt 0.622983 0.502559
vt 0.621195 0.746759
vt 0.872236 0.747302
vt 0.619484 0.002544
vt 0.385951 0.249420
vt 0.381232 0.001265
vt 0.617314 0.252957
vt 0.379392 0.501250
vt 0.126193 0.748188
vt 0.125848 0.505518
vt 0.617968 0.746248
vt 0.387573 0.999434
vt 0.386257 0.749427
vt 0.871268 0.507286
vt 0.750169 0.625054
vt 0.622344 0.502159
vt 0.871794 0.747881
vt 0.381335 0.001288
vt 0.615537 0.249128
vt 0.386579 0.249524
vt 0.627478 0.742095
vt 0.379751 0.501447
vt 0.126189 0.748174
vt 0.127510 0.503279
vt 0.617336 0.752975
vt 0.387507 0.999492
vt 0.385653 0.748983
vt 0.865431 0.506015
vt 0.749626 0.624681
vt 0.621616 0.501997
vt 0.621146 0.746783
vt 0.872368 0.748131
vt 0.617207 0.001542
vt 0.386264 0.249621
vt 0.381432 0.001305
vt 0.379031 0.501145
vt 0.126194 0.748187
vt 0.127528 0.503261
vt 0.385976 0.748990
vt 0.615193 0.998614
vt 0.387049 0.999486
vt 0.871247 0.507411
vt 0.750082 0.624960
vt 0.621484 0.502198
vt 0.617949 0.746497
vt 0.871926 0.747634
vt 0.619830 0.001644
vt 0.386633 0.250058
vt 0.381336 0.001320
vt 0.627478 0.742096
vt 0.615477 0.249191
vt 0.379833 0.501454
vt 0.126227 0.748208
vt 0.127526 0.503263
vt 0.615368 0.997680
vt 0.387482 0.999467
vt 0.865592 0.505993
vt 0.749691 0.624939
vt 0.621666 0.502007
vt 0.621195 0.746759
vt 0.872202 0.747313
vt 0.614887 0.001220
vt 0.385951 0.249420
vt 0.381219 0.001267
vt 0.617314 0.252957
vt 0.379401 0.501252
vt 0.126189 0.748186
vt 0.125848 0.505518
vt 0.386013 0.749044
vt 0.619791 0.998317
vt 0.380736 0.999086
vt 0.864833 0.505661
vt 0.749985 0.624891
vt 0.620389 0.501600
vt 0.620772 0.748682
vt 0.870938 0.746308
vt 0.618924 0.001586
vt 0.386399 0.249707
vt 0.380930 0.000955
vt 0.379741 0.501437
vt 0.126610 0.748472
vt 0.127511 0.503278
vt 0.617320 0.753045
vt 0.387507 0.999492
vt 0.386032 0.748940
vt 0.865417 0.506001
vt 0.749681 0.624930
vt 0.628990 0.502474
vt 0.621106 0.746884
vt 0.872234 0.747303
vt 0.619482 0.002544
vt 0.386399 0.249707
vt 0.381441 0.001302
vt 0.622398 0.502227
vt 0.379390 0.501203
vt 0.126194 0.748187
vt 0.213959 0.163241
vt 0.339289 0.168034
vt 0.155686 0.602498
vt 0.213319 0.283827
vt 0.424606 0.951810
vt 0.088943 0.700761
vt 0.116699 0.249577
vt 0.907515 0.209669
vt 0.118123 0.823182
vt 0.164547 0.862811
vt 0.227084 0.912085
vt 0.508167 0.995521
vt 0.127979 0.765583
vt 0.481260 0.953623
vt 0.795235 0.155074
vt 0.923825 0.337217
vt 0.617368 0.752987
vt 0.615553 0.998657
vt 0.618467 0.001992
vt 0.615528 0.997681
vt 0.617374 0.253039
vt 0.617368 0.752987
vt 0.616942 0.754905
vt 0.616921 0.254886
vt 0.616559 0.998681
vt 0.616921 0.254887
s 1
usemtl Material.006
f 5/1/1 11/2/2 6/3/3
f 1/4/4 8/5/5 2/6/6
f 3/7/7 10/8/8 4/9/9
f 6/3/3 7/10/10 1/4/4
f 4/9/9 11/2/2 5/1/1
f 2/6/6 9/11/11 3/7/7
f 2/6/6 5/1/1 6/3/3
f 11/2/12 25/12/13 12/13/14
f 7/10/14 15/14/15 8/5/16
f 10/8/12 20/15/17 21/16/18
f 8/5/16 16/17/19 17/18/20
f 10/8/12 21/16/18 22/19/21
f 10/8/12 22/19/21 11/2/12
f 8/5/16 17/18/20 9/11/16
f 9/11/16 19/20/22 10/8/12
f 7/10/14 14/21/23 15/14/15
f 25/12/13 45/22/24 13/23/25
f 16/17/19 31/24/26 32/25/27
f 22/19/21 39/26/28 40/27/29
f 22/19/21 40/27/29 41/28/30
f 22/19/21 41/28/30 23/29/31
f 18/30/32 33/31/33 34/32/34
f 14/21/23 27/33/35 28/34/36
f 19/20/22 35/35/37 36/36/38
f 15/14/15 28/34/36 29/37/39
f 24/38/40 42/39/41 43/40/42
f 25/12/13 43/40/42 44/41/43
f 20/15/17 37/42/44 38/43/45
f 15/14/15 31/24/26 16/17/19
f 25/12/13 44/41/43 45/22/24
f 20/15/17 39/26/28 21/16/18
f 467/44/46 113/45/47 468/46/48
f 457/47/49 101/48/50 102/49/51
f 468/46/48 114/50/52 469/51/53
f 458/52/54 102/49/51 103/53/55
f 446/54/56 127/55/57 447/56/58
f 469/51/53 114/50/52 470/57/59
f 448/58/60 127/55/57 93/59/61
f 470/57/59 115/60/62 471/61/63
f 458/52/54 104/62/64 459/63/65
f 460/64/66 104/62/64 105/65/67
f 449/66/68 93/59/61 94/67/69
f 471/61/63 116/68/70 472/69/71
f 450/70/72 94/67/69 95/71/73
f 472/69/71 117/72/74 473/73/75
f 461/74/76 105/65/67 106/75/77
f 461/74/76 106/75/77 462/76/78
f 451/77/79 95/71/73 96/78/80
f 473/73/75 118/79/81 474/80/82
f 452/81/83 96/78/80 97/82/84
f 474/80/82 119/83/85 475/84/86
f 463/85/87 109/86/88 464/87/89
f 475/84/86 119/83/85 120/88/90
f 453/89/91 97/82/84 98/90/92
f 475/84/86 120/88/90 476/91/93
f 464/87/89 110/92/94 465/93/95
f 454/94/96 98/90/92 136/95/97
f 476/91/93 121/96/98 477/97/99
f 465/93/95 111/98/100 466/99/101
f 455/100/102 136/95/97 99/101/103
f 477/97/99 121/96/98 122/102/104
f 477/97/99 122/102/104 478/103/105
f 466/99/101 112/104/106 467/44/46
f 456/105/107 99/101/103 100/106/108
f 456/105/107 100/106/108 101/48/50
f 438/107/109 65/108/110 439/109/111
f 424/110/112 58/111/113 59/112/114
f 424/110/112 59/112/114 425/113/115
f 439/109/111 66/114/116 440/115/117
f 411/116/118 50/117/119 51/118/120
f 425/113/115 59/112/114 426/119/121
f 440/115/117 66/114/116 441/120/122
f 426/119/121 60/121/123 427/122/124
f 413/123/125 51/118/120 52/124/126
f 441/120/122 67/125/127 442/126/128
f 442/126/128 67/125/127 443/127/129
f 427/122/124 60/121/123 428/128/130
f 414/129/131 52/124/126 53/130/132
f 443/127/129 68/131/133 444/132/134
f 428/128/130 61/133/135 429/134/136
f 429/134/136 61/133/135 430/135/137
f 415/136/138 53/130/132 54/137/139
f 444/132/134 68/131/133 445/138/140
f 430/135/137 62/139/141 431/140/142
f 417/141/143 54/137/139 55/142/144
f 431/140/142 62/139/141 432/143/145
f 63/144/146 64/145/147 433/146/148
f 419/147/149 55/142/144 56/148/150
f 433/146/148 64/145/147 434/149/151
f 408/150/152 48/151/153 49/152/154
f 434/149/151 64/145/147 435/153/155
f 421/154/156 56/148/150 57/155/157
f 435/153/155 69/156/158 436/157/159
f 436/157/159 69/156/158 437/158/160
f 423/159/161 57/155/157 58/111/113
f 437/158/160 65/108/110 438/107/109
f 409/160/162 49/152/154 50/117/119
f 36/36/163 460/64/66 461/74/76
f 28/34/164 450/70/72 29/37/165
f 42/39/166 473/73/75 43/40/167
f 36/36/163 462/76/78 37/42/168
f 29/37/165 451/77/79 30/161/169
f 37/42/168 462/76/78 463/85/87
f 43/40/167 474/80/82 44/41/170
f 44/41/170 474/80/82 475/84/86
f 37/42/168 464/87/89 38/43/171
f 31/24/172 452/81/83 453/89/91
f 44/41/170 475/84/86 45/22/173
f 45/22/173 475/84/86 476/91/93
f 38/43/171 465/93/95 39/26/174
f 31/24/172 455/100/102 32/25/175
f 26/162/176 477/97/99 478/103/105
f 40/27/177 466/99/101 467/44/46
f 32/25/175 456/105/107 33/31/178
f 40/27/177 467/44/46 468/46/48
f 26/162/176 478/103/105 446/54/56
f 40/27/177 469/51/53 41/28/179
f 34/32/180 457/47/49 458/52/54
f 26/162/176 447/56/58 27/33/181
f 27/33/181 447/56/58 448/58/60
f 42/39/166 470/57/59 471/61/63
f 27/33/181 448/58/60 28/34/164
f 34/32/180 459/63/65 35/35/182
f 406/163/183 47/164/184 48/151/153
f 259/165/185 329/166/186 331/167/187
f 243/168/188 315/169/189 244/170/190
f 228/171/191 299/172/192 229/173/193
f 260/174/194 331/167/187 332/175/195
f 244/170/190 317/176/196 245/177/197
f 229/173/193 301/178/198 231/179/199
f 245/177/197 318/180/200 246/181/201
f 231/179/199 301/178/198 232/182/202
f 261/183/203 332/175/195 334/184/204
f 232/182/202 303/185/205 233/186/206
f 262/187/207 334/184/204 335/188/208
f 247/189/209 318/180/200 319/190/210
f 233/186/206 303/185/205 234/191/211
f 263/192/212 335/188/208 337/193/213
f 248/194/214 319/190/210 320/195/215
f 234/191/211 305/196/216 235/197/217
f 249/198/218 320/195/215 321/199/219
f 235/197/217 306/200/220 236/201/221
f 265/202/222 337/193/213 338/203/223
f 236/201/221 307/204/224 237/205/225
f 250/206/226 321/199/219 323/207/227
f 266/208/228 338/203/223 339/209/229
f 251/210/230 323/207/227 324/211/231
f 237/205/225 308/212/232 238/213/233
f 404/214/234 46/215/235 47/164/184
f 252/216/236 324/211/231 322/217/237
f 253/218/238 322/217/237 325/219/239
f 238/213/233 310/220/240 239/221/241
f 266/208/228 339/209/229 294/222/242
f 254/223/243 325/219/239 326/224/244
f 239/221/241 311/225/245 240/226/246
f 225/227/247 295/228/248 226/229/249
f 255/230/250 326/224/244 327/231/251
f 226/229/249 296/232/252 227/233/253
f 256/234/254 327/231/251 328/235/255
f 240/226/246 313/236/256 241/237/257
f 257/238/258 328/235/255 330/239/259
f 241/237/257 313/236/256 242/240/260
f 227/233/253 298/241/261 228/171/191
f 258/242/262 330/239/259 329/166/186
f 242/240/260 314/243/263 243/168/188
f 338/203/223 401/244/264 402/245/265
f 300/246/266 350/247/267 302/248/268
f 302/248/268 350/247/267 352/249/269
f 316/250/270 376/251/271 319/190/210
f 302/248/268 354/252/272 304/253/273
f 304/253/273 354/252/272 356/254/274
f 326/224/244 385/255/275 387/256/276
f 326/224/244 387/256/276 328/235/255
f 307/204/224 359/257/277 309/258/278
f 329/166/186 387/256/276 390/259/279
f 310/220/240 359/257/277 361/260/280
f 329/166/186 392/261/281 331/167/187
f 293/262/282 402/245/265 342/263/283
f 331/167/187 392/261/281 394/264/284
f 331/167/187 394/264/284 333/265/285
f 296/232/252 342/263/283 344/266/286
f 311/225/245 363/267/287 366/268/288
f 333/265/285 394/264/284 396/269/289
f 311/225/245 366/268/288 313/236/256
f 297/270/290 344/266/286 347/271/291
f 313/236/256 366/268/288 314/243/263
f 297/270/290 347/271/291 298/241/261
f 334/184/204 397/272/292 336/273/293
f 314/243/263 366/268/288 370/274/294
f 336/273/293 401/244/264 338/203/223
f 315/169/189 372/275/295 316/250/270
f 300/246/266 347/271/291 350/247/267
f 322/217/237 378/276/296 379/277/297
f 400/278/298 403/279/299 340/280/300
f 362/281/301 418/282/302 419/147/149
f 341/283/303 403/279/299 404/214/234
f 384/284/304 433/146/148 386/285/305
f 341/283/303 404/214/234 405/286/306
f 364/287/307 419/147/149 420/288/308
f 386/285/305 434/149/151 388/289/309
f 343/290/310 405/286/306 406/163/183
f 365/291/311 420/288/308 421/154/156
f 388/289/309 435/153/155 389/292/312
f 367/293/313 421/154/156 422/294/314
f 345/295/315 406/163/183 407/296/316
f 346/297/317 407/296/316 408/150/152
f 389/292/312 437/158/160 391/298/318
f 368/299/319 422/294/314 423/159/161
f 348/300/320 408/150/152 409/160/162
f 391/298/318 438/107/109 393/301/321
f 369/302/322 423/159/161 424/110/112
f 349/303/323 409/160/162 410/304/324
f 371/305/325 424/110/112 425/113/115
f 349/303/323 410/304/324 411/116/118
f 393/301/321 440/115/117 395/306/326
f 371/305/325 425/113/115 373/307/327
f 351/308/328 411/116/118 412/309/329
f 373/307/327 426/119/121 374/310/330
f 395/306/326 441/120/122 398/311/331
f 374/310/330 427/122/124 375/312/332
f 353/313/333 412/309/329 413/123/125
f 398/311/331 443/127/129 399/314/334
f 375/312/332 428/128/130 377/315/335
f 355/316/336 413/123/125 414/129/131
f 399/314/334 444/132/134 400/278/298
f 377/315/335 429/134/136 380/317/337
f 357/318/338 414/129/131 415/136/138
f 380/317/337 430/135/137 381/319/339
f 358/320/340 415/136/138 416/321/341
f 381/319/339 431/140/142 382/322/342
f 360/323/343 416/321/341 417/141/143
f 382/322/342 432/143/145 384/284/304
f 360/323/343 417/141/143 418/282/302
f 47/164/184 73/324/344 48/151/153
f 57/155/157 84/325/345 58/111/113
f 48/151/153 74/326/346 49/152/154
f 49/152/154 75/327/347 50/117/119
f 58/111/113 84/325/345 59/112/114
f 66/114/116 70/328/348 91/329/349
f 59/112/114 84/325/345 85/330/350
f 50/117/119 76/331/351 51/118/120
f 67/125/127 91/329/349 92/332/352
f 60/121/123 85/330/350 86/333/353
f 51/118/120 78/334/354 52/124/126
f 60/121/123 87/335/355 61/133/135
f 52/124/126 79/336/356 53/130/132
f 68/131/133 92/332/352 71/337/357
f 53/130/132 79/336/356 54/137/139
f 61/133/135 87/335/355 88/338/358
f 46/215/235 71/337/357 72/339/359
f 54/137/139 79/336/356 80/340/360
f 54/137/139 80/340/360 55/142/144
f 46/215/235 72/339/359 47/164/184
f 64/145/147 89/341/361 90/342/362
f 55/142/144 82/343/363 56/148/150
f 47/164/184 72/339/359 73/324/344
f 89/341/361 84/325/345 79/336/356
f 127/55/57 128/344/364 93/59/61
f 129/345/365 130/346/366 94/67/69
f 94/67/69 131/347/367 95/71/73
f 95/71/73 132/348/368 96/78/80
f 96/78/80 134/349/369 97/82/84
f 97/82/84 135/350/370 98/90/92
f 136/95/97 137/351/371 99/101/103
f 99/101/103 138/352/372 100/106/108
f 100/106/108 139/353/373 101/48/50
f 101/48/50 141/354/374 102/49/51
f 102/49/51 142/355/375 103/53/55
f 143/356/376 144/357/377 104/62/64
f 104/62/64 146/358/378 105/65/67
f 105/65/67 146/358/378 148/359/379
f 107/360/380 148/359/379 149/361/381
f 106/75/77 107/360/380 108/362/382
f 108/362/382 107/360/380 150/363/383
f 108/362/382 150/363/383 151/364/384
f 109/86/88 151/364/384 152/365/385
f 110/92/94 152/365/385 153/366/386
f 111/98/100 110/92/94 154/367/387
f 112/104/106 154/367/387 155/368/388
f 113/45/47 155/368/388 156/369/389
f 114/50/52 156/369/389 157/370/390
f 114/50/52 157/370/390 158/371/391
f 115/60/62 114/50/52 159/372/392
f 115/60/62 159/372/392 160/373/393
f 116/68/70 161/374/394 162/375/395
f 117/72/74 162/375/395 163/376/396
f 117/72/74 163/376/396 164/377/397
f 118/79/81 164/377/397 165/378/398
f 119/83/85 118/79/81 165/378/398
f 119/83/85 165/378/398 166/379/399
f 120/88/90 166/379/399 167/380/400
f 121/96/98 120/88/90 168/381/401
f 122/102/104 170/382/402 171/383/403
f 123/384/404 171/383/403 124/385/405
f 124/386/405 173/387/406 125/388/407
f 125/388/407 126/389/408 127/390/57
f 173/387/406 214/391/409 126/389/408
f 126/389/408 174/392/410 128/393/364
f 128/393/364 175/394/411 129/395/365
f 129/395/365 176/396/412 130/397/366
f 130/397/366 177/398/413 131/399/367
f 131/399/367 178/400/414 132/401/368
f 132/401/368 179/402/415 133/403/416
f 133/403/416 180/404/417 134/405/369
f 134/405/369 181/406/418 135/407/370
f 135/407/370 182/408/419 136/409/97
f 182/408/419 183/410/420 137/411/371
f 137/411/371 184/412/421 138/413/372
f 138/413/372 185/414/422 139/415/373
f 139/415/373 216/416/423 140/417/424
f 140/417/424 186/418/425 141/419/374
f 141/419/374 187/420/426 142/421/375
f 142/421/375 188/422/427 143/423/376
f 143/423/376 188/422/427 144/424/377
f 144/424/377 145/425/428 146/426/378
f 144/424/377 189/427/429 145/425/428
f 146/426/378 147/428/430 148/429/379
f 145/425/428 190/430/431 147/428/430
f 191/431/432 192/432/433 149/433/381
f 149/433/381 192/432/433 193/434/434
f 152/435/385 194/436/435 195/437/436
f 153/438/386 152/435/385 196/439/437
f 153/438/386 196/439/437 197/440/438
f 154/441/387 197/440/438 198/442/439
f 156/443/389 198/442/439 199/444/440
f 157/445/390 199/444/440 200/446/441
f 158/447/391 200/446/441 201/448/442
f 159/449/392 158/447/391 202/450/443
f 160/451/393 202/450/443 203/452/444
f 161/453/394 160/451/393 204/454/445
f 162/455/395 204/454/445 205/456/446
f 163/457/396 205/456/446 206/458/447
f 164/459/397 206/458/447 207/460/448
f 165/461/398 207/460/448 208/462/449
f 166/463/399 208/462/449 209/464/450
f 167/465/400 166/463/399 210/466/451
f 168/467/401 167/465/400 169/468/452
f 169/468/452 210/466/451 211/469/453
f 170/470/402 169/468/452 171/471/403
f 171/471/403 211/469/453 212/472/454
f 124/386/405 212/472/454 172/473/455
f 173/387/406 172/473/455 213/474/456
f 214/391/409 267/475/457 174/392/410
f 174/392/410 268/476/458 175/394/411
f 175/394/411 269/477/459 176/396/412
f 176/396/412 270/478/460 177/398/413
f 177/398/413 270/478/460 178/400/414
f 178/400/414 272/479/461 179/402/415
f 179/402/415 271/480/462 180/404/417
f 180/404/417 215/481/463 181/406/418
f 181/406/418 274/482/464 182/408/419
f 182/408/419 274/482/464 183/410/420
f 183/410/420 273/483/465 184/412/421
f 184/412/421 275/484/466 185/414/422
f 216/416/423 276/485/467 186/418/425
f 186/418/425 276/485/467 187/420/426
f 187/420/426 277/486/468 188/422/427
f 217/487/469 278/488/470 189/427/429
f 189/427/429 218/489/471 190/430/431
f 190/430/431 192/432/433 191/431/432
f 190/430/431 279/490/472 192/432/433
f 192/432/433 281/491/473 193/434/434
f 220/492/474 281/491/473 219/493/475
f 194/436/435 220/492/474 282/494/476
f 195/437/436 282/494/476 283/495/477
f 197/440/438 283/495/477 284/496/478
f 198/442/439 284/496/478 285/497/479
f 199/444/440 285/497/479 286/498/480
f 201/448/442 286/498/480 288/499/481
f 203/452/444 288/499/481 287/500/482
f 204/454/445 287/500/482 221/501/483
f 206/458/447 221/501/483 222/502/484
f 207/460/448 222/502/484 290/503/485
f 209/464/450 290/503/485 223/504/486
f 210/466/451 223/504/486 291/505/487
f 211/469/453 291/505/487 224/506/488
f 212/472/454 224/506/488 292/507/489
f 213/474/456 267/475/457 214/391/409
f 267/508/457 227/233/253 268/509/458
f 268/509/458 228/171/191 269/510/459
f 269/510/459 228/171/191 230/511/490
f 272/512/461 233/186/206 271/513/462
f 271/513/462 233/186/206 234/191/211
f 274/514/464 234/191/211 236/201/221
f 273/515/465 236/201/221 237/205/225
f 275/516/466 237/205/225 238/213/233
f 275/516/466 239/221/241 276/517/467
f 276/517/467 239/221/241 240/226/246
f 276/517/467 241/237/257 277/518/468
f 217/487/469 277/486/468 278/488/470
f 278/519/470 244/170/190 279/520/472
f 279/520/472 244/170/190 280/521/491
f 280/521/491 246/181/201 281/522/473
f 246/181/201 248/194/214 281/522/473
f 282/523/476 248/194/214 249/198/218
f 284/524/478 249/198/218 251/210/230
f 284/524/478 251/210/230 285/525/479
f 285/525/479 254/223/243 288/526/481
f 288/526/481 254/223/243 287/527/482
f 221/501/483 287/500/482 289/528/492
f 287/527/482 258/242/262 289/529/492
f 221/501/483 289/528/492 222/502/484
f 222/502/484 289/528/492 290/503/485
f 290/530/485 260/174/194 261/183/203
f 223/504/486 290/503/485 291/531/487
f 224/506/488 291/505/487 292/507/489
f 291/532/487 265/202/222 292/533/489
f 292/507/489 213/474/456 172/473/455
f 230/511/490 228/171/191 229/173/193
f 233/186/206 230/511/490 232/182/202
f 234/191/211 235/197/217 236/201/221
f 244/170/190 242/240/260 243/168/188
f 248/194/214 246/181/201 247/189/209
f 249/198/218 250/206/226 251/210/230
f 262/187/207 263/192/212 264/534/493
f 230/511/490 272/512/461 270/535/460
f 282/523/476 219/536/475 281/522/473
f 299/172/192 300/246/266 301/178/198
f 301/178/198 300/246/266 302/248/268
f 301/178/198 302/248/268 303/185/205
f 303/185/205 304/253/273 305/196/216
f 305/196/216 304/253/273 306/200/220
f 315/169/189 316/250/270 317/176/196
f 317/176/196 316/250/270 318/180/200
f 321/199/219 320/195/215 323/207/227
f 320/195/215 322/217/237 323/207/227
f 323/207/227 322/217/237 324/211/231
f 330/239/259 328/235/255 329/166/186
f 332/175/195 331/167/187 333/265/285
f 336/273/293 338/203/223 337/193/213
f 339/209/229 293/262/282 294/222/242
f 266/208/228 294/222/242 225/227/247
f 340/280/300 341/283/303 342/263/283
f 344/266/286 342/263/283 343/290/310
f 347/271/291 344/266/286 346/297/317
f 347/271/291 348/300/320 350/247/267
f 350/247/267 348/300/320 349/303/323
f 352/249/269 349/303/323 351/308/328
f 354/252/272 352/249/269 353/313/333
f 354/252/272 353/313/333 355/316/336
f 356/254/274 355/316/336 357/318/338
f 356/254/274 357/318/338 358/320/340
f 359/257/277 358/320/340 360/323/343
f 359/257/277 360/323/343 361/260/280
f 363/267/287 361/260/280 362/281/301
f 363/267/287 362/281/301 364/287/307
f 363/267/287 364/287/307 366/268/288
f 370/274/294 368/299/319 369/302/322
f 372/275/295 370/274/294 371/305/325
f 372/275/295 373/307/327 376/251/271
f 373/307/327 374/310/330 376/251/271
f 374/310/330 375/312/332 376/251/271
f 376/251/271 375/312/332 378/276/296
f 375/312/332 377/315/335 378/276/296
f 378/276/296 377/315/335 379/277/297
f 379/277/297 377/315/335 380/317/337
f 379/277/297 380/317/337 381/319/339
f 379/277/297 381/319/339 383/537/494
f 381/319/339 382/322/342 383/537/494
f 382/322/342 384/284/304 385/255/275
f 385/255/275 386/285/305 387/256/276
f 388/289/309 389/292/312 390/259/279
f 390/259/279 391/298/318 392/261/281
f 394/264/284 391/298/318 393/301/321
f 394/264/284 393/301/321 396/269/289
f 393/301/321 395/306/326 396/269/289
f 396/269/289 395/306/326 397/272/292
f 397/272/292 399/314/334 401/244/264
f 399/314/334 400/278/298 401/244/264
f 401/244/264 400/278/298 402/245/265
f 445/138/140 46/215/235 403/279/299
f 446/54/56 122/102/104 123/384/404
f 6/3/3 11/2/2 12/13/567
f 1/4/4 7/10/10 8/5/5
f 6/3/3 12/13/567 7/10/10
f 4/9/9 10/8/8 11/2/2
f 2/6/6 8/5/5 9/11/11
f 3/7/7 9/11/11 10/8/8
f 3/7/7 4/9/9 2/6/6
f 4/9/9 5/1/1 2/6/6
f 6/3/3 1/4/4 2/6/6
f 11/2/12 24/38/40 25/12/13
f 8/5/16 15/14/15 16/17/19
f 12/13/14 25/12/13 13/23/25
f 7/10/14 12/13/14 13/23/25
f 11/2/12 22/19/21 23/29/31
f 9/11/16 17/18/20 18/30/32
f 7/10/14 13/23/25 14/21/23
f 11/2/12 23/29/31 24/38/40
f 9/11/16 18/30/32 19/20/22
f 10/8/12 19/20/22 20/15/17
f 17/18/20 16/17/19 32/25/27
f 13/23/25 45/22/24 26/162/568
f 22/19/21 21/16/18 39/26/28
f 17/18/20 32/25/27 33/31/33
f 18/30/32 17/18/20 33/31/33
f 13/23/25 26/162/568 27/33/35
f 14/21/23 13/23/25 27/33/35
f 23/29/31 41/28/30 42/39/41
f 18/30/32 34/32/34 35/35/37
f 24/38/40 23/29/31 42/39/41
f 19/20/22 18/30/32 35/35/37
f 15/14/15 14/21/23 28/34/36
f 19/20/22 36/36/38 37/42/44
f 15/14/15 29/37/39 30/161/569
f 20/15/17 19/20/22 37/42/44
f 25/12/13 24/38/40 43/40/42
f 15/14/15 30/161/569 31/24/26
f 20/15/17 38/43/45 39/26/28
f 457/47/49 456/105/107 101/48/50
f 468/46/48 113/45/47 114/50/52
f 458/52/54 457/47/49 102/49/51
f 446/54/56 123/384/404 127/55/57
f 470/57/59 114/50/52 115/60/62
f 448/58/60 447/56/58 127/55/57
f 458/52/54 103/53/55 104/62/64
f 471/61/63 115/60/62 161/374/394
f 460/64/66 459/63/65 104/62/64
f 449/66/68 448/58/60 93/59/61
f 471/61/63 161/374/394 116/68/70
f 461/74/76 460/64/66 105/65/67
f 450/70/72 449/66/68 94/67/69
f 472/69/71 116/68/70 117/72/74
f 451/77/79 450/70/72 95/71/73
f 473/73/75 117/72/74 118/79/81
f 463/85/87 462/76/78 106/75/77
f 474/80/82 118/79/81 119/83/85
f 463/85/87 106/75/77 108/362/382
f 452/81/83 451/77/79 96/78/80
f 463/85/87 108/362/382 109/86/88
f 453/89/91 452/81/83 97/82/84
f 464/87/89 109/86/88 110/92/94
f 454/94/96 453/89/91 98/90/92
f 476/91/93 120/88/90 121/96/98
f 465/93/95 110/92/94 111/98/100
f 455/100/102 454/94/96 136/95/97
f 466/99/101 111/98/100 112/104/106
f 456/105/107 455/100/102 99/101/103
f 467/44/46 112/104/106 113/45/47
f 410/304/324 409/160/162 50/117/119
f 439/109/111 65/108/110 66/114/116
f 411/116/118 410/304/324 50/117/119
f 412/309/329 411/116/118 51/118/120
f 426/119/121 59/112/114 60/121/123
f 441/120/122 66/114/116 67/125/127
f 413/123/125 412/309/329 51/118/120
f 414/129/131 413/123/125 52/124/126
f 443/127/129 67/125/127 68/131/133
f 428/128/130 60/121/123 61/133/135
f 415/136/138 414/129/131 53/130/132
f 416/321/341 415/136/138 54/137/139
f 430/135/137 61/133/135 62/139/141
f 417/141/143 416/321/341 54/137/139
f 418/282/302 417/141/143 55/142/144
f 432/143/145 62/139/141 63/144/146
f 419/147/149 418/282/302 55/142/144
f 420/288/308 419/147/149 56/148/150
f 421/154/156 420/288/308 56/148/150
f 435/153/155 64/145/147 69/156/158
f 422/294/314 421/154/156 57/155/157
f 423/159/161 422/294/314 57/155/157
f 408/150/152 407/296/316 48/151/153
f 437/158/160 69/156/158 65/108/110
f 409/160/162 408/150/152 49/152/154
f 424/110/112 423/159/161 58/111/113
f 42/39/166 471/61/63 472/69/71
f 36/36/163 35/35/182 460/64/66
f 28/34/164 449/66/68 450/70/72
f 42/39/166 472/69/71 473/73/75
f 36/36/163 461/74/76 462/76/78
f 29/37/165 450/70/72 451/77/79
f 43/40/167 473/73/75 474/80/82
f 30/161/169 451/77/79 452/81/83
f 37/42/168 463/85/87 464/87/89
f 31/24/172 30/161/169 452/81/83
f 38/43/171 464/87/89 465/93/95
f 31/24/172 453/89/91 454/94/96
f 45/22/173 476/91/93 477/97/99
f 39/26/174 465/93/95 466/99/101
f 31/24/172 454/94/96 455/100/102
f 26/162/176 45/22/173 477/97/99
f 40/27/177 39/26/174 466/99/101
f 32/25/175 455/100/102 456/105/107
f 33/31/178 456/105/107 457/47/49
f 40/27/177 468/46/48 469/51/53
f 34/32/180 33/31/178 457/47/49
f 26/162/176 446/54/56 447/56/58
f 41/28/179 469/51/53 470/57/59
f 42/39/166 41/28/179 470/57/59
f 34/32/180 458/52/54 459/63/65
f 35/35/182 459/63/65 460/64/66
f 28/34/164 448/58/60 449/66/68
f 407/296/316 406/163/183 48/151/153
f 406/163/183 405/286/306 47/164/184
f 292/533/489 266/208/228 225/227/247
f 259/165/185 258/242/262 329/166/186
f 243/168/188 314/243/263 315/169/189
f 228/171/191 298/241/261 299/172/192
f 244/170/190 315/169/189 317/176/196
f 260/174/194 259/165/185 331/167/187
f 229/173/193 299/172/192 301/178/198
f 245/177/197 317/176/196 318/180/200
f 261/183/203 260/174/194 332/175/195
f 232/182/202 301/178/198 303/185/205
f 262/187/207 261/183/203 334/184/204
f 247/189/209 246/181/201 318/180/200
f 248/194/214 247/189/209 319/190/210
f 234/191/211 303/185/205 305/196/216
f 263/192/212 262/187/207 335/188/208
f 249/198/218 248/194/214 320/195/215
f 235/197/217 305/196/216 306/200/220
f 265/202/222 263/192/212 337/193/213
f 250/206/226 249/198/218 321/199/219
f 236/201/221 306/200/220 307/204/224
f 266/208/228 265/202/222 338/203/223
f 251/210/230 250/206/226 323/207/227
f 237/205/225 307/204/224 308/212/232
f 404/214/234 403/279/299 46/215/235
f 252/216/236 251/210/230 324/211/231
f 238/213/233 308/212/232 309/258/278
f 253/218/238 252/216/236 322/217/237
f 238/213/233 309/258/278 310/220/240
f 254/223/243 253/218/238 325/219/239
f 239/221/241 310/220/240 311/225/245
f 225/227/247 294/222/242 295/228/248
f 255/230/250 254/223/243 326/224/244
f 240/226/246 311/225/245 312/639/570
f 226/229/249 295/228/248 296/232/252
f 256/234/254 255/230/250 327/231/251
f 240/226/246 312/639/570 313/236/256
f 257/238/258 256/234/254 328/235/255
f 227/233/253 296/232/252 297/270/290
f 242/240/260 313/236/256 314/243/263
f 227/233/253 297/270/290 298/241/261
f 258/242/262 257/238/258 330/239/259
f 316/250/270 372/275/295 376/251/271
f 322/217/237 379/277/297 383/537/494
f 405/286/306 404/214/234 47/164/184
f 302/248/268 352/249/269 354/252/272
f 325/219/239 322/217/237 383/537/494
f 325/219/239 383/537/494 385/255/275
f 326/224/244 325/219/239 385/255/275
f 307/204/224 304/253/273 356/254/274
f 329/166/186 328/235/255 387/256/276
f 307/204/224 356/254/274 359/257/277
f 310/220/240 309/258/278 359/257/277
f 329/166/186 390/259/279 392/261/281
f 310/220/240 361/260/280 363/267/287
f 293/262/282 338/203/223 402/245/265
f 311/225/245 310/220/240 363/267/287
f 296/232/252 293/262/282 342/263/283
f 297/270/290 296/232/252 344/266/286
f 334/184/204 333/265/285 396/269/289
f 334/184/204 396/269/289 397/272/292
f 315/169/189 314/243/263 370/274/294
f 320/195/215 319/190/210 376/251/271
f 320/195/215 376/251/271 378/276/296
f 336/273/293 397/272/292 401/244/264
f 315/169/189 370/274/294 372/275/295
f 300/246/266 298/241/261 347/271/291
f 322/217/237 320/195/215 378/276/296
f 362/281/301 360/323/343 418/282/302
f 400/278/298 445/138/140 403/279/299
f 384/284/304 432/143/145 63/144/146
f 341/283/303 340/280/300 403/279/299
f 384/284/304 63/144/146 433/146/148
f 364/287/307 362/281/301 419/147/149
f 343/290/310 341/283/303 405/286/306
f 386/285/305 433/146/148 434/149/151
f 365/291/311 364/287/307 420/288/308
f 388/289/309 434/149/151 435/153/155
f 345/295/315 343/290/310 406/163/183
f 367/293/313 365/291/311 421/154/156
f 389/292/312 435/153/155 436/157/159
f 346/297/317 345/295/315 407/296/316
f 389/292/312 436/157/159 437/158/160
f 368/299/319 367/293/313 422/294/314
f 369/302/322 368/299/319 423/159/161
f 348/300/320 346/297/317 408/150/152
f 391/298/318 437/158/160 438/107/109
f 393/301/321 438/107/109 439/109/111
f 371/305/325 369/302/322 424/110/112
f 349/303/323 348/300/320 409/160/162
f 393/301/321 439/109/111 440/115/117
f 351/308/328 349/303/323 411/116/118
f 373/307/327 425/113/115 426/119/121
f 395/306/326 440/115/117 441/120/122
f 353/313/333 351/308/328 412/309/329
f 374/310/330 426/119/121 427/122/124
f 398/311/331 441/120/122 442/126/128
f 355/316/336 353/313/333 413/123/125
f 398/311/331 442/126/128 443/127/129
f 375/312/332 427/122/124 428/128/130
f 357/318/338 355/316/336 414/129/131
f 399/314/334 443/127/129 444/132/134
f 377/315/335 428/128/130 429/134/136
f 380/317/337 429/134/136 430/135/137
f 358/320/340 357/318/338 415/136/138
f 400/278/298 444/132/134 445/138/140
f 381/319/339 430/135/137 431/140/142
f 360/323/343 358/320/340 416/321/341
f 382/322/342 431/140/142 432/143/145
f 57/155/157 56/148/150 83/640/571
f 69/156/158 64/145/147 90/342/362
f 48/151/153 73/324/344 74/326/346
f 57/155/157 83/640/571 84/325/345
f 65/108/110 69/156/158 70/328/348
f 49/152/154 74/326/346 75/327/347
f 50/117/119 75/327/347 76/331/351
f 66/114/116 65/108/110 70/328/348
f 51/118/120 76/331/351 77/641/572
f 60/121/123 59/112/114 85/330/350
f 67/125/127 66/114/116 91/329/349
f 51/118/120 77/641/572 78/334/354
f 68/131/133 67/125/127 92/332/352
f 60/121/123 86/333/353 87/335/355
f 52/124/126 78/334/354 79/336/356
f 46/215/235 68/131/133 71/337/357
f 62/139/141 61/133/135 88/338/358
f 62/139/141 88/338/358 89/341/361
f 55/142/144 80/340/360 81/642/573
f 63/144/146 62/139/141 89/341/361
f 55/142/144 81/642/573 82/343/363
f 64/145/147 63/144/146 89/341/361
f 56/148/150 82/343/363 83/640/571
f 69/156/158 90/342/362 70/328/348
f 87/335/355 86/333/353 85/330/350
f 84/325/345 83/640/571 82/343/363
f 78/334/354 77/641/572 76/331/351
f 71/337/357 92/332/352 72/339/359
f 91/329/349 70/328/348 92/332/352
f 81/642/573 80/340/360 82/343/363
f 80/340/360 79/336/356 82/343/363
f 79/336/356 78/334/354 76/331/351
f 75/327/347 74/326/346 76/331/351
f 74/326/346 73/324/344 76/331/351
f 73/324/344 72/339/359 92/332/352
f 70/328/348 90/342/362 92/332/352
f 90/342/362 89/341/361 92/332/352
f 89/341/361 88/338/358 84/325/345
f 88/338/358 87/335/355 84/325/345
f 87/335/355 85/330/350 84/325/345
f 84/325/345 82/343/363 79/336/356
f 79/336/356 76/331/351 89/341/361
f 76/331/351 73/324/344 89/341/361
f 73/324/344 92/332/352 89/341/361
f 123/384/404 125/643/407 127/55/57
f 93/59/61 128/344/364 129/345/365
f 93/59/61 129/345/365 94/67/69
f 94/67/69 130/346/366 131/347/367
f 95/71/73 131/347/367 132/348/368
f 96/78/80 132/348/368 133/644/416
f 96/78/80 133/644/416 134/349/369
f 97/82/84 134/349/369 135/350/370
f 98/90/92 135/350/370 136/95/97
f 99/101/103 137/351/371 138/352/372
f 100/106/108 138/352/372 139/353/373
f 101/48/50 139/353/373 140/645/424
f 101/48/50 140/645/424 141/354/374
f 102/49/51 141/354/374 142/355/375
f 103/53/55 142/355/375 143/356/376
f 103/53/55 143/356/376 104/62/64
f 104/62/64 144/357/377 146/358/378
f 105/65/67 148/359/379 106/75/77
f 107/360/380 106/75/77 148/359/379
f 109/86/88 108/362/382 151/364/384
f 110/92/94 109/86/88 152/365/385
f 154/367/387 110/92/94 153/366/386
f 112/104/106 111/98/100 154/367/387
f 113/45/47 112/104/106 155/368/388
f 114/50/52 113/45/47 156/369/389
f 159/372/392 114/50/52 158/371/391
f 161/374/394 115/60/62 160/373/393
f 117/72/74 116/68/70 162/375/395
f 118/79/81 117/72/74 164/377/397
f 120/88/90 119/83/85 166/379/399
f 168/381/401 120/88/90 167/380/400
f 121/96/98 168/381/401 170/382/402
f 122/102/104 121/96/98 170/382/402
f 123/384/404 122/102/104 171/383/403
f 124/386/405 172/473/455 173/387/406
f 125/388/407 123/646/404 124/386/405
f 125/388/407 173/387/406 126/389/408
f 126/389/408 214/391/409 174/392/410
f 127/390/57 126/389/408 128/393/364
f 128/393/364 174/392/410 175/394/411
f 129/395/365 175/394/411 176/396/412
f 130/397/366 176/396/412 177/398/413
f 131/399/367 177/398/413 178/400/414
f 132/401/368 178/400/414 179/402/415
f 133/403/416 179/402/415 180/404/417
f 134/405/369 180/404/417 181/406/418
f 135/407/370 181/406/418 182/408/419
f 136/409/97 182/408/419 137/411/371
f 137/411/371 183/410/420 184/412/421
f 138/413/372 184/412/421 185/414/422
f 139/415/373 185/414/422 216/416/423
f 140/417/424 216/416/423 186/418/425
f 141/419/374 186/418/425 187/420/426
f 142/421/375 187/420/426 188/422/427
f 144/424/377 188/422/427 217/487/469
f 144/424/377 217/487/469 189/427/429
f 146/426/378 145/425/428 147/428/430
f 145/425/428 189/427/429 190/430/431
f 148/429/379 147/428/430 191/431/432
f 147/428/430 190/430/431 191/431/432
f 148/429/379 191/431/432 149/433/381
f 107/647/380 149/433/381 150/648/383
f 150/648/383 149/433/381 193/434/434
f 220/492/474 150/648/383 193/434/434
f 151/649/384 150/648/383 220/492/474
f 194/436/435 151/649/384 220/492/474
f 152/435/385 151/649/384 194/436/435
f 196/439/437 152/435/385 195/437/436
f 154/441/387 153/438/386 197/440/438
f 155/650/388 154/441/387 198/442/439
f 156/443/389 155/650/388 198/442/439
f 157/445/390 156/443/389 199/444/440
f 158/447/391 157/445/390 200/446/441
f 202/450/443 158/447/391 201/448/442
f 160/451/393 159/449/392 202/450/443
f 204/454/445 160/451/393 203/452/444
f 162/455/395 161/453/394 204/454/445
f 163/457/396 162/455/395 205/456/446
f 164/459/397 163/457/396 206/458/447
f 165/461/398 164/459/397 207/460/448
f 166/463/399 165/461/398 208/462/449
f 210/466/451 166/463/399 209/464/450
f 169/468/452 167/465/400 210/466/451
f 170/470/402 168/467/401 169/468/452
f 171/471/403 169/468/452 211/469/453
f 124/386/405 171/471/403 212/472/454
f 173/387/406 213/474/456 214/391/409
f 174/392/410 267/475/457 268/476/458
f 175/394/411 268/476/458 269/477/459
f 176/396/412 269/477/459 270/478/460
f 178/400/414 270/478/460 272/479/461
f 179/402/415 272/479/461 271/480/462
f 180/404/417 271/480/462 215/481/463
f 181/406/418 215/481/463 274/482/464
f 183/410/420 274/482/464 273/483/465
f 184/412/421 273/483/465 275/484/466
f 185/414/422 275/484/466 216/416/423
f 187/420/426 276/485/467 277/486/468
f 188/422/427 277/486/468 217/487/469
f 189/427/429 278/488/470 218/489/471
f 190/430/431 218/489/471 279/490/472
f 192/432/433 279/490/472 280/651/491
f 192/432/433 280/651/491 281/491/473
f 220/492/474 193/434/434 281/491/473
f 195/437/436 194/436/435 282/494/476
f 196/439/437 195/437/436 283/495/477
f 197/440/438 196/439/437 283/495/477
f 198/442/439 197/440/438 284/496/478
f 199/444/440 198/442/439 285/497/479
f 200/446/441 199/444/440 286/498/480
f 201/448/442 200/446/441 286/498/480
f 202/450/443 201/448/442 288/499/481
f 203/452/444 202/450/443 288/499/481
f 204/454/445 203/452/444 287/500/482
f 205/456/446 204/454/445 221/501/483
f 206/458/447 205/456/446 221/501/483
f 207/460/448 206/458/447 222/502/484
f 208/462/449 207/460/448 290/503/485
f 209/464/450 208/462/449 290/503/485
f 210/466/451 209/464/450 223/504/486
f 211/469/453 210/466/451 291/505/487
f 212/472/454 211/469/453 224/506/488
f 172/473/455 212/472/454 292/507/489
f 267/508/457 225/227/247 227/233/253
f 268/509/458 227/233/253 228/171/191
f 272/512/461 230/511/490 233/186/206
f 215/481/463 271/480/462 274/482/464
f 274/514/464 271/513/462 234/191/211
f 273/515/465 274/514/464 236/201/221
f 275/516/466 273/515/465 237/205/225
f 275/516/466 238/213/233 239/221/241
f 216/416/423 275/484/466 276/485/467
f 276/517/467 240/226/246 241/237/257
f 242/240/260 277/518/468 241/237/257
f 278/519/470 242/240/260 244/170/190
f 218/489/471 278/488/470 279/490/472
f 280/521/491 244/170/190 246/181/201
f 282/494/476 220/492/474 219/493/475
f 282/523/476 281/522/473 248/194/214
f 284/524/478 282/523/476 249/198/218
f 285/525/479 251/210/230 252/216/236
f 285/525/479 252/216/236 254/223/243
f 287/527/482 254/223/243 256/234/254
f 287/527/482 256/234/254 258/242/262
f 289/529/492 258/242/262 260/174/194
f 290/530/485 289/529/492 260/174/194
f 290/530/485 261/183/203 264/534/493
f 291/532/487 290/530/485 264/534/493
f 291/532/487 264/534/493 265/202/222
f 292/533/489 265/202/222 266/208/228
f 225/227/247 226/229/249 227/233/253
f 230/511/490 229/173/193 231/179/199
f 230/511/490 231/179/199 232/182/202
f 246/181/201 244/170/190 245/177/197
f 254/223/243 252/216/236 253/218/238
f 256/234/254 254/223/243 255/230/250
f 258/242/262 256/234/254 257/238/258
f 258/242/262 259/165/185 260/174/194
f 261/183/203 262/187/207 264/534/493
f 265/202/222 264/534/493 263/192/212
f 225/227/247 267/508/457 292/533/489
f 292/533/489 267/508/457 213/652/456
f 269/510/459 230/511/490 270/535/460
f 277/518/468 242/240/260 278/519/470
f 282/523/476 284/524/478 283/653/477
f 285/525/479 288/526/481 286/654/480
f 295/228/248 294/222/242 293/262/282
f 295/228/248 293/262/282 296/232/252
f 299/172/192 298/241/261 300/246/266
f 303/185/205 302/248/268 304/253/273
f 306/200/220 304/253/273 307/204/224
f 308/212/232 307/204/224 309/258/278
f 313/236/256 312/639/570 311/225/245
f 319/190/210 318/180/200 316/250/270
f 328/235/255 327/231/251 326/224/244
f 334/184/204 332/175/195 333/265/285
f 336/273/293 335/188/208 334/184/204
f 337/193/213 335/188/208 336/273/293
f 339/209/229 338/203/223 293/262/282
f 342/263/283 402/245/265 340/280/300
f 343/290/310 342/263/283 341/283/303
f 345/295/315 344/266/286 343/290/310
f 346/297/317 344/266/286 345/295/315
f 347/271/291 346/297/317 348/300/320
f 352/249/269 350/247/267 349/303/323
f 353/313/333 352/249/269 351/308/328
f 356/254/274 354/252/272 355/316/336
f 359/257/277 356/254/274 358/320/340
f 362/281/301 361/260/280 360/323/343
f 366/268/288 364/287/307 365/291/311
f 366/268/288 365/291/311 367/293/313
f 368/299/319 366/268/288 367/293/313
f 370/274/294 366/268/288 368/299/319
f 371/305/325 370/274/294 369/302/322
f 373/307/327 372/275/295 371/305/325
f 383/537/494 382/322/342 385/255/275
f 385/255/275 384/284/304 386/285/305
f 387/256/276 386/285/305 388/289/309
f 387/256/276 388/289/309 390/259/279
f 390/259/279 389/292/312 391/298/318
f 394/264/284 392/261/281 391/298/318
f 397/272/292 395/306/326 398/311/331
f 397/272/292 398/311/331 399/314/334
f 340/280/300 402/245/265 400/278/298
f 445/138/140 68/131/133 46/215/235
f 446/54/56 478/103/105 122/102/104
usemtl Material.001
f 483/538/495 480/539/496 479/540/497
f 482/541/498 487/542/499 486/543/500
f 486/543/500 487/542/499 484/544/501
f 480/545/496 487/542/499 482/541/498
f 480/546/496 481/547/502 479/548/497
f 484/544/501 487/542/499 480/545/496
f 482/549/498 485/550/503 481/547/502
f 486/543/500 483/538/495 485/550/503
f 485/550/503 479/551/497 481/552/502
f 493/553/504 488/554/505 492/555/506
f 491/556/507 496/557/508 495/558/509
f 495/558/509 496/557/508 493/553/504
f 489/559/510 496/557/508 491/556/507
f 488/560/505 491/561/507 490/562/511
f 493/563/504 496/557/508 489/559/510
f 490/562/511 495/558/509 494/564/512
f 495/558/509 492/555/506 494/564/512
f 494/564/512 488/565/505 490/566/511
f 502/567/513 497/568/514 501/569/515
f 500/570/516 505/571/517 504/572/518
f 504/572/518 505/571/517 502/573/513
f 498/574/519 505/571/517 500/570/516
f 498/575/519 499/576/520 497/577/514
f 502/573/513 505/571/517 498/574/519
f 499/576/520 504/572/518 503/578/521
f 504/572/518 501/569/515 503/578/521
f 503/578/521 497/579/514 499/580/520
f 510/581/522 507/582/523 506/583/524
f 509/584/525 514/585/526 513/586/527
f 513/586/527 514/585/526 511/587/528
f 507/588/523 514/585/526 509/584/525
f 507/589/523 508/590/529 506/591/524
f 511/592/528 514/585/526 507/588/523
f 509/593/525 512/594/530 508/590/529
f 513/586/527 510/581/522 512/594/530
f 512/594/530 506/595/524 508/596/529
f 519/538/531 516/597/532 515/598/533
f 518/599/534 523/600/535 522/601/536
f 522/601/536 523/600/535 520/602/537
f 516/603/532 523/600/535 518/599/534
f 516/604/532 517/605/538 515/606/533
f 520/602/537 523/600/535 516/603/532
f 518/607/534 521/608/539 517/605/538
f 522/601/536 519/538/531 521/608/539
f 521/608/539 515/609/533 517/610/538
f 528/611/540 525/612/541 524/613/542
f 527/614/543 532/615/544 531/616/545
f 531/616/545 532/615/544 529/617/546
f 525/618/541 532/615/544 527/614/543
f 525/619/541 526/620/547 524/621/542
f 529/617/546 532/615/544 525/618/541
f 526/620/547 531/616/545 530/622/548
f 531/616/545 528/611/540 530/622/548
f 530/622/548 524/623/542 526/624/547
f 538/625/549 533/626/550 537/627/551
f 536/628/552 541/629/553 540/630/554
f 540/630/554 541/629/553 538/631/549
f 534/632/555 541/629/553 536/628/552
f 534/633/555 535/634/556 533/635/550
f 538/631/549 541/629/553 534/632/555
f 535/634/556 540/636/554 539/637/557
f 539/637/557 538/625/549 537/627/551
f 539/637/557 533/638/550 535/580/556
f 547/553/558 542/554/559 546/555/560
f 545/556/561 550/557/562 549/558/563
f 549/558/563 550/557/562 547/553/558
f 543/559/564 550/557/562 545/556/561
f 542/560/559 545/561/561 544/562/565
f 547/563/558 550/557/562 543/559/564
f 544/562/565 549/558/563 548/564/566
f 549/558/563 546/555/560 548/564/566
f 548/564/566 542/565/559 544/566/565
f 483/538/495 484/655/501 480/539/496
f 480/546/496 482/549/498 481/547/502
f 482/549/498 486/543/500 485/550/503
f 486/543/500 484/655/501 483/538/495
f 485/550/503 483/538/495 479/551/497
f 493/553/504 489/656/510 488/554/505
f 488/560/505 489/657/510 491/561/507
f 490/562/511 491/561/507 495/558/509
f 495/558/509 493/553/504 492/555/506
f 494/564/512 492/555/506 488/565/505
f 502/567/513 498/658/519 497/568/514
f 498/575/519 500/659/516 499/576/520
f 499/576/520 500/659/516 504/572/518
f 504/572/518 502/567/513 501/569/515
f 503/578/521 501/569/515 497/579/514
f 510/581/522 511/587/528 507/582/523
f 507/589/523 509/593/525 508/590/529
f 509/593/525 513/586/527 512/594/530
f 513/586/527 511/587/528 510/581/522
f 512/594/530 510/581/522 506/595/524
f 519/538/531 520/660/537 516/597/532
f 516/604/532 518/607/534 517/605/538
f 518/607/534 522/601/536 521/608/539
f 522/601/536 520/660/537 519/538/531
f 521/608/539 519/538/531 515/609/533
f 528/611/540 529/661/546 525/612/541
f 525/619/541 527/662/543 526/620/547
f 526/620/547 527/662/543 531/616/545
f 531/616/545 529/661/546 528/611/540
f 530/622/548 528/611/540 524/623/542
f 538/625/549 534/663/555 533/626/550
f 534/633/555 536/664/552 535/634/556
f 535/634/556 536/664/552 540/636/554
f 539/637/557 540/636/554 538/625/549
f 539/637/557 537/627/551 533/638/550
f 547/553/558 543/656/564 542/554/559
f 542/560/559 543/657/564 545/561/561
f 544/562/565 545/561/561 549/558/563
f 549/558/563 547/553/558 546/555/560
f 548/564/566 546/555/560 542/565/559
