# Blender 4.1.1
# www.blender.org
mtllib roulette-static-1.mtl
o hand_rest
v -56.982403 57.053337 -35.684380
v -58.245975 57.165039 -38.613930
v 37.297794 57.057285 135.734894
v -46.483841 57.043396 -39.094315
v -45.857948 57.024525 123.126488
v -41.748947 57.030838 126.313286
v -55.903439 55.153027 138.519989
v -58.884422 55.033085 -32.305817
v -60.210793 55.038891 -35.394447
v 40.372223 55.047344 134.789276
v 40.129963 54.718300 136.261658
v 36.339973 54.856171 138.820526
v -42.140179 54.760880 122.944939
v -40.831387 54.934288 123.628304
v 39.885815 55.474087 124.336189
v -55.396484 57.072170 135.707001
v -61.678425 56.413582 -39.799271
v -55.149345 54.721603 138.794891
v -57.352024 54.785278 137.585205
v -58.618511 54.781502 135.208130
v -59.116730 54.658916 -33.855484
v -63.574062 54.789471 -39.446922
v -64.154930 54.823391 -41.957832
v -63.718056 55.402821 -41.650085
v 38.845570 54.741871 138.059662
v -43.804474 54.782513 -41.706882
v -44.083256 55.197269 -41.721073
v -43.482555 54.795120 120.929893
v 40.347435 54.834068 124.086662
v 39.828022 54.744289 123.787193
v -63.648605 55.449730 -40.861984
v 37.742016 56.970409 126.484169
v -61.678425 56.413582 -39.799271
v -61.181973 56.665581 -39.977112
v 25.074223 16.161705 114.739235
v 27.229145 38.658691 126.896233
v 22.550655 -8.257557 127.969460
v 17.312889 2.940765 114.961006
v 13.338313 -7.787498 123.271400
v 13.213651 5.877956 120.201012
v 23.862907 -12.039364 113.518578
v 27.309414 -4.897106 124.710640
v 16.077423 -18.085152 125.218788
v 15.868783 -53.012627 119.858528
v 23.920296 -52.428978 115.870766
v 18.699299 -52.552589 115.544991
v 23.553440 -52.458183 125.628777
v 22.034504 38.819473 113.159187
v 14.313317 39.120529 117.559196
v 14.389943 38.708439 124.520119
v 20.779133 39.075741 128.102020
v 28.323521 38.805531 118.144417
v 26.434528 -52.495453 121.842201
v 18.592621 -52.667221 125.405525
v -35.253082 16.161705 114.739235
v -33.098160 38.658691 126.896233
v -37.776649 -8.257557 127.969460
v -43.014420 2.940765 114.961006
v -46.988995 -7.787498 123.271400
v -47.113659 5.877956 120.201012
v -36.464397 -12.039364 113.518578
v -33.017895 -4.897106 124.710640
v -44.249882 -18.085152 125.218788
v -44.458527 -53.012627 119.858528
v -36.407009 -52.428978 115.870766
v -41.628010 -52.552589 115.544991
v -36.773865 -52.458183 125.628777
v -38.292801 38.819473 113.159187
v -46.013992 39.120529 117.559196
v -45.937366 38.708439 124.520119
v -39.548176 39.075741 128.102020
v -32.003788 38.805531 118.144417
v -33.892776 -52.495453 121.842201
v -41.734688 -52.667221 125.405525
v -35.253082 16.161705 -49.600697
v -33.098160 38.658691 -37.443691
v -37.776649 -8.257557 -36.370468
v -43.014420 2.940765 -49.378918
v -46.988995 -7.787498 -41.068512
v -47.113659 5.877956 -44.138905
v -36.464397 -12.039364 -50.821354
v -33.017895 -4.897106 -39.629284
v -44.249882 -18.085152 -39.121136
v -44.458527 -53.012627 -44.481388
v -36.407009 -52.428978 -48.469162
v -41.628010 -52.552589 -48.794933
v -36.773865 -52.458183 -38.711155
v -38.292801 38.819473 -51.180737
v -46.013992 39.120529 -46.780731
v -45.937366 38.708439 -39.819817
v -39.548176 39.075741 -36.237911
v -32.003788 38.805531 -46.195503
v -33.892776 -52.495453 -42.497738
v -41.734688 -52.667221 -38.934395
v 55.258553 16.161705 -119.825249
v 57.413475 38.658691 -107.668243
v 52.734993 -8.257557 -106.595024
v 47.497219 2.940765 -119.603470
v 43.522648 -7.787498 -111.293060
v 43.397984 5.877956 -114.363457
v 54.047241 -12.039364 -121.045906
v 57.493744 -4.897106 -109.853836
v 46.261753 -18.085152 -109.345688
v 46.053112 -53.012627 -114.705940
v 54.104622 -52.428978 -118.693718
v 48.883629 -52.552589 -119.019485
v 53.737770 -52.458183 -108.935707
v 52.218834 38.819473 -121.405289
v 44.497646 39.120529 -117.005280
v 44.574276 38.708439 -110.044373
v 50.963463 39.075741 -106.462463
v 58.507851 38.805531 -116.420059
v 56.618866 -52.495453 -112.722290
v 48.776951 -52.667221 -109.158951
v -55.660313 54.493847 138.932037
v 29.082352 46.597435 -83.181908
v 22.360035 46.556366 -63.993477
v 3.808396 46.605949 -48.475403
v 37.319618 46.637207 1.666245
v 39.337345 46.650826 -5.405220
v 44.775478 46.643555 -13.956398
v 64.771309 46.650345 -28.676991
v 70.124458 46.649189 -37.189140
v 72.068405 46.632347 -44.184711
v 72.104897 46.639008 -133.261810
v 70.829956 46.650364 -134.863846
v 32.614273 46.705769 -134.972107
v 32.386204 46.651505 -82.695114
v 30.240353 46.656700 -72.526192
v 23.409237 46.641399 -59.452812
v 12.614749 46.645912 -49.596012
v 2.076735 46.641228 -44.409458
v -8.022699 46.649471 -42.295742
v -43.196285 46.703178 -42.065163
v -43.148415 46.639278 120.825935
v -41.361061 46.635254 123.087944
v 34.631805 46.646969 123.268684
v 36.923508 46.644592 121.450401
v -58.462242 54.501297 136.493439
v -59.438423 54.476978 -33.676018
v -64.186363 54.488461 -40.052696
v -65.050362 54.460907 -45.109665
v 29.519390 54.445507 -139.088806
v 72.918457 54.493752 -138.962128
v 75.924965 54.491051 -136.495255
v 75.647728 54.486595 -40.761002
v 73.256897 54.489532 -32.949265
v 68.150208 54.487209 -26.086182
v 49.775845 54.488861 -13.460236
v 44.278015 54.484600 -7.204063
v 41.304462 54.487652 1.993759
v 38.352398 54.493637 138.675354
v 37.265137 54.501575 120.887627
v 37.685452 54.510483 0.117828
v 41.513298 54.514236 -9.131889
v 46.100952 54.510098 -14.803146
v 64.820251 54.510387 -28.422611
v 70.264046 54.512917 -36.974010
v 72.271103 54.508518 -44.041695
v 72.321556 54.503471 -133.304230
v 70.970963 54.509876 -135.042984
v 32.456654 54.426537 -135.139511
v 31.995331 54.510021 -80.110458
v 26.658855 54.511410 -64.713524
v 17.296268 54.504784 -53.462345
v 7.598039 54.509834 -46.937531
v -5.144329 54.510239 -42.731842
v -43.375500 54.453850 -42.243164
v -43.347458 54.502560 120.898079
v -41.324024 54.499180 123.328575
v 35.379520 54.495914 123.301186
v 29.303246 54.507683 -83.000130
v 27.312160 54.512772 -73.531448
v 20.958111 54.490913 -61.395966
v 14.124225 54.513748 -54.613697
v 6.148063 54.508091 -49.445339
v -5.807013 54.507748 -45.563122
v -54.824745 32.306820 135.179291
v -55.912197 32.263123 -34.964375
v -60.756516 32.269840 -120.088181
v -54.979828 32.268108 -129.923126
v -45.454025 32.269272 -135.117157
v 72.328255 32.284077 -135.274689
v 72.192688 32.265160 -43.432835
v 70.785210 32.268082 -36.176403
v 65.576996 32.268574 -28.730350
v 47.446903 32.266479 -16.302849
v 41.114208 32.265526 -9.106926
v 37.686691 32.267986 1.300720
v 36.786839 32.293137 135.222748
v -61.238323 32.270092 -42.383442
v 40.548759 54.506920 135.685822
v -56.426487 32.262543 138.719086
v -58.774128 32.264538 135.151001
v -59.424850 32.268768 -33.747570
v -63.733353 32.270920 -39.436165
v -65.013535 32.263092 -43.551723
v -64.286240 32.278606 -121.152176
v -59.593723 32.219852 -130.009995
v -51.697750 32.248085 -136.571045
v -43.522556 32.275024 -138.953644
v 73.259079 32.273731 -138.960968
v 76.018188 32.252022 -135.953339
v 75.597672 32.305420 -40.587326
v 73.240166 32.218746 -33.032322
v 67.966423 32.265766 -25.968548
v 49.695164 32.267731 -13.439476
v 44.214138 32.268063 -7.170815
v 41.241760 32.264252 2.143265
v 40.445080 32.264908 135.882507
v 38.256878 32.259796 138.666595
v -54.684834 38.737324 134.997131
v -55.269897 38.742023 -33.027939
v -57.104259 38.722588 -37.307789
v -61.039059 38.726257 -42.489254
v -58.156853 38.666969 -125.380341
v -60.677410 38.753899 -118.920227
v -53.762535 38.749908 -130.451721
v -47.688759 38.691826 -134.157425
v -41.105698 38.731041 -135.236023
v 72.162025 38.738461 -135.088196
v 71.764046 38.726044 -41.149891
v 69.726547 38.706535 -34.578472
v 65.300606 38.723351 -28.763466
v 47.177460 38.721546 -16.351112
v 40.860615 38.714035 -9.087120
v 37.440243 38.718361 1.526047
v 36.619484 38.719975 135.056580
v -64.960236 46.548683 -45.345379
v -64.297066 46.474888 -120.977089
v -59.424625 46.465225 -130.190674
v -51.932423 46.459610 -136.439728
v -43.602989 46.482933 -138.929504
v 29.339993 46.547470 -139.069794
v 27.169601 46.627674 -73.805008
v 15.221066 46.636497 -55.777840
v -8.188961 46.596462 -45.632629
vn -0.2395 0.9649 0.1075
vn -0.1040 0.9915 -0.0779
vn 0.2609 0.9231 0.2826
vn 0.2568 0.9400 -0.2247
vn 0.2114 0.9712 -0.1101
vn 0.0818 0.9672 -0.2403
vn -0.3795 0.3971 0.8356
vn -0.7930 0.6068 0.0536
vn -0.6691 0.5731 0.4731
vn 0.9729 0.2110 0.0949
vn 0.8383 -0.3405 0.4258
vn 0.1120 -0.2146 0.9703
vn 0.4295 -0.4818 -0.7638
vn 0.1073 0.8764 -0.4695
vn 0.4509 0.7699 -0.4516
vn -0.2718 0.9274 0.2569
vn -0.2671 0.9369 0.2255
vn -0.0874 -0.4831 0.8712
vn -0.7569 -0.3013 0.5799
vn -0.9426 -0.2764 0.1877
vn -0.3347 -0.9334 0.1294
vn -0.8008 -0.3533 0.4836
vn -0.7356 -0.3019 -0.6064
vn -0.4367 0.7628 -0.4768
vn 0.5671 -0.2933 0.7697
vn 0.7410 -0.3946 -0.5434
vn 0.4631 0.5678 -0.6805
vn 0.8972 -0.3974 -0.1926
vn 0.8389 -0.2611 -0.4776
vn 0.2275 -0.4250 -0.8761
vn -0.7058 0.6891 0.1640
vn 0.2364 0.9439 -0.2307
vn -0.2130 0.9759 0.0481
vn -0.2056 0.9672 -0.1493
vn 0.5542 0.0091 -0.8323
vn 0.6138 0.5522 0.5642
vn 0.0896 -0.0027 0.9960
vn -0.7706 -0.0498 -0.6353
vn -0.9753 0.1446 -0.1670
vn -0.9379 0.0256 -0.3459
vn 0.6127 -0.0806 -0.7862
vn 0.9664 -0.0587 0.2502
vn -0.5137 -0.1023 0.8518
vn -0.7436 -0.6674 -0.0398
vn 0.4892 -0.5496 -0.6772
vn -0.3275 -0.5846 -0.7423
vn 0.3441 -0.5404 0.7678
vn 0.0664 0.5495 -0.8328
vn -0.6857 0.6085 -0.3994
vn -0.7056 0.5633 0.4298
vn -0.1245 0.6741 0.7280
vn 0.7577 0.5711 -0.3160
vn 0.8170 -0.5687 0.0952
vn -0.4189 -0.5754 0.7024
vn 0.6286 0.5284 0.5707
vn -0.7581 -0.6506 -0.0460
vn 0.4882 -0.5561 -0.6725
vn -0.3224 -0.5835 -0.7454
vn 0.3469 -0.5524 0.7579
vn 0.0700 0.5375 -0.8404
vn -0.7000 0.5812 -0.4150
vn -0.7311 0.5217 0.4396
vn -0.1261 0.6192 0.7750
vn 0.7650 0.5574 -0.3225
vn 0.8078 -0.5816 0.0960
vn -0.4170 -0.5623 0.7141
vn -0.2637 0.6366 0.7247
vn -0.7142 0.6961 -0.0734
vn -0.6041 0.6993 -0.3822
vn -0.2859 0.6807 -0.6745
vn -0.6601 0.7467 -0.0815
vn -0.6095 0.7456 -0.2695
vn -0.4738 0.7563 -0.4511
vn -0.5391 0.6776 -0.5002
vn -0.6652 0.6861 -0.2946
vn -0.7185 0.6886 -0.0980
vn -0.7159 0.6515 0.2512
vn -0.3355 0.6301 0.7003
vn 0.5692 0.5879 0.5748
vn 0.6725 0.7378 0.0577
vn 0.6245 0.7498 0.2188
vn 0.5149 0.7560 0.4041
vn 0.3743 0.7439 0.5537
vn 0.2164 0.7448 0.6312
vn 0.0599 0.7378 0.6724
vn 0.5733 0.5894 0.5692
vn 0.7182 0.6487 -0.2517
vn 0.3426 0.6313 -0.6958
vn -0.2360 0.6520 -0.7205
vn -0.6939 0.6389 -0.3321
vn -0.7056 0.6303 0.3239
vn -0.5881 0.7846 0.1964
vn -0.6893 0.6609 0.2968
vn -0.6282 0.5786 -0.5201
vn -0.5675 0.5835 -0.5809
vn 0.2573 0.6398 -0.7242
vn 0.7081 0.6232 -0.3320
vn 0.7311 0.6733 0.1103
vn 0.6634 0.6684 0.3364
vn 0.5157 0.6694 0.5347
vn 0.4512 0.7332 0.5088
vn 0.5730 0.7518 0.3263
vn 0.6639 0.7402 0.1065
vn 0.3550 0.6181 0.7013
vn -0.5790 0.7930 -0.1893
vn -0.7176 0.6823 -0.1396
vn -0.6190 0.6919 -0.3716
vn -0.4875 0.6934 -0.5306
vn -0.4725 0.7616 -0.4435
vn -0.6015 0.7517 -0.2703
vn -0.6546 0.7504 -0.0917
vn -0.5711 0.7970 0.1965
vn -0.2474 0.8288 0.5019
vn 0.2970 0.9068 0.2991
vn 0.7187 0.6858 0.1146
vn 0.6406 0.6798 0.3572
vn 0.4851 0.6856 0.5428
vn 0.3192 0.6913 0.6482
vn 0.1157 0.6869 0.7175
vn 0.2962 0.9074 0.2982
vn 0.5642 0.8001 -0.2039
vn 0.2407 0.8238 -0.5133
vn -0.2498 0.8208 -0.5137
vn -0.6682 0.7405 -0.0715
vn -0.6276 0.7465 -0.2212
vn -0.5313 0.7456 -0.4023
vn -0.4119 0.7430 -0.5275
vn -0.3021 0.7455 -0.5941
vn -0.1037 0.7521 -0.6508
vn 0.2978 -0.9058 -0.3016
vn 0.7068 -0.6660 -0.2384
vn 0.6141 -0.7730 0.1593
vn 0.4425 -0.7684 0.4624
vn 0.1551 -0.7682 0.6212
vn -0.2969 -0.9087 0.2935
vn -0.6642 -0.7456 -0.0534
vn -0.6027 -0.7579 -0.2497
vn -0.4566 -0.7565 -0.4682
vn -0.4772 -0.6924 -0.5411
vn -0.6380 -0.6774 -0.3662
vn -0.7180 -0.6858 -0.1189
vn -0.2963 -0.9070 -0.2993
vn 0.5756 -0.7959 -0.1878
vn 0.7258 0.6448 0.2399
vn -0.3685 -0.6232 0.6898
vn -0.7272 -0.6531 0.2113
vn -0.5865 -0.7854 0.1978
vn -0.6572 -0.6720 0.3413
vn -0.7296 -0.6759 0.1048
vn -0.7324 -0.6552 -0.1853
vn -0.5770 -0.6701 -0.4669
vn -0.3485 -0.6662 -0.6593
vn -0.1032 -0.6757 -0.7300
vn 0.3094 -0.6294 -0.7128
vn 0.7187 -0.6386 -0.2750
vn 0.7345 -0.6697 0.1096
vn 0.6548 -0.6777 0.3347
vn 0.5116 -0.6731 0.5341
vn 0.4492 -0.7368 0.5053
vn 0.5702 -0.7559 0.3216
vn 0.6603 -0.7437 0.1044
vn 0.7217 -0.6447 0.2521
vn 0.3418 -0.6246 0.7022
vn 0.5700 -0.5909 -0.5709
vn 0.6285 -0.7710 -0.1030
vn 0.5724 -0.7425 -0.3479
vn 0.7177 -0.6542 -0.2384
vn 0.6542 -0.6470 0.3916
vn 0.7189 -0.6841 0.1227
vn 0.4541 -0.6947 0.5579
vn 0.2765 -0.6621 0.6965
vn 0.0371 -0.6951 0.7179
vn -0.5715 -0.5917 0.5686
vn -0.7131 -0.6927 -0.1079
vn -0.6466 -0.6790 -0.3476
vn -0.5007 -0.6850 -0.5292
vn -0.4420 -0.7473 -0.4962
vn -0.5612 -0.7647 -0.3165
vn -0.6495 -0.7535 -0.1016
vn -0.5684 -0.5912 -0.5722
vn -0.8851 0.2989 -0.3568
vn -0.7303 0.6580 -0.1838
vn -0.5780 0.6662 -0.4712
vn -0.3564 0.6626 -0.6587
vn -0.1069 0.6764 -0.7287
vn -0.3030 0.3001 -0.9045
vn -0.6868 0.6879 -0.2346
vn -0.4753 0.6798 -0.5585
vn -0.0707 0.6958 -0.7147
vt 0.091259 0.020160
vt 0.219233 0.071094
vt 0.183847 0.089003
vt 0.194263 0.994866
vt 0.201785 0.100432
vt 0.198454 0.995441
vt 0.012209 0.994869
vt 0.008442 0.996537
vt 0.991390 0.081211
vt 0.995633 0.024440
vt 0.995171 0.082780
vt 0.970737 0.069219
vt 0.061872 0.022295
vt 0.072310 0.009313
vt 0.056183 0.943784
vt 0.069609 0.960790
vt 0.043871 0.960948
vt 0.965266 0.020235
vt 0.957349 0.002840
vt 0.980202 0.007490
vt 0.084769 0.004567
vt 0.034840 0.987299
vt 0.227693 0.085683
vt 0.215059 0.089262
vt 0.173447 0.981057
vt 0.030277 0.985239
vt 0.011629 0.991089
vt 0.013909 0.983869
vt 0.062766 0.978713
vt 0.051699 0.951866
vt 0.992076 0.016785
vt 0.990690 0.083927
vt 0.092464 0.003096
vt 0.004205 0.077371
vt 0.266601 0.119391
vt 0.005705 0.253317
vt 0.293279 0.003896
vt 0.013883 0.728964
vt 0.494001 0.860889
vt 0.004527 0.875420
vt 0.000772 0.775731
vt 0.463490 0.953546
vt 0.399207 0.360371
vt 0.008527 0.418168
vt 0.365064 0.511885
vt 0.005953 0.573459
vt 0.991415 0.619564
vt 0.991858 0.317769
vt 0.534215 0.280005
vt 0.984213 0.454744
vt 0.930131 0.318024
vt 0.990101 0.137235
vt 0.487150 0.628987
vt 0.995359 0.770848
vt 0.578108 0.722736
vt 0.992280 0.944584
vt 0.327353 0.486448
vt 0.273649 0.612808
vt 0.239357 0.645519
vt 0.443717 0.430394
vt 0.321545 0.455285
vt 0.321923 0.430823
vt 0.070611 0.468700
vt 0.650092 0.493913
vt 0.069030 0.494454
vt 0.064056 0.494538
vt 0.064124 0.468528
vt 0.592591 0.430596
vt 0.329073 0.455488
vt 0.592570 0.455019
vt 0.061236 0.468888
vt 0.062217 0.494440
vt 0.067568 0.468692
vt 0.246663 0.430254
vt 0.429227 0.455212
vt 0.429217 0.430654
vt 0.499058 0.494249
vt 0.495210 0.468636
vt 0.762844 0.468846
vt 0.794532 0.494384
vt 0.795677 0.468831
vt 0.727813 0.468827
vt 0.759480 0.494151
vt 0.506791 0.715546
vt 0.342812 0.475326
vt 0.350564 0.406805
vt 0.521356 0.468879
vt 0.698843 0.468828
vt 0.719801 0.494391
vt 0.532082 0.494175
vt 0.548654 0.468713
vt 0.674047 0.468827
vt 0.692323 0.494138
vt 0.602561 0.494214
vt 0.602848 0.468705
vt 0.662605 0.468905
vt 0.664059 0.494191
vt 0.629788 0.494154
vt 0.631681 0.468785
vt 0.655518 0.494388
vt 0.656920 0.468589
vt 0.974819 0.494532
vt 0.973894 0.468641
vt 0.995297 0.494195
vt 0.995350 0.468234
vt 0.980433 0.494310
vt 0.980067 0.468759
vt 0.611832 0.465054
vt 0.471943 0.491558
vt 0.472427 0.465465
vt 0.369427 0.938366
vt 0.399791 0.899650
vt 0.383424 0.957762
vt 0.980629 0.468832
vt 0.786625 0.494217
vt 0.794318 0.468489
vt 0.758474 0.468737
vt 0.731082 0.494386
vt 0.712134 0.468748
vt 0.690577 0.494507
vt 0.677468 0.468520
vt 0.667439 0.494246
vt 0.659211 0.468681
vt 0.653487 0.494268
vt 0.651962 0.468547
vt 0.985876 0.494403
vt 0.992579 0.446607
vt 0.993879 0.494426
vt 0.660539 0.494324
vt 0.654730 0.446590
vt 0.643112 0.494396
vt 0.645273 0.494377
vt 0.982565 0.446601
vt 0.278152 0.455352
vt 0.602774 0.408797
vt 0.603065 0.455467
vt 0.931257 0.467713
vt 0.661304 0.467812
vt 0.292257 0.429446
vt 0.265601 0.408841
vt 0.265139 0.429427
vt 0.014337 0.494401
vt 0.007199 0.446616
vt 0.006148 0.494371
vt 0.617446 0.494415
vt 0.645183 0.446552
vt 0.619465 0.494404
vt 0.018463 0.446490
vt 0.593691 0.494304
vt 0.617848 0.446656
vt 0.547346 0.494353
vt 0.593571 0.446482
vt 0.620619 0.446495
vt 0.525270 0.494375
vt 0.546886 0.446489
vt 0.493010 0.494385
vt 0.524844 0.446559
vt 0.254520 0.408895
vt 0.254520 0.429448
vt 0.017143 0.494264
vt 0.490037 0.446595
vt 0.008060 0.494383
vt 0.016530 0.446566
vt 0.318257 0.429518
vt 0.292681 0.408815
vt 0.725424 0.408889
vt 0.321332 0.408833
vt 0.094732 0.345111
vt 0.077130 0.000623
vt 0.095359 0.001355
vt 0.018505 0.643923
vt 0.000703 0.002049
vt 0.018211 0.001808
vt 0.018554 0.672579
vt 0.000360 0.652027
vt 0.018725 0.994427
vt 0.000530 0.985435
vt 0.018536 0.964838
vt 0.038630 0.443496
vt 0.056648 0.452301
vt 0.038647 0.476823
vt 0.039237 0.001588
vt 0.056756 0.425570
vt 0.076116 0.343240
vt 0.057207 0.001421
vt 0.076056 0.000698
vt 0.075946 0.369923
vt 0.058021 0.352835
vt 0.114102 0.063089
vt 0.095977 0.003145
vt 0.114357 0.002946
vt 0.037694 0.030084
vt 0.019767 0.004397
vt 0.037522 0.004674
vt 0.037522 0.071127
vt 0.019661 0.029207
vt 0.037656 0.570728
vt 0.019694 0.070521
vt 0.076110 0.396725
vt 0.057823 0.377808
vt 0.000617 0.672999
vt 0.338603 0.405856
vt 0.073007 0.028647
vt 0.336957 0.021819
vt 0.034002 0.931339
vt 0.001602 0.656989
vt 0.009149 0.934370
vt 0.753879 0.532485
vt 0.754122 0.491784
vt 0.729509 0.494731
vt 0.040506 0.966008
vt 0.721334 0.014331
vt 0.745115 0.011769
vt 0.073565 0.965287
vt 0.095489 0.988618
vt 0.138734 0.983834
vt 0.731650 0.003432
vt 0.968382 0.985331
vt 0.993202 0.646138
vt 0.972119 0.656138
vt 0.074131 0.014938
vt 0.063716 0.002781
vt 0.977997 0.618909
vt 0.957711 0.627747
vt 0.939351 0.594723
vt 0.924161 0.603709
vt 0.039980 0.619668
vt 0.063162 0.623784
vt 0.977454 0.997320
vt 0.811672 0.547525
vt 0.800429 0.559387
vt 0.029899 0.652296
vt 0.009772 0.641888
vt 0.773338 0.524839
vt 0.206194 0.659443
vt 0.302639 0.564476
vt 0.018988 0.111739
vt 0.040248 0.059340
vt 0.010746 0.158610
vt 0.444212 0.455232
vt 0.649651 0.468872
vt 0.328566 0.430415
vt 0.069477 0.494542
vt 0.246411 0.455258
vt 0.358131 0.028936
vt 0.381418 0.057241
vt 0.349961 0.167156
vt 0.981598 0.068378
vt 0.925622 0.167559
vt 0.989592 0.081758
vt 0.988434 0.721030
vt 0.935046 0.182279
vt 0.935342 0.699701
vt 0.980023 0.735697
vt 0.725616 0.455505
vt 0.574391 0.429675
vt 0.574944 0.455404
vt 0.024476 0.942974
vt 0.023168 0.684321
vt 0.029132 0.951429
vt 0.208359 0.682353
vt 0.343619 0.950670
vt 0.243990 0.666608
vt 0.398474 0.898622
vt 0.367345 0.938192
vt 0.289033 0.618407
vt 0.450705 0.768799
vt 0.481128 0.730334
vt 0.324814 0.547067
vt 0.928779 0.710785
vt 0.927630 0.169781
vt 0.935511 0.696632
vt 0.934231 0.182416
vt 0.350595 0.169913
vt 0.338409 0.020913
vt 0.347255 0.425874
vt 0.337954 0.420056
vt 0.333397 0.512348
vt 0.325267 0.503151
vt 0.310432 0.577607
vt 0.306871 0.557790
vt 0.270588 0.639249
vt 0.218233 0.676488
vt 0.240141 0.646436
vt 0.022325 0.681906
vt 0.205779 0.661244
vt 0.282422 0.601927
vt 0.018724 0.974910
vt 0.010314 0.956416
vt 0.023294 0.941779
vt 0.029051 0.953800
vt 0.009005 0.663145
vt 0.677003 0.494513
vt 0.552667 0.494146
vt 0.612961 0.491554
vt 0.927597 0.715384
vt 0.500476 0.720478
vt 0.507054 0.743707
vt 0.466685 0.747077
vt 0.474990 0.763172
vt 0.447786 0.775869
vt 0.452864 0.800266
vt 0.406708 0.922327
vt 0.355772 0.973453
vt 0.343439 0.953262
vt 0.981062 0.493987
vt 0.074389 0.015253
vt 0.068815 0.618414
vt 0.727006 0.492823
vt 0.719221 0.015177
vt 0.057387 0.633912
vt 0.793350 0.557651
vt 0.749453 0.531138
vt 0.031899 0.652078
vt 0.033837 0.928520
vt 0.164967 0.985437
vt 0.964953 0.984928
vt 0.050257 0.949616
vt 0.081081 0.967770
vt 0.132367 0.982469
vt 0.966611 0.646556
vt 0.952443 0.624642
vt 0.920694 0.604653
vt 0.278585 0.408907
vt 0.930833 0.446645
vt 0.639398 0.446576
vt 0.007673 0.446602
vt 0.077163 0.344872
vt 0.000653 0.634912
vt 0.000393 0.999978
vt 0.056922 0.476147
vt 0.096247 0.063316
vt 0.019737 0.571274
vt 0.000604 0.960681
vt 0.057740 0.397021
vt 0.150171 0.998212
vt 0.996736 0.987917
vt 0.047050 0.014498
vt 0.009212 0.660536
s 1
usemtl leather_01
f 16/1/16 6/2/6 5/3/5
f 27/4/27 28/5/28 26/6/26
f 24/7/24 27/4/27 23/8/23
f 15/9/15 10/10/10 29/11/29
f 32/12/32 10/10/10 15/9/15
f 16/1/16 20/13/20 19/14/19
f 16/1/16 8/15/8 20/13/20
f 1/16/1 9/17/9 8/15/8
f 3/18/3 12/19/12 25/20/25
f 3/18/3 7/21/7 12/19/12
f 34/22/34 27/4/27 24/7/24
f 5/3/5 14/23/14 13/24/13
f 32/12/32 14/23/14 6/2/6
f 4/25/4 28/5/28 27/4/27
f 17/26/17 31/27/31 22/28/22
f 2/29/2 34/22/34 33/26/33
f 9/17/9 21/30/21 8/15/8
f 9/17/9 22/28/22 21/30/21
f 29/11/29 11/31/11 30/32/30
f 18/33/18 25/20/25 12/19/12
f 7/21/7 19/14/19 18/33/18
f 14/23/14 30/32/30 13/24/13
f 24/7/24 23/8/23 31/27/31
f 34/22/34 31/27/31 33/26/33
f 4/25/4 2/29/2 1/16/1
f 1/16/1 16/1/16 5/3/5
f 16/1/16 3/18/3 6/2/6
f 6/2/6 3/18/3 32/12/32
f 5/3/5 4/25/4 1/16/1
f 31/27/31 23/8/23 22/28/22
f 15/9/15 30/32/30 14/23/14
f 32/12/32 3/18/3 10/10/10
f 16/1/16 1/16/1 8/15/8
f 1/16/1 22/28/22 9/17/9
f 1/16/1 17/26/17 22/28/22
f 3/18/3 11/31/11 10/10/10
f 3/18/3 25/20/25 11/31/11
f 3/18/3 16/1/16 7/21/7
f 34/22/34 4/25/4 27/4/27
f 16/1/16 19/14/19 7/21/7
f 5/3/5 13/24/13 28/5/28
f 5/3/5 6/2/6 14/23/14
f 32/12/32 15/9/15 14/23/14
f 4/25/4 5/3/5 28/5/28
f 17/26/17 33/26/33 31/27/31
f 2/29/2 17/26/17 1/16/1
f 2/29/2 4/25/4 34/22/34
f 33/26/33 17/26/17 2/29/2
f 12/19/12 7/21/7 18/33/18
f 15/9/15 29/11/29 30/32/30
f 8/15/8 21/30/21 20/13/20
f 29/11/29 10/10/10 11/31/11
f 23/8/23 27/4/27 26/6/26
f 34/22/34 24/7/24 31/27/31
f 25/20/25 18/33/18 13/24/13
f 19/14/19 20/13/20 18/33/18
f 20/13/20 21/30/21 28/5/28
f 13/24/13 30/32/30 25/20/25
f 30/32/30 11/31/11 25/20/25
f 13/24/13 18/33/18 20/13/20
f 28/5/28 13/24/13 20/13/20
f 23/8/23 26/6/26 22/28/22
f 21/30/21 22/28/22 26/6/26
f 26/6/26 28/5/28 21/30/21
usemtl Material.008
f 48/34/48 35/35/35 49/36/49
f 42/37/42 35/35/35 48/34/48
f 36/38/36 37/39/37 52/40/52
f 48/41/48 52/40/52 42/42/42
f 49/36/49 38/43/38 50/44/50
f 50/44/50 40/45/40 51/46/51
f 37/39/37 42/42/42 52/40/52
f 51/46/51 40/45/40 46/47/46
f 49/36/49 35/35/35 53/48/53
f 49/36/49 41/49/41 38/43/38
f 45/50/45 40/45/40 50/44/50
f 42/37/42 54/51/54 35/35/35
f 35/35/35 54/51/54 47/52/47
f 39/53/39 44/54/44 43/55/43
f 43/55/43 44/54/44 37/39/37
f 38/43/38 41/49/41 53/48/53
f 38/43/38 53/48/53 45/50/45
f 51/46/51 39/53/39 43/55/43
f 51/46/51 43/55/43 36/38/36
f 51/46/51 46/47/46 39/53/39
f 49/36/49 53/48/53 41/49/41
f 50/44/50 38/43/38 45/50/45
f 36/38/36 43/55/43 37/39/37
f 35/35/35 47/52/47 53/48/53
f 42/42/42 37/39/37 54/56/54
f 40/45/40 45/50/45 46/47/46
f 39/53/39 46/47/46 44/54/44
f 37/39/37 44/54/44 54/56/54
f 46/47/46 53/48/53 54/51/54
f 48/34/48 50/44/50 36/38/36
f 68/34/48 55/35/35 69/36/49
f 62/37/42 55/35/35 68/34/48
f 56/38/36 57/39/37 72/40/52
f 68/41/48 72/40/52 62/42/42
f 69/36/49 58/43/38 70/44/50
f 70/44/50 60/45/40 71/46/51
f 57/39/37 62/42/42 72/40/52
f 71/46/51 60/45/40 66/47/46
f 69/36/49 55/35/35 73/48/53
f 69/36/49 61/49/41 58/43/38
f 65/50/45 60/45/40 70/44/50
f 62/37/42 74/51/54 55/35/35
f 55/35/35 74/51/54 67/52/47
f 59/53/39 64/54/44 63/55/43
f 63/55/43 64/54/44 57/39/37
f 58/43/38 61/49/41 73/48/53
f 58/43/38 73/48/53 65/50/45
f 71/46/51 59/53/39 63/55/43
f 71/46/51 63/55/43 56/38/36
f 71/46/51 66/47/46 59/53/39
f 69/36/49 73/48/53 61/49/41
f 70/44/50 58/43/38 65/50/45
f 56/38/36 63/55/43 57/39/37
f 55/35/35 67/52/47 73/48/53
f 62/42/42 57/39/37 74/56/54
f 60/45/40 65/50/45 66/47/46
f 59/53/39 66/47/46 64/54/44
f 57/39/37 64/54/44 74/56/54
f 66/47/46 73/48/53 74/51/54
f 68/34/48 70/44/50 56/38/36
f 88/34/60 75/35/35 89/36/61
f 82/37/42 75/35/35 88/34/60
f 76/38/55 77/39/37 92/40/64
f 88/41/60 92/40/64 82/42/42
f 89/36/61 78/43/38 90/44/62
f 90/44/62 80/45/40 91/46/63
f 77/39/37 82/42/42 92/40/64
f 91/46/63 80/45/40 86/47/58
f 89/36/61 75/35/35 93/48/65
f 89/36/61 81/49/41 78/43/38
f 85/50/57 80/45/40 90/44/62
f 82/37/42 94/51/66 75/35/35
f 75/35/35 94/51/66 87/52/59
f 79/53/39 84/54/56 83/55/43
f 83/55/43 84/54/56 77/39/37
f 78/43/38 81/49/41 93/48/65
f 78/43/38 93/48/65 85/50/57
f 91/46/63 79/53/39 83/55/43
f 91/46/63 83/55/43 76/38/55
f 91/46/63 86/47/58 79/53/39
f 89/36/61 93/48/65 81/49/41
f 90/44/62 78/43/38 85/50/57
f 76/38/55 83/55/43 77/39/37
f 75/35/35 87/52/59 93/48/65
f 82/42/42 77/39/37 94/56/66
f 80/45/40 85/50/57 86/47/58
f 79/53/39 86/47/58 84/54/56
f 77/39/37 84/54/56 94/56/66
f 94/51/66 84/54/56 87/52/59
f 87/52/59 84/54/56 86/47/58
f 87/52/59 86/47/58 85/50/57
f 85/50/57 93/48/65 87/52/59
f 88/34/60 89/36/61 91/46/63
f 92/40/64 88/34/60 91/46/63
f 76/38/55 92/40/64 91/46/63
f 89/36/61 90/44/62 91/46/63
f 108/34/60 95/35/35 109/36/61
f 102/37/42 95/35/35 108/34/60
f 96/38/55 97/39/37 112/40/64
f 108/41/60 112/40/64 102/42/42
f 109/36/61 98/43/38 110/44/62
f 110/44/62 100/45/40 111/46/63
f 97/39/37 102/42/42 112/40/64
f 111/46/63 100/45/40 106/47/58
f 109/36/61 95/35/35 113/48/65
f 109/36/61 101/49/41 98/43/38
f 105/50/57 100/45/40 110/44/62
f 102/37/42 114/51/66 95/35/35
f 95/35/35 114/51/66 107/52/59
f 99/53/39 104/54/56 103/55/43
f 103/55/43 104/54/56 97/39/37
f 98/43/38 101/49/41 113/48/65
f 98/43/38 113/48/65 105/50/57
f 111/46/63 99/53/39 103/55/43
f 111/46/63 103/55/43 96/38/55
f 111/46/63 106/47/58 99/53/39
f 109/36/61 113/48/65 101/49/41
f 110/44/62 98/43/38 105/50/57
f 96/38/55 103/55/43 97/39/37
f 95/35/35 107/52/59 113/48/65
f 102/42/42 97/39/37 114/56/66
f 100/45/40 105/50/57 106/47/58
f 99/53/39 106/47/58 104/54/56
f 97/39/37 104/54/56 114/56/66
f 114/51/66 104/54/56 107/52/59
f 107/52/59 104/54/56 106/47/58
f 107/52/59 106/47/58 105/50/57
f 105/50/57 113/48/65 107/52/59
f 108/34/60 109/36/61 111/46/63
f 112/40/64 108/34/60 111/46/63
f 96/38/55 112/40/64 111/46/63
f 109/36/61 110/44/62 111/46/63
f 118/57/70 117/58/69 235/59/187
f 133/60/85 168/61/120 134/62/86
f 135/63/87 168/64/120 169/65/121
f 135/63/87 170/66/122 136/67/88
f 137/68/89 170/69/122 171/70/123
f 137/71/89 171/72/123 138/73/90
f 229/74/181 177/75/129 237/76/189
f 138/73/90 154/77/106 119/78/71
f 235/79/187 172/80/124 116/81/68
f 117/82/69 173/83/125 235/79/187
f 119/78/71 154/77/106 120/87/72
f 236/88/188 174/89/126 117/82/69
f 120/87/72 155/90/107 121/91/73
f 118/92/70 175/93/127 236/88/188
f 121/91/73 157/94/109 122/95/74
f 237/96/189 177/97/129 118/92/70
f 122/95/74 158/98/110 123/99/75
f 123/99/75 159/100/111 124/101/76
f 124/101/76 160/102/112 125/103/77
f 116/81/68 143/104/95 234/105/186
f 125/103/77 161/106/113 126/107/78
f 126/108/78 162/109/114 127/110/79
f 158/111/110 157/112/109 147/113/99
f 127/114/79 163/115/115 128/116/80
f 128/116/80 163/115/115 129/117/81
f 129/117/81 164/118/116 130/119/82
f 130/119/82 165/120/117 131/121/83
f 131/121/83 166/122/118 132/123/84
f 132/123/84 167/124/119 133/125/85
f 145/126/97 202/127/154 144/128/96
f 142/129/94 197/130/149 141/131/93
f 146/132/98 203/133/155 145/126/97
f 115/134/67 211/135/163 152/136/104
f 230/137/182 197/130/149 229/138/181
f 232/139/184 199/140/151 231/141/183
f 139/142/91 193/143/145 115/144/67
f 147/145/99 204/146/156 146/132/98
f 140/147/92 194/148/146 139/142/91
f 148/149/100 205/150/157 147/145/99
f 149/151/101 206/152/158 148/149/100
f 141/131/93 195/153/147 140/147/92
f 150/154/102 207/155/159 149/151/101
f 229/138/181 197/130/149 142/129/94
f 151/156/103 208/157/160 150/154/102
f 231/141/183 198/158/150 230/159/182
f 192/160/144 209/161/161 151/156/103
f 152/162/104 210/163/162 192/160/144
f 233/164/185 200/165/152 232/139/184
f 233/164/185 202/166/154 201/167/153
f 178/168/130 228/169/180 190/170/142
f 179/171/131 212/172/164 178/173/130
f 191/174/143 214/175/166 179/171/131
f 181/176/133 216/177/168 180/178/132
f 182/179/134 219/180/171 181/181/133
f 183/182/135 220/183/172 182/179/134
f 184/184/136 221/185/173 183/186/135
f 185/187/137 222/188/174 184/184/136
f 187/189/139 224/190/176 186/191/138
f 188/192/140 225/193/177 187/194/139
f 189/195/141 226/196/178 188/192/140
f 190/197/142 227/198/179 189/195/141
f 186/199/138 223/200/175 185/187/137
f 180/178/132 215/201/167 191/174/143
f 237/202/189 230/203/182 229/204/181
f 180/205/132 197/206/149 198/207/150
f 188/208/140 209/209/161 189/210/141
f 180/205/132 198/207/150 199/211/151
f 190/212/142 209/209/161 210/213/162
f 181/214/133 200/215/152 182/216/134
f 190/212/142 210/213/162 211/217/163
f 183/218/135 204/219/156 184/220/136
f 178/221/130 211/217/163 193/222/145
f 184/220/136 205/223/157 185/224/137
f 185/224/137 206/225/158 186/226/138
f 178/221/130 195/227/147 179/228/131
f 182/216/134 202/229/154 183/218/135
f 186/226/138 207/230/159 187/231/139
f 191/232/143 195/227/147 196/233/148
f 187/231/139 208/234/160 188/208/140
f 237/202/189 118/57/70 116/235/68
f 236/236/188 117/58/69 118/57/70
f 235/59/187 116/235/68 118/57/70
f 232/237/184 231/238/183 230/203/182
f 230/203/182 237/202/189 233/239/185
f 233/239/185 237/202/189 116/235/68
f 233/239/185 232/237/184 230/203/182
f 133/60/85 167/240/119 168/61/120
f 135/63/87 134/241/86 168/64/120
f 135/63/87 169/65/121 170/66/122
f 137/68/89 136/242/88 170/69/122
f 138/73/90 171/72/123 153/243/105
f 229/74/181 142/244/94 177/75/129
f 138/73/90 153/243/105 154/77/106
f 141/245/93 140/246/92 168/247/120
f 140/246/92 139/248/91 169/249/121
f 115/250/67 152/251/104 170/252/122
f 170/252/122 152/251/104 171/253/123
f 192/254/144 171/253/123 152/251/104
f 169/249/121 168/247/120 140/246/92
f 169/249/121 139/248/91 170/252/122
f 170/252/122 139/248/91 115/250/67
f 144/255/96 234/256/186 143/257/95
f 235/79/187 173/83/125 172/80/124
f 117/82/69 174/89/126 173/83/125
f 120/87/72 154/77/106 155/90/107
f 236/88/188 175/93/127 174/89/126
f 141/245/93 168/247/120 142/275/94
f 168/247/120 167/276/119 177/277/129
f 167/276/119 166/278/118 176/279/128
f 166/278/118 165/280/117 175/281/127
f 165/280/117 164/282/116 175/281/127
f 164/282/116 163/283/115 173/284/125
f 163/283/115 162/285/114 172/286/124
f 164/282/116 173/284/125 174/287/126
f 166/278/118 175/281/127 176/279/128
f 177/277/129 142/275/94 168/247/120
f 145/288/97 144/289/96 161/290/113
f 161/290/113 160/291/112 145/288/97
f 144/289/96 143/292/95 162/285/114
f 176/279/128 177/277/129 167/276/119
f 162/285/114 161/290/113 144/289/96
f 162/285/114 143/292/95 172/286/124
f 163/283/115 172/286/124 173/284/125
f 174/287/126 175/281/127 164/282/116
f 118/92/70 176/293/128 175/93/127
f 121/91/73 155/90/107 156/294/108
f 118/92/70 177/97/129 176/293/128
f 121/91/73 156/294/108 157/94/109
f 122/95/74 157/94/109 158/98/110
f 123/99/75 158/98/110 159/100/111
f 124/101/76 159/100/111 160/102/112
f 116/81/68 172/80/124 143/104/95
f 125/103/77 160/102/112 161/106/113
f 126/108/78 161/295/113 162/109/114
f 153/296/105 171/253/123 192/254/144
f 154/297/106 153/296/105 151/298/103
f 155/299/107 154/297/106 150/300/102
f 156/301/108 155/299/107 149/302/101
f 149/302/101 155/299/107 150/300/102
f 157/112/109 156/301/108 149/302/101
f 153/296/105 192/254/144 151/298/103
f 154/297/106 151/298/103 150/300/102
f 149/302/101 148/303/100 157/112/109
f 148/303/100 147/113/99 157/112/109
f 147/113/99 146/304/98 158/111/110
f 146/304/98 145/288/97 159/305/111
f 145/288/97 160/291/112 159/305/111
f 146/304/98 159/305/111 158/111/110
f 127/114/79 162/306/114 163/115/115
f 129/117/81 163/115/115 164/118/116
f 130/119/82 164/118/116 165/120/117
f 131/121/83 165/120/117 166/122/118
f 132/123/84 166/122/118 167/124/119
f 212/307/164 213/308/165 227/309/179
f 227/309/179 228/310/180 212/307/164
f 213/308/165 214/311/166 225/312/177
f 227/309/179 213/308/165 226/313/178
f 215/314/167 217/315/169 220/316/172
f 225/312/177 214/311/166 221/317/173
f 217/315/169 216/318/168 218/319/170
f 218/319/170 219/320/171 220/316/172
f 220/316/172 221/317/173 215/314/167
f 222/321/174 223/322/175 224/323/176
f 224/323/176 225/312/177 222/321/174
f 218/319/170 220/316/172 217/315/169
f 226/313/178 213/308/165 225/312/177
f 214/311/166 215/314/167 221/317/173
f 222/321/174 225/312/177 221/317/173
f 146/132/98 204/146/156 203/133/155
f 115/134/67 193/324/145 211/135/163
f 230/137/182 198/325/150 197/130/149
f 232/139/184 200/165/152 199/140/151
f 234/256/186 144/255/96 202/166/154
f 145/126/97 203/133/155 202/127/154
f 147/145/99 205/150/157 204/146/156
f 140/147/92 195/153/147 194/148/146
f 148/149/100 206/152/158 205/150/157
f 139/142/91 194/148/146 193/143/145
f 149/151/101 207/155/159 206/152/158
f 141/131/93 196/326/148 195/153/147
f 141/131/93 197/130/149 196/326/148
f 150/154/102 208/157/160 207/155/159
f 151/156/103 209/161/161 208/157/160
f 231/141/183 199/140/151 198/158/150
f 192/160/144 210/163/162 209/161/161
f 152/162/104 211/327/163 210/163/162
f 233/164/185 201/167/153 200/165/152
f 233/164/185 234/256/186 202/166/154
f 178/168/130 212/328/164 228/169/180
f 179/171/131 213/329/165 212/172/164
f 179/171/131 214/175/166 213/329/165
f 191/174/143 215/201/167 214/175/166
f 181/176/133 218/330/170 216/177/168
f 181/181/133 219/180/171 218/331/170
f 183/182/135 221/185/173 220/183/172
f 184/184/136 222/188/174 221/185/173
f 185/187/137 223/200/175 222/188/174
f 187/189/139 225/332/177 224/190/176
f 188/192/140 226/196/178 225/193/177
f 189/195/141 227/198/179 226/196/178
f 190/197/142 228/333/180 227/198/179
f 180/178/132 216/177/168 217/334/169
f 182/179/134 220/183/172 219/180/171
f 186/199/138 224/335/176 223/200/175
f 180/178/132 217/334/169 215/201/167
f 180/205/132 191/232/143 197/206/149
f 188/208/140 208/234/160 209/209/161
f 181/214/133 180/205/132 199/211/151
f 181/214/133 199/211/151 200/215/152
f 190/212/142 189/210/141 209/209/161
f 182/216/134 200/215/152 201/336/153
f 191/232/143 196/233/148 197/206/149
f 183/218/135 203/337/155 204/219/156
f 178/221/130 190/212/142 211/217/163
f 184/220/136 204/219/156 205/223/157
f 183/218/135 202/229/154 203/337/155
f 178/221/130 193/222/145 194/338/146
f 185/224/137 205/223/157 206/225/158
f 178/221/130 194/338/146 195/227/147
f 182/216/134 201/336/153 202/229/154
f 186/226/138 206/225/158 207/230/159
f 191/232/143 179/228/131 195/227/147
f 187/231/139 207/230/159 208/234/160
f 116/235/68 234/339/186 233/239/185
f 54/51/54 44/54/44 46/47/46
f 46/47/46 45/50/45 53/48/53
f 53/48/53 47/52/47 54/51/54
f 36/38/36 52/40/52 48/34/48
f 48/34/48 49/36/49 50/44/50
f 50/44/50 51/46/51 36/38/36
f 74/51/54 64/54/44 66/47/46
f 66/47/46 65/50/45 73/48/53
f 73/48/53 67/52/47 74/51/54
f 56/38/36 72/40/52 68/34/48
f 68/34/48 69/36/49 70/44/50
f 70/44/50 71/46/51 56/38/36
usemtl Tischtuch
f 119/84/71 132/85/84 133/86/85
f 126/258/78 127/259/79 125/260/77
f 127/259/79 128/261/80 125/260/77
f 125/260/77 128/261/80 124/262/76
f 129/263/81 124/262/76 128/261/80
f 122/264/74 123/265/75 130/266/82
f 121/267/73 122/264/74 130/266/82
f 124/262/76 130/266/82 123/265/75
f 124/262/76 129/263/81 130/266/82
f 120/268/72 121/267/73 132/85/84
f 121/267/73 130/266/82 131/269/83
f 119/84/71 120/268/72 132/85/84
f 121/267/73 131/269/83 132/85/84
f 138/270/90 119/84/71 135/271/87
f 137/272/89 138/270/90 135/271/87
f 136/273/88 137/272/89 135/271/87
f 134/274/86 135/271/87 119/84/71
f 133/86/85 134/274/86 119/84/71
