# Blender 4.1.1
# www.blender.org
mtllib sphepe-mob.mtl
o Sphere
v -0.000000 -1.356121 -0.000000
v 0.051614 1.330064 -0.259483
v 0.146985 1.127574 -0.738945
v 0.219979 0.753421 -1.105908
v 0.259482 0.264566 -1.304508
v 0.259482 -0.264566 -1.304507
v 0.219979 -0.753421 -1.105908
v 0.146985 -1.127574 -0.738945
v 0.051614 -1.330064 -0.259483
v 0.146985 1.330064 -0.219979
v 0.418578 1.127574 -0.626447
v 0.626446 0.753421 -0.937544
v 0.738944 0.264566 -1.105908
v 0.738944 -0.264566 -1.105908
v 0.626446 -0.753421 -0.937544
v 0.418578 -1.127574 -0.626447
v 0.146985 -1.330064 -0.219979
v 0.219979 1.330064 -0.146985
v 0.626446 1.127574 -0.418579
v 0.937543 0.753421 -0.626447
v 1.105908 0.264566 -0.738944
v 1.105908 -0.264566 -0.738944
v 0.937543 -0.753421 -0.626447
v 0.626446 -1.127574 -0.418578
v 0.219979 -1.330064 -0.146985
v 0.259483 1.330064 -0.051615
v 0.738944 1.127574 -0.146985
v 1.105908 0.753421 -0.219979
v 1.304507 0.264566 -0.259483
v 1.304507 -0.264566 -0.259483
v 1.105908 -0.753421 -0.219979
v 0.738944 -1.127574 -0.146985
v 0.259482 -1.330064 -0.051614
v 0.259483 1.330064 0.051614
v 0.738944 1.127574 0.146985
v 1.105908 0.753421 0.219979
v 1.304507 0.264566 0.259483
v 1.304507 -0.264566 0.259483
v 1.105908 -0.753421 0.219979
v 0.738944 -1.127574 0.146985
v 0.259482 -1.330064 0.051614
v 0.219979 1.330064 0.146985
v 0.626446 1.127574 0.418578
v 0.937543 0.753421 0.626446
v 1.105907 0.264566 0.738944
v 1.105907 -0.264566 0.738944
v 0.937543 -0.753421 0.626446
v 0.626446 -1.127574 0.418578
v 0.219978 -1.330064 0.146985
v 0.146985 1.330064 0.219979
v 0.418578 1.127574 0.626446
v 0.626446 0.753421 0.937543
v 0.738943 0.264566 1.105908
v 0.738943 -0.264566 1.105908
v 0.626446 -0.753421 0.937543
v 0.418578 -1.127574 0.626446
v 0.146985 -1.330064 0.219979
v 0.051614 1.330064 0.259483
v 0.146985 1.127574 0.738944
v 0.219978 0.753421 1.105907
v 0.259482 0.264566 1.304507
v 0.259482 -0.264566 1.304507
v 0.219978 -0.753421 1.105907
v 0.146985 -1.127574 0.738944
v 0.051614 -1.330064 0.259482
v -0.051615 1.330064 0.259483
v -0.146985 1.127574 0.738944
v -0.219979 0.753421 1.105907
v -0.259483 0.264566 1.304507
v -0.259483 -0.264566 1.304507
v -0.219979 -0.753421 1.105907
v -0.146985 -1.127574 0.738944
v -0.051615 -1.330064 0.259482
v -0.000000 1.356121 0.000000
v -0.146986 1.330064 0.219979
v -0.418578 1.127574 0.626446
v -0.626447 0.753421 0.937543
v -0.738944 0.264566 1.105907
v -0.738944 -0.264566 1.105907
v -0.626447 -0.753421 0.937543
v -0.418578 -1.127574 0.626446
v -0.146985 -1.330064 0.219978
v -0.219979 1.330064 0.146985
v -0.626447 1.127574 0.418578
v -0.937543 0.753421 0.626446
v -1.105908 0.264566 0.738943
v -1.105908 -0.264566 0.738943
v -0.937543 -0.753421 0.626446
v -0.626447 -1.127574 0.418578
v -0.219979 -1.330064 0.146985
v -0.259483 1.330064 0.051614
v -0.738944 1.127574 0.146985
v -1.105908 0.753421 0.219978
v -1.304507 0.264566 0.259482
v -1.304507 -0.264566 0.259482
v -1.105908 -0.753421 0.219978
v -0.738944 -1.127574 0.146985
v -0.259483 -1.330064 0.051614
v -0.259483 1.330064 -0.051615
v -0.738944 1.127574 -0.146985
v -1.105907 0.753421 -0.219979
v -1.304506 0.264566 -0.259483
v -1.304506 -0.264566 -0.259483
v -1.105907 -0.753421 -0.219979
v -0.738944 -1.127574 -0.146985
v -0.259483 -1.330064 -0.051614
v -0.219979 1.330064 -0.146985
v -0.626446 1.127574 -0.418578
v -0.937543 0.753421 -0.626446
v -1.105907 0.264566 -0.738944
v -1.105907 -0.264566 -0.738944
v -0.937543 -0.753421 -0.626446
v -0.626446 -1.127574 -0.418578
v -0.219979 -1.330064 -0.146985
v -0.146985 1.330064 -0.219979
v -0.418578 1.127574 -0.626446
v -0.626446 0.753421 -0.937543
v -0.738943 0.264566 -1.105907
v -0.738943 -0.264566 -1.105907
v -0.626446 -0.753421 -0.937543
v -0.418578 -1.127574 -0.626446
v -0.146985 -1.330064 -0.219979
v -0.051615 1.330064 -0.259483
v -0.146985 1.127574 -0.738944
v -0.219979 0.753421 -1.105907
v -0.259482 0.264566 -1.304506
v -0.259482 -0.264566 -1.304506
v -0.219979 -0.753421 -1.105907
v -0.146985 -1.127574 -0.738944
v -0.051615 -1.330064 -0.259483
vn -0.6551 0.3764 0.6551
vn -0.9239 -0.0000 0.3827
vn -0.0000 -0.0000 1.0000
vn -0.5048 0.7002 0.5048
vn -0.2751 -0.9212 0.2751
vn -0.2751 0.9212 0.2751
vn -0.7071 -0.0000 0.7071
vn -0.3594 -0.9212 0.1489
vn -0.1489 -0.9212 0.3594
vn -0.3545 0.3764 0.8559
vn -0.2732 -0.7002 0.6596
vn -0.2732 0.7002 0.6596
vn -0.3545 -0.3764 0.8559
vn -0.1489 0.9212 0.3594
vn -0.3827 -0.0000 0.9239
vn -0.0382 0.9950 0.0923
vn -0.0000 0.7002 0.7139
vn -0.8559 -0.3764 0.3545
vn -0.0000 0.9212 0.3891
vn -0.0707 -0.9950 0.0707
vn -1.0000 -0.0000 -0.0000
vn -0.6596 0.7002 0.2732
vn -0.8559 0.3764 0.3545
vn -0.6596 -0.7002 0.2732
vn -0.3891 -0.9212 -0.0000
vn -0.9265 -0.3764 -0.0000
vn -0.0923 -0.9950 0.0382
vn -0.3594 0.9212 0.1489
vn -0.0707 0.9950 0.0707
vn -0.7139 0.7002 -0.0000
vn -0.9265 0.3764 -0.0000
vn -0.7139 -0.7002 -0.0000
vn -0.9239 -0.0000 -0.3827
vn -0.3594 -0.9212 -0.1489
vn -0.0999 -0.9950 -0.0000
vn -0.3891 0.9212 -0.0000
vn -0.8559 -0.3764 -0.3545
vn -0.0923 0.9950 0.0382
vn -0.6596 0.7002 -0.2732
vn -0.8559 0.3764 -0.3545
vn -0.6596 -0.7002 -0.2732
vn -0.7071 -0.0000 -0.7071
vn -0.3594 0.9212 -0.1489
vn -0.0923 -0.9950 -0.0382
vn -0.6551 -0.3764 -0.6551
vn -0.0999 0.9950 -0.0000
vn -0.2751 -0.9212 -0.2751
vn -0.5048 0.7002 -0.5048
vn -0.6551 0.3764 -0.6551
vn -0.5048 -0.7002 -0.5048
vn -0.3827 -0.0000 -0.9239
vn -0.2751 0.9212 -0.2751
vn -0.3545 -0.3764 -0.8559
vn -0.0923 0.9950 -0.0382
vn -0.0707 -0.9950 -0.0707
vn -0.1489 -0.9212 -0.3594
vn -0.3545 0.3764 -0.8559
vn -0.2732 -0.7002 -0.6596
vn -0.0000 -0.0000 -1.0000
vn -0.2732 0.7002 -0.6596
vn -0.0000 -0.3764 -0.9265
vn -0.0707 0.9950 -0.0707
vn -0.0382 -0.9950 -0.0923
vn -0.0000 -0.9212 -0.3891
vn -0.1489 0.9212 -0.3594
vn -0.0000 0.3764 -0.9265
vn -0.0000 -0.7002 -0.7139
vn 0.3827 -0.0000 -0.9239
vn -0.0000 0.7002 -0.7139
vn -0.0000 -0.9950 -0.0999
vn -0.0382 0.9950 -0.0923
vn 0.1489 -0.9212 -0.3594
vn -0.0000 0.9212 -0.3891
vn 0.3545 -0.3764 -0.8559
vn 0.2732 -0.7002 -0.6596
vn 0.7071 -0.0000 -0.7071
vn 0.2732 0.7002 -0.6596
vn 0.0382 -0.9950 -0.0923
vn -0.0000 0.9950 -0.0999
vn 0.2751 -0.9212 -0.2751
vn 0.3545 0.3764 -0.8559
vn 0.6551 -0.3764 -0.6551
vn 0.1489 0.9212 -0.3594
vn 0.6551 0.3764 -0.6551
vn 0.5048 -0.7002 -0.5048
vn 0.9239 -0.0000 -0.3827
vn 0.5048 0.7002 -0.5048
vn 0.3594 -0.9212 -0.1489
vn 0.0382 0.9950 -0.0923
vn 0.2751 0.9212 -0.2751
vn 0.8559 -0.3764 -0.3545
vn 0.0707 -0.9950 -0.0707
vn 0.8559 0.3764 -0.3545
vn 0.6596 -0.7002 -0.2732
vn 1.0000 -0.0000 -0.0000
vn 0.6596 0.7002 -0.2732
vn 0.0707 0.9950 -0.0707
vn 0.3891 -0.9212 -0.0000
vn 0.3594 0.9212 -0.1489
vn 0.9265 -0.3764 -0.0000
vn 0.0923 -0.9950 -0.0382
vn 0.7139 -0.7002 -0.0000
vn 0.9239 -0.0000 0.3827
vn 0.9265 0.3764 -0.0000
vn 0.0923 0.9950 -0.0382
vn 0.3594 -0.9212 0.1489
vn 0.3891 0.9212 -0.0000
vn 0.8559 -0.3764 0.3545
vn 0.7139 0.7002 -0.0000
vn 0.0999 -0.9950 -0.0000
vn 0.6596 -0.7002 0.2732
vn 0.7071 -0.0000 0.7071
vn 0.8559 0.3764 0.3545
vn 0.0999 0.9950 -0.0000
vn 0.5048 -0.7002 0.5048
vn 0.3594 0.9212 0.1489
vn 0.6551 -0.3764 0.6551
vn 0.6596 0.7002 0.2732
vn 0.2751 -0.9212 0.2751
vn 0.0923 -0.9950 0.0382
vn 0.3827 -0.0000 0.9239
vn 0.5048 0.7002 0.5048
vn 0.6551 0.3764 0.6551
vn 0.2751 0.9212 0.2751
vn 0.3545 -0.3764 0.8559
vn 0.1489 -0.9212 0.3594
vn 0.0707 -0.9950 0.0707
vn 0.0923 0.9950 0.0382
vn 0.2732 0.7002 0.6596
vn 0.3545 0.3764 0.8559
vn 0.2732 -0.7002 0.6596
vn 0.0382 -0.9950 0.0923
vn 0.1489 0.9212 0.3594
vn 0.0707 0.9950 0.0707
vn -0.0000 0.9950 0.0999
vn -0.0000 -0.9950 0.0999
vn 0.0382 0.9950 0.0923
vn -0.0000 -0.3764 0.9265
vn -0.0000 -0.7002 0.7139
vn -0.6551 -0.3764 0.6551
vn -0.5048 -0.7002 0.5048
vn -0.0000 -0.9212 0.3891
vn -0.0382 -0.9950 0.0923
vn -0.0000 0.3764 0.9265
vt 0.242463 0.716620
vt 0.059680 0.531082
vt 0.124377 0.733932
vt 0.014556 0.374487
vt 0.005222 0.568446
vt 0.398665 0.485099
vt 0.623714 0.269663
vt 0.402897 0.265726
vt 0.329854 0.887766
vt 0.249996 0.894779
vt 0.350254 0.026138
vt 0.427230 0.023156
vt 0.274736 0.053386
vt 0.438314 0.983613
vt 0.410126 0.985171
vt 0.196969 0.500759
vt 0.068747 0.326113
vt 0.238831 0.088166
vt 0.413218 0.035483
vt 0.488326 0.009133
vt 0.453605 0.013842
vt 0.412401 0.708181
vt 0.423355 0.098673
vt 0.260588 0.119113
vt 0.440428 0.884723
vt 0.204290 0.286584
vt 0.475560 0.983046
vt 0.493422 1.000000
vt 0.600451 0.710998
vt 0.098002 0.206079
vt 0.561468 0.886398
vt 0.504823 0.035317
vt 0.038425 0.422334
vt 0.029964 0.605559
vt 0.074671 0.755962
vt 0.212664 0.904256
vt 0.413372 0.048823
vt 0.244930 0.124278
vt 0.114005 0.254501
vt 0.395287 0.987447
vt 0.092486 0.778467
vt 0.220029 0.914456
vt 0.124761 0.462965
vt 0.117855 0.637214
vt 0.288372 0.156324
vt 0.427213 0.061140
vt 0.395672 0.990063
vt 0.183900 0.296220
vt 0.165986 0.798167
vt 0.266775 0.923823
vt 0.254392 0.492491
vt 0.249363 0.660379
vt 0.410699 0.992617
vt 0.292488 0.326812
vt 0.360291 0.180349
vt 0.452317 0.070674
vt 0.279133 0.812960
vt 0.343293 0.931185
vt 0.409091 0.508990
vt 0.406050 0.673548
vt 0.437719 0.994740
vt 0.424100 0.343865
vt 0.484861 0.076134
vt 0.449954 0.193864
vt 0.415697 0.821676
vt 0.572507 0.511647
vt 0.571455 0.676062
vt 0.438210 0.935770
vt 0.563851 0.346286
vt 0.520190 0.076808
vt 0.546052 0.195622
vt 0.472620 0.996143
vt 0.560448 0.823738
vt 0.729157 0.500253
vt 0.730025 0.667718
vt 0.539709 0.937141
vt 0.637179 0.185436
vt 0.553357 0.072603
vt 0.510432 0.996639
vt 0.697315 0.333864
vt 0.862831 0.475162
vt 0.865451 0.648730
vt 0.698703 0.818955
vt 0.635933 0.935145
vt 0.711977 0.164168
vt 0.579639 0.064059
vt 0.809669 0.307237
vt 0.545896 0.996161
vt 0.815321 0.807500
vt 0.955464 0.437720
vt 0.959480 0.620059
vt 0.715048 0.929907
vt 0.595071 0.052316
vt 0.759560 0.133911
vt 0.573986 0.994764
vt 0.885255 0.268279
vt 0.894136 0.790086
vt 0.987767 0.391111
vt 0.992496 0.584079
vt 0.765579 0.921892
vt 0.597018 0.039033
vt 0.770689 0.098245
vt 0.590464 0.992627
vt 0.908599 0.220812
vt 0.943283 0.341330
vt 0.947622 0.545361
vt 0.918917 0.768319
vt 0.584731 0.026211
vt 0.740012 0.062309
vt 0.777611 0.911994
vt 0.592497 0.990045
vt 0.867956 0.171259
vt 0.816751 0.297406
vt 0.819279 0.510896
vt 0.877042 0.745059
vt 0.761427 0.128506
vt 0.668925 0.032309
vt 0.745203 0.901593
vt 0.579251 0.987402
vt 0.559723 0.015907
vt 0.623131 0.488783
vt 0.766065 0.724424
vt 0.669572 0.892458
vt 0.552332 0.985118
vt 0.603053 0.102070
vt 0.567593 0.014231
vt 0.525759 0.009862
vt 0.515792 0.983578
vt 0.454154 0.012022
vt 0.146773 0.157924
s 0
usemtl Material
f 15/1/1 23/3/1 22/2/1
f 22/2/2 30/5/2 29/4/2
f 6/6/3 5/8/3 126/7/3
f 16/9/4 24/10/4 23/3/4
f 11/11/5 19/13/5 18/12/5
f 17/14/6 25/15/6 24/10/6
f 14/16/7 22/2/7 21/17/7
f 27/18/8 26/19/8 18/12/8
f 11/11/9 10/21/9 2/20/9
f 7/22/10 15/1/10 14/16/10
f 4/23/11 12/24/11 11/11/11
f 8/25/12 16/9/12 15/1/12
f 13/26/13 12/24/13 4/23/13
f 9/27/14 17/14/14 16/9/14
f 6/6/15 14/16/15 13/26/15
f 1/28/16 17/14/16 9/27/16
f 8/25/17 7/22/17 128/29/17
f 21/17/18 29/4/18 28/30/18
f 9/27/19 8/25/19 129/31/19
f 74/32/20 10/21/20 18/12/20
f 30/5/21 38/34/21 37/33/21
f 24/10/22 32/36/22 31/35/22
f 23/3/23 31/35/23 30/5/23
f 28/30/24 27/18/24 19/13/24
f 27/18/25 35/38/25 34/37/25
f 29/4/26 37/33/26 36/39/26
f 74/32/27 18/12/27 26/19/27
f 25/15/28 33/40/28 32/36/28
f 1/28/29 25/15/29 17/14/29
f 32/36/30 40/42/30 39/41/30
f 39/41/31 38/34/31 30/5/31
f 28/30/32 36/39/32 35/38/32
f 38/34/33 46/44/33 45/43/33
f 43/45/34 42/46/34 34/37/34
f 74/32/35 26/19/35 34/37/35
f 33/40/36 41/47/36 40/42/36
f 37/33/37 45/43/37 44/48/37
f 1/28/38 33/40/38 25/15/38
f 40/42/39 48/50/39 47/49/39
f 47/49/40 46/44/40 38/34/40
f 36/39/41 44/48/41 43/45/41
f 46/44/42 54/52/42 53/51/42
f 41/47/43 49/53/43 48/50/43
f 74/32/44 34/37/44 42/46/44
f 45/43/45 53/51/45 52/54/45
f 1/28/46 41/47/46 33/40/46
f 51/55/47 50/56/47 42/46/47
f 48/50/48 56/58/48 55/57/48
f 47/49/49 55/57/49 54/52/49
f 52/54/50 51/55/50 43/45/50
f 54/52/51 62/60/51 61/59/51
f 49/53/52 57/61/52 56/58/52
f 61/59/53 60/62/53 52/54/53
f 1/28/54 49/53/54 41/47/54
f 74/32/55 42/46/55 50/56/55
f 51/55/56 59/64/56 58/63/56
f 55/57/57 63/65/57 62/60/57
f 60/62/58 59/64/58 51/55/58
f 62/60/59 70/67/59 69/66/59
f 56/58/60 64/68/60 63/65/60
f 61/59/61 69/66/61 68/69/61
f 1/28/62 57/61/62 49/53/62
f 74/32/63 50/56/63 58/63/63
f 59/64/64 67/71/64 66/70/64
f 57/61/65 65/72/65 64/68/65
f 63/65/66 71/73/66 70/67/66
f 60/62/67 68/69/67 67/71/67
f 70/67/68 79/75/68 78/74/68
f 64/68/69 72/76/69 71/73/69
f 74/32/70 58/63/70 66/70/70
f 1/28/71 65/72/71 57/61/71
f 76/77/72 75/78/72 66/70/72
f 65/72/73 73/79/73 72/76/73
f 69/66/74 78/74/74 77/80/74
f 68/69/75 77/80/75 76/77/75
f 79/75/76 87/82/76 86/81/76
f 72/76/77 81/84/77 80/83/77
f 66/70/78 75/78/78 74/32/78
f 1/28/79 73/79/79 65/72/79
f 84/85/80 83/86/80 75/78/80
f 71/73/81 80/83/81 79/75/81
f 86/81/82 85/87/82 77/80/82
f 73/79/83 82/88/83 81/84/83
f 80/83/84 88/89/84 87/82/84
f 77/80/85 85/87/85 84/85/85
f 87/82/86 95/91/86 94/90/86
f 81/84/87 89/92/87 88/89/87
f 84/85/88 92/94/88 91/93/88
f 1/28/89 82/88/89 73/79/89
f 90/95/90 89/92/90 81/84/90
f 94/90/91 93/96/91 85/87/91
f 74/32/92 75/78/92 83/86/92
f 88/89/93 96/97/93 95/91/93
f 85/87/94 93/96/94 92/94/94
f 95/91/95 103/99/95 102/98/95
f 89/92/96 97/100/96 96/97/96
f 1/28/97 90/95/97 82/88/97
f 92/94/98 100/102/98 99/101/98
f 90/95/99 98/103/99 97/100/99
f 102/98/100 101/104/100 93/96/100
f 74/32/101 83/86/101 91/93/101
f 93/96/102 101/104/102 100/102/102
f 103/99/103 111/106/103 110/105/103
f 96/97/104 104/107/104 103/99/104
f 1/28/105 98/103/105 90/95/105
f 100/102/106 108/109/106 107/108/106
f 98/103/107 106/111/107 105/110/107
f 102/98/108 110/105/108 109/112/108
f 105/110/109 104/107/109 96/97/109
f 74/32/110 91/93/110 99/101/110
f 101/104/111 109/112/111 108/109/111
f 111/106/112 119/114/112 118/113/112
f 112/115/113 111/106/113 103/99/113
f 1/28/114 106/111/114 98/103/114
f 117/116/115 116/117/115 108/109/115
f 106/111/116 114/119/116 113/118/116
f 118/113/117 117/116/117 109/112/117
f 113/118/118 112/115/118 104/107/118
f 108/109/119 116/117/119 115/120/119
f 74/32/120 99/101/120 107/108/120
f 119/114/121 127/121/121 126/7/121
f 113/118/122 121/123/122 120/122/122
f 112/115/123 120/122/123 119/114/123
f 114/119/124 122/124/124 121/123/124
f 126/7/125 125/125/125 117/116/125
f 124/126/126 123/127/126 115/120/126
f 74/32/127 107/108/127 115/120/127
f 1/28/128 114/119/128 106/111/128
f 129/31/129 128/29/129 120/122/129
f 120/122/130 128/29/130 127/121/130
f 117/116/131 125/125/131 124/126/131
f 74/32/132 115/120/132 123/127/132
f 122/124/133 130/128/133 129/31/133
f 1/28/134 122/124/134 114/119/134
f 1/28/135 9/27/135 130/128/135
f 74/32/136 123/127/136 2/20/136
f 1/28/137 130/128/137 122/124/137
f 4/23/138 125/125/138 126/7/138
f 3/129/139 124/126/139 125/125/139
f 13/26/140 21/17/140 20/130/140
f 12/24/141 20/130/141 19/13/141
f 2/20/142 123/127/142 124/126/142
f 74/32/143 2/20/143 10/21/143
f 7/22/144 6/6/144 127/121/144
f 15/1/1 22/2/1 14/16/1
f 22/2/2 29/4/2 21/17/2
f 6/6/3 126/7/3 127/121/3
f 16/9/4 23/3/4 15/1/4
f 11/11/5 18/12/5 10/21/5
f 17/14/6 24/10/6 16/9/6
f 14/16/7 21/17/7 13/26/7
f 27/18/8 18/12/8 19/13/8
f 11/11/9 2/20/9 3/129/9
f 7/22/10 14/16/10 6/6/10
f 4/23/11 11/11/11 3/129/11
f 8/25/12 15/1/12 7/22/12
f 13/26/13 4/23/13 5/8/13
f 9/27/14 16/9/14 8/25/14
f 6/6/15 13/26/15 5/8/15
f 8/25/17 128/29/17 129/31/17
f 21/17/18 28/30/18 20/130/18
f 9/27/19 129/31/19 130/128/19
f 30/5/21 37/33/21 29/4/21
f 24/10/22 31/35/22 23/3/22
f 23/3/23 30/5/23 22/2/23
f 28/30/24 19/13/24 20/130/24
f 27/18/25 34/37/25 26/19/25
f 29/4/26 36/39/26 28/30/26
f 25/15/28 32/36/28 24/10/28
f 32/36/30 39/41/30 31/35/30
f 39/41/31 30/5/31 31/35/31
f 28/30/32 35/38/32 27/18/32
f 38/34/33 45/43/33 37/33/33
f 43/45/34 34/37/34 35/38/34
f 33/40/36 40/42/36 32/36/36
f 37/33/37 44/48/37 36/39/37
f 40/42/39 47/49/39 39/41/39
f 47/49/40 38/34/40 39/41/40
f 36/39/41 43/45/41 35/38/41
f 46/44/42 53/51/42 45/43/42
f 41/47/43 48/50/43 40/42/43
f 45/43/45 52/54/45 44/48/45
f 51/55/47 42/46/47 43/45/47
f 48/50/48 55/57/48 47/49/48
f 47/49/49 54/52/49 46/44/49
f 52/54/50 43/45/50 44/48/50
f 54/52/51 61/59/51 53/51/51
f 49/53/52 56/58/52 48/50/52
f 61/59/53 52/54/53 53/51/53
f 51/55/56 58/63/56 50/56/56
f 55/57/57 62/60/57 54/52/57
f 60/62/58 51/55/58 52/54/58
f 62/60/59 69/66/59 61/59/59
f 56/58/60 63/65/60 55/57/60
f 61/59/61 68/69/61 60/62/61
f 59/64/64 66/70/64 58/63/64
f 57/61/65 64/68/65 56/58/65
f 63/65/66 70/67/66 62/60/66
f 60/62/67 67/71/67 59/64/67
f 70/67/68 78/74/68 69/66/68
f 64/68/69 71/73/69 63/65/69
f 76/77/72 66/70/72 67/71/72
f 65/72/73 72/76/73 64/68/73
f 69/66/74 77/80/74 68/69/74
f 68/69/75 76/77/75 67/71/75
f 79/75/76 86/81/76 78/74/76
f 72/76/77 80/83/77 71/73/77
f 84/85/80 75/78/80 76/77/80
f 71/73/81 79/75/81 70/67/81
f 86/81/82 77/80/82 78/74/82
f 73/79/83 81/84/83 72/76/83
f 80/83/84 87/82/84 79/75/84
f 77/80/85 84/85/85 76/77/85
f 87/82/86 94/90/86 86/81/86
f 81/84/87 88/89/87 80/83/87
f 84/85/88 91/93/88 83/86/88
f 90/95/90 81/84/90 82/88/90
f 94/90/91 85/87/91 86/81/91
f 88/89/93 95/91/93 87/82/93
f 85/87/94 92/94/94 84/85/94
f 95/91/95 102/98/95 94/90/95
f 89/92/96 96/97/96 88/89/96
f 92/94/98 99/101/98 91/93/98
f 90/95/99 97/100/99 89/92/99
f 102/98/100 93/96/100 94/90/100
f 93/96/102 100/102/102 92/94/102
f 103/99/103 110/105/103 102/98/103
f 96/97/104 103/99/104 95/91/104
f 100/102/106 107/108/106 99/101/106
f 98/103/107 105/110/107 97/100/107
f 102/98/108 109/112/108 101/104/108
f 105/110/109 96/97/109 97/100/109
f 101/104/111 108/109/111 100/102/111
f 111/106/112 118/113/112 110/105/112
f 112/115/113 103/99/113 104/107/113
f 117/116/115 108/109/115 109/112/115
f 106/111/116 113/118/116 105/110/116
f 118/113/117 109/112/117 110/105/117
f 113/118/118 104/107/118 105/110/118
f 108/109/119 115/120/119 107/108/119
f 119/114/121 126/7/121 118/113/121
f 113/118/122 120/122/122 112/115/122
f 112/115/123 119/114/123 111/106/123
f 114/119/124 121/123/124 113/118/124
f 126/7/125 117/116/125 118/113/125
f 124/126/126 115/120/126 116/117/126
f 129/31/129 120/122/129 121/123/129
f 120/122/130 127/121/130 119/114/130
f 117/116/131 124/126/131 116/117/131
f 122/124/133 129/31/133 121/123/133
f 4/23/138 126/7/138 5/8/138
f 3/129/139 125/125/139 4/23/139
f 13/26/140 20/130/140 12/24/140
f 12/24/141 19/13/141 11/11/141
f 2/20/142 124/126/142 3/129/142
f 7/22/144 127/121/144 128/29/144
