# Blender 4.1.1
# www.blender.org
mtllib hang2.mtl
g hang_Mesh
v -0.661338 2.161059 -0.189955
v -0.614458 1.781847 -0.168671
v 0.652530 2.165779 0.164057
v -0.403040 1.408496 -0.167208
v -0.498160 1.377981 -0.076309
v 0.235590 2.531326 0.270883
v 0.534677 2.524630 0.215886
v 0.355621 2.638977 0.140424
v 0.163480 2.635895 0.109989
v -0.006013 2.629263 0.168867
v -0.006283 2.485531 0.341902
v -0.158269 2.652264 0.129068
v -0.245041 2.516706 0.280755
v -0.366749 2.634427 0.144605
v -0.554738 2.537425 0.208218
v -0.349258 4.147796 -0.082891
v -0.400464 4.181555 -0.212417
v -0.354038 4.239764 -0.214415
v -0.323830 4.276721 -0.214736
v -0.225527 4.297855 -0.090149
v -0.278834 4.335659 -0.215762
v -0.419747 4.340401 -0.205733
v -0.444079 4.454316 -0.090955
v -0.373086 4.404177 -0.204835
v -0.450660 4.301536 -0.204132
v -0.493076 4.243795 -0.202251
v -0.562343 4.290080 -0.085346
v 0.483121 4.244124 -0.206520
v 0.444858 4.297492 -0.211841
v 0.554123 4.294086 -0.082206
v 0.407722 4.351198 -0.217368
v 0.433976 4.469487 -0.107447
v 0.350681 4.431006 -0.223183
v 0.329595 4.143896 -0.085748
v 0.196372 4.304108 -0.116707
v 0.342226 4.245765 -0.214921
v 0.387847 4.179562 -0.219154
v 0.259056 4.372926 -0.207267
v 0.309172 4.296274 -0.212336
v -0.465015 1.103551 0.209423
v -0.523796 1.104677 0.062561
v -0.383660 1.154674 0.300457
v -0.599813 1.485087 0.102206
v -0.722351 1.812338 0.044551
v -0.471049 1.125057 0.039219
v 0.165522 1.452269 -0.213176
v -0.021905 1.816762 -0.246794
v -0.008587 1.438100 -0.144714
v -0.241856 1.811813 -0.281273
v -0.238940 2.458132 -0.415898
v 0.624053 1.818331 0.201467
v 0.548217 2.141933 0.360107
v -0.567936 2.532127 -0.339995
v 0.144034 2.662290 0.182507
v -0.006856 2.768333 -0.203553
v -0.006955 2.885277 -0.079319
v 0.134461 2.899003 0.024262
v 0.162245 2.737373 -0.167579
v 0.181274 2.743414 0.078441
v 0.232153 2.689059 -0.025968
v 0.608313 1.811575 -0.165433
v 0.467604 1.727579 -0.111341
v 0.528940 2.128193 -0.328376
v 0.085057 2.512375 0.361924
v 0.061069 2.571153 0.233021
v -0.362488 4.398228 -0.182926
v -0.289003 4.346202 -0.191495
v -0.420796 4.439533 -0.087910
v -0.483793 4.235068 -0.180436
v -0.541356 4.271727 -0.083527
v -0.244524 4.315290 -0.089716
v 0.138603 2.606657 0.396107
v 0.070155 2.541601 0.455328
v -0.370044 4.162621 -0.083245
v -0.411919 4.189312 -0.188350
v -0.362308 4.397998 0.017016
v -0.006701 3.188262 0.013446
v -0.485577 4.236193 0.024592
v -0.494476 4.246039 0.046845
v -0.288605 4.346413 0.016719
v -0.278234 4.337761 0.039950
v -0.413658 4.190378 0.025461
v -0.373213 4.406111 0.039343
v -0.401320 4.183714 0.048576
v 0.527359 4.271835 -0.083063
v 0.470016 4.235257 -0.180273
v 0.255967 2.887779 0.235630
v 0.242472 2.793099 0.197402
v 0.238663 2.969098 0.131162
v 0.335881 4.425917 -0.196080
v 0.404286 4.450931 -0.105940
v 0.398055 4.189406 -0.188764
v 0.274771 3.032101 0.408223
v 0.276873 2.979845 0.409836
v 0.320038 3.076494 0.316760
v -0.006998 2.615863 0.572719
v 0.061377 2.657402 0.575594
v -0.006955 2.598752 0.637207
v 0.355729 4.162518 -0.083875
v 0.220405 4.326021 -0.115887
v -0.006964 2.554753 0.518239
v 0.105273 2.597091 0.480697
v 0.276263 3.047033 0.314114
v 0.471037 4.236064 0.024965
v 0.029859 2.576014 0.542729
v 0.350810 4.393058 -0.012699
v 0.404534 4.186000 0.026099
v 0.380268 4.184504 0.051448
v 0.274256 4.340427 -0.016079
v 0.477758 4.249217 0.053136
v -0.006424 2.478312 0.393639
v 0.258931 4.331763 0.012678
v -0.038217 2.118175 0.356548
v 0.181466 3.199515 0.091133
v 0.262973 1.845088 -0.308548
v 0.281792 2.193964 -0.418249
v 0.284689 2.494105 -0.399085
v 0.534349 2.520037 -0.326266
v -0.001151 2.528265 -0.416559
v 0.161587 2.705397 0.526924
v 0.159173 2.767652 0.598937
v 0.107977 2.750711 0.609591
v 0.254389 2.760958 0.285529
v 0.333387 2.666391 -0.305215
v 0.100634 2.815658 0.730305
v -0.008740 2.770276 0.697164
v 0.042941 2.783384 0.646915
v 0.146461 2.808787 0.659003
v 0.752700 2.519726 -0.045461
v 0.673470 2.354939 -0.189164
v 0.241116 2.838542 0.531756
v 0.698179 1.777571 0.024995
v 0.205137 2.866538 0.655416
v 0.859720 3.213024 0.124170
v 0.782219 2.967842 0.103843
v 0.910534 2.929036 -0.076258
v 0.909616 3.465411 0.123724
v 0.768207 3.465433 0.119632
v 0.703768 3.257132 0.113695
v 0.688880 3.472156 -0.037321
v -0.187528 4.808854 -0.003706
v -0.113901 4.884581 0.011767
v -0.143853 4.844316 -0.028141
v -0.134406 4.827979 0.027083
v 0.006138 4.915517 0.005773
v -0.062519 4.890102 -0.021318
v -0.052954 4.872208 0.030644
v 0.308854 3.042633 0.267170
v 0.102629 4.523559 -0.056320
v -0.135181 4.513930 -0.062626
v -0.141620 4.476028 -0.081407
v 0.018599 4.524676 -0.130692
v -0.148881 4.524326 -0.082579
v 0.165813 4.474723 -0.196160
v 0.083368 4.486674 -0.181142
v 0.063396 4.618165 -0.207788
v 0.254537 2.869261 0.297627
v 0.199038 4.404304 -0.005958
v 0.117388 4.392484 -0.110069
v -0.144950 4.491171 -0.095180
v 0.081156 4.765425 -0.165765
v -0.069370 4.641525 -0.120953
v 0.101999 4.721103 -0.042697
v 0.213550 4.608285 -0.053488
v 0.286344 4.694173 -0.107489
v 0.001273 4.656330 -0.050751
v 0.180611 4.676889 -0.195715
v 0.279806 4.527174 -0.185328
v 0.310145 4.460042 -0.002945
v 0.169894 4.795978 -0.100347
v -0.019972 4.703682 -0.178657
v 0.262993 2.864864 0.260226
v 0.381188 4.540248 -0.095592
v -0.104356 2.494989 0.377123
v -0.171846 2.658837 0.203340
v -0.075233 2.571840 0.232290
v 0.068814 4.872191 -0.197218
v 0.143321 4.796642 -0.195702
v 0.095402 4.821311 -0.224009
v 0.094055 4.825301 -0.166370
v -0.083105 2.541380 0.451771
v -0.152736 2.603642 0.397974
v 0.013806 4.865911 -0.221974
v -0.051802 4.899231 -0.195930
v -0.290670 2.979937 0.409667
v -0.262897 2.816357 0.509330
v -0.243805 2.893610 0.601898
v -0.157088 2.887322 0.035927
v 0.012236 4.867704 -0.166531
v -0.133896 4.511160 -0.106037
v -0.150001 4.369439 -0.106629
v 0.118980 4.456753 -0.203511
v -0.062966 4.484787 -0.185762
v 0.113190 4.498897 -0.197971
v -0.132159 4.431715 -0.210235
v -0.215598 4.415556 -0.208059
v -0.122271 4.545720 -0.282995
v -0.255895 2.791742 0.197392
v -0.257295 2.888505 0.236371
v -0.252303 2.969729 0.130845
v -0.219053 4.416189 -0.002687
v 0.119367 4.465529 -0.221751
v -0.288717 3.001743 0.388390
v -0.333645 3.076365 0.316888
v -0.074850 2.657437 0.575854
v 0.124335 4.501450 -0.222516
v -0.140850 4.698964 -0.292463
v -0.222578 4.750036 -0.230211
v -0.120867 2.596865 0.479169
v -0.288781 3.048020 0.315259
v 0.019687 4.598836 -0.229196
v -0.039459 4.635668 -0.297018
v -0.045096 2.578693 0.541408
v -0.144039 4.701088 -0.160129
v -0.333424 4.653056 -0.184852
v -0.042170 4.637552 -0.159295
v -0.328301 4.468977 -0.200458
v -0.238967 4.606552 -0.275726
v -0.194385 3.198602 0.090056
v -0.418148 4.512290 -0.107533
v -0.331591 4.470344 -0.003707
v -0.180961 2.767679 0.597641
v -0.176526 2.704154 0.527740
v -0.122257 2.748621 0.607556
v -0.268141 2.760926 0.285549
v -0.178552 2.846957 0.707072
v -0.066630 2.782596 0.646403
v -0.162547 2.808796 0.655761
v -0.250090 4.590454 -0.114830
v -0.459486 4.306001 -0.300428
v -0.430157 4.344706 -0.301274
v -0.334557 4.282947 -0.312289
v -0.322579 3.042606 0.267232
v 0.627242 3.013869 0.090647
v 0.631457 3.284875 -0.049585
v 0.659062 2.768609 0.168394
v 0.484173 2.824800 0.135176
v 0.971092 3.182480 -0.054167
v 0.993069 3.453795 -0.038665
v 0.651850 2.770878 -0.302432
v 0.810700 2.715353 -0.069116
v 0.693670 3.265589 -0.229267
v 0.768404 3.472127 -0.195611
v 0.905237 3.467735 -0.184958
v -0.268299 2.869123 0.297567
v 0.699547 3.937508 0.082820
v 0.766479 3.962513 -0.046968
v 0.352423 2.668831 -0.052160
v 0.588329 3.020290 -0.071936
v 0.776919 2.969166 -0.245821
v 0.855989 3.217643 -0.218583
v 0.434255 2.847429 -0.055496
v 0.621676 3.011339 -0.236813
v -0.271589 2.864862 0.260257
v 0.523844 3.870688 -0.043308
v -0.195158 2.743704 0.078928
v 0.590292 3.895099 -0.171692
v 0.881081 3.611704 -0.163224
v 0.967072 3.636398 -0.028964
v 0.885873 3.608937 0.119497
v 0.755853 3.582126 0.117796
v 0.683804 3.555799 -0.026199
v -0.875393 3.214614 -0.237752
v -0.985812 3.183452 -0.053769
v -1.009352 3.455555 -0.038650
v 0.755207 3.576815 -0.173775
v -0.515815 1.423243 0.238215
v -0.638455 1.785624 0.186986
v -0.422735 1.377568 0.369687
v -0.692407 2.366344 0.118245
v -0.764428 2.513634 -0.045070
v -0.378603 2.647710 -0.047530
v -0.347715 2.667382 -0.319139
v -0.464427 2.842437 -0.276173
v -0.238436 1.435112 0.244585
v -0.239318 1.843495 0.331994
v -0.477393 1.762004 0.364377
v -0.277441 2.156806 0.420346
v -0.539795 2.173352 0.320528
v -0.176783 2.736781 -0.167978
v -0.251312 2.682912 -0.032855
v 0.679870 2.368699 0.114602
v -0.492836 1.789762 -0.283580
v -0.669246 2.139361 0.160064
v 0.693944 3.936007 -0.162675
v -0.267679 2.111345 -0.419666
v 0.002826 2.178499 -0.385205
v 0.657596 2.150721 -0.171647
v 0.596562 3.894374 0.080497
v -0.750366 2.172846 -0.024127
v -0.687947 2.355040 -0.189811
v 0.731120 2.179076 -0.006661
v -0.534807 2.139164 -0.353198
v -0.875546 3.214942 0.133658
v -0.924694 2.929263 -0.076069
v -0.716665 3.258859 0.115872
v -0.782845 3.464918 0.120412
v -0.645730 3.285738 -0.048732
v -0.695208 3.482582 -0.038385
v -0.602737 3.021052 -0.071174
v -0.635017 3.011483 -0.236484
v -0.707456 3.266646 -0.228885
v -0.802935 2.961564 -0.266980
v -0.798017 2.966877 0.105447
v -0.641961 3.015377 0.089828
v -0.451451 2.846655 -0.054473
v -0.497034 2.825431 0.135683
v -0.821784 2.715726 -0.070035
v -0.665463 2.771576 -0.338118
v -0.670654 2.769569 0.176582
v -0.537247 3.872152 -0.043147
v -0.603407 3.897526 -0.181654
v -0.715437 3.941839 -0.171499
v -0.928846 3.478626 -0.194480
v -0.979987 3.635735 -0.029506
v -0.922634 3.462029 0.120984
v -0.775717 3.569909 0.126811
v -0.698106 3.535741 -0.025456
v -0.782390 3.479426 -0.207660
v -0.777560 3.555595 -0.183295
v -0.915541 3.588905 -0.171677
v -0.782768 3.962886 -0.046951
v -0.895593 3.613981 0.115028
v -0.610641 3.894105 0.084082
v -0.712976 3.939943 0.085921
v 0.437489 1.721963 0.304752
v -0.201414 1.429345 -0.178175
v 0.450254 2.842430 -0.276163
v 0.342169 4.244870 -0.312938
v 0.309419 4.293991 -0.310507
v 0.407209 4.348224 -0.313985
v -0.364059 4.246819 -0.311599
v 0.442749 4.296753 -0.309510
v 0.250925 2.162116 0.427287
v 0.213288 1.444506 0.291980
v 0.008078 1.372910 0.237507
v -0.011822 1.801055 0.293586
v 0.227371 1.802832 0.319274
v -0.011698 2.838151 0.706866
v -0.260317 3.163831 0.227610
v 0.253852 3.142408 0.214062
v 0.272093 3.073059 0.280676
v -0.285704 3.087875 0.311536
v -0.006707 3.169652 0.045263
v 0.239675 3.033459 0.404802
v 0.157249 3.184615 0.115849
v 0.092002 2.835124 0.696751
v 0.173674 2.875735 0.638704
v -0.210559 2.900256 0.591578
v -0.253638 3.003744 0.386068
v -0.169271 3.184523 0.114915
v -0.157759 2.864649 0.677476
v -0.006426 2.855831 0.676803
v -0.227069 3.158428 0.237892
v 0.220498 3.135961 0.224040
v 0.237180 3.070681 0.283646
v -0.250804 3.086150 0.315580
v -0.006849 3.073840 0.073285
v 0.196519 2.934920 0.363316
v 0.128082 3.062321 0.118278
v 0.077489 2.766105 0.610023
v 0.139114 2.797306 0.566540
v -0.169734 2.795397 0.517133
v -0.210243 2.934958 0.366198
v -0.139818 3.062662 0.117514
v -0.131698 2.791709 0.594745
v -0.003766 2.783784 0.593901
v -0.187916 3.021464 0.209177
v 0.180192 3.022964 0.207869
v 0.193875 2.989140 0.270671
v -0.208013 2.980660 0.287028
v -0.005603 2.990980 0.463560
v 0.302306 1.510809 0.071226
v 0.188674 1.571625 0.056465
v 0.093262 1.314900 0.071920
v 0.000268 1.184395 0.093426
v 0.522924 1.638804 0.069596
v 0.449325 1.724170 0.075769
v -0.274663 1.429254 0.203924
v -0.174244 1.435946 0.166887
v -0.229218 1.433676 0.187451
v 0.072137 4.965898 -0.238564
v 0.072169 5.230622 -0.238482
v -0.086331 5.230677 -0.238564
v 0.072206 4.965656 -0.299397
v 0.072137 5.230677 -0.299745
v -0.086331 4.965898 -0.299745
v -0.086363 5.230622 -0.299827
v -0.086401 4.965656 -0.238913
v 0.023494 5.149412 -0.348388
v 0.023576 5.414136 -0.348420
v 0.023494 5.414191 -0.189921
v -0.037339 5.149170 -0.348458
v -0.037688 5.414191 -0.348388
v -0.037688 5.149412 -0.189921
v -0.037770 5.414136 -0.189889
v 0.023145 5.149170 -0.189851
v 0.072137 4.618751 -0.238564
v 0.072169 4.883475 -0.238482
v -0.086331 4.883529 -0.238564
v 0.072206 4.618508 -0.299397
v 0.072137 4.883529 -0.299745
v -0.086331 4.618751 -0.299745
v -0.086363 4.883475 -0.299827
v -0.086401 4.618508 -0.238913
v 0.023494 4.802265 -0.348388
v 0.023576 5.066989 -0.348420
v 0.023494 5.067043 -0.189921
v -0.037339 4.802022 -0.348458
v -0.037688 5.067043 -0.348388
v -0.037688 4.802265 -0.189921
v -0.037770 5.066989 -0.189889
v 0.023145 4.802022 -0.189851
v 0.072137 4.268544 -0.238564
v 0.072169 4.533268 -0.238482
v -0.086331 4.533323 -0.238564
v 0.072206 4.268302 -0.299397
v 0.072137 4.533323 -0.299745
v -0.086331 4.268544 -0.299745
v -0.086363 4.533268 -0.299827
v -0.086401 4.268302 -0.238913
v 0.023494 4.452058 -0.348388
v 0.023576 4.716783 -0.348420
v 0.023494 4.716837 -0.189921
v -0.037339 4.451816 -0.348458
v -0.037688 4.716837 -0.348388
v -0.037688 4.452058 -0.189921
v -0.037770 4.716783 -0.189889
v 0.023145 4.451816 -0.189851
vn -0.8089 -0.1406 -0.5709
vn -0.3736 -0.2615 -0.8900
vn -0.7946 -0.2299 -0.5619
vn -0.8089 -0.1406 -0.5708
vn -0.5089 -0.1746 -0.8429
vn -0.3735 -0.2615 -0.8900
vn -0.7946 -0.2299 -0.5618
vn -0.0322 -0.7116 -0.7018
vn -0.7947 -0.2299 -0.5618
vn -0.9929 -0.0781 -0.0894
vn 0.8965 -0.0193 0.4426
vn 0.5585 -0.0149 0.8294
vn 0.8211 -0.2227 0.5256
vn 0.8498 0.1055 0.5165
vn 0.9952 -0.0652 0.0726
vn -0.8768 -0.2657 -0.4009
vn -0.9334 -0.2815 0.2227
vn -0.8270 -0.2328 -0.5118
vn -0.0322 -0.7117 -0.7018
vn -0.2074 -0.6329 -0.7459
vn -0.7804 -0.3446 -0.5218
vn 0.5040 -0.8342 -0.2240
vn 0.3466 -0.9368 0.0483
vn -0.7804 -0.3446 -0.5217
vn -0.2074 -0.6329 -0.7460
vn -0.9614 -0.2639 -0.0786
vn 0.1016 0.6763 0.7296
vn 0.0362 0.0625 0.9974
vn 0.3371 0.3088 0.8894
vn -0.3933 0.7380 0.5484
vn 0.1016 0.6764 0.7295
vn -0.5222 0.4956 0.6940
vn -0.3932 0.7381 0.5483
vn 0.3371 0.3087 0.8894
vn 0.8497 0.1056 0.5165
vn 0.9918 -0.0691 0.1075
vn 0.0363 0.0625 0.9974
vn 0.3631 0.6476 0.6700
vn -0.3933 0.7380 0.5483
vn -0.4730 0.8707 0.1349
vn 0.3630 0.6475 0.6700
vn -0.3932 0.7380 0.5483
vn -0.8117 0.5820 0.0492
vn -0.4729 0.8707 0.1349
vn 0.3630 0.6476 0.6700
vn 0.1831 -0.9704 -0.1573
vn 0.7783 -0.6188 -0.1062
vn 0.1832 -0.9704 -0.1573
vn 0.3631 0.6475 0.6700
vn 0.6870 0.6831 0.2477
vn -0.4730 0.8707 0.1348
vn 0.6870 0.6831 0.2476
vn 0.1831 -0.9704 -0.1572
vn -0.0002 0.4272 0.9042
vn -0.1401 0.5900 0.7952
vn -0.0002 0.4271 0.9042
vn 0.1118 -0.8188 -0.5631
vn 0.4696 -0.8692 -0.1548
vn -0.2123 -0.8727 -0.4396
vn -0.9317 0.2043 0.3004
vn -0.0291 0.0567 0.9980
vn 0.0321 -0.1145 0.9929
vn -0.0001 0.4271 0.9042
vn -0.9317 0.2042 0.3005
vn -0.9317 0.2043 0.3005
vn 0.3683 0.7470 0.5535
vn -0.7696 -0.6118 -0.1829
vn -0.9316 0.2043 0.3005
vn 0.4529 0.8853 0.1057
vn -0.5861 0.7838 0.2053
vn 0.4529 0.8853 0.1056
vn -0.1401 0.5899 0.7952
vn -0.0291 0.0568 0.9980
vn -0.5781 0.1285 0.8057
vn 0.3683 0.7470 0.5534
vn -0.3460 0.2604 0.9014
vn 0.5341 0.4922 0.6873
vn -0.3460 0.2605 0.9014
vn -0.9910 -0.0727 0.1127
vn -0.8277 0.0980 0.5526
vn -0.3459 0.2604 0.9014
vn -0.5781 0.1285 0.8058
vn -0.3459 0.2605 0.9014
vn -0.4118 0.0222 0.9110
vn -0.9910 -0.0726 0.1127
vn 0.2230 -0.9601 -0.1685
vn 0.1578 -0.9785 0.1329
vn -0.3076 -0.8637 -0.3993
vn 0.2230 -0.9602 -0.1685
vn -0.1857 -0.7236 0.6647
vn 0.1579 -0.9785 0.1329
vn -0.0432 -0.8614 0.5061
vn -0.1857 -0.7236 0.6648
vn 0.1572 -0.8872 -0.4338
vn 0.2229 -0.9602 -0.1684
vn -0.3076 -0.8637 -0.3994
vn -0.6082 -0.4565 -0.6494
vn -0.0596 -0.8681 -0.4928
vn -0.6082 -0.4564 -0.6495
vn 0.9506 0.2972 -0.0889
vn 0.2229 -0.9602 -0.1685
vn 0.1573 -0.8872 -0.4338
vn -0.8228 0.0780 -0.5630
vn -0.2380 -0.9592 -0.1522
vn 0.9507 0.2972 -0.0890
vn 0.1126 -0.6804 -0.7242
vn -0.2381 -0.9592 -0.1523
vn 0.1572 -0.8872 -0.4337
vn -0.2752 -0.6239 -0.7314
vn 0.1127 -0.6804 -0.7242
vn 0.9507 0.2972 -0.0889
vn 0.9998 -0.0011 -0.0186
vn 0.9506 0.2973 -0.0890
vn 0.5814 0.4760 -0.6599
vn -0.4883 0.6265 -0.6075
vn 0.0865 0.9273 -0.3641
vn -0.4882 0.6265 -0.6076
vn 0.0783 0.6998 -0.7101
vn 0.0866 0.9274 -0.3640
vn 0.9998 -0.0011 -0.0187
vn -0.0433 -0.8614 0.5061
vn 0.2230 -0.9601 -0.1686
vn 0.5799 0.3721 -0.7247
vn 0.9998 -0.0012 -0.0186
vn 0.2640 0.8375 -0.4784
vn -0.4883 0.6264 -0.6076
vn -0.8227 0.0781 -0.5630
vn -0.2040 0.9414 -0.2685
vn -0.7780 0.1606 -0.6074
vn -0.8227 0.0781 -0.5631
vn 0.0865 0.9274 -0.3640
vn -0.2041 0.9414 -0.2684
vn -0.2041 0.9414 -0.2685
vn -0.2016 0.9539 0.2224
vn 0.2792 0.7654 0.5798
vn 0.1012 0.8560 0.5070
vn -0.0194 0.7048 -0.7091
vn 0.5814 0.4759 -0.6599
vn 0.2640 0.8376 -0.4783
vn -0.0195 0.7048 -0.7091
vn -0.9969 -0.0701 -0.0343
vn -0.8227 0.0780 -0.5631
vn -0.6082 -0.4564 -0.6494
vn -0.6160 -0.4253 -0.6630
vn -0.9970 -0.0700 -0.0343
vn -0.6161 -0.4253 -0.6630
vn -0.9970 -0.0700 -0.0344
vn 0.1013 0.8560 0.5070
vn 0.7071 -0.5477 -0.4473
vn 0.2809 -0.7518 -0.5966
vn 0.7245 0.2604 -0.6382
vn 0.7071 -0.5477 -0.4472
vn 0.6164 -0.4981 -0.6099
vn 0.2808 -0.7517 -0.5967
vn 0.7245 0.2605 -0.6382
vn 0.9956 -0.0626 0.0701
vn 0.7071 -0.5478 -0.4472
vn 0.2502 0.9558 -0.1546
vn 0.9956 -0.0625 0.0701
vn 0.2809 -0.7517 -0.5967
vn -0.2381 -0.9592 -0.1522
vn 0.3796 0.6404 -0.6677
vn 0.2959 0.7663 -0.5703
vn 0.7244 0.2605 -0.6382
vn 0.7417 -0.5227 -0.4203
vn 0.3795 0.6404 -0.6677
vn 0.9647 -0.2188 -0.1468
vn 0.7070 -0.5478 -0.4472
vn 0.7698 -0.2351 0.5935
vn 0.5382 -0.2461 0.8061
vn 0.2959 0.7664 -0.5702
vn 0.2503 0.9558 -0.1546
vn 0.2967 0.7671 -0.5688
vn -0.1218 0.5918 -0.7969
vn 0.2958 0.7664 -0.5702
vn -0.5309 0.5447 -0.6492
vn -0.1219 0.5917 -0.7969
vn -0.2421 0.6531 -0.7175
vn -0.5308 0.5447 -0.6493
vn 0.1125 0.5475 0.8292
vn -0.5051 0.1792 -0.8443
vn -0.1217 0.5917 -0.7969
vn -0.0198 0.8211 -0.5704
vn 0.2503 0.9557 -0.1546
vn -0.0770 -0.9908 -0.1116
vn -0.0792 -0.8091 0.5823
vn -0.9915 -0.0009 -0.1300
vn -0.9915 -0.0009 -0.1298
vn -0.5308 0.5447 -0.6492
vn -0.9915 -0.0010 -0.1298
vn -0.9708 -0.1427 -0.1927
vn -0.5051 0.1792 -0.8442
vn -0.9915 -0.0009 -0.1299
vn -0.7629 0.2383 0.6011
vn -0.5418 0.5115 0.6669
vn -0.7629 0.2383 0.6010
vn -0.2382 -0.9592 -0.1522
vn -0.5308 0.5448 -0.6491
vn -0.2382 -0.9592 -0.1523
vn 0.0884 -0.8905 -0.4464
vn -0.5051 0.1791 -0.8443
vn -0.1218 0.5917 -0.7969
vn 0.3416 0.2303 -0.9112
vn -0.2422 0.6531 -0.7175
vn 0.0784 0.6998 -0.7101
vn 0.3466 -0.9368 0.0482
vn -0.2074 -0.6328 -0.7460
vn 0.3465 -0.9368 0.0482
vn -0.8487 -0.1812 0.4968
vn -0.8136 -0.5722 -0.1033
vn 0.3465 -0.9368 0.0483
vn -0.3089 -0.1840 0.9331
vn -0.8487 -0.1812 0.4969
vn 0.4070 -0.6518 0.6400
vn 0.4578 -0.5824 0.6717
vn 0.3467 -0.9367 0.0484
vn 0.5048 -0.8346 -0.2204
vn 0.4069 -0.6518 0.6400
vn -0.8487 -0.1813 0.4968
vn -0.9614 -0.2638 -0.0786
vn 0.4577 -0.5825 0.6717
vn -0.3090 -0.1841 0.9331
vn -0.2074 -0.6330 -0.7459
vn -0.8136 -0.5722 -0.1034
vn -0.8171 -0.1230 0.5632
vn -0.9783 -0.1756 0.1102
vn -0.9783 -0.1755 0.1101
vn -0.9929 -0.0781 -0.0895
vn 0.3177 -0.7225 -0.6140
vn -0.1069 -0.6127 -0.7831
vn -0.0309 -0.3083 -0.9508
vn 0.3177 -0.7225 -0.6141
vn 0.1420 -0.3394 -0.9299
vn 0.3599 -0.6499 -0.6694
vn -0.0164 -0.8530 0.5216
vn -0.5451 -0.5924 -0.5933
vn -0.0348 -0.8569 -0.5144
vn 0.1419 -0.3394 -0.9299
vn -0.0033 -0.2001 -0.9798
vn 0.0474 -0.2993 -0.9530
vn 0.0837 -0.6977 -0.7114
vn 0.0357 -0.9288 -0.3689
vn 0.0443 -0.6993 -0.7135
vn -0.1075 -0.6130 -0.7827
vn 0.0474 -0.2994 -0.9530
vn -0.0411 -0.2001 -0.9789
vn -0.0308 -0.3083 -0.9508
vn 0.0473 -0.2993 -0.9530
vn -0.5088 -0.1746 -0.8430
vn -0.0412 -0.2001 -0.9789
vn 0.0838 -0.6977 -0.7114
vn -0.0486 0.0870 -0.9950
vn -0.0412 -0.2000 -0.9789
vn -0.4735 0.0337 -0.8802
vn -0.0485 0.0870 -0.9950
vn 0.8211 -0.2226 0.5256
vn 0.9952 -0.0652 0.0725
vn 0.8210 -0.2227 0.5256
vn 0.4193 -0.6649 0.6181
vn 0.8801 -0.4748 0.0087
vn 0.4193 -0.6649 0.6182
vn -0.0326 -0.1665 0.9855
vn 0.4193 -0.6650 0.6181
vn 0.0055 0.4530 -0.8915
vn -0.0485 0.0871 -0.9950
vn -0.4735 0.0337 -0.8801
vn 0.0795 0.7770 -0.6245
vn -0.8406 -0.0472 -0.5396
vn -0.9910 -0.0726 0.1128
vn -0.4736 0.0337 -0.8801
vn -0.5089 -0.1745 -0.8430
vn -0.8405 -0.0472 -0.5397
vn -0.4735 0.0338 -0.8801
vn -0.4035 -0.0507 -0.9136
vn 0.0794 0.7770 -0.6245
vn 0.7783 -0.6189 -0.1061
vn 0.6870 0.6832 0.2476
vn 0.9850 0.1439 -0.0952
vn 0.1117 -0.8188 -0.5631
vn 0.1832 -0.9704 -0.1572
vn 0.7784 -0.6188 -0.1061
vn 0.8197 -0.5583 0.1282
vn 0.4697 -0.8692 -0.1549
vn 0.7783 -0.6188 -0.1061
vn 0.9335 -0.3584 0.0096
vn -0.0105 0.7335 -0.6796
vn -0.6970 0.2720 -0.6635
vn -0.0284 0.5389 -0.8419
vn -0.0106 0.7335 -0.6796
vn -0.4774 0.7982 -0.3675
vn 0.6829 0.2802 -0.6746
vn -0.0109 0.6958 -0.7181
vn 0.6829 0.2802 -0.6747
vn -0.6969 0.2720 -0.6636
vn -0.0108 0.6958 -0.7182
vn 0.4757 0.7936 -0.3793
vn 0.6828 0.2803 -0.6747
vn 0.4758 0.7936 -0.3792
vn 0.9167 -0.2171 -0.3356
vn 0.9110 -0.0192 -0.4119
vn 0.9166 -0.2172 -0.3356
vn 0.5600 0.7165 -0.4160
vn 0.9111 -0.0192 -0.4118
vn 0.4758 0.7936 -0.3793
vn 0.0056 0.4530 -0.8915
vn -0.0571 0.7558 -0.6523
vn 0.9850 0.1440 -0.0952
vn 0.9167 -0.2172 -0.3355
vn 0.6871 0.6831 0.2476
vn -0.0570 0.7558 -0.6523
vn 0.4808 -0.5795 -0.6580
vn 0.8602 -0.1179 -0.4961
vn 0.3224 -0.9171 -0.2344
vn 0.6242 -0.4825 -0.6144
vn 0.8390 -0.0881 -0.5369
vn 0.4973 -0.2291 -0.8368
vn 0.4809 -0.5795 -0.6579
vn 0.3599 -0.6498 -0.6694
vn 0.3841 -0.5691 -0.7270
vn 0.5112 -0.8574 0.0589
vn 0.2023 -0.6953 -0.6896
vn 0.8602 -0.1179 -0.4962
vn 0.4809 -0.5795 -0.6580
vn 0.4697 -0.8691 -0.1550
vn 0.1117 -0.8189 -0.5630
vn 0.4697 -0.8691 -0.1549
vn 0.0490 -0.9864 0.1571
vn -0.0195 0.7049 -0.7091
vn -0.0194 0.7049 -0.7091
vn -0.4620 -0.0647 -0.8845
vn -0.9080 0.4179 0.0313
vn -0.4621 -0.0647 -0.8845
vn 0.5799 0.3721 -0.7248
vn 0.9849 0.0173 -0.1723
vn 0.5800 0.3721 -0.7247
vn 0.0854 -0.5781 -0.8115
vn 0.0854 -0.5782 -0.8114
vn -0.9079 0.4179 0.0313
vn -0.2015 0.9539 0.2224
vn -0.1989 0.5263 0.8267
vn -0.9079 0.4179 0.0312
vn -0.9780 -0.1711 -0.1195
vn -0.6161 -0.4254 -0.6630
vn -0.4422 0.2909 -0.8484
vn -0.9786 -0.1713 -0.1139
vn -0.9786 -0.1712 -0.1139
vn -0.6013 -0.4146 0.6831
vn -0.9786 -0.1713 -0.1140
vn -0.8187 0.5743 -0.0010
vn -0.7651 -0.2895 0.5751
vn 0.9849 0.0173 -0.1724
vn 0.6348 0.4564 0.6235
vn 0.5358 -0.8378 0.1051
vn 0.7712 0.3508 0.5312
vn 0.5358 -0.8378 0.1050
vn 0.5626 -0.7087 0.4257
vn 0.4696 -0.8692 -0.1549
vn 0.8196 -0.5583 0.1282
vn 0.6297 -0.6363 0.4457
vn 0.7025 -0.5573 0.4427
vn 0.9335 -0.3583 0.0096
vn 0.6296 -0.6363 0.4457
vn -0.0148 -0.8156 0.5784
vn 0.0491 -0.9864 0.1570
vn -0.0596 -0.8681 -0.4929
vn 0.8835 -0.4671 0.0349
vn -0.0596 -0.8680 -0.4929
vn 0.1578 -0.9785 0.1328
vn 0.4769 -0.1551 0.8652
vn 0.4219 -0.2411 -0.8740
vn -0.6161 -0.4253 -0.6629
vn 0.2792 0.7655 0.5798
vn 0.1013 0.8559 0.5071
vn 0.7712 0.3509 0.5312
vn -0.2016 0.9539 0.2223
vn -0.0109 0.6958 -0.7182
vn 0.6829 0.2803 -0.6747
vn -0.3488 0.5884 -0.7295
vn -0.4225 0.6896 0.5882
vn 0.6049 0.6306 -0.4861
vn -0.7651 -0.2894 0.5751
vn -0.6013 -0.4145 0.6831
vn -0.9786 -0.1712 -0.1140
vn -0.7652 -0.2894 0.5751
vn -0.6013 -0.4146 0.6830
vn -0.3753 0.3645 0.8522
vn 0.1013 0.8559 0.5070
vn 0.7713 0.3509 0.5311
vn 0.4407 0.0969 0.8924
vn 0.2792 0.7655 0.5797
vn 0.6348 0.4565 0.6234
vn -0.1857 -0.7237 0.6647
vn 0.4768 -0.1552 0.8652
vn -0.3753 0.3646 0.8522
vn 0.9647 -0.2188 -0.1467
vn 0.6164 -0.4980 -0.6099
vn 0.7071 -0.5478 -0.4473
vn 0.4289 0.2688 -0.8624
vn 0.0884 -0.8904 -0.4464
vn 0.6164 -0.4981 -0.6098
vn -0.4068 -0.2541 -0.8775
vn 0.4290 0.2688 -0.8624
vn -0.4068 -0.2540 -0.8775
vn 0.9495 0.0086 -0.3137
vn 0.5484 0.3741 -0.7478
vn 0.9753 -0.1496 0.1625
vn 0.9942 -0.1013 -0.0364
vn 0.9167 -0.2171 -0.3355
vn 0.9495 0.0086 -0.3136
vn 0.9336 -0.3583 0.0096
vn 0.9111 -0.0192 -0.4117
vn 0.4190 0.7921 -0.4438
vn 0.9311 -0.0194 -0.3644
vn 0.6543 0.7183 -0.2364
vn 0.4620 0.7728 -0.4352
vn -0.0198 0.8211 -0.5705
vn 0.4051 0.8386 0.3643
vn -0.0198 0.8212 -0.5703
vn 0.8723 0.4847 0.0639
vn 0.4050 0.8386 0.3643
vn 0.4051 0.8386 0.3644
vn 0.2503 0.9557 -0.1545
vn 0.2878 0.2487 0.9248
vn 0.4050 0.8386 0.3644
vn 0.8724 0.4847 0.0638
vn 0.2878 0.2486 0.9248
vn -0.2354 -0.9563 0.1735
vn -0.8783 -0.4774 0.0254
vn 0.5405 0.7182 0.4381
vn 0.7813 0.1139 0.6137
vn 0.4465 0.8707 0.2064
vn -0.4835 0.8600 0.1634
vn 0.7740 0.1285 0.6200
vn 0.5106 0.8477 0.1441
vn 0.5406 0.7182 0.4381
vn 0.9753 -0.1495 0.1625
vn 0.8971 -0.3479 0.2722
vn 0.5485 0.3742 -0.7478
vn 0.5105 0.8477 0.1441
vn 0.9495 0.0087 -0.3136
vn 0.4189 0.7922 -0.4437
vn 0.5405 0.7182 0.4382
vn 0.5106 0.8477 0.1440
vn 0.5484 0.3742 -0.7478
vn 0.4190 0.7922 -0.4437
vn -0.0198 -0.8146 0.5797
vn 0.3162 -0.6839 0.6575
vn 0.5771 -0.5129 0.6355
vn -0.3327 -0.6758 0.6577
vn -0.0147 -0.8156 0.5784
vn 0.5770 -0.5130 0.6355
vn -0.0038 -0.9329 0.3600
vn -0.0406 -0.5426 0.8390
vn -0.0036 -0.9330 0.3600
vn 0.3649 -0.7012 0.6125
vn -0.0406 -0.5425 0.8391
vn -0.0037 -0.9329 0.3600
vn -0.5705 -0.5268 0.6301
vn -0.0792 -0.8090 0.5824
vn -0.2353 -0.9563 0.1735
vn -0.4828 -0.1596 0.8611
vn 0.0787 -0.6409 0.7636
vn -0.9708 -0.1426 -0.1928
vn -0.1951 -0.2854 -0.9383
vn -0.5303 -0.8436 -0.0843
vn -0.1952 -0.2855 -0.9383
vn 0.0490 -0.9864 0.1570
vn -0.5182 -0.6886 0.5073
vn -0.6171 -0.6445 0.4514
vn -0.5182 -0.6885 0.5074
vn -0.3328 -0.6758 0.6577
vn 0.7024 -0.5573 0.4428
vn 0.5771 -0.5130 0.6355
vn 0.4190 0.7922 -0.4438
vn 0.6948 0.6538 0.2997
vn 0.5382 -0.2462 0.8061
vn 0.0786 -0.6409 0.7636
vn 0.8177 0.5745 -0.0362
vn 0.1126 0.5475 0.8292
vn -0.5418 0.5116 0.6669
vn 0.5383 -0.2462 0.8060
vn 0.1125 0.5476 0.8292
vn -0.3072 -0.2278 0.9240
vn -0.7629 0.2382 0.6010
vn 0.2878 0.2486 0.9249
vn 0.0787 -0.6408 0.7636
vn -0.0793 -0.8091 0.5823
vn 0.3729 0.3667 0.8524
vn -0.5418 0.5115 0.6670
vn 0.1126 0.5476 0.8291
vn -0.9708 -0.1426 -0.1927
vn 0.5383 -0.2461 0.8060
vn -0.0792 -0.8091 0.5824
vn -0.4597 -0.8838 -0.0874
vn 0.1764 -0.2156 0.9604
vn 0.0362 0.0624 0.9974
vn 0.0320 -0.1145 0.9929
vn -0.0264 -0.1920 0.9810
vn 0.7165 0.6704 0.1931
vn 0.9111 -0.0191 -0.4118
vn -0.3734 0.5740 0.7287
vn 0.6890 0.5108 0.5142
vn 0.5491 0.7359 -0.3961
vn 0.1251 -0.0969 -0.9874
vn 0.1420 -0.3393 -0.9299
vn 0.1251 -0.0968 -0.9874
vn 0.4810 0.0979 -0.8712
vn 0.4973 -0.2290 -0.8368
vn 0.1669 0.2964 -0.9404
vn 0.1669 0.2963 -0.9404
vn 0.4812 0.0979 -0.8711
vn 0.4811 0.0980 -0.8712
vn 0.8318 -0.0351 -0.5539
vn 0.9338 -0.3577 -0.0085
vn 0.4810 0.0980 -0.8712
vn -0.4774 0.7981 -0.3675
vn 0.3819 -0.5214 0.7631
vn 0.7024 -0.5573 0.4427
vn 0.8971 -0.3480 0.2723
vn 0.4956 -0.5965 0.6313
vn 0.4955 -0.5966 0.6313
vn 0.3819 -0.5215 0.7630
vn 0.5108 -0.7376 0.4417
vn 0.3648 -0.7012 0.6125
vn 0.5109 -0.7376 0.4416
vn 0.9335 -0.3583 0.0097
vn 0.8971 -0.3480 0.2722
vn 0.9745 -0.1745 0.1411
vn 0.8971 -0.3479 0.2723
vn 0.9336 -0.3583 0.0097
vn 0.9942 -0.1013 -0.0363
vn 0.9745 -0.1746 0.1412
vn 0.4049 -0.0654 -0.9120
vn -0.5483 0.5214 -0.6538
vn 0.3187 -0.2994 0.8993
vn -0.0345 0.4312 0.9016
vn -0.0405 -0.5425 0.8391
vn -0.2300 0.9727 0.0316
vn -0.2639 0.5006 0.8245
vn 0.3195 -0.2764 0.9064
vn -0.0405 -0.5425 0.8390
vn -0.0037 -0.9329 0.3601
vn -0.3502 -0.6644 0.6603
vn -0.0345 0.4311 0.9016
vn -0.4116 -0.2131 0.8861
vn 0.5108 -0.7376 0.4416
vn 0.5109 -0.7375 0.4416
vn 0.3186 -0.2994 0.8993
vn 0.4211 0.0215 0.9067
vn 0.9338 -0.3577 -0.0086
vn 0.8319 -0.0351 -0.5539
vn 0.7812 0.1139 0.6137
vn 0.9745 -0.1746 0.1411
vn 0.8801 -0.4748 0.0088
vn 0.0853 -0.9883 -0.1267
vn 0.4809 -0.5796 -0.6579
vn 0.8949 0.2879 0.3411
vn 0.0097 0.9997 -0.0209
vn 0.3159 -0.2793 0.9068
vn 0.4212 -0.1426 0.8957
vn -0.5514 0.1161 0.8261
vn 0.4018 -0.1393 0.9051
vn 0.9840 -0.1706 -0.0512
vn 0.4922 -0.0106 0.8704
vn 0.9413 -0.3368 -0.0240
vn 0.4019 -0.1393 0.9050
vn 0.9413 -0.3368 -0.0241
vn 0.4049 -0.0653 -0.9120
vn 0.4224 0.0076 -0.9064
vn -0.5361 0.0130 0.8441
vn 0.4212 -0.1425 0.8957
vn -0.4930 -0.1282 0.8605
vn -0.5361 0.0129 0.8441
vn -0.5360 0.0130 0.8441
vn -0.9924 0.1232 0.0005
vn -0.9633 -0.2684 0.0026
vn -0.5514 0.1160 0.8261
vn -0.5638 0.3098 0.7656
vn -0.9653 0.2613 -0.0033
vn -0.5638 0.3099 0.7656
vn -0.4897 0.2302 -0.8410
vn -0.9653 0.2613 -0.0034
vn -0.4910 -0.0269 -0.8707
vn -0.9174 -0.0004 0.3981
vn -0.1755 -0.1075 0.9786
vn -0.4830 0.8130 0.3251
vn -0.2032 -0.3953 0.8958
vn -0.1756 -0.1074 0.9786
vn -0.4830 0.8130 0.3252
vn -0.5919 0.4926 -0.6379
vn -0.9173 -0.0004 0.3981
vn -0.4829 0.8130 0.3252
vn -0.2478 0.7557 -0.6062
vn 0.1797 0.1420 0.9734
vn 0.0868 0.9949 0.0520
vn -0.5919 0.4926 -0.6380
vn -0.8811 -0.4649 -0.0871
vn -0.9173 -0.0005 0.3981
vn -0.4596 0.1531 -0.8748
vn 0.2649 0.0023 0.9643
vn -0.1755 -0.1074 0.9786
vn 0.2648 0.0022 0.9643
vn 0.0867 0.9949 0.0520
vn -0.2478 0.7557 -0.6063
vn 0.0867 0.9949 0.0521
vn 0.0236 0.5744 -0.8182
vn -0.2477 0.7557 -0.6063
vn 0.6968 0.6964 0.1718
vn -0.2478 0.7556 -0.6063
vn 0.6968 0.6963 0.1718
vn -0.3206 -0.0946 0.9425
vn -0.7548 0.3448 -0.5581
vn -0.3202 0.5531 0.7691
vn -0.3207 -0.0946 0.9424
vn -0.3072 -0.2279 0.9239
vn -0.7548 0.3447 -0.5580
vn -0.3208 -0.0945 0.9424
vn -0.2033 -0.3953 0.8958
vn -0.3207 -0.0945 0.9424
vn 0.1585 0.1975 0.9674
vn -0.3201 0.5531 0.7692
vn -0.6553 -0.5369 0.5313
vn -0.3201 0.5532 0.7691
vn -0.7994 0.5557 -0.2284
vn -0.6552 -0.5369 0.5314
vn -0.6553 -0.5369 0.5314
vn -0.6043 -0.3719 -0.7046
vn -0.7547 0.3448 -0.5581
vn -0.7994 0.5558 -0.2283
vn -0.3201 0.5531 0.7691
vn -0.3746 -0.1581 -0.9136
vn -0.7548 0.3448 -0.5580
vn -0.2660 -0.0437 -0.9630
vn -0.3746 -0.1580 -0.9136
vn -0.7547 0.3449 -0.5581
vn -0.7993 0.5558 -0.2285
vn -0.1951 -0.2855 -0.9383
vn -0.3745 -0.1580 -0.9136
vn -0.3745 -0.1580 -0.9137
vn -0.6044 -0.3719 -0.7046
vn -0.7993 0.5558 -0.2284
vn 0.2715 0.3180 -0.9084
vn 0.0236 0.5744 -0.8183
vn -0.7629 0.2383 0.6009
vn -0.3072 -0.2279 0.9240
vn -0.3207 -0.0945 0.9425
vn 0.0236 0.5743 -0.8183
vn 0.2716 0.3180 -0.9084
vn 0.0237 0.5744 -0.8182
vn 0.6969 0.6963 0.1717
vn -0.4597 0.1531 -0.8748
vn -0.8811 -0.4649 -0.0870
vn 0.2648 0.0023 0.9643
vn 0.1585 0.1974 0.9674
vn 0.1586 0.1975 0.9674
vn 0.7781 0.6104 0.1482
vn 0.8724 0.4847 0.0639
vn 0.7782 0.6103 0.1482
vn 0.7782 0.6103 0.1483
vn 0.8724 0.4846 0.0639
vn 0.3417 0.2303 -0.9112
vn 0.3416 0.2302 -0.9112
vn 0.2716 0.3180 -0.9083
vn 0.2879 0.2487 0.9248
vn 0.1586 0.1974 0.9674
vn -0.2124 -0.8727 -0.4396
vn -0.8271 -0.5312 0.1839
vn -0.9286 -0.2079 -0.3072
vn -0.9372 -0.3486 -0.0109
vn -0.9286 -0.2079 -0.3073
vn 0.4797 0.8757 -0.0543
vn 0.3119 0.2459 0.9178
vn 0.9601 0.1454 0.2387
vn -0.0527 0.4781 0.8767
vn 0.3119 0.2459 0.9177
vn 0.9601 0.1454 0.2388
vn 0.4758 0.2397 -0.8463
vn 0.4797 0.8758 -0.0543
vn 0.8855 -0.4628 -0.0420
vn 0.9601 0.1455 0.2388
vn 0.3395 -0.0562 0.9389
vn 0.8854 -0.4628 -0.0421
vn 0.4758 0.2398 -0.8463
vn 0.1268 0.4950 -0.8596
vn 0.4798 0.8757 -0.0542
vn 0.3340 -0.1626 -0.9284
vn 0.1268 0.4949 -0.8596
vn -0.5183 -0.6885 0.5073
vn -0.8270 -0.5312 0.1840
vn -0.4596 -0.8838 -0.0874
vn -0.6172 -0.6445 0.4514
vn -0.8270 -0.5313 0.1839
vn -0.8270 -0.5312 0.1838
vn -0.9372 -0.3487 -0.0108
vn -0.1248 0.9493 -0.2885
vn 0.1267 0.4950 -0.8596
vn -0.1572 0.2517 -0.9549
vn -0.1249 0.9493 -0.2884
vn 0.3340 -0.1626 -0.9285
vn -0.1572 0.2517 -0.9550
vn -0.6998 0.7143 0.0126
vn -0.9826 0.0185 0.1847
vn -0.5484 0.3575 -0.7559
vn -0.9408 0.0690 -0.3319
vn -0.9826 0.0185 0.1846
vn -0.9904 -0.1275 0.0537
vn -0.9261 -0.2999 0.2288
vn -0.9905 -0.0003 -0.1372
vn -0.9261 -0.2999 0.2289
vn -0.8250 0.1617 0.5415
vn -0.5397 -0.5758 0.6142
vn -0.8250 0.1618 0.5416
vn -0.9261 -0.3000 0.2289
vn -0.6879 -0.5780 0.4390
vn -0.5397 -0.5758 0.6141
vn -0.6879 -0.5780 0.4389
vn -0.9904 -0.1274 0.0537
vn -0.8250 0.1618 0.5415
vn -0.2823 0.7469 0.6021
vn -0.4994 -0.7011 0.5089
vn -0.4116 -0.2130 0.8861
vn 0.4564 0.8749 0.1620
vn -0.3351 0.7815 0.5263
vn -0.8288 0.1522 0.5384
vn -0.6969 0.2720 -0.6635
vn -0.5301 0.7185 -0.4502
vn -0.9888 0.1179 -0.0911
vn -0.9286 -0.2078 -0.3073
vn -0.9888 0.1180 -0.0910
vn -0.1347 0.3419 0.9300
vn 0.4898 0.2375 0.8388
vn 0.4446 0.7874 0.4269
vn 0.5921 0.2200 -0.7753
vn 0.4899 0.2374 0.8388
vn 0.4899 0.2375 0.8388
vn -0.0384 0.5211 0.8526
vn 0.7903 -0.3135 0.5265
vn 0.4898 0.2374 0.8389
vn 0.1405 -0.4440 -0.8850
vn 0.7712 0.3509 0.5311
vn 0.3936 -0.6390 -0.6609
vn 0.7902 -0.3135 0.5265
vn 0.4447 0.7874 0.4269
vn 0.7902 -0.3134 0.5266
vn 0.6149 0.5974 -0.5148
vn 0.5921 0.2200 -0.7752
vn 0.6149 0.5974 -0.5149
vn 0.1404 -0.4439 -0.8850
vn 0.8855 -0.4628 -0.0421
vn 0.4447 0.7874 0.4270
vn 0.6148 0.5974 -0.5148
vn 0.5921 0.2199 -0.7753
vn 0.1405 -0.4439 -0.8850
vn 0.1356 -0.3763 -0.9165
vn 0.1404 -0.4440 -0.8850
vn 0.6149 0.5973 -0.5149
vn -0.4038 -0.0192 -0.9146
vn 0.1357 -0.3763 -0.9165
vn 0.5922 0.2200 -0.7752
vn 0.1357 -0.3762 -0.9165
vn -0.1572 0.2516 -0.9550
vn -0.9284 -0.0098 -0.3715
vn -0.9287 -0.2078 -0.3072
vn -0.9905 -0.0002 -0.1373
vn -0.9284 -0.0098 -0.3714
vn -0.9408 0.0689 -0.3318
vn -0.5138 0.7910 -0.3320
vn -0.9408 0.0690 -0.3318
vn -0.5138 0.7911 -0.3319
vn -0.9905 -0.0002 -0.1372
vn -0.9826 0.0186 0.1847
vn -0.6969 0.2719 -0.6636
vn -0.9284 -0.0097 -0.3714
vn -0.6780 0.7242 0.1263
vn -0.5301 0.7185 -0.4503
vn 0.7902 -0.3135 0.5266
vn -0.2824 0.7468 0.6021
vn 0.0240 0.9153 0.4021
vn -0.2824 0.7469 0.6020
vn -0.7174 0.5437 0.4356
vn -0.5138 0.7911 -0.3320
vn 0.5006 0.7776 0.3806
vn -0.5893 0.7671 0.2533
vn -0.2480 0.7574 0.6040
vn 0.0240 0.9153 0.4020
vn -0.5704 -0.5269 0.6301
vn -0.3772 -0.5446 0.7491
vn -0.3502 -0.6643 0.6603
vn -0.3771 -0.5445 0.7492
vn -0.1573 0.2517 -0.9549
vn -0.6997 0.7143 0.0126
vn -0.4039 -0.0191 -0.9146
vn -0.1348 0.3419 0.9300
vn -0.6997 0.7143 0.0125
vn -0.7814 0.6232 0.0339
vn -0.7814 0.6231 0.0339
vn -0.5705 -0.5269 0.6301
vn -0.8270 -0.5312 0.1839
vn -0.5483 0.3575 -0.7560
vn -0.4464 0.5967 -0.6668
vn -0.6943 0.6906 0.2025
vn -0.9294 -0.0077 -0.3690
vn 0.8855 -0.4627 -0.0421
vn 0.3394 -0.0561 0.9390
vn -0.4621 -0.0647 -0.8844
vn -0.0385 0.5211 0.8526
vn -0.4620 -0.0648 -0.8845
vn 0.4565 0.7248 0.5160
vn 0.3201 0.5931 -0.7388
vn -0.5801 0.6185 -0.5301
vn -0.9080 0.4178 0.0313
vn -0.4994 -0.7011 0.5090
vn -0.5396 -0.5758 0.6142
vn -0.9372 -0.3486 -0.0108
vn 0.1282 0.9915 -0.0226
vn -0.9229 0.2777 0.2667
vn -0.4138 -0.2587 0.8728
vn -0.4993 -0.7012 0.5090
vn -0.2751 -0.6240 -0.7314
vn 0.0783 0.6998 -0.7100
vn -0.7781 0.1606 -0.6073
vn 0.0784 0.6998 -0.7100
vn -0.7781 0.1607 -0.6073
vn 0.4212 0.0216 0.9067
vn -0.8949 0.4462 -0.0044
vn -0.5266 0.2283 -0.8189
vn -0.8949 0.4462 -0.0043
vn -0.5637 0.3099 0.7656
vn 0.4211 0.0215 0.9068
vn -0.8117 0.5820 0.0493
vn 0.9987 0.0341 -0.0391
vn 0.4856 -0.0141 -0.8741
vn 0.9987 0.0342 -0.0391
vn 0.5170 0.1263 -0.8466
vn 0.4659 0.1834 0.8656
vn -0.5266 0.2282 -0.8189
vn -0.5072 0.4324 -0.7455
vn -0.4897 0.2301 -0.8410
vn 0.5170 0.1264 -0.8466
vn -0.5267 0.2283 -0.8188
vn 0.4496 0.2711 -0.8511
vn -0.4897 0.2302 -0.8409
vn -0.4911 -0.0269 -0.8707
vn 0.4856 -0.0140 -0.8741
vn 0.9319 0.3617 -0.0282
vn 0.3728 0.3667 0.8524
vn 0.8178 0.5744 -0.0361
vn 0.7698 -0.2351 0.5934
vn 0.9319 0.3616 -0.0282
vn 0.8178 0.5744 -0.0362
vn 0.3729 0.3666 0.8524
vn 0.4659 0.1833 0.8656
vn 0.8177 0.5744 -0.0361
vn 0.9646 -0.2189 -0.1468
vn -0.5483 0.5213 -0.6539
vn -0.8116 0.5821 0.0493
vn -0.8117 0.5821 0.0492
vn -0.5072 0.4325 -0.7455
vn 0.4223 0.0076 -0.9064
vn 0.4855 -0.0141 -0.8741
vn -0.5267 0.2282 -0.8188
vn -0.5483 0.5214 -0.6539
vn -0.8116 0.5821 0.0492
vn -0.8783 -0.4774 0.0255
vn -0.9633 -0.2684 0.0025
vn -0.9888 0.1180 -0.0911
vn -0.9323 0.2031 0.2991
vn -0.9633 -0.2683 0.0025
vn -0.8783 -0.4773 0.0255
vn 0.9986 0.0342 -0.0391
vn -0.4930 -0.1283 0.8605
vn -0.5360 0.0129 0.8441
vn -0.4910 -0.0270 -0.8707
vn -0.4701 0.0063 -0.8826
vn 0.5592 0.2209 -0.7990
vn 0.5536 0.4440 -0.7045
vn -0.4701 0.0062 -0.8826
vn -0.4224 0.0425 -0.9054
vn -0.9860 -0.1663 -0.0153
vn -0.5403 0.1360 -0.8304
vn 0.5592 0.2210 -0.7990
vn -0.9860 -0.1662 -0.0153
vn -0.9992 0.0391 0.0068
vn -0.9351 -0.3541 0.0151
vn -0.4224 -0.1333 0.8965
vn -0.9860 -0.1662 -0.0154
vn -0.5120 -0.0039 0.8590
vn -0.9992 0.0391 0.0067
vn -0.9346 0.3552 0.0206
vn -0.4842 0.1933 0.8533
vn -0.9345 0.3553 0.0206
vn -0.4911 -0.0270 -0.8707
vn -0.2935 -0.1066 0.9500
vn -0.8171 -0.1229 0.5632
vn -0.8568 -0.0071 0.5156
vn -0.9783 -0.1755 0.1102
vn -0.3089 -0.1841 0.9331
vn -0.2935 -0.1065 0.9500
vn -0.8276 0.0980 0.5526
vn -0.5782 0.1286 0.8057
vn -0.8277 0.0979 0.5526
vn -0.5782 0.1285 0.8057
vn -0.9331 -0.3594 0.0156
vn -0.4117 0.0222 0.9110
vn 0.4532 0.8854 0.1036
vn 0.0794 0.7769 -0.6246
vn 0.8310 0.5556 0.0281
vn 0.3683 0.7471 0.5534
vn 0.5972 0.5566 -0.5775
vn -0.4036 -0.0507 -0.9135
vn 0.5973 0.5566 -0.5775
vn 0.5973 0.5566 -0.5774
vn -0.4036 -0.0508 -0.9135
vn -0.4225 0.0425 -0.9054
vn -0.3090 -0.1840 0.9331
vn -0.0263 -0.1919 0.9811
vn 0.4032 -0.7473 -0.5281
vn 0.6250 -0.7784 -0.0585
vn 0.3719 -0.9274 0.0399
vn 0.4070 -0.6517 0.6400
vn 0.0784 -0.9965 0.0281
vn -0.3416 -0.9390 0.0386
vn 0.1764 -0.2157 0.9604
vn -0.0263 -0.1920 0.9811
vn -0.8171 -0.1229 0.5633
vn -0.0292 0.0568 0.9980
vn -0.8568 -0.0072 0.5156
vn -0.9889 0.1179 -0.0910
vn -0.5089 -0.1746 -0.8430
vn 0.0837 -0.6977 -0.7115
vn -0.5088 -0.1745 -0.8430
vn 0.8800 -0.4748 0.0087
vn -0.8406 -0.0473 -0.5396
vn -0.4225 -0.1333 0.8965
vn -0.3961 -0.1474 0.9063
vn 0.5645 0.1060 0.8186
vn -0.9351 -0.3540 0.0151
vn -0.3960 -0.1474 0.9063
vn -0.4225 -0.1334 0.8965
vn -0.9351 -0.3541 0.0150
vn -0.9330 -0.3594 0.0156
vn 0.5217 0.0200 0.8529
vn 0.9863 0.1646 0.0086
vn 0.5722 0.3177 0.7561
vn 0.9711 0.2384 -0.0090
vn 0.4638 -0.1253 0.8771
vn 0.5217 0.0201 0.8529
vn 0.9740 -0.2256 0.0188
vn 0.9863 0.1645 0.0086
vn 0.5721 0.3176 0.7561
vn 0.8967 0.4427 -0.0052
vn 0.4892 0.2522 -0.8349
vn 0.9740 -0.2256 0.0187
vn 0.4910 0.0466 -0.8699
vn 0.8967 0.4427 -0.0051
vn 0.5592 0.2209 -0.7991
vn 0.9711 0.2384 -0.0091
vn 0.8966 0.4428 -0.0052
vn 0.5535 0.4441 -0.7045
vn 0.8966 0.4428 -0.0051
vn 0.8310 0.5556 0.0282
vn 0.5535 0.4440 -0.7046
vn 0.5536 0.4440 -0.7046
vn 0.8309 0.5557 0.0281
vn 0.5592 0.2210 -0.7991
vn 0.4891 0.2522 -0.8349
vn 0.9711 0.2385 -0.0090
vn -0.4035 -0.0508 -0.9136
vn -0.4118 0.0223 0.9110
vn 0.5722 0.3176 0.7561
vn 0.4218 -0.2411 -0.8740
vn 0.9740 -0.2257 0.0188
vn 0.4638 -0.1253 0.8770
vn -0.4421 0.2909 -0.8485
vn -0.6160 -0.4254 -0.6630
vn -0.4422 0.2908 -0.8485
vn -0.8186 0.5743 -0.0010
vn -0.5403 0.1359 -0.8304
vn -0.4821 0.3060 -0.8209
vn -0.4822 0.3061 -0.8209
vn -0.9346 0.3552 0.0207
vn 0.4638 -0.1254 0.8770
vn -0.5120 -0.0038 0.8590
vn -0.4842 0.1934 0.8533
vn 0.4910 0.0467 -0.8699
vn 0.4891 0.2522 -0.8350
vn -0.4821 0.3061 -0.8209
vn 0.4910 0.0465 -0.8699
vn -0.4822 0.3060 -0.8209
vn -0.3752 0.3646 0.8522
vn -0.9345 0.3552 0.0206
vn 0.3921 -0.5998 0.6975
vn 0.0853 -0.9883 -0.1268
vn 0.4194 -0.6649 0.6181
vn 0.2359 -0.9549 -0.1803
vn 0.0922 -0.9957 -0.0045
vn -0.0613 -0.7146 -0.6969
vn 0.1126 -0.6804 -0.7241
vn -0.2421 0.6532 -0.7174
vn 0.1127 -0.6804 -0.7241
vn -0.2422 0.6532 -0.7174
vn -0.2752 -0.6240 -0.7314
vn 0.0782 0.6998 -0.7100
vn 0.3795 0.6405 -0.6677
vn 0.7416 -0.5228 -0.4203
vn 0.0363 0.0624 0.9974
vn -0.0325 -0.1665 0.9855
vn 0.3921 -0.5997 0.6975
vn -0.0327 -0.1665 0.9855
vn 0.1471 -0.4741 0.8681
vn 0.5247 -0.4899 0.6962
vn 0.7714 -0.6010 0.2090
vn 0.4099 -0.3439 0.8448
vn 0.1470 -0.4741 0.8681
vn -0.0264 -0.1919 0.9811
vn 0.4069 -0.6519 0.6399
vn 0.2065 -0.8738 0.4403
vn 0.1372 -0.4706 0.8716
vn -0.4518 0.3580 0.8171
vn -0.1154 -0.9931 0.0191
vn 0.7624 -0.6470 0.0092
vn 0.2115 0.4255 0.8799
vn 0.3260 0.9440 0.0514
vn -0.4142 -0.2313 0.8803
vn -0.6142 0.6037 0.5082
vn 0.4342 0.5703 0.6973
vn -0.4814 0.7817 -0.3965
vn -0.4381 0.5465 0.7138
vn 0.7566 0.4881 0.4351
vn 0.7395 0.6548 0.1559
vn 0.6916 0.7201 0.0562
vn -0.5406 0.8081 0.2338
vn 0.5636 0.6998 0.4389
vn -0.6830 0.3629 0.6338
vn 0.5212 0.5686 0.6365
vn -0.6932 0.7133 0.1036
vn -0.1208 0.6370 0.7613
vn -0.2818 0.7039 0.6520
vn -0.4661 0.5491 0.6938
vn -0.3298 0.8469 0.4171
vn -0.5291 0.7679 0.3610
vn -0.5597 0.7675 0.3125
vn -0.3515 0.7799 0.5179
vn -0.4326 0.5209 0.7359
vn -0.4191 0.6129 0.6699
vn 0.1090 0.9549 0.2761
vn 0.0081 0.9912 -0.1322
vn -0.1021 0.9947 -0.0079
vn -0.2289 0.9251 0.3031
vn -0.1617 0.9845 0.0684
vn -0.4976 0.8429 0.2049
vn 0.4235 0.8255 0.3731
vn 0.2333 0.8617 0.4506
vn 0.3994 0.7603 0.5123
vn 0.5275 0.5667 0.6328
vn 0.3699 0.7806 0.5037
vn 0.5525 0.5144 0.6559
vn 0.2903 0.7099 0.6417
vn 0.1138 0.6378 0.7618
vn 0.5095 0.5766 0.6387
vn 0.2007 0.9267 0.3178
vn 0.4266 0.8905 0.1583
vn 0.2293 0.9721 0.0493
vn 0.3220 0.9387 -0.1229
vn -0.0105 0.9951 0.0980
vn 0.2485 0.9686 0.0039
vn 0.5142 0.5838 0.6284
vn 0.3754 0.8142 0.4429
vn 0.4469 0.6768 0.5850
vn -0.3732 0.7721 0.5143
vn -0.4806 0.6141 0.6260
vn -0.5091 0.5419 0.6687
vn -0.3004 0.8860 0.3532
vn -0.5364 0.7432 0.4000
vn -0.4597 0.7478 0.4790
vn 0.4709 0.4509 0.7583
vn 0.4164 0.7657 0.4902
vn 0.5717 0.5841 0.5762
vn 0.0001 0.7162 0.6979
vn -0.0345 0.8471 0.5304
vn -0.2920 0.7262 0.6224
vn -0.3397 0.8243 0.4530
vn -0.0344 0.8470 0.5304
vn -0.3151 0.8787 0.3586
vn -0.0344 0.8471 0.5304
vn -0.3488 0.7573 0.5521
vn -0.0596 0.9733 0.2217
vn 0.1190 0.9802 0.1585
vn 0.2287 0.9166 0.3278
vn 0.3248 0.7729 0.5451
vn 0.3460 0.7706 0.5352
vn 0.3084 0.7293 0.6107
vn -0.0000 0.7161 0.6979
vn 0.0761 0.9921 0.0996
vn 0.2287 0.9166 0.3279
vn -0.0345 0.8470 0.5304
vn 0.3966 0.7510 0.5280
vn -0.3265 0.7995 0.5041
vn -0.3396 0.8243 0.4530
vn 0.3460 0.7706 0.5353
vn 0.4947 -0.8648 0.0858
vn 0.5447 -0.8281 0.1323
vn 0.4192 -0.6649 0.6181
vn 0.7625 -0.6470 0.0093
vn 0.3178 -0.7225 -0.6141
vn -0.3417 -0.9390 0.0387
vn -0.1069 -0.6127 -0.7830
vn 0.4071 -0.4082 0.8171
vn 0.6669 -0.6667 -0.3328
vn 0.6665 0.6667 0.3336
vn 0.4070 -0.4082 0.8171
vn -0.6670 -0.6666 0.3329
vn 0.6669 -0.6666 -0.3330
vn -0.4092 0.4077 0.8163
vn 0.6666 0.6666 0.3335
vn -0.6666 0.6666 -0.3336
vn -0.6669 -0.6666 0.3329
vn 0.4070 -0.4083 0.8171
vn 0.6669 -0.6666 -0.3329
vn 0.4092 0.4076 -0.8163
vn -0.4070 -0.4083 -0.8171
vn 0.4092 0.4077 -0.8163
vn 0.6670 -0.6666 -0.3328
vn -0.6669 -0.6666 0.3330
vn -0.6666 0.6666 -0.3335
vn 0.6666 0.6666 0.3336
vn -0.4071 -0.4082 -0.8171
vn -0.6665 0.6667 -0.3336
vn -0.6669 -0.6667 0.3328
vn -0.4092 0.4076 0.8163
vn 0.8171 -0.4082 -0.4071
vn -0.3328 -0.6667 -0.6669
vn 0.3336 0.6667 -0.6665
vn 0.8171 -0.4083 -0.4070
vn 0.3328 -0.6666 0.6670
vn -0.3330 -0.6666 -0.6669
vn 0.8163 0.4077 0.4092
vn 0.3335 0.6667 -0.6666
vn -0.3336 0.6666 0.6666
vn 0.3329 -0.6666 0.6669
vn -0.3329 -0.6666 -0.6669
vn -0.8163 0.4076 -0.4092
vn -0.8171 -0.4083 0.4070
vn -0.8163 0.4077 -0.4092
vn -0.3328 -0.6666 -0.6670
vn 0.3330 -0.6666 0.6669
vn -0.3335 0.6667 0.6666
vn 0.3336 0.6666 -0.6666
vn -0.8171 -0.4082 0.4071
vn -0.3336 0.6667 0.6665
vn 0.3328 -0.6667 0.6669
vn 0.8163 0.4076 0.4092
vn 0.8171 -0.4082 -0.4070
vn -0.8171 -0.4082 0.4070
vn -0.3335 0.6666 0.6666
vn -0.6670 -0.6666 0.3328
vn -0.6487 -0.1829 -0.7388
vn 0.4089 -0.6166 -0.6727
vn -0.5386 -0.3187 -0.7800
vn -0.9138 -0.3150 -0.2563
vn -0.9601 -0.2494 0.1264
vn -0.9844 0.0309 0.1733
vn 0.9825 -0.0507 0.1792
vn 0.3216 -0.9162 -0.2391
vn 0.4633 -0.0943 -0.8812
vn -0.3363 -0.9395 0.0649
vn 0.0818 -0.9963 0.0278
vn 0.6152 -0.6675 -0.4195
vn -0.5684 -0.8226 0.0163
vn -0.2266 -0.9727 0.0500
vn -0.5149 -0.8025 0.3014
vn 0.3742 -0.8989 -0.2281
vn 0.3086 -0.9499 -0.0499
vn 0.5897 -0.8063 -0.0471
vn 0.0475 0.7932 -0.6070
vn -0.0244 0.5454 0.8378
vn -0.2489 0.5731 0.7808
vn 0.9051 -0.0071 -0.4251
vn 0.6921 0.6963 0.1902
vn 0.7975 0.1032 0.5945
vn 0.5540 0.6862 0.4714
vn -0.5484 0.7721 0.3210
vn -0.5741 0.6990 0.4265
vn -0.5201 0.7228 0.4550
vn -0.4654 0.6266 0.6251
vn 0.7063 0.7043 0.0723
vn 0.1093 0.9938 -0.0216
vn 0.1390 0.9887 -0.0564
vn 0.0983 0.3988 0.9117
vn 0.6929 0.0181 0.7208
vn -0.4904 0.8426 0.2224
vn -0.3020 0.9513 0.0612
vn 0.5298 0.7302 0.4315
vn 0.5359 0.6943 0.4804
vn -0.2511 0.7388 0.6254
vn 0.5444 0.5492 0.6341
vn 0.4664 0.5892 0.6597
vn -0.7583 0.4116 0.5055
vn -0.5355 0.8026 -0.2629
vn -0.7389 0.5321 0.4134
vn -0.6118 0.7676 -0.1911
vn 0.3404 0.5636 0.7527
vn 0.0224 0.5330 0.8458
vn -0.0632 0.8038 -0.5915
vn 0.4277 0.8890 0.1634
vn 0.5183 0.8382 0.1695
vn -0.7105 0.1557 0.6863
vn -0.6212 -0.7830 0.0311
vn -0.2497 -0.9001 0.3569
vn 0.2800 -0.0764 0.9570
vn 0.0785 -0.9965 0.0283
vn 0.4969 -0.6537 -0.5708
vn 0.1334 -0.9882 -0.0756
vn -0.2870 -0.9482 -0.1359
vn -0.4618 -0.8145 -0.3512
vn 0.9058 -0.3215 -0.2761
vn 0.7561 -0.6465 -0.1023
vn 0.6943 -0.6919 0.1981
vn -0.1148 0.4598 0.8805
vn 0.1405 0.9854 -0.0962
vn -0.0341 0.9989 -0.0310
vn -0.7178 0.6954 -0.0346
vn 0.4957 0.6953 0.5204
vn 0.5692 0.7217 0.3939
vn -0.4336 0.7749 0.4598
vn -0.5497 0.6743 0.4930
vn 0.5782 0.7828 0.2302
vn 0.6436 0.6376 0.4233
vn -0.5401 0.6837 0.4906
vn -0.4703 0.6858 0.5554
vn -0.6792 0.6389 0.3612
vn 0.5252 0.5648 0.6366
vn 0.4772 0.8158 0.3266
vn 0.2860 0.4741 0.8327
vn 0.0634 0.7544 0.6534
vn -0.7032 0.5202 0.4847
vn -0.6693 0.0562 0.7409
vn -0.3156 0.8785 0.3587
vn -0.4885 0.8721 0.0268
vn -0.1806 0.3481 0.9199
vn -0.3488 0.7583 0.5507
vn -0.6237 0.6686 0.4048
vn -0.4656 0.8825 -0.0660
vn 0.1197 0.9800 0.1591
vn 0.4603 0.8864 -0.0491
vn -0.7250 0.5363 0.4322
vn -0.0607 0.9732 0.2217
vn 0.0762 0.9044 -0.4199
vn 0.5790 0.8142 0.0436
vn 0.2717 0.9039 0.3305
vn 0.6737 0.0174 0.7388
vn 0.5367 0.8425 0.0468
vn 0.2927 0.8200 0.4919
vn 0.3515 0.3995 0.8466
vn 0.7086 0.5169 0.4802
vn -0.0626 0.7537 0.6543
vn -0.2898 0.4682 0.8347
vn -0.0522 0.8954 -0.4423
vn 0.2238 0.9255 0.3055
vn 0.7657 0.5763 0.2855
vn -0.1356 0.9858 -0.0989
vn 0.1194 0.9801 0.1583
vn 0.6384 0.7577 -0.1356
vn 0.6867 0.6271 0.3677
vn 0.3925 0.7336 0.5547
vn 0.2265 0.3311 0.9160
vn -0.2762 0.5068 0.8166
vn -0.3205 0.8368 0.4440
vn -0.6823 0.7310 -0.0003
vn -0.4765 0.3123 0.8218
vn -0.3561 0.8003 0.4824
vn -0.6518 0.7485 0.1223
vn 0.6029 0.7706 0.2068
vn 0.3449 0.7931 0.5020
vn 0.3137 0.4509 0.8356
vt 0.707703 0.823237
vt 0.679609 0.769727
vt 0.713727 0.767328
vt 0.697864 0.840263
vt 0.680089 0.840505
vt 0.673068 0.686213
vt 0.755623 0.839478
vt 0.716510 0.840010
vt 0.344547 0.848036
vt 0.301809 0.841943
vt 0.340177 0.768392
vt 0.353017 0.893443
vt 0.385769 0.853914
vt 0.705076 0.685172
vt 0.757491 0.764252
vt 0.705590 0.610631
vt 0.990563 0.387474
vt 0.891774 0.424914
vt 0.901584 0.366035
vt 0.745788 0.683847
vt 0.248428 0.917504
vt 0.247031 0.840349
vt 0.312009 0.921625
vt 0.271038 0.946619
vt 0.264354 0.595324
vt 0.292945 0.538015
vt 0.311928 0.585397
vt 0.389435 0.930069
vt 0.234323 0.967802
vt 0.282734 0.989395
vt 0.329813 0.518816
vt 0.348822 0.561822
vt 0.196669 0.962118
vt 0.730162 0.551673
vt 0.742146 0.560908
vt 0.727792 0.593283
vt 0.718707 0.516600
vt 0.255356 0.994974
vt 0.196789 0.914158
vt 0.151570 0.917089
vt 0.138454 0.004222
vt 0.154057 0.031312
vt 0.150537 0.058306
vt 0.736120 0.290674
vt 0.757177 0.279853
vt 0.757727 0.316581
vt 0.144671 0.840403
vt 0.196789 0.838885
vt 0.163951 0.969297
vt 0.122538 0.946621
vt 0.770933 0.306189
vt 0.108686 0.988762
vt 0.135767 0.995778
vt 0.091768 0.841943
vt 0.081568 0.921625
vt 0.663250 0.233051
vt 0.650778 0.280447
vt 0.613960 0.224226
vt 0.004140 0.930069
vt 0.041648 0.892348
vt 0.609300 0.276556
vt 0.537117 0.237989
vt 0.940435 0.870280
vt 0.932101 0.866840
vt 0.942342 0.844431
vt 0.907333 0.727199
vt 0.910476 0.753069
vt 0.900853 0.733054
vt 0.918296 0.750233
vt 0.955421 0.842624
vt 0.934405 0.820197
vt 0.933822 0.844617
vt 0.963575 0.841498
vt 0.947264 0.818326
vt 0.469987 0.045744
vt 0.607111 0.048044
vt 0.475704 0.053199
vt 0.301750 0.055910
vt 0.441284 0.036900
vt 0.441126 0.056906
vt 0.299933 0.035994
vt 0.990191 0.862065
vt 0.976650 0.839692
vt 0.956272 0.817017
vt 0.939373 0.110148
vt 0.921673 0.087817
vt 0.941710 0.089989
vt 0.919336 0.107977
vt 0.954869 0.716622
vt 0.984579 0.836758
vt 0.970687 0.814921
vt 0.961769 0.791507
vt 0.921854 0.081502
vt 0.941891 0.083674
vt 0.970094 0.789693
vt 0.964416 0.764970
vt 0.956254 0.767323
vt 0.978931 0.813241
vt 0.929106 0.797205
vt 0.282317 0.057987
vt 0.926671 0.822676
vt 0.362475 0.107679
vt 0.379646 0.091904
vt 0.370336 0.114546
vt 0.357720 0.102429
vt 0.345404 0.122475
vt 0.367075 0.142994
vt 0.391314 0.102776
vt 0.939150 0.271409
vt 0.918111 0.263564
vt 0.938266 0.263669
vt 0.918995 0.271303
vt 0.340498 0.117285
vt 0.321925 0.129257
vt 0.326347 0.134449
vt 0.377743 0.121016
vt 0.389199 0.131023
vt 0.399842 0.110723
vt 0.919147 0.243095
vt 0.939301 0.243200
vt 0.352749 0.164642
vt 0.413165 0.123138
vt 0.393881 0.136878
vt 0.280502 0.156621
vt 0.308404 0.148292
vt 0.297377 0.201998
vt 0.429509 0.093755
vt 0.386665 0.066430
vt 0.433147 0.104702
vt 0.339948 0.215291
vt 0.337548 0.184795
vt 0.347510 0.207933
vt 0.326155 0.183255
vt 0.600638 0.057987
vt 0.461707 0.037669
vt 0.461549 0.057674
vt 0.372213 0.087719
vt 0.637420 0.083750
vt 0.611861 0.103416
vt 0.618446 0.080739
vt 0.982119 0.358933
vt 0.083254 0.611067
vt 0.079260 0.688858
vt 0.047332 0.615607
vt 0.115414 0.691184
vt 0.863134 0.435768
vt 0.864245 0.385957
vt 0.944484 0.348989
vt 0.046346 0.686741
vt 0.111214 0.607534
vt 0.150805 0.689947
vt 0.746460 0.610194
vt 0.046014 0.768438
vt 0.011913 0.768650
vt 0.527659 0.684883
vt 0.578495 0.686019
vt 0.577558 0.766013
vt 0.521051 0.766691
vt 0.475448 0.767236
vt 0.909713 0.501376
vt 0.990895 0.470625
vt 0.978849 0.508877
vt 0.576724 0.837031
vt 0.627608 0.767834
vt 0.626785 0.686118
vt 0.899498 0.445689
vt 0.989136 0.430324
vt 0.626943 0.838720
vt 0.620335 0.892493
vt 0.683339 0.911949
vt 0.869075 0.617484
vt 0.847879 0.583521
vt 0.911670 0.626664
vt 0.298979 0.768138
vt 0.244711 0.767837
vt 0.575901 0.907216
vt 0.641565 0.939421
vt 0.721035 0.879848
vt 0.753837 0.911364
vt 0.459991 0.223735
vt 0.467638 0.276011
vt 0.408032 0.236896
vt 0.745921 0.527095
vt 0.189089 0.014374
vt 0.166928 0.067385
vt 0.213628 0.062330
vt 0.713305 0.434347
vt 0.776992 0.384620
vt 0.757366 0.435886
vt 0.719515 0.390268
vt 0.769393 0.483704
vt 0.827792 0.438813
vt 0.712041 0.478512
vt 0.773502 0.544588
vt 0.799401 0.507723
vt 0.830324 0.471895
vt 0.541455 0.964058
vt 0.575281 0.955759
vt 0.509503 0.937811
vt 0.527858 0.992673
vt 0.502232 0.991517
vt 0.439427 0.763820
vt 0.433834 0.837780
vt 0.397716 0.759864
vt 0.901169 0.591315
vt 0.989681 0.569998
vt 0.957703 0.601543
vt 0.473308 0.837984
vt 0.912550 0.538976
vt 0.136858 0.059686
vt 0.827652 0.867585
vt 0.836467 0.881364
vt 0.810402 0.873803
vt 0.858517 0.864145
vt 0.995860 0.855423
vt 0.812064 0.894214
vt 0.788237 0.873181
vt 0.847403 0.854010
vt 0.441427 0.120536
vt 0.463862 0.116801
vt 0.445468 0.133596
vt 0.921085 0.798844
vt 0.528775 0.587524
vt 0.520749 0.513853
vt 0.553133 0.584198
vt 0.922636 0.774552
vt 0.549714 0.508632
vt 0.579891 0.584133
vt 0.962857 0.720607
vt 0.951503 0.742224
vt 0.491311 0.086857
vt 0.505337 0.100748
vt 0.471405 0.095614
vt 0.785684 0.893117
vt 0.149228 0.071823
vt 0.158660 0.077606
vt 0.171217 0.097831
vt 0.136922 0.080605
vt 0.482287 0.591466
vt 0.465785 0.523655
vt 0.506018 0.590232
vt 0.627646 0.593283
vt 0.603954 0.516604
vt 0.635672 0.524956
vt 0.497104 0.519588
vt 0.960089 0.742132
vt 0.457605 0.104573
vt 0.793382 0.276917
vt 0.848550 0.246427
vt 0.858162 0.262768
vt 0.914666 0.775715
vt 0.581065 0.510643
vt 0.603006 0.586987
vt 0.483598 0.108473
vt 0.152256 0.234462
vt 0.130996 0.306192
vt 0.127640 0.231634
vt 0.106502 0.300440
vt 0.104701 0.229394
vt 0.247846 0.084644
vt 0.259214 0.111022
vt 0.226689 0.111371
vt 0.240564 0.084214
vt 0.237765 0.043202
vt 0.796072 0.539524
vt 0.835439 0.531342
vt 0.839631 0.520305
vt 0.372315 0.148737
vt 0.586771 0.090221
vt 0.595542 0.073634
vt 0.892572 0.752338
vt 0.867555 0.749151
vt 0.875754 0.737915
vt 0.884615 0.767400
vt 0.377944 0.067177
vt 0.074419 0.297231
vt 0.081008 0.228659
vt 0.241698 0.126657
vt 0.177904 0.131793
vt 0.901700 0.149865
vt 0.876668 0.068298
vt 0.888813 0.054356
vt 0.255611 0.121661
vt 0.193808 0.114212
vt 0.269193 0.129042
vt 0.137009 0.091522
vt 0.141959 0.085248
vt 0.150914 0.096319
vt 0.131951 0.085316
vt 0.137062 0.099802
vt 0.137458 0.125582
vt 0.149708 0.119810
vt 0.123108 0.096477
vt 0.281315 0.147421
vt 0.224783 0.223735
vt 0.212642 0.301867
vt 0.201274 0.230593
vt 0.659751 0.082249
vt 0.637815 0.111439
vt 0.663982 0.105947
vt 0.124531 0.071964
vt 0.115204 0.077891
vt 0.847415 0.548200
vt 0.304397 0.140699
vt 0.178781 0.233958
vt 0.160540 0.310717
vt 0.848282 0.739490
vt 0.861811 0.728370
vt 0.191184 0.307855
vt 0.827393 0.730122
vt 0.844948 0.716622
vt 0.123003 0.058309
vt 0.142935 0.767870
vt 0.196789 0.767574
vt 0.834195 0.498532
vt 0.887014 0.221144
vt 0.521719 0.837537
vt 0.468383 0.909328
vt 0.517508 0.901721
vt 0.430977 0.876752
vt 0.111850 0.599090
vt 0.181673 0.544414
vt 0.186225 0.583109
vt 0.609006 0.964882
vt 0.159381 0.113305
vt 0.171528 0.112844
vt 0.166846 0.126994
vt 0.229430 0.086136
vt 0.058468 0.586953
vt 0.111888 0.546236
vt 0.067043 0.543807
vt 0.155685 0.134691
vt 0.137306 0.141718
vt 0.927470 0.030718
vt 0.888213 0.017151
vt 0.933517 0.010645
vt 0.124242 0.120067
vt 0.105731 0.135863
vt 0.397919 0.907026
vt 0.252291 0.542796
vt 0.397824 0.837596
vt 0.381665 0.768650
vt 0.852610 0.039770
vt 0.857682 0.022932
vt 0.216493 0.440390
vt 0.247229 0.430163
vt 0.228826 0.494028
vt 0.173188 0.449960
vt 0.201704 0.395113
vt 0.175174 0.497073
vt 0.125904 0.499373
vt 0.227874 0.388424
vt 0.223420 0.374578
vt 0.266115 0.378592
vt 0.259251 0.367647
vt 0.270025 0.487428
vt 0.284095 0.418980
vt 0.070702 0.384348
vt 0.109138 0.396077
vt 0.058776 0.424189
vt 0.109016 0.379172
vt 0.774661 0.833598
vt 0.788476 0.834769
vt 0.793491 0.845110
vt 0.805360 0.796350
vt 0.606947 0.214100
vt 0.619115 0.208196
vt 0.631448 0.215291
vt 0.601096 0.203456
vt 0.804143 0.839517
vt 0.816949 0.845566
vt 0.644366 0.172295
vt 0.625913 0.167202
vt 0.828926 0.805263
vt 0.585091 0.200933
vt 0.605290 0.161173
vt 0.583421 0.156132
vt 0.848842 0.817240
vt 0.821291 0.760047
vt 0.795122 0.766851
vt 0.776172 0.748294
vt 0.784580 0.792597
vt 0.848994 0.778822
vt 0.775088 0.731499
vt 0.766776 0.752417
vt 0.693149 0.148251
vt 0.682646 0.158961
vt 0.655081 0.144906
vt 0.649186 0.126034
vt 0.677464 0.167092
vt 0.629196 0.145967
vt 0.765771 0.735901
vt 0.605811 0.137098
vt 0.867260 0.795502
vt 0.581036 0.125666
vt 0.121227 0.028517
vt 0.106786 0.067897
vt 0.081343 0.025177
vt 0.792733 0.330220
vt 0.058982 0.064822
vt 0.034238 0.047873
vt 0.532196 0.215291
vt 0.537615 0.205163
vt 0.551437 0.204476
vt 0.521809 0.209323
vt 0.843935 0.993819
vt 0.853912 0.984425
vt 0.866995 0.987383
vt 0.821318 0.955673
vt 0.522360 0.166343
vt 0.543114 0.163225
vt 0.869969 0.975914
vt 0.837542 0.946742
vt 0.884699 0.970112
vt 0.855840 0.936449
vt 0.508770 0.214886
vt 0.478137 0.185347
vt 0.044642 0.108178
vt 0.015525 0.103568
vt 0.027023 0.082822
vt 0.043482 0.088425
vt 0.079694 0.108687
vt 0.031749 0.080927
vt 0.085007 0.125352
vt 0.102848 0.112991
vt 0.103032 0.098107
vt 0.038932 0.119211
vt 0.108719 0.126742
vt 0.750069 0.071559
vt 0.714663 0.130047
vt 0.741280 0.059567
vt 0.836048 0.405765
vt 0.762276 0.344516
vt 0.498545 0.174318
vt 0.508091 0.130748
vt 0.558649 0.124836
vt 0.533322 0.137340
vt 0.479998 0.147224
vt 0.563311 0.106350
vt 0.803485 0.911404
vt 0.778093 0.956004
vt 0.765771 0.945588
vt 0.569163 0.131250
vt 0.804275 0.932225
vt 0.786504 0.963567
vt 0.829128 0.926983
vt 0.849798 0.913344
vt 0.811458 0.368031
vt 0.813663 0.337182
vt 0.848916 0.348723
vt 0.006412 0.122466
vt 0.841807 0.379836
vt 0.572756 0.112543
vt 0.017284 0.115973
vt 0.863480 0.332888
vt 0.852268 0.355507
vt 0.727562 0.131215
vt 0.711235 0.166581
vt 0.114666 0.113579
vt 0.875705 0.927032
vt 0.460867 0.162759
vt 0.871221 0.897379
vt 0.744356 0.235989
vt 0.732821 0.250150
vt 0.772897 0.039326
vt 0.764520 0.023402
vt 0.280502 0.038071
vt 0.953623 0.257450
vt 0.965809 0.237913
vt 0.961620 0.263366
vt 0.973172 0.243679
vt 0.305924 0.474355
vt 0.096701 0.438691
vt 0.169121 0.400817
vt 0.129826 0.447683
vt 0.136822 0.400045
vt 0.198126 0.376827
vt 0.049634 0.480419
vt 0.085589 0.494461
vt 0.137882 0.380215
vt 0.168400 0.379226
vt 0.004140 0.561057
vt 0.024378 0.521733
vt 0.242575 0.292305
vt 0.732933 0.353104
vt 0.071264 0.372535
vt 0.499198 0.373601
vt 0.467473 0.382923
vt 0.448206 0.328092
vt 0.488010 0.322338
vt 0.542484 0.370317
vt 0.512580 0.420595
vt 0.544955 0.419214
vt 0.538050 0.323472
vt 0.587285 0.378634
vt 0.578722 0.424136
vt 0.547051 0.440652
vt 0.577587 0.442425
vt 0.094598 0.768136
vt 0.049851 0.846568
vt 0.007937 0.851193
vt 0.538378 0.276411
vt 0.647575 0.993287
vt 0.621929 0.993819
vt 0.703761 0.255627
vt 0.690828 0.298646
vt 0.422793 0.279524
vt 0.357102 0.263710
vt 0.383122 0.302247
vt 0.847225 0.489207
vt 0.233524 0.506968
vt 0.241067 0.508867
vt 0.286055 0.505864
vt 0.592091 0.325378
vt 0.620205 0.388293
vt 0.606203 0.430539
vt 0.646931 0.438951
vt 0.634501 0.330914
vt 0.659205 0.398546
vt 0.603865 0.444293
vt 0.641602 0.449942
vt 0.673194 0.343211
vt 0.431768 0.398178
vt 0.485513 0.424854
vt 0.449502 0.437404
vt 0.487863 0.441620
vt 0.451768 0.449099
vt 0.414478 0.342651
vt 0.516283 0.440257
vt 0.241012 0.689886
vt 0.909129 0.576788
vt 0.899619 0.432900
vt 0.971104 0.101825
vt 0.961409 0.108516
vt 0.950171 0.089090
vt 0.960384 0.081502
vt 0.196789 0.688341
vt 0.858449 0.534036
vt 0.913414 0.474011
vt 0.819680 0.028389
vt 0.715533 0.202840
vt 0.876039 0.213641
vt 0.896109 0.191900
vt 0.886926 0.147049
vt 0.726314 0.198578
vt 0.794782 0.255361
vt 0.830762 0.217110
vt 0.859013 0.141828
vt 0.838771 0.069389
vt 0.817652 0.041880
vt 0.852642 0.083541
vt 0.756902 0.131321
vt 0.757467 0.157077
vt 0.720106 0.165042
vt 0.768834 0.210433
vt 0.784076 0.071290
vt 0.844414 0.192970
vt 0.885853 0.187329
vt 0.851804 0.170082
vt 0.759795 0.182778
vt 0.798692 0.221424
vt 0.809127 0.125302
vt 0.819041 0.071121
vt 0.771728 0.089557
vt 0.918914 0.522824
vt 0.203877 0.514717
vt 0.785511 0.668242
vt 0.779976 0.657043
vt 0.832442 0.644121
vt 0.799715 0.696980
vt 0.774529 0.673886
vt 0.846646 0.672859
vt 0.857628 0.667215
vt 0.826907 0.632922
vt 0.765771 0.628305
vt 0.788733 0.702625
vt 0.843424 0.638477
vt 0.812703 0.604185
vt 0.805250 0.708179
vt 0.852181 0.684058
vt 0.885796 0.033234
s 0
g off
g hang_scene_material1
usemtl scene_material1
f 1/1/1 283/2/2 2/3/3
f 1/4/4 293/5/5 283/2/6
f 2/3/7 283/2/2 4/6/8
f 2/3/9 290/7/10 1/8/4
f 3/9/11 52/10/12 51/11/13
f 3/9/11 282/12/14 52/10/12
f 3/9/11 292/13/15 282/12/14
f 5/14/16 44/15/17 2/3/18
f 4/6/19 45/16/20 5/14/21
f 4/17/19 379/18/22 40/19/23
f 5/14/24 45/16/25 43/20/26
f 6/21/27 334/22/28 7/23/29
f 7/23/29 8/24/30 6/21/31
f 7/25/29 237/26/32 8/27/33
f 7/23/34 282/12/35 129/28/36
f 7/23/29 334/22/37 52/10/12
f 8/24/33 9/29/38 6/21/31
f 8/24/39 248/30/40 9/29/41
f 8/27/42 252/31/43 248/32/44
f 9/29/45 10/33/46 6/21/31
f 9/34/41 54/35/47 10/36/48
f 9/34/49 60/37/50 54/35/47
f 9/29/45 248/30/51 60/38/52
f 10/33/53 11/39/54 6/21/31
f 10/33/53 13/40/55 11/39/56
f 10/41/46 65/42/57 64/43/58
f 10/44/53 176/45/59 12/46/60
f 11/39/56 278/47/61 113/48/62
f 11/39/63 334/22/37 6/21/27
f 12/49/64 13/40/55 10/33/53
f 12/49/65 14/50/66 13/40/55
f 12/46/64 176/45/59 175/51/67
f 12/49/68 272/52/69 14/50/66
f 12/49/64 281/53/70 272/52/71
f 13/40/72 278/47/73 11/39/56
f 13/40/72 279/54/74 278/47/73
f 14/50/75 15/55/76 13/40/55
f 14/56/75 307/57/77 15/58/78
f 15/55/78 271/59/79 270/60/80
f 15/55/81 279/54/82 13/40/72
f 15/58/83 310/61/84 271/62/85
f 16/63/86 74/64/87 17/65/88
f 16/66/89 82/67/90 74/68/91
f 16/66/89 84/69/92 82/67/93
f 17/65/88 18/70/94 16/63/95
f 17/65/96 26/71/97 18/70/94
f 17/65/88 75/72/98 26/71/99
f 18/70/94 19/73/100 16/63/101
f 18/70/102 26/71/97 25/74/103
f 18/75/94 36/76/104 19/77/105
f 18/78/94 329/79/106 36/80/107
f 18/78/108 332/81/109 329/79/110
f 19/73/111 20/82/112 16/63/101
f 19/73/113 21/83/114 20/82/112
f 19/73/111 22/84/115 21/83/114
f 19/85/111 231/86/116 22/87/117
f 19/85/111 232/88/118 231/86/119
f 20/89/120 84/69/121 16/66/122
f 21/83/114 67/90/123 20/82/124
f 22/84/115 24/91/125 21/83/114
f 22/84/126 25/74/127 23/92/128
f 22/87/117 230/93/129 25/94/130
f 22/87/126 231/86/131 230/93/129
f 23/92/132 24/91/125 22/84/126
f 23/92/133 68/95/134 24/91/125
f 23/92/133 76/96/135 68/95/134
f 23/92/132 83/97/136 76/96/135
f 24/91/125 66/98/137 21/83/138
f 24/91/139 68/95/134 66/98/140
f 25/74/130 27/99/141 23/92/132
f 25/100/142 332/81/109 18/78/94
f 26/71/143 27/99/141 25/74/130
f 26/71/143 69/101/144 27/99/145
f 26/71/143 75/72/98 69/101/146
f 27/99/147 83/97/148 23/92/133
f 28/102/149 37/103/150 29/104/151
f 28/102/152 86/105/153 37/103/154
f 29/104/155 30/106/156 28/102/157
f 29/104/155 32/107/158 30/106/159
f 29/104/155 37/103/160 36/108/161
f 29/109/151 331/110/162 31/111/163
f 29/109/164 333/112/165 331/110/166
f 30/106/156 85/113/167 28/102/168
f 30/106/159 104/114/169 85/113/167
f 30/106/159 110/115/170 104/114/169
f 31/116/171 32/107/172 29/104/155
f 31/116/173 33/117/174 32/107/158
f 31/116/175 39/118/176 33/117/177
f 31/111/175 330/119/178 39/120/179
f 31/111/171 331/110/166 330/119/178
f 32/107/172 106/121/180 30/106/156
f 33/117/174 39/118/176 38/122/181
f 33/117/182 90/123/183 32/107/184
f 34/124/185 108/125/186 35/126/187
f 35/127/188 36/108/161 34/128/185
f 35/127/188 39/118/189 36/108/107
f 35/127/190 100/129/191 38/122/192
f 35/130/193 109/131/194 100/132/191
f 35/130/188 112/133/195 109/131/196
f 36/108/107 37/103/154 34/128/185
f 36/76/197 39/134/198 19/77/113
f 36/80/199 333/135/165 29/136/164
f 37/103/154 92/137/200 34/128/185
f 38/122/181 39/118/179 35/127/193
f 38/122/201 90/123/183 33/117/202
f 38/138/181 168/139/203 90/140/183
f 39/120/189 232/88/118 19/85/111
f 39/120/176 330/119/204 232/88/205
f 40/19/206 45/141/207 4/17/8
f 40/142/208 267/143/209 41/144/210
f 40/142/211 269/145/212 267/143/213
f 40/19/23 275/146/214 42/147/215
f 40/19/216 379/18/217 275/146/218
f 41/148/210 45/141/25 40/19/206
f 41/144/210 267/143/219 43/149/220
f 42/150/221 269/145/222 40/142/206
f 42/150/215 275/151/218 269/145/222
f 43/20/220 45/16/223 41/152/224
f 43/149/220 268/153/225 44/154/226
f 44/15/227 290/7/228 2/3/9
f 46/155/229 48/156/230 47/157/231
f 46/155/232 115/158/233 62/159/234
f 375/160/235 48/161/236 46/162/237
f 47/157/231 115/158/238 46/155/229
f 47/157/231 287/163/239 115/158/238
f 48/156/230 49/164/240 47/157/231
f 48/156/230 327/165/241 49/164/240
f 380/166/242 327/167/243 48/161/244
f 49/164/245 286/168/246 47/157/247
f 49/164/248 293/5/249 286/168/250
f 49/164/240 327/165/251 283/2/6
f 50/169/252 286/168/253 53/170/254
f 50/169/255 287/163/239 286/168/253
f 51/11/256 292/13/257 3/9/11
f 51/171/258 326/172/259 132/173/260
f 52/10/12 282/12/35 7/23/34
f 52/10/12 326/174/261 51/11/258
f 52/10/12 338/175/262 326/174/263
f 53/170/254 119/176/264 50/169/265
f 53/170/266 273/177/267 119/176/264
f 53/170/266 291/178/268 271/179/269
f 53/170/270 293/5/271 291/178/272
f 53/180/273 309/181/274 273/182/275
f 54/35/276 60/37/277 59/183/278
f 54/184/276 65/42/279 10/41/280
f 54/184/281 72/185/282 64/43/283
f 54/184/284 123/186/285 72/185/282
f 55/187/286 188/188/287 56/189/288
f 55/187/289 280/190/290 188/188/287
f 56/189/288 57/191/291 55/187/286
f 56/189/288 77/192/292 57/191/293
f 56/189/288 188/188/294 77/192/295
f 57/191/293 58/193/296 55/187/286
f 57/191/297 59/183/278 58/193/298
f 57/191/291 88/194/299 59/183/278
f 57/191/293 89/195/300 88/194/301
f 57/191/293 114/196/302 89/195/303
f 58/197/304 119/176/305 55/198/286
f 58/197/304 124/199/306 119/176/264
f 59/183/278 60/37/52 58/193/298
f 59/183/307 88/194/308 54/35/284
f 60/200/277 124/199/306 58/197/298
f 60/200/309 248/201/40 124/199/310
f 61/202/311 288/203/312 132/204/260
f 377/205/313 62/206/314 61/207/315
f 62/159/234 63/208/316 61/202/317
f 62/159/318 115/158/233 63/208/316
f 62/206/319 373/209/320 46/162/321
f 63/208/316 288/203/322 61/202/323
f 64/43/324 65/42/325 54/184/284
f 64/43/326 111/210/327 10/41/53
f 66/98/328 67/90/123 21/83/138
f 66/211/329 217/212/330 67/213/123
f 66/211/329 220/214/331 217/212/332
f 67/90/333 71/215/334 20/82/124
f 67/213/335 196/216/336 71/217/334
f 67/213/123 217/212/330 196/216/337
f 68/218/134 220/214/338 66/211/140
f 68/219/339 221/220/340 220/221/341
f 69/101/146 70/222/342 27/99/147
f 69/223/343 313/224/344 70/225/345
f 70/222/346 79/226/347 27/99/145
f 70/225/348 322/227/349 78/228/350
f 71/229/351 81/230/352 20/89/124
f 71/231/334 191/232/353 80/233/354
f 71/217/351 196/216/336 191/234/355
f 72/185/282 73/235/356 64/43/357
f 72/185/358 102/236/359 73/235/356
f 72/185/282 120/237/360 102/236/359
f 72/185/282 123/186/361 120/237/360
f 73/235/356 102/236/362 101/238/363
f 73/235/356 111/210/364 64/43/357
f 74/64/91 75/72/365 17/65/88
f 74/239/87 311/240/366 75/241/367
f 74/242/368 324/243/369 311/244/366
f 75/241/98 312/245/370 69/223/371
f 76/96/372 83/97/373 80/246/374
f 76/247/135 221/220/340 68/219/375
f 77/192/376 114/196/302 57/191/377
f 77/248/378 346/249/379 114/250/380
f 78/251/381 79/226/382 70/222/383
f 78/251/384 84/69/92 79/226/385
f 78/228/384 325/252/386 82/253/90
f 79/226/347 83/97/387 27/99/141
f 79/226/385 84/69/92 81/230/352
f 80/246/354 81/230/352 71/229/334
f 80/246/354 83/97/148 81/230/352
f 80/233/388 201/254/389 76/247/390
f 81/230/391 83/97/148 79/226/385
f 81/230/352 84/69/121 20/89/112
f 82/67/93 84/69/92 78/251/384
f 82/253/392 324/243/393 74/242/87
f 82/253/90 325/252/394 324/243/369
f 85/113/395 86/105/396 28/102/397
f 85/255/395 285/256/398 86/257/153
f 86/105/153 92/137/399 37/103/154
f 86/257/400 257/258/401 92/259/200
f 86/257/153 285/256/402 257/258/403
f 87/260/404 148/261/405 94/262/406
f 87/260/404 172/263/407 88/264/299
f 88/194/408 89/195/303 87/265/409
f 88/264/301 123/186/361 54/184/47
f 88/264/408 172/263/407 123/186/410
f 89/195/411 103/266/412 87/265/409
f 89/195/413 342/267/414 103/266/415
f 90/123/416 91/268/417 32/107/184
f 90/140/418 173/269/419 91/270/420
f 91/268/421 106/121/180 32/107/422
f 91/271/417 169/272/423 106/273/180
f 91/271/424 173/274/425 169/272/426
f 92/137/200 99/275/427 34/128/185
f 92/259/200 255/276/428 99/277/427
f 92/259/200 257/258/401 255/276/428
f 93/278/429 133/279/430 94/262/406
f 93/280/431 348/281/432 133/282/433
f 94/262/406 95/283/434 93/278/435
f 94/262/436 133/279/430 131/284/437
f 94/262/406 148/261/438 95/283/439
f 94/262/406 172/263/407 87/260/440
f 95/283/439 103/285/441 93/278/442
f 95/283/443 148/261/444 103/285/445
f 96/286/446 105/287/447 97/288/448
f 96/286/446 213/289/449 101/238/450
f 97/288/451 98/290/452 96/286/446
f 97/288/448 105/287/447 102/236/359
f 97/288/448 126/291/453 98/290/454
f 97/288/448 127/292/455 126/291/456
f 98/290/457 205/293/458 96/286/446
f 99/294/427 108/125/459 34/124/185
f 99/295/460 289/296/461 107/297/462
f 100/298/463 154/299/464 38/138/181
f 100/298/463 159/300/465 154/299/466
f 101/238/363 105/287/447 96/286/446
f 101/238/450 111/210/467 73/235/356
f 101/238/363 181/301/468 111/210/364
f 101/238/363 209/302/469 181/301/470
f 101/238/363 213/289/471 209/302/469
f 102/236/362 105/287/447 101/238/363
f 102/236/359 120/237/472 97/288/473
f 103/285/445 148/261/438 87/260/404
f 103/266/474 342/267/475 93/303/442
f 104/114/169 110/115/476 107/304/477
f 104/305/169 247/306/478 85/255/395
f 106/121/479 110/115/476 30/106/159
f 106/121/180 112/133/480 110/115/481
f 106/273/482 158/307/483 109/308/484
f 106/273/482 169/272/485 158/307/483
f 107/304/486 108/125/487 99/294/427
f 107/304/462 110/115/170 108/125/186
f 107/297/477 246/309/488 104/305/169
f 107/297/477 289/296/461 246/309/488
f 108/125/186 112/133/195 35/126/193
f 109/131/194 112/133/489 106/121/490
f 109/308/484 159/310/465 100/311/491
f 110/115/492 112/133/195 108/125/493
f 111/210/467 174/312/494 10/41/53
f 111/210/467 181/301/470 174/312/494
f 113/48/62 278/47/61 276/313/495
f 113/48/62 334/22/496 11/39/56
f 113/48/497 337/314/498 334/22/496
f 114/196/302 341/315/499 89/195/500
f 346/249/501 341/316/502 114/250/503
f 115/158/233 116/317/504 63/208/316
f 115/158/505 287/163/239 116/317/504
f 116/317/506 118/318/507 63/208/508
f 116/317/506 119/176/264 117/319/509
f 116/317/504 287/163/239 119/176/264
f 117/319/510 118/318/507 116/317/506
f 117/319/509 119/176/264 118/318/511
f 118/318/512 130/320/513 63/208/508
f 118/321/512 241/322/514 129/323/36
f 119/176/305 124/199/310 118/318/515
f 119/176/264 280/324/516 55/198/289
f 119/176/264 287/163/239 50/169/255
f 120/237/472 122/325/517 97/288/473
f 120/237/518 131/284/519 121/326/520
f 121/326/521 122/325/522 120/237/472
f 121/326/521 127/292/455 122/325/517
f 121/326/521 128/327/523 127/292/524
f 121/326/520 131/284/519 128/327/525
f 122/325/517 127/292/455 97/288/473
f 123/186/526 131/284/527 120/237/518
f 123/186/410 157/328/528 131/284/529
f 123/186/530 172/263/531 157/328/532
f 124/329/310 240/330/533 118/321/512
f 124/329/306 328/331/534 240/330/533
f 125/332/535 339/333/536 126/291/537
f 347/334/538 339/335/539 125/336/540
f 126/291/541 127/292/455 125/332/535
f 126/291/537 205/293/458 98/290/542
f 126/291/537 227/337/543 205/293/458
f 126/291/537 339/333/544 226/338/545
f 127/292/455 128/327/546 125/332/535
f 128/327/547 133/279/430 125/332/548
f 129/339/36 130/320/513 118/318/512
f 129/323/36 236/340/549 7/25/29
f 129/323/36 241/322/550 236/340/549
f 129/339/36 292/341/257 130/320/551
f 130/320/513 288/203/322 63/208/316
f 130/320/551 292/341/257 288/203/312
f 131/284/519 133/279/552 128/327/525
f 131/284/437 157/328/553 94/262/406
f 132/342/260 292/13/15 51/11/13
f 132/173/554 377/205/555 61/207/556
f 133/282/557 347/343/558 125/344/559
f 134/345/560 139/346/561 135/347/562
f 134/345/560 238/348/563 137/349/564
f 135/347/562 136/350/565 134/345/560
f 135/347/566 241/322/550 136/350/567
f 136/350/565 238/348/563 134/345/560
f 136/350/565 241/322/514 240/330/568
f 136/350/565 250/351/569 238/348/563
f 137/349/564 138/352/570 134/345/571
f 137/349/564 261/353/572 138/352/570
f 138/352/573 139/346/561 134/345/560
f 138/352/574 140/354/575 139/346/561
f 138/352/570 262/355/576 140/354/575
f 139/346/577 234/356/578 135/347/562
f 139/346/577 235/357/579 234/356/580
f 140/354/575 235/357/579 139/346/561
f 140/358/575 243/359/581 235/360/582
f 140/358/575 266/361/583 243/359/581
f 141/362/584 144/363/585 142/364/586
f 141/362/584 166/365/587 144/363/588
f 142/366/589 143/367/590 141/368/591
f 142/366/592 146/369/593 143/367/590
f 142/364/589 147/370/594 145/371/595
f 143/367/596 162/372/597 141/368/598
f 143/367/590 171/373/599 162/372/597
f 144/363/588 147/370/594 142/364/586
f 144/363/588 163/374/600 147/370/594
f 144/363/601 166/365/587 163/374/602
f 145/375/603 146/369/604 142/366/589
f 145/375/605 161/376/606 146/369/607
f 145/375/603 170/377/608 161/376/606
f 146/369/609 171/373/599 143/367/596
f 147/370/594 170/378/610 145/371/603
f 149/379/611 152/380/612 150/381/613
f 149/379/614 159/310/465 158/307/615
f 149/379/614 162/382/597 152/380/616
f 149/379/617 166/365/618 162/382/597
f 149/379/619 169/272/485 164/383/620
f 150/381/621 151/384/622 149/379/614
f 150/381/623 153/385/624 151/384/625
f 151/384/622 159/310/465 149/379/614
f 151/386/626 160/387/627 159/300/465
f 152/380/628 153/385/629 150/381/630
f 152/388/612 155/389/631 153/390/624
f 152/388/632 156/391/633 155/389/634
f 152/388/635 171/373/599 156/391/633
f 153/385/636 160/392/627 151/384/625
f 154/299/637 159/300/465 155/389/634
f 154/299/637 168/139/203 38/138/181
f 155/389/638 156/391/633 154/299/637
f 155/389/639 160/387/640 153/390/641
f 156/391/633 167/393/642 154/299/464
f 156/391/633 171/373/599 161/376/643
f 157/328/532 172/263/407 94/262/406
f 158/307/483 159/310/465 109/308/644
f 158/307/645 169/272/485 149/379/646
f 159/300/465 160/387/627 155/389/634
f 161/376/647 167/393/648 156/391/633
f 161/376/649 170/377/650 167/393/648
f 161/376/643 171/373/651 146/369/609
f 162/382/597 166/365/618 141/362/591
f 162/372/652 171/373/651 152/388/632
f 163/374/653 166/365/587 164/383/654
f 163/374/600 170/378/650 147/370/594
f 164/383/655 165/394/656 163/374/600
f 164/383/654 166/365/587 149/379/614
f 164/383/654 173/274/657 165/394/656
f 165/395/658 168/139/203 167/393/648
f 165/394/658 170/378/650 163/374/600
f 165/395/659 173/269/660 168/139/661
f 167/393/648 168/139/662 154/299/637
f 167/393/663 170/377/608 165/395/659
f 168/139/203 173/269/660 90/140/418
f 169/272/664 173/274/425 164/383/665
f 174/312/494 176/396/666 10/41/46
f 174/312/494 182/397/667 175/398/67
f 175/398/67 176/396/666 174/312/494
f 175/51/67 198/399/668 12/46/65
f 175/398/67 225/400/669 198/401/670
f 177/402/671 180/403/672 178/404/673
f 177/402/671 189/405/674 180/403/675
f 178/406/676 179/407/677 177/408/678
f 178/406/676 211/409/679 179/407/677
f 178/404/680 216/410/681 211/411/682
f 179/407/683 183/412/684 177/408/685
f 179/407/677 212/413/686 183/412/687
f 180/403/675 216/410/681 178/404/676
f 181/301/688 182/397/689 174/312/690
f 181/301/688 209/302/691 182/397/692
f 182/397/693 225/400/694 175/398/67
f 183/412/684 184/414/695 177/408/671
f 183/412/696 207/415/697 184/414/698
f 183/412/687 212/413/699 207/415/700
f 184/416/695 189/405/674 177/402/671
f 184/416/698 208/417/701 189/405/674
f 185/418/702 233/419/703 199/420/704
f 185/418/705 245/421/706 186/422/707
f 185/418/702 254/423/708 245/421/706
f 186/422/709 187/424/710 185/418/702
f 186/422/709 222/425/711 187/424/712
f 186/422/713 223/426/714 222/425/715
f 186/422/713 225/400/694 223/426/716
f 186/422/707 245/421/717 225/400/669
f 187/424/718 203/427/719 185/418/702
f 187/424/718 228/428/720 226/338/721
f 349/429/722 203/430/723 187/431/724
f 188/188/725 219/432/726 77/192/295
f 188/188/287 256/433/727 198/399/728
f 188/188/294 280/190/290 256/433/729
f 189/405/674 214/434/730 180/403/675
f 190/435/731 194/436/732 193/437/733
f 190/435/734 201/254/389 191/232/353
f 190/435/735 221/220/340 201/254/389
f 190/435/735 229/438/736 221/220/340
f 191/232/353 192/439/737 190/435/738
f 191/234/353 196/216/337 195/440/739
f 191/232/355 201/254/389 80/233/740
f 191/234/353 202/441/741 192/442/737
f 192/439/742 194/436/743 190/435/734
f 192/439/744 206/443/745 194/436/743
f 193/444/746 206/445/747 195/440/748
f 193/437/733 211/411/749 190/435/734
f 193/444/733 212/413/686 211/409/679
f 194/436/750 206/443/751 193/437/752
f 195/440/753 197/446/754 193/444/746
f 195/440/753 202/441/741 191/234/353
f 195/440/755 206/445/756 202/441/741
f 196/216/336 197/446/754 195/440/755
f 196/216/336 218/447/757 197/446/758
f 197/446/758 212/413/686 193/444/759
f 197/446/760 218/447/757 207/415/761
f 198/399/670 200/448/762 188/188/287
f 198/401/763 254/423/764 199/420/704
f 198/399/668 256/433/729 12/46/64
f 199/449/704 200/448/765 198/399/763
f 199/449/766 210/450/767 200/448/765
f 199/420/768 233/419/703 210/451/769
f 199/420/704 254/423/770 185/418/771
f 200/448/765 219/432/726 188/188/772
f 200/448/773 340/452/774 219/432/775
f 201/254/389 221/220/340 76/247/390
f 202/453/741 206/443/751 192/439/776
f 203/427/777 204/454/778 185/418/705
f 203/427/777 210/451/769 204/454/778
f 203/455/779 343/456/780 210/450/781
f 350/457/782 343/458/783 203/430/784
f 204/454/785 233/419/703 185/418/702
f 205/293/786 213/289/449 96/286/446
f 205/293/786 223/426/714 209/302/469
f 205/293/786 224/459/787 223/426/714
f 205/293/786 227/337/788 224/459/789
f 207/415/790 208/460/791 184/414/698
f 207/415/761 212/413/686 197/446/754
f 207/415/790 218/447/792 208/460/791
f 208/417/701 214/434/793 189/405/674
f 208/417/794 215/461/795 214/434/793
f 208/460/791 218/447/757 215/462/796
f 209/302/691 213/289/471 205/293/797
f 209/302/691 223/426/714 182/397/798
f 210/451/781 233/419/799 204/454/785
f 210/450/800 340/452/801 200/448/802
f 211/409/679 212/413/686 179/407/677
f 211/411/803 216/410/681 190/435/735
f 214/434/730 216/410/804 180/403/675
f 214/434/730 229/438/736 216/410/681
f 215/462/796 218/447/792 217/212/805
f 215/461/795 229/438/806 214/434/793
f 216/410/681 229/438/736 190/435/734
f 217/212/807 218/447/757 196/216/336
f 217/212/805 220/214/331 215/462/796
f 351/463/808 77/248/809 219/464/810
f 220/221/338 229/438/806 215/461/796
f 221/220/340 229/438/736 220/221/811
f 222/425/711 228/428/812 187/424/718
f 223/426/714 224/459/787 222/425/813
f 223/426/714 225/400/814 182/397/798
f 224/459/789 227/337/788 222/425/813
f 225/400/669 254/423/770 198/401/763
f 226/338/545 227/337/543 126/291/456
f 226/338/721 228/428/812 227/337/543
f 352/465/815 187/431/816 226/466/817
f 227/337/543 228/428/818 222/425/813
f 230/467/129 332/81/819 25/100/103
f 231/468/116 232/469/820 230/470/821
f 232/469/822 332/471/819 230/470/823
f 234/356/580 236/340/549 135/347/562
f 234/356/578 237/26/32 236/340/824
f 234/356/578 249/472/825 237/26/32
f 235/360/582 243/359/581 242/473/826
f 235/357/579 249/472/827 234/356/828
f 236/340/549 237/26/32 7/25/34
f 236/340/829 241/322/514 135/347/562
f 237/26/32 252/31/830 8/27/39
f 238/348/563 239/474/831 137/349/564
f 238/348/563 251/475/832 239/474/833
f 239/474/831 251/475/832 244/476/834
f 239/474/831 260/477/835 137/349/564
f 240/330/568 241/322/514 118/321/512
f 240/330/568 250/351/569 136/350/565
f 240/330/533 328/331/534 250/351/569
f 242/473/836 249/478/825 235/360/582
f 242/473/836 253/479/837 249/478/825
f 243/359/838 244/476/839 242/473/840
f 243/359/581 258/480/841 244/476/834
f 243/359/842 266/361/843 258/480/841
f 244/476/839 251/475/844 242/473/840
f 244/476/839 259/481/845 239/474/831
f 245/421/717 254/423/770 225/400/814
f 246/309/846 247/306/847 104/305/848
f 246/309/488 259/481/849 247/306/850
f 246/309/851 260/477/835 259/481/849
f 246/309/851 289/296/461 260/477/852
f 247/306/853 259/481/849 258/480/841
f 247/306/847 285/256/398 85/255/854
f 248/482/40 328/331/855 124/329/306
f 249/472/825 252/31/856 237/26/32
f 249/478/825 253/479/837 252/483/857
f 250/351/569 251/475/832 238/348/563
f 250/351/569 253/479/858 251/475/832
f 250/351/859 328/331/534 253/479/837
f 251/475/860 253/479/858 242/473/861
f 252/483/43 328/331/862 248/482/44
f 253/479/837 328/331/855 252/483/863
f 255/484/864 262/355/865 261/353/572
f 255/484/428 289/296/461 99/295/460
f 256/433/866 281/485/70 12/46/867
f 257/258/403 262/486/868 255/276/869
f 257/258/401 266/361/583 262/486/865
f 257/258/401 285/256/398 266/361/843
f 258/480/841 259/481/849 244/476/839
f 258/480/841 285/256/402 247/306/853
f 259/481/849 260/477/852 239/474/870
f 260/477/835 261/353/871 137/349/564
f 260/477/835 289/296/461 261/353/572
f 261/353/572 262/355/576 138/352/872
f 261/353/871 289/296/461 255/484/864
f 262/486/868 266/361/873 140/358/575
f 263/487/874 302/488/875 301/489/876
f 263/487/877 303/490/878 264/491/879
f 263/487/874 314/492/880 302/488/881
f 264/491/882 265/493/883 263/487/874
f 264/491/879 295/494/884 294/495/885
f 264/491/886 303/490/878 295/494/884
f 264/491/879 316/496/887 265/493/883
f 265/493/883 314/492/880 263/487/874
f 265/493/888 315/497/889 314/492/880
f 265/493/883 323/498/890 315/497/891
f 266/361/892 285/256/398 258/480/841
f 267/143/209 268/153/225 43/149/220
f 267/143/213 277/499/893 268/153/225
f 268/153/894 284/500/895 44/154/896
f 269/145/897 277/499/898 267/143/209
f 270/60/899 279/54/900 15/55/76
f 270/60/901 284/500/895 279/54/902
f 270/60/80 290/501/10 284/500/895
f 271/59/269 290/501/10 270/60/901
f 271/179/79 291/178/268 290/7/228
f 271/62/269 308/502/903 53/180/273
f 271/62/79 310/61/904 308/502/903
f 272/503/905 281/504/70 273/177/906
f 272/505/69 306/506/907 14/56/908
f 273/182/275 274/507/909 272/508/69
f 273/177/267 280/324/516 119/176/264
f 273/177/275 281/504/70 280/324/516
f 273/182/275 309/181/910 274/507/911
f 274/507/911 303/490/878 301/489/876
f 274/507/909 306/509/907 272/508/69
f 274/507/912 309/181/913 303/490/914
f 275/151/218 277/499/898 269/145/915
f 275/151/218 337/314/916 276/313/495
f 380/166/917 336/510/918 275/146/919
f 275/511/920 381/512/921 380/513/922
f 276/313/495 277/499/893 275/151/218
f 276/313/923 278/47/61 277/499/898
f 276/313/495 337/314/924 113/48/62
f 277/499/898 279/54/902 268/153/925
f 278/47/926 279/54/74 277/499/898
f 279/54/902 284/500/927 268/153/894
f 280/190/290 281/485/70 256/433/928
f 282/12/14 292/13/15 129/28/36
f 283/2/6 293/5/929 49/164/240
f 283/2/6 327/165/930 4/6/8
f 284/500/927 290/501/10 44/154/896
f 286/168/253 287/163/239 47/157/247
f 286/168/253 293/5/931 53/170/254
f 288/203/312 292/341/257 132/204/932
f 290/7/228 291/178/933 1/8/4
f 291/178/268 293/5/271 1/8/4
f 294/495/934 304/514/935 296/515/936
f 294/495/885 316/496/887 264/491/882
f 295/494/937 304/514/938 294/495/939
f 295/494/940 308/502/903 304/514/935
f 295/494/884 309/181/274 308/502/941
f 296/515/936 297/516/942 294/495/934
f 296/515/936 299/517/943 297/516/942
f 296/515/936 305/518/944 298/519/945
f 297/516/942 316/496/887 294/495/885
f 297/516/942 317/520/946 316/496/887
f 297/516/947 318/521/948 317/520/946
f 298/519/945 299/517/949 296/515/936
f 298/519/945 305/518/950 300/522/951
f 298/523/945 319/524/952 299/525/949
f 299/517/943 318/521/953 297/516/947
f 299/525/943 320/526/954 318/527/948
f 300/528/955 302/488/956 298/523/957
f 300/528/958 306/509/907 301/489/959
f 300/522/960 307/57/77 306/506/961
f 301/489/962 302/488/956 300/528/951
f 301/489/876 303/490/878 263/487/874
f 301/489/963 306/509/964 274/507/911
f 302/488/965 319/524/966 298/523/967
f 303/490/878 309/181/968 295/494/884
f 304/514/935 305/518/944 296/515/936
f 304/514/935 310/61/969 305/518/944
f 305/518/970 307/57/77 300/522/960
f 305/518/944 310/61/84 307/57/77
f 306/506/961 307/57/77 14/56/908
f 307/57/77 310/61/84 15/58/76
f 308/502/941 309/181/274 53/180/273
f 308/502/903 310/61/969 304/514/938
f 311/240/366 312/245/971 75/241/98
f 311/240/366 318/527/972 312/245/971
f 311/244/366 324/243/369 317/520/973
f 312/245/370 313/224/974 69/223/975
f 312/245/370 320/526/954 313/224/976
f 313/224/974 322/227/977 70/225/348
f 314/492/978 319/524/952 302/488/881
f 314/492/880 321/529/979 319/524/966
f 315/497/889 321/529/979 314/492/880
f 315/497/889 322/227/977 321/529/980
f 315/497/981 325/252/386 322/227/349
f 316/496/887 323/498/890 265/493/883
f 317/520/973 318/521/972 311/244/366
f 317/520/982 323/498/890 316/496/983
f 317/520/973 324/243/369 323/498/984
f 318/527/972 320/526/985 312/245/370
f 319/524/986 320/526/954 299/525/949
f 319/524/966 321/529/987 320/526/988
f 320/526/988 321/529/989 313/224/974
f 321/529/979 322/227/349 313/224/976
f 322/227/977 325/252/990 78/228/350
f 323/498/890 325/252/386 315/497/991
f 324/243/393 325/252/386 323/498/890
f 326/174/263 338/175/262 335/530/992
f 326/172/259 377/205/993 132/173/260
f 326/172/994 378/531/995 377/205/555
f 381/532/996 4/17/997 327/167/930
f 329/533/998 332/471/819 330/534/999
f 329/79/998 333/135/165 36/80/199
f 330/534/999 331/535/162 329/533/1000
f 330/534/1001 332/471/1002 232/469/1003
f 331/535/1004 333/536/1005 329/533/1000
f 334/22/1006 338/175/1007 52/10/12
f 335/530/1008 338/175/1009 336/537/1010
f 335/538/1011 373/209/1012 326/172/1013
f 336/537/1014 337/314/1015 275/151/1016
f 336/537/1014 338/175/262 337/314/1015
f 375/160/1017 335/538/1018 336/510/1019
f 336/510/1014 376/539/1020 375/160/1021
f 337/314/498 338/175/262 334/22/1006
f 339/540/1022 352/465/1023 226/466/1024
f 340/541/1025 351/463/1026 219/464/1027
f 355/542/1028 342/543/1029 341/316/1030
f 342/543/1031 345/544/1032 93/280/1033
f 343/458/1034 354/545/1035 340/541/1036
f 344/546/1037 360/547/1038 346/249/1039
f 359/548/1040 348/281/1041 345/544/1042
f 360/547/1043 355/542/1044 346/249/1045
f 361/549/1046 353/550/1047 347/343/1048
f 362/551/1049 347/343/1050 348/281/1051
f 349/429/1052 364/552/1053 350/457/1054
f 350/457/1055 371/553/1056 357/554/1057
f 365/555/1058 344/546/1059 351/463/1060
f 366/556/1061 349/429/1062 352/465/1063
f 353/550/1064 366/556/1065 352/465/1066
f 354/545/1067 365/555/1068 351/463/1069
f 369/557/1070 356/558/1071 355/542/1072
f 370/559/1073 345/544/1074 356/558/1075
f 357/554/1076 368/560/1077 354/545/1078
f 358/561/1079 372/562/1080 360/547/1081
f 359/548/1082 372/562/1083 362/551/1084
f 360/547/1081 372/562/1085 369/557/1086
f 361/549/1087 372/562/1083 367/563/1088
f 362/551/1084 372/562/1083 361/549/1087
f 363/564/1089 372/562/1083 364/552/1090
f 364/552/1090 372/562/1085 371/553/1091
f 365/555/1092 372/562/1085 358/561/1093
f 366/556/1094 372/562/1083 363/564/1095
f 367/563/1088 372/562/1096 366/556/1094
f 368/560/1097 372/562/1096 365/555/1092
f 369/557/1086 372/562/1083 370/559/1098
f 370/559/1098 372/562/1083 359/548/1099
f 371/553/1100 372/562/1096 368/560/1097
f 373/209/1101 374/565/1102 46/162/232
f 373/209/1101 378/531/995 326/172/1103
f 374/565/1102 375/160/1104 46/162/1105
f 376/539/1020 380/166/1106 48/161/1107
f 379/566/217 381/512/921 275/511/214
f 382/567/1108 385/568/1109 383/569/1110
f 382/567/1111 389/570/1112 385/571/1113
f 383/569/1110 384/572/1114 382/567/1108
f 383/569/1115 388/573/1116 384/572/1114
f 384/572/1114 389/570/1117 382/567/1118
f 385/568/1119 386/574/1120 383/569/1110
f 385/568/1119 387/575/1121 386/574/1122
f 385/571/1123 389/570/1124 387/576/1121
f 386/577/1122 388/573/1125 383/569/1126
f 387/575/1127 388/578/1128 386/574/1122
f 387/579/1127 389/570/1129 388/580/1128
f 388/580/1128 389/570/1117 384/572/1130
f 390/567/1131 393/568/1132 391/569/1133
f 390/567/1134 397/570/1135 393/571/1136
f 391/569/1133 392/572/1137 390/567/1131
f 391/569/1138 396/573/1139 392/572/1137
f 392/572/1137 397/570/1140 390/567/1134
f 393/568/1141 394/574/1142 391/569/1133
f 393/568/1141 395/575/1143 394/574/1144
f 393/571/1145 397/570/1146 395/576/1143
f 394/577/1144 396/573/1147 391/569/1148
f 395/575/1149 396/578/1150 394/574/1144
f 395/579/1149 397/570/1151 396/580/1150
f 396/580/1150 397/570/1140 392/572/1152
f 398/567/1108 401/568/1109 399/569/1110
f 398/567/1111 405/570/1112 401/571/1113
f 399/569/1110 400/572/1114 398/567/1108
f 399/569/1115 404/573/1116 400/572/1114
f 400/572/1114 405/570/1117 398/567/1118
f 401/568/1119 402/574/1120 399/569/1110
f 401/568/1119 403/575/1121 402/574/1122
f 401/571/1123 405/570/1124 403/576/1121
f 402/577/1122 404/573/1125 399/569/1126
f 403/575/1127 404/578/1128 402/574/1122
f 403/579/1127 405/570/1129 404/580/1128
f 404/580/1128 405/570/1117 400/572/1130
f 406/567/1131 409/568/1132 407/569/1133
f 406/567/1153 413/570/1135 409/571/1136
f 407/569/1133 408/572/1137 406/567/1131
f 407/569/1138 412/573/1139 408/572/1137
f 408/572/1137 413/570/1140 406/567/1134
f 409/568/1141 410/574/1142 407/569/1133
f 409/568/1141 411/575/1143 410/574/1144
f 409/571/1145 413/570/1146 411/576/1154
f 410/577/1144 412/573/1155 407/569/1148
f 411/575/1149 412/578/1150 410/574/1144
f 411/579/1149 413/570/1151 412/580/1150
f 412/580/1150 413/570/1140 408/572/1152
f 414/567/1108 417/568/1109 415/569/1110
f 414/567/1118 421/570/1156 417/571/1113
f 415/569/1110 416/572/1114 414/567/1108
f 415/569/1115 420/573/1116 416/572/1114
f 416/572/1114 421/570/1117 414/567/1118
f 417/568/1119 418/574/1120 415/569/1110
f 417/568/1119 419/575/1121 418/574/1122
f 417/571/1123 421/570/1124 419/576/1121
f 418/577/1122 420/573/1125 415/569/1126
f 419/575/1127 420/578/1128 418/574/1122
f 419/579/1127 421/570/1129 420/580/1128
f 420/580/1128 421/570/1117 416/572/1130
f 422/567/1131 425/568/1132 423/569/1133
f 422/567/1153 429/570/1135 425/571/1136
f 423/569/1133 424/572/1137 422/567/1131
f 423/569/1138 428/573/1139 424/572/1137
f 424/572/1137 429/570/1140 422/567/1134
f 425/568/1141 426/574/1142 423/569/1133
f 425/568/1141 427/575/1143 426/574/1144
f 425/571/1145 429/570/1146 427/576/1154
f 426/577/1144 428/573/1147 423/569/1148
f 427/575/1149 428/578/1150 426/574/1144
f 427/579/1149 429/570/1151 428/580/1150
f 428/580/1150 429/570/1140 424/572/1152
f 2/3/1157 4/6/1158 5/14/1159
f 5/14/1160 43/20/1161 44/15/1162
f 375/160/1163 376/539/1164 48/161/1165
f 380/166/1166 381/532/1167 327/167/1168
f 377/205/1169 378/531/1170 62/206/1171
f 62/206/1172 378/531/1173 373/209/1174
f 77/248/1175 344/546/1176 346/249/1177
f 89/195/1178 341/315/1179 342/267/1180
f 93/280/1181 345/544/1182 348/281/1183
f 346/249/1184 355/542/1185 341/316/1186
f 347/334/1187 353/581/1188 339/335/1189
f 133/282/1190 348/281/1191 347/343/1192
f 349/429/1193 350/457/1194 203/430/1195
f 350/457/1196 357/554/1197 343/458/1198
f 210/450/1199 343/456/1200 340/452/1201
f 351/463/1202 344/546/1203 77/248/1204
f 352/465/1205 349/429/1206 187/431/1207
f 380/166/1208 376/539/1209 336/510/1210
f 381/532/1211 379/18/217 4/17/1212
f 335/538/1213 374/565/1214 373/209/1215
f 375/160/1216 374/565/1217 335/538/1218
f 339/540/1219 353/550/1220 352/465/1221
f 340/541/1222 354/545/1223 351/463/1224
f 355/542/1225 356/558/1226 342/543/1227
f 342/543/1228 356/558/1229 345/544/1230
f 343/458/1231 357/554/1232 354/545/1233
f 344/546/1234 358/561/1235 360/547/1236
f 359/548/1237 362/551/1238 348/281/1239
f 360/547/1240 369/557/1241 355/542/1242
f 361/549/1243 367/563/1244 353/550/1245
f 362/551/1246 361/549/1247 347/343/1248
f 349/429/1249 363/564/1250 364/552/1251
f 350/457/1252 364/552/1253 371/553/1254
f 365/555/1255 358/561/1256 344/546/1257
f 366/556/1258 363/564/1259 349/429/1260
f 353/550/1261 367/563/1262 366/556/1263
f 354/545/1264 368/560/1265 365/555/1266
f 369/557/1267 370/559/1268 356/558/1269
f 370/559/1270 359/548/1271 345/544/1272
f 357/554/1273 371/553/1274 368/560/1275
