# Blender 4.1.1
# www.blender.org
mtllib cube-SUB-16.mtl
o Cube
v 1.000000 -1.000000 -1.000000
v 1.000000 -1.000000 1.000000
v -1.000000 -1.000000 1.000000
v -1.000000 -1.000000 -1.000000
v 1.000000 1.000000 -0.999999
v 0.999999 1.000000 1.000001
v -1.000000 1.000000 1.000000
v -1.000000 1.000000 -1.000000
v 1.000000 -1.000000 0.000000
v 0.000000 -1.000000 -1.000000
v 1.000000 0.000000 -1.000000
v 0.000000 -1.000000 1.000000
v 1.000000 0.000000 1.000000
v -1.000000 -1.000000 -0.000000
v -1.000000 0.000000 1.000000
v -1.000000 0.000000 -1.000000
v 1.000000 1.000000 0.000001
v 0.000000 1.000000 -1.000000
v -0.000001 1.000000 1.000000
v -1.000000 1.000000 -0.000000
v 0.000000 0.000000 -1.000000
v -1.000000 0.000000 -0.000000
v -0.000000 0.000000 1.000000
v 1.000000 0.000000 0.000000
v -0.000000 1.000000 0.000000
v 0.000000 -1.000000 -0.000000
v 1.000000 -1.000000 0.500000
v -0.500000 -1.000000 -1.000000
v 1.000000 0.500000 -1.000000
v -0.500000 -1.000000 1.000000
v 1.000000 0.500000 1.000000
v -1.000000 -1.000000 -0.500000
v -1.000000 0.500000 1.000000
v -1.000000 0.500000 -1.000000
v 1.000000 1.000000 0.500001
v -0.500000 1.000000 -1.000000
v -0.500000 1.000000 1.000000
v -1.000000 1.000000 -0.500000
v 1.000000 -1.000000 -0.500000
v 0.500000 -1.000000 -1.000000
v 1.000000 -0.500000 -1.000000
v 0.500000 -1.000000 1.000000
v 1.000000 -0.500000 1.000000
v -1.000000 -1.000000 0.500000
v -1.000000 -0.500000 1.000000
v -1.000000 -0.500000 -1.000000
v 1.000000 1.000000 -0.499999
v 0.500000 1.000000 -1.000000
v 0.499999 1.000000 1.000000
v -1.000000 1.000000 0.500000
v -0.500000 0.000000 -1.000000
v 0.500000 0.000000 -1.000000
v 0.000000 0.500000 -1.000000
v 0.000000 -0.500000 -1.000000
v -1.000000 0.000000 -0.500000
v -1.000000 0.000000 0.500000
v -1.000000 -0.500000 -0.000000
v -1.000000 0.500000 -0.000000
v -0.500000 0.000000 1.000000
v 0.500000 0.000000 1.000000
v -0.000000 -0.500000 1.000000
v -0.000000 0.500000 1.000000
v 1.000000 0.000000 0.500000
v 1.000000 0.000000 -0.500000
v 1.000000 -0.500000 0.000000
v 1.000000 0.500000 0.000000
v -0.000000 1.000000 0.500000
v 0.000000 1.000000 -0.500000
v 0.500000 1.000000 0.000000
v -0.500000 1.000000 0.000000
v -0.500000 -1.000000 -0.000000
v 0.500000 -1.000000 -0.000000
v 0.000000 -1.000000 -0.500000
v 0.000000 -1.000000 0.500000
v 0.500000 -1.000000 0.500000
v 0.500000 -1.000000 -0.500000
v -0.500000 -1.000000 -0.500000
v -0.500000 1.000000 -0.500000
v 0.500000 1.000000 -0.500000
v 0.500000 1.000000 0.500000
v 1.000000 0.500000 -0.500000
v 1.000000 -0.500000 -0.500000
v 1.000000 -0.500000 0.500000
v 0.500000 0.500000 1.000000
v 0.500000 -0.500000 1.000000
v -0.500000 -0.500000 1.000000
v -1.000000 0.500000 0.500000
v -1.000000 -0.500000 0.500000
v -1.000000 -0.500000 -0.500000
v 0.500000 -0.500000 -1.000000
v 0.500000 0.500000 -1.000000
v -0.500000 0.500000 -1.000000
v -0.500000 -0.500000 -1.000000
v -1.000000 0.500000 -0.500000
v -0.500000 0.500000 1.000000
v 1.000000 0.500000 0.500000
v -0.500000 1.000000 0.500000
v -0.500000 -1.000000 0.500000
v 1.000000 -1.000000 0.750000
v -0.750000 -1.000000 -1.000000
v 1.000000 0.750000 -1.000000
v -0.750000 -1.000000 1.000000
v 0.999999 0.750000 1.000000
v -1.000000 -1.000000 -0.750000
v -1.000000 0.750000 1.000000
v -1.000000 0.750000 -1.000000
v 1.000000 1.000000 0.750001
v -0.750000 1.000000 -1.000000
v -0.750000 1.000000 1.000000
v -1.000000 1.000000 -0.750000
v 1.000000 -1.000000 -0.250000
v 0.250000 -1.000000 -1.000000
v 1.000000 -0.250000 -1.000000
v 0.250000 -1.000000 1.000000
v 1.000000 -0.250000 1.000000
v -1.000000 -1.000000 0.250000
v -1.000000 -0.250000 1.000000
v -1.000000 -0.250000 -1.000000
v 1.000000 1.000000 -0.249999
v 0.250000 1.000000 -1.000000
v 0.249999 1.000000 1.000000
v -1.000000 1.000000 0.250000
v -0.750000 0.000000 -1.000000
v 0.250000 0.000000 -1.000000
v 0.000000 0.750000 -1.000000
v 0.000000 -0.250000 -1.000000
v -1.000000 0.000000 -0.750000
v -1.000000 0.000000 0.250000
v -1.000000 -0.750000 -0.000000
v -1.000000 0.250000 -0.000000
v -0.750000 0.000000 1.000000
v 0.250000 0.000000 1.000000
v -0.000000 -0.750000 1.000000
v -0.000000 0.250000 1.000000
v 1.000000 0.000000 0.750000
v 1.000000 0.000000 -0.250000
v 1.000000 -0.750000 0.000000
v 1.000000 0.250000 0.000000
v -0.000000 1.000000 0.750000
v -0.000000 1.000000 -0.250000
v 0.750000 1.000000 0.000000
v -0.250000 1.000000 0.000000
v -0.750000 -1.000000 -0.000000
v 0.250000 -1.000000 -0.000000
v 0.000000 -1.000000 -0.750000
v 0.000000 -1.000000 0.250000
v 1.000000 -1.000000 0.250000
v -0.250000 -1.000000 -1.000000
v 1.000000 0.250000 -1.000000
v -0.250000 -1.000000 1.000000
v 1.000000 0.250000 1.000000
v -1.000000 -1.000000 -0.250000
v -1.000000 0.250000 1.000000
v -1.000000 0.250000 -1.000000
v 1.000000 1.000000 0.250001
v -0.250000 1.000000 -1.000000
v -0.250001 1.000000 1.000000
v -1.000000 1.000000 -0.250000
v 1.000000 -1.000000 -0.750000
v 0.750000 -1.000000 -1.000000
v 1.000000 -0.750000 -1.000000
v 0.750000 -1.000000 1.000000
v 1.000000 -0.750000 1.000000
v -1.000000 -1.000000 0.750000
v -1.000000 -0.750000 1.000000
v -1.000000 -0.750000 -1.000000
v 1.000000 1.000000 -0.749999
v 0.750000 1.000000 -1.000000
v 0.749999 1.000000 1.000000
v -1.000000 1.000000 0.750000
v -0.250000 0.000000 -1.000000
v 0.750000 0.000000 -1.000000
v 0.000000 0.250000 -1.000000
v 0.000000 -0.750000 -1.000000
v -1.000000 0.000000 -0.250000
v -1.000000 0.000000 0.750000
v -1.000000 -0.250000 -0.000000
v -1.000000 0.750000 -0.000000
v -0.250000 0.000000 1.000000
v 0.750000 0.000000 1.000000
v -0.000000 -0.250000 1.000000
v -0.000000 0.750000 1.000000
v 1.000000 0.000000 0.250000
v 1.000000 0.000000 -0.750000
v 1.000000 -0.250000 0.000000
v 1.000000 0.750000 0.000000
v -0.000000 1.000000 0.250000
v 0.000000 1.000000 -0.750000
v 0.250000 1.000000 0.000000
v -0.750000 1.000000 -0.000000
v -0.250000 -1.000000 -0.000000
v 0.750000 -1.000000 0.000000
v 0.000000 -1.000000 -0.250000
v 0.000000 -1.000000 0.750000
v 0.250000 -1.000000 0.500000
v 0.750000 -1.000000 0.500000
v 0.500000 -1.000000 0.250000
v 0.500000 -1.000000 0.750000
v 0.250000 -1.000000 -0.500000
v 0.750000 -1.000000 -0.500000
v 0.500000 -1.000000 -0.750000
v 0.500000 -1.000000 -0.250000
v -0.750000 -1.000000 -0.500000
v -0.250000 -1.000000 -0.500000
v -0.500000 -1.000000 -0.750000
v -0.500000 -1.000000 -0.250000
v -0.500000 1.000000 -0.250000
v -0.500000 1.000000 -0.750000
v -0.250000 1.000000 -0.500000
v -0.750000 1.000000 -0.500000
v 0.500000 1.000000 -0.250000
v 0.500000 1.000000 -0.750000
v 0.750000 1.000000 -0.500000
v 0.250000 1.000000 -0.500000
v 0.500000 1.000000 0.750000
v 0.500000 1.000000 0.250000
v 0.750000 1.000000 0.500000
v 0.250000 1.000000 0.500000
v 1.000000 0.500000 -0.250000
v 1.000000 0.500000 -0.750000
v 1.000000 0.250000 -0.500000
v 1.000000 0.750000 -0.500000
v 1.000000 -0.500000 -0.250000
v 1.000000 -0.500000 -0.750000
v 1.000000 -0.750000 -0.500000
v 1.000000 -0.250000 -0.500000
v 1.000000 -0.500000 0.750000
v 1.000000 -0.500000 0.250000
v 1.000000 -0.750000 0.500000
v 1.000000 -0.250000 0.500000
v 0.250000 0.500000 1.000000
v 0.750000 0.500000 1.000000
v 0.500000 0.250000 1.000000
v 0.499999 0.750000 1.000000
v 0.250000 -0.500000 1.000000
v 0.750000 -0.500000 1.000000
v 0.500000 -0.750000 1.000000
v 0.500000 -0.250000 1.000000
v -0.750000 -0.500000 1.000000
v -0.250000 -0.500000 1.000000
v -0.500000 -0.750000 1.000000
v -0.500000 -0.250000 1.000000
v -1.000000 0.500000 0.250000
v -1.000000 0.500000 0.750000
v -1.000000 0.250000 0.500000
v -1.000000 0.750000 0.500000
v -1.000000 -0.500000 0.250000
v -1.000000 -0.500000 0.750000
v -1.000000 -0.750000 0.500000
v -1.000000 -0.250000 0.500000
v -1.000000 -0.500000 -0.750000
v -1.000000 -0.500000 -0.250000
v -1.000000 -0.750000 -0.500000
v -1.000000 -0.250000 -0.500000
v 0.250000 -0.500000 -1.000000
v 0.750000 -0.500000 -1.000000
v 0.500000 -0.250000 -1.000000
v 0.500000 -0.750000 -1.000000
v 0.250000 0.500000 -1.000000
v 0.750000 0.500000 -1.000000
v 0.500000 0.750000 -1.000000
v 0.500000 0.250000 -1.000000
v -0.750000 0.500000 -1.000000
v -0.250000 0.500000 -1.000000
v -0.500000 0.750000 -1.000000
v -0.500000 0.250000 -1.000000
v -0.750000 -0.500000 -1.000000
v -0.250000 -0.500000 -1.000000
v -0.500000 -0.250000 -1.000000
v -0.500000 -0.750000 -1.000000
v -1.000000 0.500000 -0.750000
v -1.000000 0.500000 -0.250000
v -1.000000 0.250000 -0.500000
v -1.000000 0.750000 -0.500000
v -0.750000 0.500000 1.000000
v -0.250000 0.500000 1.000000
v -0.500000 0.250000 1.000000
v -0.500000 0.750000 1.000000
v 1.000000 0.500000 0.750000
v 1.000000 0.500000 0.250000
v 1.000000 0.250000 0.500000
v 1.000000 0.750000 0.500000
v -0.500000 1.000000 0.750000
v -0.500000 1.000000 0.250000
v -0.250000 1.000000 0.500000
v -0.750000 1.000000 0.500000
v -0.750000 -1.000000 0.500000
v -0.250000 -1.000000 0.500000
v -0.500000 -1.000000 0.250000
v -0.500000 -1.000000 0.750000
v -0.250000 -1.000000 0.750000
v -0.250000 -1.000000 0.250000
v -0.750000 -1.000000 0.250000
v -0.750000 1.000000 0.250000
v -0.250000 1.000000 0.250000
v -0.250000 1.000000 0.750000
v 1.000000 0.750000 0.250000
v 1.000000 0.250000 0.250000
v 1.000000 0.250000 0.750000
v -0.250000 0.750000 1.000000
v -0.250000 0.250000 1.000000
v -0.750000 0.250000 1.000000
v -1.000000 0.750000 -0.250000
v -1.000000 0.250000 -0.250000
v -1.000000 0.250000 -0.750000
v -0.250000 -0.750000 -1.000000
v -0.250000 -0.250000 -1.000000
v -0.750000 -0.250000 -1.000000
v -0.250000 0.250000 -1.000000
v -0.250000 0.750000 -1.000000
v -0.750000 0.750000 -1.000000
v 0.750000 0.250000 -1.000000
v 0.750000 0.750000 -1.000000
v 0.250000 0.750000 -1.000000
v 0.750000 -0.750000 -1.000000
v 0.750000 -0.250000 -1.000000
v 0.250000 -0.250000 -1.000000
v -1.000000 -0.250000 -0.250000
v -1.000000 -0.750000 -0.250000
v -1.000000 -0.750000 -0.750000
v -1.000000 -0.250000 0.750000
v -1.000000 -0.750000 0.750000
v -1.000000 -0.750000 0.250000
v -1.000000 0.750000 0.750000
v -1.000000 0.250000 0.750000
v -1.000000 0.250000 0.250000
v -0.250000 -0.250000 1.000000
v -0.250000 -0.750000 1.000000
v -0.750000 -0.750000 1.000000
v 0.750000 -0.250000 1.000000
v 0.750000 -0.750000 1.000000
v 0.250000 -0.750000 1.000000
v 0.749999 0.750000 1.000000
v 0.750000 0.250000 1.000000
v 0.250000 0.250000 1.000000
v 1.000000 -0.250000 0.250000
v 1.000000 -0.750000 0.250000
v 1.000000 -0.750000 0.750000
v 1.000000 -0.250000 -0.750000
v 1.000000 -0.750000 -0.750000
v 1.000000 -0.750000 -0.250000
v 1.000000 0.750000 -0.750000
v 1.000000 0.250000 -0.750000
v 1.000000 0.250000 -0.250000
v 0.250000 1.000000 0.250000
v 0.750000 1.000000 0.250000
v 0.750000 1.000000 0.750000
v 0.250000 1.000000 -0.750000
v 0.750000 1.000000 -0.750000
v 0.750000 1.000000 -0.250000
v -0.750000 1.000000 -0.750000
v -0.250000 1.000000 -0.750000
v -0.250000 1.000000 -0.250000
v -0.250000 -1.000000 -0.250000
v -0.250000 -1.000000 -0.750000
v -0.750000 -1.000000 -0.750000
v 0.750000 -1.000000 -0.250000
v 0.750000 -1.000000 -0.750000
v 0.250000 -1.000000 -0.750000
v 0.750000 -1.000000 0.750000
v 0.750000 -1.000000 0.250000
v 0.250000 -1.000000 0.250000
v 0.250000 -1.000000 0.750000
v 0.250000 -1.000000 -0.250000
v -0.750000 -1.000000 -0.250000
v -0.750000 1.000000 -0.250000
v 0.250000 1.000000 -0.250000
v 0.250000 1.000000 0.750000
v 1.000000 0.750000 -0.250000
v 1.000000 -0.250000 -0.250000
v 1.000000 -0.250000 0.750000
v 0.249999 0.750000 1.000000
v 0.250000 -0.250000 1.000000
v -0.750000 -0.250000 1.000000
v -1.000000 0.750000 0.250000
v -1.000000 -0.250000 0.250000
v -1.000000 -0.250000 -0.750000
v 0.250000 -0.750000 -1.000000
v 0.250000 0.250000 -1.000000
v -0.750000 0.250000 -1.000000
v -0.750000 -0.750000 -1.000000
v -1.000000 0.750000 -0.750000
v -0.750000 0.750000 1.000000
v 1.000000 0.750000 0.750000
v -0.750000 1.000000 0.750000
v -0.750000 -1.000000 0.750000
vn -0.0000 -1.0000 -0.0000
vn -0.0000 1.0000 -0.0000
vn 1.0000 -0.0000 -0.0000
vn -0.0000 -0.0000 1.0000
vn -1.0000 -0.0000 -0.0000
vn -0.0000 -0.0000 -1.0000
vt 0.875000 0.875000
vt 1.000000 0.875000
vt 1.000000 1.000000
vt 0.875000 1.000000
vt 0.375000 0.875000
vt 0.500000 0.875000
vt 0.500000 1.000000
vt 0.375000 1.000000
vt 0.375000 0.375000
vt 0.500000 0.375000
vt 0.500000 0.500000
vt 0.375000 0.500000
vt 0.875000 0.375000
vt 1.000000 0.375000
vt 1.000000 0.500000
vt 0.875000 0.500000
vt 0.625000 0.375000
vt 0.750000 0.375000
vt 0.750000 0.500000
vt 0.625000 0.500000
vt 0.625000 0.125000
vt 0.750000 0.125000
vt 0.750000 0.250000
vt 0.625000 0.250000
vt 0.875000 0.125000
vt 1.000000 0.125000
vt 1.000000 0.250000
vt 0.875000 0.250000
vt 0.125000 0.375000
vt 0.250000 0.375000
vt 0.250000 0.500000
vt 0.125000 0.500000
vt 0.125000 0.125000
vt 0.250000 0.125000
vt 0.250000 0.250000
vt 0.125000 0.250000
vt 0.375000 0.125000
vt 0.500000 0.125000
vt 0.500000 0.250000
vt 0.375000 0.250000
vt 0.125000 0.875000
vt 0.250000 0.875000
vt 0.250000 1.000000
vt 0.125000 1.000000
vt 0.125000 0.625000
vt 0.250000 0.625000
vt 0.250000 0.750000
vt 0.125000 0.750000
vt 0.375000 0.625000
vt 0.500000 0.625000
vt 0.500000 0.750000
vt 0.375000 0.750000
vt 0.625000 0.875000
vt 0.750000 0.875000
vt 0.750000 1.000000
vt 0.625000 1.000000
vt 0.625000 0.625000
vt 0.750000 0.625000
vt 0.750000 0.750000
vt 0.625000 0.750000
vt 0.875000 0.625000
vt 1.000000 0.625000
vt 1.000000 0.750000
vt 0.875000 0.750000
vt 0.000000 0.625000
vt 0.000000 0.750000
vt 0.000000 0.500000
vt 0.000000 0.875000
vt 0.000000 1.000000
vt 0.250000 0.000000
vt 0.375000 0.000000
vt 0.500000 0.000000
vt 0.000000 0.125000
vt 0.000000 0.250000
vt 0.000000 0.000000
vt 0.125000 0.000000
vt 0.000000 0.375000
vt 0.750000 0.000000
vt 0.875000 0.000000
vt 1.000000 0.000000
vt 0.625000 0.000000
s 0
usemtl Material
f 386/1/1 102/2/1 3/3/1 164/4/1
f 385/1/2 170/2/2 7/3/2 109/4/2
f 384/1/3 107/2/3 6/3/3 103/4/3
f 383/1/4 109/2/4 7/3/4 105/4/4
f 382/1/5 110/2/5 8/3/5 106/4/5
f 381/1/6 100/2/6 4/3/6 166/4/6
f 380/5/6 123/6/6 16/7/6 154/8/6
f 379/9/6 124/10/6 21/11/6 173/12/6
f 378/13/6 112/14/6 10/15/6 174/16/6
f 377/5/5 127/6/5 16/7/5 118/8/5
f 376/9/5 128/10/5 22/11/5 177/12/5
f 375/13/5 122/14/5 20/15/5 178/16/5
f 374/5/4 131/6/4 15/7/4 117/8/4
f 373/9/4 132/10/4 23/11/4 181/12/4
f 372/13/4 121/14/4 19/15/4 182/16/4
f 371/5/3 135/6/3 13/7/3 115/8/3
f 370/9/3 136/10/3 24/11/3 185/12/3
f 369/13/3 119/14/3 17/15/3 186/16/3
f 368/5/2 139/6/2 19/7/2 121/8/2
f 367/9/2 140/10/2 25/11/2 189/12/2
f 366/13/2 158/14/2 20/15/2 190/16/2
f 365/5/1 143/6/1 14/7/1 152/8/1
f 364/9/1 144/10/1 26/11/1 193/12/1
f 363/13/1 114/14/1 12/15/1 194/16/1
f 362/17/1 195/18/1 74/19/1 146/20/1
f 361/21/1 196/22/1 75/23/1 197/24/1
f 360/25/1 162/26/1 42/27/1 198/28/1
f 359/29/1 199/30/1 73/31/1 145/32/1
f 358/33/1 200/34/1 76/35/1 201/36/1
f 357/37/1 192/38/1 72/39/1 202/40/1
f 356/41/1 203/42/1 32/43/1 104/44/1
f 355/45/1 204/46/1 77/47/1 205/48/1
f 354/49/1 191/50/1 71/51/1 206/52/1
f 353/17/2 207/18/2 70/19/2 142/20/2
f 352/21/2 208/22/2 78/23/2 209/24/2
f 351/25/2 110/26/2 38/27/2 210/28/2
f 350/29/2 211/30/2 69/31/2 141/32/2
f 349/33/2 212/34/2 79/35/2 213/36/2
f 348/37/2 188/38/2 68/39/2 214/40/2
f 347/41/2 215/42/2 49/43/2 169/44/2
f 346/45/2 216/46/2 80/47/2 217/48/2
f 345/49/2 187/50/2 67/51/2 218/52/2
f 344/17/3 219/18/3 66/19/3 138/20/3
f 343/21/3 220/22/3 81/23/3 221/24/3
f 342/25/3 167/26/3 47/27/3 222/28/3
f 341/29/3 223/30/3 65/31/3 137/32/3
f 340/33/3 224/34/3 82/35/3 225/36/3
f 339/37/3 184/38/3 64/39/3 226/40/3
f 338/41/3 227/42/3 43/43/3 163/44/3
f 337/45/3 228/46/3 83/47/3 229/48/3
f 336/49/3 183/50/3 63/51/3 230/52/3
f 335/17/4 231/18/4 62/19/4 134/20/4
f 334/21/4 232/22/4 84/23/4 233/24/4
f 333/25/4 169/26/4 49/27/4 234/28/4
f 332/29/4 235/30/4 61/31/4 133/32/4
f 331/33/4 236/34/4 85/35/4 237/36/4
f 330/37/4 180/38/4 60/39/4 238/40/4
f 329/41/4 239/42/4 45/43/4 165/44/4
f 328/45/4 240/46/4 86/47/4 241/48/4
f 327/49/4 179/50/4 59/51/4 242/52/4
f 326/17/5 243/18/5 58/19/5 130/20/5
f 325/21/5 244/22/5 87/23/5 245/24/5
f 324/25/5 170/26/5 50/27/5 246/28/5
f 323/29/5 247/30/5 57/31/5 129/32/5
f 322/33/5 248/34/5 88/35/5 249/36/5
f 321/37/5 176/38/5 56/39/5 250/40/5
f 320/41/5 251/42/5 46/43/5 166/44/5
f 319/45/5 252/46/5 89/47/5 253/48/5
f 318/49/5 175/50/5 55/51/5 254/52/5
f 317/17/6 255/18/6 54/19/6 126/20/6
f 316/21/6 256/22/6 90/23/6 257/24/6
f 315/25/6 160/26/6 40/27/6 258/28/6
f 314/29/6 259/30/6 53/31/6 125/32/6
f 313/33/6 260/34/6 91/35/6 261/36/6
f 312/37/6 172/38/6 52/39/6 262/40/6
f 311/41/6 263/42/6 34/43/6 106/44/6
f 310/45/6 264/46/6 92/47/6 265/48/6
f 309/49/6 171/50/6 51/51/6 266/52/6
f 308/53/6 267/54/6 46/55/6 118/56/6
f 307/57/6 268/58/6 93/59/6 269/60/6
f 306/61/6 148/62/6 28/63/6 270/64/6
f 305/53/5 271/54/5 34/55/5 154/56/5
f 304/57/5 272/58/5 94/59/5 273/60/5
f 303/61/5 158/62/5 38/63/5 274/64/5
f 302/53/4 275/54/4 33/55/4 153/56/4
f 301/57/4 276/58/4 95/59/4 277/60/4
f 300/61/4 157/62/4 37/63/4 278/64/4
f 299/53/3 279/54/3 31/55/3 151/56/3
f 298/57/3 280/58/3 96/59/3 281/60/3
f 297/61/3 155/62/3 35/63/3 282/64/3
f 296/53/2 283/54/2 37/55/2 157/56/2
f 295/57/2 284/58/2 97/59/2 285/60/2
f 294/61/2 122/62/2 50/63/2 286/64/2
f 293/53/1 287/54/1 44/55/1 116/56/1
f 292/57/1 288/58/1 98/59/1 289/60/1
f 291/61/1 150/62/1 30/63/1 290/64/1
f 288/58/1 291/61/1 290/64/1 98/59/1
f 74/19/1 194/16/1 291/61/1 288/58/1
f 194/16/1 12/15/1 150/62/1 291/61/1
f 191/50/1 292/57/1 289/60/1 71/51/1
f 26/11/1 146/20/1 292/57/1 191/50/1
f 146/20/1 74/19/1 288/58/1 292/57/1
f 143/6/1 293/53/1 116/56/1 14/7/1
f 71/51/1 289/60/1 293/53/1 143/6/1
f 289/60/1 98/59/1 287/54/1 293/53/1
f 284/58/2 294/61/2 286/64/2 97/59/2
f 70/19/2 190/16/2 294/61/2 284/58/2
f 190/16/2 20/15/2 122/62/2 294/61/2
f 187/50/2 295/57/2 285/60/2 67/51/2
f 25/11/2 142/20/2 295/57/2 187/50/2
f 142/20/2 70/19/2 284/58/2 295/57/2
f 139/6/2 296/53/2 157/56/2 19/7/2
f 67/51/2 285/60/2 296/53/2 139/6/2
f 285/60/2 97/59/2 283/54/2 296/53/2
f 280/58/3 297/61/3 282/64/3 96/59/3
f 66/19/3 186/16/3 297/61/3 280/58/3
f 186/16/3 17/15/3 155/62/3 297/61/3
f 183/50/3 298/57/3 281/60/3 63/51/3
f 24/11/3 138/20/3 298/57/3 183/50/3
f 138/20/3 66/19/3 280/58/3 298/57/3
f 135/6/3 299/53/3 151/56/3 13/7/3
f 63/51/3 281/60/3 299/53/3 135/6/3
f 281/60/3 96/59/3 279/54/3 299/53/3
f 276/58/4 300/61/4 278/64/4 95/59/4
f 62/19/4 182/16/4 300/61/4 276/58/4
f 182/16/4 19/15/4 157/62/4 300/61/4
f 179/50/4 301/57/4 277/60/4 59/51/4
f 23/11/4 134/20/4 301/57/4 179/50/4
f 134/20/4 62/19/4 276/58/4 301/57/4
f 131/6/4 302/53/4 153/56/4 15/7/4
f 59/51/4 277/60/4 302/53/4 131/6/4
f 277/60/4 95/59/4 275/54/4 302/53/4
f 272/58/5 303/61/5 274/64/5 94/59/5
f 58/19/5 178/16/5 303/61/5 272/58/5
f 178/16/5 20/15/5 158/62/5 303/61/5
f 175/50/5 304/57/5 273/60/5 55/51/5
f 22/11/5 130/20/5 304/57/5 175/50/5
f 130/20/5 58/19/5 272/58/5 304/57/5
f 127/6/5 305/53/5 154/56/5 16/7/5
f 55/51/5 273/60/5 305/53/5 127/6/5
f 273/60/5 94/59/5 271/54/5 305/53/5
f 268/58/6 306/61/6 270/64/6 93/59/6
f 54/19/6 174/16/6 306/61/6 268/58/6
f 174/16/6 10/15/6 148/62/6 306/61/6
f 171/50/6 307/57/6 269/60/6 51/51/6
f 21/11/6 126/20/6 307/57/6 171/50/6
f 126/20/6 54/19/6 268/58/6 307/57/6
f 123/6/6 308/53/6 118/56/6 16/7/6
f 51/51/6 269/60/6 308/53/6 123/6/6
f 269/60/6 93/59/6 267/54/6 308/53/6
f 264/46/6 309/49/6 266/52/6 92/47/6
f 53/31/6 173/12/6 309/49/6 264/46/6
f 173/12/6 21/11/6 171/50/6 309/49/6
f 156/65/6 310/45/6 265/48/6 36/66/6
f 18/67/6 125/32/6 310/45/6 156/65/6
f 125/32/6 53/31/6 264/46/6 310/45/6
f 108/68/6 311/41/6 106/44/6 8/69/6
f 36/66/6 265/48/6 311/41/6 108/68/6
f 265/48/6 92/47/6 263/42/6 311/41/6
f 260/34/6 312/37/6 262/40/6 91/35/6
f 29/70/6 149/71/6 312/37/6 260/34/6
f 149/71/6 11/72/6 172/38/6 312/37/6
f 168/73/6 313/33/6 261/36/6 48/74/6
f 5/75/6 101/76/6 313/33/6 168/73/6
f 101/76/6 29/70/6 260/34/6 313/33/6
f 120/77/6 314/29/6 125/32/6 18/67/6
f 48/74/6 261/36/6 314/29/6 120/77/6
f 261/36/6 91/35/6 259/30/6 314/29/6
f 256/22/6 315/25/6 258/28/6 90/23/6
f 41/78/6 161/79/6 315/25/6 256/22/6
f 161/79/6 1/80/6 160/26/6 315/25/6
f 172/38/6 316/21/6 257/24/6 52/39/6
f 11/72/6 113/81/6 316/21/6 172/38/6
f 113/81/6 41/78/6 256/22/6 316/21/6
f 124/10/6 317/17/6 126/20/6 21/11/6
f 52/39/6 257/24/6 317/17/6 124/10/6
f 257/24/6 90/23/6 255/18/6 317/17/6
f 252/46/5 318/49/5 254/52/5 89/47/5
f 57/31/5 177/12/5 318/49/5 252/46/5
f 177/12/5 22/11/5 175/50/5 318/49/5
f 152/65/5 319/45/5 253/48/5 32/66/5
f 14/67/5 129/32/5 319/45/5 152/65/5
f 129/32/5 57/31/5 252/46/5 319/45/5
f 104/68/5 320/41/5 166/44/5 4/69/5
f 32/66/5 253/48/5 320/41/5 104/68/5
f 253/48/5 89/47/5 251/42/5 320/41/5
f 248/34/5 321/37/5 250/40/5 88/35/5
f 45/70/5 117/71/5 321/37/5 248/34/5
f 117/71/5 15/72/5 176/38/5 321/37/5
f 164/73/5 322/33/5 249/36/5 44/74/5
f 3/75/5 165/76/5 322/33/5 164/73/5
f 165/76/5 45/70/5 248/34/5 322/33/5
f 116/77/5 323/29/5 129/32/5 14/67/5
f 44/74/5 249/36/5 323/29/5 116/77/5
f 249/36/5 88/35/5 247/30/5 323/29/5
f 244/22/5 324/25/5 246/28/5 87/23/5
f 33/78/5 105/79/5 324/25/5 244/22/5
f 105/79/5 7/80/5 170/26/5 324/25/5
f 176/38/5 325/21/5 245/24/5 56/39/5
f 15/72/5 153/81/5 325/21/5 176/38/5
f 153/81/5 33/78/5 244/22/5 325/21/5
f 128/10/5 326/17/5 130/20/5 22/11/5
f 56/39/5 245/24/5 326/17/5 128/10/5
f 245/24/5 87/23/5 243/18/5 326/17/5
f 240/46/4 327/49/4 242/52/4 86/47/4
f 61/31/4 181/12/4 327/49/4 240/46/4
f 181/12/4 23/11/4 179/50/4 327/49/4
f 150/65/4 328/45/4 241/48/4 30/66/4
f 12/67/4 133/32/4 328/45/4 150/65/4
f 133/32/4 61/31/4 240/46/4 328/45/4
f 102/68/4 329/41/4 165/44/4 3/69/4
f 30/66/4 241/48/4 329/41/4 102/68/4
f 241/48/4 86/47/4 239/42/4 329/41/4
f 236/34/4 330/37/4 238/40/4 85/35/4
f 43/70/4 115/71/4 330/37/4 236/34/4
f 115/71/4 13/72/4 180/38/4 330/37/4
f 162/73/4 331/33/4 237/36/4 42/74/4
f 2/75/4 163/76/4 331/33/4 162/73/4
f 163/76/4 43/70/4 236/34/4 331/33/4
f 114/77/4 332/29/4 133/32/4 12/67/4
f 42/74/4 237/36/4 332/29/4 114/77/4
f 237/36/4 85/35/4 235/30/4 332/29/4
f 232/22/4 333/25/4 234/28/4 84/23/4
f 31/78/4 103/79/4 333/25/4 232/22/4
f 103/79/4 6/80/4 169/26/4 333/25/4
f 180/38/4 334/21/4 233/24/4 60/39/4
f 13/72/4 151/81/4 334/21/4 180/38/4
f 151/81/4 31/78/4 232/22/4 334/21/4
f 132/10/4 335/17/4 134/20/4 23/11/4
f 60/39/4 233/24/4 335/17/4 132/10/4
f 233/24/4 84/23/4 231/18/4 335/17/4
f 228/46/3 336/49/3 230/52/3 83/47/3
f 65/31/3 185/12/3 336/49/3 228/46/3
f 185/12/3 24/11/3 183/50/3 336/49/3
f 147/65/3 337/45/3 229/48/3 27/66/3
f 9/67/3 137/32/3 337/45/3 147/65/3
f 137/32/3 65/31/3 228/46/3 337/45/3
f 99/68/3 338/41/3 163/44/3 2/69/3
f 27/66/3 229/48/3 338/41/3 99/68/3
f 229/48/3 83/47/3 227/42/3 338/41/3
f 224/34/3 339/37/3 226/40/3 82/35/3
f 41/70/3 113/71/3 339/37/3 224/34/3
f 113/71/3 11/72/3 184/38/3 339/37/3
f 159/73/3 340/33/3 225/36/3 39/74/3
f 1/75/3 161/76/3 340/33/3 159/73/3
f 161/76/3 41/70/3 224/34/3 340/33/3
f 111/77/3 341/29/3 137/32/3 9/67/3
f 39/74/3 225/36/3 341/29/3 111/77/3
f 225/36/3 82/35/3 223/30/3 341/29/3
f 220/22/3 342/25/3 222/28/3 81/23/3
f 29/78/3 101/79/3 342/25/3 220/22/3
f 101/79/3 5/80/3 167/26/3 342/25/3
f 184/38/3 343/21/3 221/24/3 64/39/3
f 11/72/3 149/81/3 343/21/3 184/38/3
f 149/81/3 29/78/3 220/22/3 343/21/3
f 136/10/3 344/17/3 138/20/3 24/11/3
f 64/39/3 221/24/3 344/17/3 136/10/3
f 221/24/3 81/23/3 219/18/3 344/17/3
f 216/46/2 345/49/2 218/52/2 80/47/2
f 69/31/2 189/12/2 345/49/2 216/46/2
f 189/12/2 25/11/2 187/50/2 345/49/2
f 155/65/2 346/45/2 217/48/2 35/66/2
f 17/67/2 141/32/2 346/45/2 155/65/2
f 141/32/2 69/31/2 216/46/2 346/45/2
f 107/68/2 347/41/2 169/44/2 6/69/2
f 35/66/2 217/48/2 347/41/2 107/68/2
f 217/48/2 80/47/2 215/42/2 347/41/2
f 212/34/2 348/37/2 214/40/2 79/35/2
f 48/70/2 120/71/2 348/37/2 212/34/2
f 120/71/2 18/72/2 188/38/2 348/37/2
f 167/73/2 349/33/2 213/36/2 47/74/2
f 5/75/2 168/76/2 349/33/2 167/73/2
f 168/76/2 48/70/2 212/34/2 349/33/2
f 119/77/2 350/29/2 141/32/2 17/67/2
f 47/74/2 213/36/2 350/29/2 119/77/2
f 213/36/2 79/35/2 211/30/2 350/29/2
f 208/22/2 351/25/2 210/28/2 78/23/2
f 36/78/2 108/79/2 351/25/2 208/22/2
f 108/79/2 8/80/2 110/26/2 351/25/2
f 188/38/2 352/21/2 209/24/2 68/39/2
f 18/72/2 156/81/2 352/21/2 188/38/2
f 156/81/2 36/78/2 208/22/2 352/21/2
f 140/10/2 353/17/2 142/20/2 25/11/2
f 68/39/2 209/24/2 353/17/2 140/10/2
f 209/24/2 78/23/2 207/18/2 353/17/2
f 204/46/1 354/49/1 206/52/1 77/47/1
f 73/31/1 193/12/1 354/49/1 204/46/1
f 193/12/1 26/11/1 191/50/1 354/49/1
f 148/65/1 355/45/1 205/48/1 28/66/1
f 10/67/1 145/32/1 355/45/1 148/65/1
f 145/32/1 73/31/1 204/46/1 355/45/1
f 100/68/1 356/41/1 104/44/1 4/69/1
f 28/66/1 205/48/1 356/41/1 100/68/1
f 205/48/1 77/47/1 203/42/1 356/41/1
f 200/34/1 357/37/1 202/40/1 76/35/1
f 39/70/1 111/71/1 357/37/1 200/34/1
f 111/71/1 9/72/1 192/38/1 357/37/1
f 160/73/1 358/33/1 201/36/1 40/74/1
f 1/75/1 159/76/1 358/33/1 160/73/1
f 159/76/1 39/70/1 200/34/1 358/33/1
f 112/77/1 359/29/1 145/32/1 10/67/1
f 40/74/1 201/36/1 359/29/1 112/77/1
f 201/36/1 76/35/1 199/30/1 359/29/1
f 196/22/1 360/25/1 198/28/1 75/23/1
f 27/78/1 99/79/1 360/25/1 196/22/1
f 99/79/1 2/80/1 162/26/1 360/25/1
f 192/38/1 361/21/1 197/24/1 72/39/1
f 9/72/1 147/81/1 361/21/1 192/38/1
f 147/81/1 27/78/1 196/22/1 361/21/1
f 144/10/1 362/17/1 146/20/1 26/11/1
f 72/39/1 197/24/1 362/17/1 144/10/1
f 197/24/1 75/23/1 195/18/1 362/17/1
f 195/18/1 363/13/1 194/16/1 74/19/1
f 75/23/1 198/28/1 363/13/1 195/18/1
f 198/28/1 42/27/1 114/14/1 363/13/1
f 199/30/1 364/9/1 193/12/1 73/31/1
f 76/35/1 202/40/1 364/9/1 199/30/1
f 202/40/1 72/39/1 144/10/1 364/9/1
f 203/42/1 365/5/1 152/8/1 32/43/1
f 77/47/1 206/52/1 365/5/1 203/42/1
f 206/52/1 71/51/1 143/6/1 365/5/1
f 207/18/2 366/13/2 190/16/2 70/19/2
f 78/23/2 210/28/2 366/13/2 207/18/2
f 210/28/2 38/27/2 158/14/2 366/13/2
f 211/30/2 367/9/2 189/12/2 69/31/2
f 79/35/2 214/40/2 367/9/2 211/30/2
f 214/40/2 68/39/2 140/10/2 367/9/2
f 215/42/2 368/5/2 121/8/2 49/43/2
f 80/47/2 218/52/2 368/5/2 215/42/2
f 218/52/2 67/51/2 139/6/2 368/5/2
f 219/18/3 369/13/3 186/16/3 66/19/3
f 81/23/3 222/28/3 369/13/3 219/18/3
f 222/28/3 47/27/3 119/14/3 369/13/3
f 223/30/3 370/9/3 185/12/3 65/31/3
f 82/35/3 226/40/3 370/9/3 223/30/3
f 226/40/3 64/39/3 136/10/3 370/9/3
f 227/42/3 371/5/3 115/8/3 43/43/3
f 83/47/3 230/52/3 371/5/3 227/42/3
f 230/52/3 63/51/3 135/6/3 371/5/3
f 231/18/4 372/13/4 182/16/4 62/19/4
f 84/23/4 234/28/4 372/13/4 231/18/4
f 234/28/4 49/27/4 121/14/4 372/13/4
f 235/30/4 373/9/4 181/12/4 61/31/4
f 85/35/4 238/40/4 373/9/4 235/30/4
f 238/40/4 60/39/4 132/10/4 373/9/4
f 239/42/4 374/5/4 117/8/4 45/43/4
f 86/47/4 242/52/4 374/5/4 239/42/4
f 242/52/4 59/51/4 131/6/4 374/5/4
f 243/18/5 375/13/5 178/16/5 58/19/5
f 87/23/5 246/28/5 375/13/5 243/18/5
f 246/28/5 50/27/5 122/14/5 375/13/5
f 247/30/5 376/9/5 177/12/5 57/31/5
f 88/35/5 250/40/5 376/9/5 247/30/5
f 250/40/5 56/39/5 128/10/5 376/9/5
f 251/42/5 377/5/5 118/8/5 46/43/5
f 89/47/5 254/52/5 377/5/5 251/42/5
f 254/52/5 55/51/5 127/6/5 377/5/5
f 255/18/6 378/13/6 174/16/6 54/19/6
f 90/23/6 258/28/6 378/13/6 255/18/6
f 258/28/6 40/27/6 112/14/6 378/13/6
f 259/30/6 379/9/6 173/12/6 53/31/6
f 91/35/6 262/40/6 379/9/6 259/30/6
f 262/40/6 52/39/6 124/10/6 379/9/6
f 263/42/6 380/5/6 154/8/6 34/43/6
f 92/47/6 266/52/6 380/5/6 263/42/6
f 266/52/6 51/51/6 123/6/6 380/5/6
f 267/54/6 381/1/6 166/4/6 46/55/6
f 93/59/6 270/64/6 381/1/6 267/54/6
f 270/64/6 28/63/6 100/2/6 381/1/6
f 271/54/5 382/1/5 106/4/5 34/55/5
f 94/59/5 274/64/5 382/1/5 271/54/5
f 274/64/5 38/63/5 110/2/5 382/1/5
f 275/54/4 383/1/4 105/4/4 33/55/4
f 95/59/4 278/64/4 383/1/4 275/54/4
f 278/64/4 37/63/4 109/2/4 383/1/4
f 279/54/3 384/1/3 103/4/3 31/55/3
f 96/59/3 282/64/3 384/1/3 279/54/3
f 282/64/3 35/63/3 107/2/3 384/1/3
f 283/54/2 385/1/2 109/4/2 37/55/2
f 97/59/2 286/64/2 385/1/2 283/54/2
f 286/64/2 50/63/2 170/2/2 385/1/2
f 287/54/1 386/1/1 164/4/1 44/55/1
f 98/59/1 290/64/1 386/1/1 287/54/1
f 290/64/1 30/63/1 102/2/1 386/1/1
