# Blender 4.1.1
# www.blender.org
mtllib flipperBigBox.mtl
o flipperBigBox
v -1.891986 -1.996179 0.046201
v -1.891986 1.996179 0.046201
v 1.891986 -1.996179 0.046201
v 1.891986 1.996179 0.046201
v -2.140934 -2.258836 -0.998447
v -2.140934 2.258836 -0.998447
v 2.140934 -2.258836 -0.998447
v 2.140934 2.258836 -0.998447
v 2.140934 -2.258836 0.677347
v -2.140934 -2.258836 0.677346
v -2.140934 2.258836 0.677346
v 2.140934 2.258836 0.677347
vn -0.0000 -0.0000 1.0000
vn 1.0000 -0.0000 -0.0000
vn -0.0000 -0.0000 -1.0000
vn -1.0000 -0.0000 -0.0000
vn -0.0000 -1.0000 -0.0000
vn -0.0000 1.0000 -0.0000
vn -0.0000 0.9232 0.3842
vn 0.9302 -0.0000 0.3669
vn -0.0000 -0.9232 0.3842
vn -0.9303 -0.0000 0.3669
vt 0.031231 0.033904
vt 0.031231 0.982023
vt 0.979350 0.982023
vt 0.040619 0.192527
vt 0.040619 0.307473
vt 0.136682 0.307473
vt 0.040619 0.077582
vt 0.194723 0.165596
vt 0.194723 0.085778
vt 0.295362 0.151405
vt 0.155564 0.307473
vt 0.385787 0.043207
vt 0.295362 0.043207
vt 0.077406 0.314156
vt 0.077406 0.415735
vt 0.114193 0.422418
vt 0.150980 0.415735
vt 0.150980 0.314156
vt 0.114193 0.307473
vt 0.187767 0.422418
vt 0.979350 0.033904
vt 0.181611 0.165596
vt 0.241902 0.273221
vt 0.385787 0.151405
vt 0.040619 0.422418
vt 0.187767 0.307473
s 0
f 2/1/1 1/2/1 3/3/1
f 12/4/2 9/5/2 7/6/2
f 8/7/3 7/4/3 5/8/3
f 6/9/4 5/8/4 10/10/4
f 7/10/5 9/8/5 10/11/5
f 12/12/6 8/13/6 6/10/6
f 3/14/7 1/15/7 10/16/7
f 1/15/8 2/14/8 11/5/8
f 2/17/9 4/18/9 12/19/9
f 4/18/10 3/17/10 9/20/10
f 2/1/1 3/3/1 4/21/1
f 12/4/2 7/6/2 8/22/2
f 8/7/3 5/8/3 6/9/3
f 6/9/4 10/10/4 11/13/4
f 7/10/5 10/11/5 5/23/5
f 12/12/6 6/10/6 11/24/6
f 3/14/7 10/16/7 9/19/7
f 1/15/8 11/5/8 10/25/8
f 2/17/9 12/19/9 11/16/9
f 4/18/10 9/20/10 12/26/10
