# Blender 4.1.1
# www.blender.org
mtllib plane-subdivine-16.mtl
o Plane
v -1.000000 0.000000 1.000000
v 1.000000 0.000000 1.000000
v -1.000000 -0.000000 -1.000000
v 1.000000 -0.000000 -1.000000
v -0.500000 -0.000000 -1.000000
v 0.000000 -0.000000 -1.000000
v 0.500000 -0.000000 -1.000000
v -0.500000 0.000000 1.000000
v 0.000000 0.000000 1.000000
v 0.500000 0.000000 1.000000
v -1.000000 0.000000 0.500000
v -1.000000 0.000000 0.000000
v -1.000000 -0.000000 -0.500000
v 1.000000 0.000000 0.500000
v 1.000000 0.000000 0.000000
v 1.000000 -0.000000 -0.500000
v -0.500000 0.000000 0.500000
v -0.500000 0.000000 0.000000
v -0.500000 -0.000000 -0.500000
v 0.000000 0.000000 0.500000
v 0.000000 0.000000 0.000000
v 0.000000 -0.000000 -0.500000
v 0.500000 0.000000 0.500000
v 0.500000 0.000000 0.000000
v 0.500000 -0.000000 -0.500000
vn -0.0000 1.0000 -0.0000
vt 0.250050 0.250050
vt 0.000100 0.250050
vt 0.000100 0.000100
vt 0.250050 0.000100
vt 0.999900 0.250050
vt 0.749950 0.250050
vt 0.749950 0.000100
vt 0.999900 0.000100
vt 0.500000 0.250050
vt 0.500000 0.000100
vt 0.999900 0.999900
vt 0.749950 0.999900
vt 0.749950 0.749950
vt 0.999900 0.749950
vt 0.749950 0.500000
vt 0.999900 0.500000
vt 0.500000 0.999900
vt 0.500000 0.749950
vt 0.500000 0.500000
vt 0.250050 0.999900
vt 0.250050 0.749950
vt 0.250050 0.500000
vt 0.000100 0.999900
vt 0.000100 0.749950
vt 0.000100 0.500000
s 0
f 25/1/1 16/2/1 4/3/1 7/4/1
f 13/5/1 19/6/1 5/7/1 3/8/1
f 19/6/1 22/9/1 6/10/1 5/7/1
f 22/9/1 25/1/1 7/4/1 6/10/1
f 1/11/1 8/12/1 17/13/1 11/14/1
f 11/14/1 17/13/1 18/15/1 12/16/1
f 12/16/1 18/15/1 19/6/1 13/5/1
f 8/12/1 9/17/1 20/18/1 17/13/1
f 17/13/1 20/18/1 21/19/1 18/15/1
f 18/15/1 21/19/1 22/9/1 19/6/1
f 9/17/1 10/20/1 23/21/1 20/18/1
f 20/18/1 23/21/1 24/22/1 21/19/1
f 21/19/1 24/22/1 25/1/1 22/9/1
f 10/20/1 2/23/1 14/24/1 23/21/1
f 23/21/1 14/24/1 15/25/1 24/22/1
f 24/22/1 15/25/1 16/2/1 25/1/1
