# Blender 4.1.1
# www.blender.org
mtllib pushBtn.mtl
g Cylinder_Mesh
v -0.407322 0.193456 -1.456607
v 0.995766 -0.173990 -1.573643
v 0.744532 0.192815 -1.316682
v 1.614129 -0.173990 -0.899514
v 1.861654 -0.173990 -0.046320
v 1.456607 0.193456 -0.407322
v 1.573643 -0.173990 0.995766
v 1.316682 0.192815 0.744532
v 0.899514 -0.173990 1.614129
v 0.046320 -0.173990 1.861654
v 0.407322 0.193456 1.456607
v -0.995766 -0.173990 1.573643
v -0.744532 0.192815 1.316682
v -1.614129 -0.173990 0.899514
v -1.861654 -0.173990 0.046320
v -1.456607 0.193456 0.407322
v -1.573643 -0.173990 -0.995766
v -1.316682 0.192815 -0.744532
v -0.899514 -0.173990 -1.614129
v -0.046320 -0.173990 -1.861654
v 0.213337 0.174001 -1.835452
v 1.072713 0.174028 -1.522060
v 1.737539 0.174028 -0.669580
v 1.835452 0.174001 0.213337
v 1.522060 0.174028 1.072713
v 0.669580 0.174028 1.737539
v -0.213337 0.174001 1.835452
v -1.072713 0.174028 1.522060
v -1.737539 0.174028 0.669580
v -1.835452 0.174001 -0.213337
v -1.522060 0.174028 -1.072713
v -0.669580 0.174028 -1.737539
v -0.156602 0.782380 -1.476836
v 0.571871 0.781444 -1.383178
v 1.147874 0.781030 -0.942816
v 1.421297 0.781030 -0.431776
v 1.468167 0.781444 0.291038
v 1.148639 0.781030 0.941884
v 0.713734 0.779655 1.302297
v 0.156602 0.782380 1.476836
v -0.430623 0.781030 1.421647
v -0.941884 0.781030 1.148639
v -1.302297 0.779655 0.713734
v -1.476836 0.782380 0.156602
v -1.421647 0.781030 -0.430623
v -1.148639 0.781030 -0.941884
v -0.713734 0.779655 -1.302297
v -0.443225 0.844549 -1.325475
v 0.398974 0.844528 -1.315237
v 1.076297 0.844542 -0.883294
v 1.382174 0.844538 -0.034390
v 1.104934 0.844541 0.855858
v 0.303380 0.844535 1.348912
v -0.497167 0.844532 1.290133
v -1.045096 0.844530 0.888812
v -1.348918 0.844532 0.303381
v -1.250666 0.844545 -0.623848
vn 0.2643 -0.1252 -0.9563
vn 0.7355 -0.0626 -0.6746
vn 0.9489 -0.1546 -0.2753
vn 0.9563 -0.1252 0.2643
vn 0.6746 -0.0626 0.7355
vn 0.2753 -0.1546 0.9489
vn -0.2643 -0.1252 0.9563
vn -0.7355 -0.0626 0.6746
vn -0.9489 -0.1546 0.2753
vn -0.9563 -0.1252 -0.2643
vn -0.6746 -0.0626 -0.7355
vn -0.2753 -0.1546 -0.9489
vn -0.0000 -1.0000 -0.0000
vn 0.0381 0.9988 -0.0305
vn 0.0305 0.9988 0.0381
vn -0.0381 0.9988 0.0305
vn -0.0305 0.9988 -0.0381
vn 0.6124 -0.1142 0.7822
vn 0.1202 -0.0766 -0.9898
vn -0.6124 -0.1142 -0.7822
vn -0.1198 -0.1121 0.9865
vn 0.7789 -0.1465 -0.6098
vn -0.7822 -0.1142 0.6124
vn 0.9798 -0.1605 0.1189
vn -0.9865 -0.1121 -0.1198
vn -0.0000 1.0000 -0.0000
vn -0.2468 0.9210 -0.3013
vn 0.2081 0.9220 -0.3264
vn -0.0446 0.8906 0.4526
vn 0.3486 0.8194 -0.4551
vn -0.2826 0.8000 0.5293
vn 0.5039 0.8206 -0.2696
vn -0.4605 0.8026 0.3791
vn 0.6974 0.7152 -0.0456
vn 0.5702 0.7722 0.2804
vn -0.3858 0.9218 -0.0384
vn 0.3551 0.8292 0.4317
vn -0.6422 0.6855 -0.3429
vn 0.0744 0.8181 -0.5703
vn 0.3419 0.0634 -0.9376
vn 0.7823 0.1257 -0.6101
vn 0.9819 0.1552 -0.1089
vn 0.9376 0.0634 0.3419
vn 0.6101 0.1257 0.7823
vn 0.1089 0.1552 0.9819
vn -0.3419 0.0634 0.9376
vn -0.7823 0.1257 0.6101
vn -0.9819 0.1552 0.1089
vn -0.9376 0.0634 -0.3419
vn -0.6101 0.1257 -0.7823
vn -0.1089 0.1552 -0.9819
vn 0.0057 0.9991 -0.0420
vn 0.0210 0.9981 -0.0577
vn 0.0400 0.9987 -0.0312
vn 0.0626 0.9980 -0.0069
vn 0.0420 0.9991 0.0057
vn 0.0577 0.9981 0.0210
vn 0.0312 0.9987 0.0400
vn 0.0069 0.9980 0.0626
vn -0.0057 0.9991 0.0420
vn -0.0210 0.9981 0.0577
vn -0.0400 0.9987 0.0312
vn -0.0626 0.9980 0.0069
vn -0.0420 0.9991 -0.0057
vn -0.0577 0.9981 -0.0210
vn -0.0312 0.9987 -0.0400
vn -0.0069 0.9980 -0.0626
vn 0.1910 0.7788 0.5975
vn 0.6364 -0.0757 0.7676
vn -0.8782 0.0936 -0.4690
vn 0.1269 -0.0880 -0.9880
vn 0.2980 0.0943 0.9499
vn -0.6364 -0.0757 -0.7676
vn -0.0931 -0.0738 0.9929
vn 0.6050 0.0881 -0.7913
vn -0.2980 0.0943 -0.9499
vn -0.4690 0.0936 0.8782
vn 0.8812 0.0333 -0.4715
vn -0.7676 -0.0757 0.6364
vn 0.9963 0.0572 -0.0646
vn -0.9499 0.0943 0.2980
vn 0.8924 0.1079 0.4382
vn -0.9929 -0.0738 -0.0931
vn -0.2259 0.9388 -0.2600
vn -0.0300 0.9122 0.4088
vn -0.2227 0.6782 -0.7003
vn -0.2322 0.9196 0.3170
vn 0.3267 0.9378 -0.1177
vn -0.3571 0.9155 0.1853
vn -0.5975 0.7788 0.1910
vn 0.3176 0.9430 0.0989
vn -0.3972 0.9168 -0.0421
vn 0.1819 0.9378 0.2957
vn 0.0046 0.9280 -0.3725
vt 0.599333 0.141244
vt 0.575779 0.072980
vt 0.618578 0.131615
vt 0.561571 0.094082
vt 0.526439 0.033856
vt 0.504192 0.058285
vt 0.462997 0.025696
vt 0.449416 0.058476
vt 0.395792 0.058944
vt 0.400779 0.089625
vt 0.355639 0.106401
vt 0.356118 0.144858
vt 0.323579 0.155533
vt 0.323505 0.194070
vt 0.283657 0.207665
vt 0.287080 0.238666
vt 0.245026 0.237061
vt 0.235601 0.270656
vt 0.218479 0.244291
vt 0.718655 0.270509
vt 0.685709 0.218719
vt 0.733605 0.242451
vt 0.674964 0.242755
vt 0.650228 0.179291
vt 0.631943 0.190467
vt 0.853505 0.155533
vt 0.493399 0.055511
vt 0.570010 0.101408
vt 0.349010 0.152911
vt 0.409544 0.080665
vt 0.231989 0.269353
vt 0.293970 0.228160
vt 0.626193 0.178952
vt 0.683932 0.247027
vt 0.383989 0.183125
vt 0.561508 0.167724
vt 0.621094 0.254752
vt 0.330975 0.262843
vt 0.525021 0.132447
vt 0.259901 0.327939
vt 0.449651 0.124140
vt 0.737706 0.272040
vt 0.688632 0.323342
vt 0.209198 0.776262
vt 0.312571 0.446728
vt 0.765844 0.600129
vt 0.650270 0.292285
vt 0.605596 0.244835
vt 0.565385 0.184721
vt 0.522838 0.143914
vt 0.358076 0.221934
vt 0.329217 0.278339
vt 0.299604 0.300332
vt 0.492069 0.118544
vt 0.286049 0.324268
vt 0.468954 0.129417
vt 0.415569 0.159562
vt 0.410712 0.150860
vt 0.738761 0.337737
vt 0.668673 0.319317
vt 0.594714 0.214277
vt 0.749023 0.274858
vt 0.813583 0.207665
vt 0.774952 0.237061
vt 0.368942 0.218845
vt 0.221058 0.338412
vt 0.287711 0.897356
vt 0.412570 0.960678
vt 0.497330 0.387581
vt 0.671272 0.460109
vt 0.753761 0.776622
vt 0.605229 0.939124
vt 0.200984 0.607935
vt 0.233078 0.346938
vt 0.737319 0.348289
s 0
g off
g Cylinder_Material
usemtl Material
f 21/1/1 2/2/1 20/3/1
f 22/4/2 4/5/2 2/2/2
f 23/6/3 5/7/3 4/5/3
f 24/8/4 7/9/4 5/7/4
f 25/10/5 9/11/5 7/9/5
f 26/12/6 10/13/6 9/11/6
f 27/14/7 12/15/7 10/13/7
f 28/16/8 14/17/8 12/15/8
f 29/18/9 15/19/9 14/17/9
f 30/20/10 17/21/10 15/22/10
f 31/23/11 19/24/11 17/21/11
f 32/25/12 20/3/12 19/24/12
f 10/26/13 15/22/13 20/3/13
f 6/27/14 22/4/14 3/28/14
f 11/29/15 25/10/15 8/30/15
f 16/31/16 28/16/16 13/32/16
f 1/33/17 31/23/17 18/34/17
f 8/30/18 39/35/18 11/29/18
f 1/33/19 34/36/19 3/28/19
f 18/34/20 47/37/20 1/33/20
f 11/29/21 41/38/21 13/32/21
f 3/28/22 35/39/22 6/27/22
f 13/32/23 43/40/23 16/31/23
f 6/27/24 37/41/24 8/30/24
f 16/42/25 45/43/25 18/34/25
f 54/44/26 52/45/26 49/46/26
f 46/47/27 48/48/27 47/37/27
f 34/36/28 49/49/28 50/50/28
f 40/51/29 54/52/29 41/38/29
f 34/36/30 50/50/30 35/39/30
f 41/38/31 54/52/31 42/53/31
f 35/39/32 50/50/32 36/54/32
f 42/53/33 55/55/33 43/40/33
f 36/54/34 51/56/34 37/41/34
f 37/41/35 52/57/35 38/58/35
f 44/59/36 57/60/36 45/43/36
f 38/58/37 52/57/37 39/35/37
f 45/43/38 57/60/38 46/47/38
f 33/61/39 49/49/39 34/36/39
f 21/1/40 22/4/40 2/2/40
f 22/4/41 23/6/41 4/5/41
f 23/6/42 24/8/42 5/7/42
f 24/8/43 25/10/43 7/9/43
f 25/10/44 26/12/44 9/11/44
f 26/12/45 27/14/45 10/13/45
f 27/14/46 28/16/46 12/15/46
f 28/16/47 29/18/47 14/17/47
f 29/62/48 30/20/48 15/22/48
f 30/20/49 31/23/49 17/21/49
f 31/23/50 32/25/50 19/24/50
f 32/25/51 21/1/51 20/3/51
f 20/3/13 2/2/13 5/7/13
f 2/2/13 4/5/13 5/7/13
f 5/7/13 7/9/13 10/26/13
f 7/9/13 9/11/13 10/26/13
f 10/26/13 12/63/13 15/22/13
f 12/63/13 14/64/13 15/22/13
f 15/22/13 17/21/13 20/3/13
f 17/21/13 19/24/13 20/3/13
f 20/3/13 5/7/13 10/26/13
f 1/33/52 3/28/52 21/1/52
f 3/28/53 22/4/53 21/1/53
f 6/27/54 23/6/54 22/4/54
f 6/27/55 24/8/55 23/6/55
f 6/27/56 8/30/56 24/8/56
f 8/30/57 25/10/57 24/8/57
f 11/29/58 26/12/58 25/10/58
f 11/29/59 27/14/59 26/12/59
f 11/29/60 13/32/60 27/14/60
f 13/32/61 28/16/61 27/14/61
f 16/31/62 29/18/62 28/16/62
f 16/42/63 30/20/63 29/62/63
f 16/42/64 18/34/64 30/20/64
f 18/34/65 31/23/65 30/20/65
f 1/33/66 32/25/66 31/23/66
f 1/33/67 21/1/67 32/25/67
f 40/51/68 39/35/68 53/65/68
f 8/30/69 38/58/69 39/35/69
f 18/34/70 45/43/70 46/47/70
f 1/33/71 33/61/71 34/36/71
f 11/29/72 39/35/72 40/51/72
f 18/34/73 46/47/73 47/37/73
f 11/29/74 40/51/74 41/38/74
f 3/28/75 34/36/75 35/39/75
f 1/33/76 47/37/76 33/61/76
f 13/32/77 41/38/77 42/53/77
f 6/27/78 35/39/78 36/54/78
f 13/32/79 42/53/79 43/40/79
f 6/27/80 36/54/80 37/41/80
f 16/31/81 43/40/81 44/66/81
f 8/30/82 37/41/82 38/58/82
f 16/42/83 44/59/83 45/43/83
f 55/67/26 54/44/26 56/68/26
f 51/69/26 50/70/26 52/45/26
f 48/71/26 57/72/26 49/46/26
f 57/72/26 56/68/26 49/46/26
f 56/68/26 54/44/26 49/46/26
f 54/44/26 53/73/26 52/45/26
f 52/45/26 50/70/26 49/46/26
f 46/47/84 57/60/84 48/48/84
f 40/51/85 53/65/85 54/52/85
f 33/61/86 47/37/86 48/48/86
f 42/53/87 54/52/87 55/55/87
f 36/54/88 50/50/88 51/56/88
f 43/40/89 55/55/89 56/74/89
f 44/66/90 43/40/90 56/74/90
f 37/41/91 51/56/91 52/57/91
f 44/59/92 56/75/92 57/60/92
f 39/35/93 52/57/93 53/65/93
f 33/61/94 48/48/94 49/49/94
