# Blender 4.1.1
# www.blender.org
mtllib ammo.mtl
g ammo_Mesh
v -3.621893 4.549565 -1.812799
v -3.024475 8.485061 -2.410217
v -3.621893 4.549565 -3.812799
v -3.024475 8.485061 -3.215381
v -1.621893 4.549565 -1.812799
v -2.219311 8.485061 -2.410217
v -1.621893 4.549565 -3.812799
v -2.219311 8.485061 -3.215381
v -3.621893 -1.564354 -3.812799
v -3.621893 -1.564354 -1.812799
v -1.621893 -1.564354 -3.812799
v -1.621893 -1.564354 -1.812799
v -1.000000 4.549565 1.000000
v -0.402582 8.485061 0.402582
v -1.000000 4.549565 -1.000000
v -0.402582 8.485061 -0.402582
v 1.000000 4.549565 1.000000
v 0.402582 8.485061 0.402582
v 1.000000 4.549565 -1.000000
v 0.402582 8.485061 -0.402582
v -1.000000 -1.564354 -1.000000
v -1.000000 -1.564354 1.000000
v 1.000000 -1.564354 -1.000000
v 1.000000 -1.564354 1.000000
v 1.584475 4.549565 1.000000
v 2.181893 8.485061 0.402582
v 1.584475 4.549565 -1.000000
v 2.181893 8.485061 -0.402582
v 3.584475 4.549565 1.000000
v 2.987056 8.485061 0.402582
v 3.584475 4.549565 -1.000000
v 2.987056 8.485061 -0.402582
v 1.584475 -1.564354 -1.000000
v 1.584475 -1.564354 1.000000
v 3.584475 -1.564354 -1.000000
v 3.584475 -1.564354 1.000000
v -3.621893 4.549565 1.000000
v -3.024475 8.485061 0.402582
v -3.621893 4.549565 -1.000000
v -3.024475 8.485061 -0.402582
v -1.621893 4.549565 1.000000
v -2.219311 8.485061 0.402582
v -1.621893 4.549565 -1.000000
v -2.219311 8.485061 -0.402582
v -3.621893 -1.564354 -1.000000
v -3.621893 -1.564354 1.000000
v -1.621893 -1.564354 -1.000000
v -1.621893 -1.564354 1.000000
v 1.584475 4.549565 -1.812799
v 2.181893 8.485061 -2.410217
v 1.584475 4.549565 -3.812799
v 2.181893 8.485061 -3.215381
v 3.584475 4.549565 -1.812799
v 2.987056 8.485061 -2.410217
v 3.584475 4.549565 -3.812799
v 2.987056 8.485061 -3.215381
v 1.584475 -1.564354 -3.812799
v 1.584475 -1.564354 -1.812799
v 3.584475 -1.564354 -3.812799
v 3.584475 -1.564354 -1.812799
v -1.000000 4.549565 -1.812799
v -0.402582 8.485061 -2.410217
v -1.000000 4.549565 -3.812799
v -0.402582 8.485061 -3.215381
v 1.000000 4.549565 -1.812799
v 0.402582 8.485061 -2.410217
v 1.000000 4.549565 -3.812799
v 0.402582 8.485061 -3.215381
v -1.000000 -1.564354 -3.812799
v -1.000000 -1.564354 -1.812799
v 1.000000 -1.564354 -3.812799
v 1.000000 -1.564354 -1.812799
vn -0.9887 0.1501 -0.0000
vn -0.0000 0.1501 -0.9887
vn 0.9887 0.1501 -0.0000
vn -0.0000 0.1501 0.9887
vn -0.0000 -0.0000 1.0000
vn -0.0000 1.0000 -0.0000
vn -0.0000 -1.0000 -0.0000
vn -0.0000 -0.0000 -1.0000
vn -1.0000 -0.0000 -0.0000
vn 1.0000 -0.0000 -0.0000
vt 0.034296 0.295062
vt 0.114815 0.413630
vt 0.000000 0.413630
vt 0.149111 0.295062
vt 0.229630 0.413630
vt 0.263926 0.295062
vt 0.344445 0.413630
vt 0.378742 -0.000000
vt 0.459260 0.118568
vt 0.344445 0.118568
vt 0.344445 0.295062
vt 0.781335 0.931407
vt 0.827558 0.885185
vt 0.827558 0.931407
vt 0.000000 1.000000
vt 0.114815 0.885185
vt 0.114815 1.000000
vt 0.114815 0.590123
vt 0.000000 0.590123
vt 0.229630 0.590123
vt 0.378741 0.295062
vt 0.459260 0.413630
vt 0.344445 0.413630
vt 0.493557 -0.000000
vt 0.574075 0.118568
vt 0.493557 0.295062
vt 0.574075 0.413630
vt 0.459260 0.413630
vt 0.034296 0.000000
vt 0.114815 0.118568
vt 0.000000 0.118568
vt 0.000000 0.295062
vt 0.827558 0.931407
vt 0.873780 0.885185
vt 0.873780 0.931407
vt 0.459260 1.000000
vt 0.574075 0.885185
vt 0.574075 1.000000
vt 0.459260 0.295062
vt 0.344445 0.590123
vt 0.459260 0.590123
vt 0.608372 -0.000000
vt 0.688890 0.118568
vt 0.574075 0.118568
vt 0.608372 0.295062
vt 0.688890 0.413630
vt 0.034296 0.590123
vt 0.114815 0.708691
vt 0.000000 0.708691
vt 0.149111 0.000000
vt 0.229630 0.118568
vt 0.114815 0.295062
vt 0.688890 0.931407
vt 0.735113 0.885185
vt 0.735113 0.931407
vt 0.229630 1.000000
vt 0.114815 0.885185
vt 0.229630 0.885185
vt 0.574075 0.590123
vt 0.574075 0.295062
vt 0.000000 0.885185
vt 0.149111 0.590123
vt 0.229630 0.708691
vt 0.114815 0.708691
vt 0.263926 0.590123
vt 0.344445 0.708691
vt 0.229630 0.708691
vt 0.378742 0.590123
vt 0.459260 0.708691
vt 0.263926 0.000000
vt 0.344445 0.118568
vt 0.229630 0.295062
vt 0.735113 0.931407
vt 0.781335 0.885185
vt 0.781335 0.931407
vt 0.688890 1.000000
vt 0.574075 0.885185
vt 0.688890 0.885185
vt 0.229630 0.885185
vt 0.114815 0.885185
vt 0.344445 0.885185
vt 0.493557 0.590123
vt 0.574075 0.708691
vt 0.608372 0.590123
vt 0.688890 0.708691
vt 0.723187 -0.000000
vt 0.803705 0.118568
vt 0.688890 0.118568
vt 0.723187 0.295062
vt 0.803705 0.413630
vt 0.688890 0.413630
vt 0.688890 0.590123
vt 0.918521 0.046222
vt 0.964743 0.000000
vt 0.964743 0.046222
vt 0.344445 0.885185
vt 0.344445 1.000000
vt 0.459260 0.885185
vt 0.688890 0.295062
vt 0.723187 0.590123
vt 0.803705 0.708691
vt 0.838002 -0.000000
vt 0.918521 0.118568
vt 0.803705 0.118568
vt 0.838002 0.295062
vt 0.918521 0.413630
vt 0.803705 0.413630
vt 0.838002 0.590123
vt 0.918521 0.708691
vt 0.803705 0.885185
vt 0.918521 0.092445
vt 0.964743 0.046222
vt 0.964743 0.092445
vt 0.459260 0.885185
vt 0.803705 0.295062
vt 0.688890 0.885185
vt 0.803705 0.590123
vt 0.080519 0.295062
vt 0.195334 0.295062
vt 0.310149 0.295062
vt 0.424964 -0.000000
vt 0.781335 0.885185
vt 0.000000 0.885185
vt 0.344445 0.590123
vt 0.424964 0.295062
vt 0.539779 -0.000000
vt 0.539779 0.295062
vt 0.080519 0.000000
vt 0.827558 0.885185
vt 0.459260 0.885185
vt 0.574075 0.295062
vt 0.654594 -0.000000
vt 0.654594 0.295062
vt 0.080519 0.590123
vt 0.195334 0.000000
vt 0.688890 0.885185
vt 0.114815 1.000000
vt 0.114815 0.885185
vt 0.195334 0.590123
vt 0.310149 0.590123
vt 0.424964 0.590123
vt 0.310149 0.000000
vt 0.344445 0.295062
vt 0.735113 0.885185
vt 0.574075 1.000000
vt 0.229630 0.885185
vt 0.459260 0.885185
vt 0.539779 0.590123
vt 0.654594 0.590123
vt 0.769409 -0.000000
vt 0.769409 0.295062
vt 0.918521 -0.000000
vt 0.574075 0.885185
vt 0.769409 0.590123
vt 0.884224 -0.000000
vt 0.884224 0.295062
vt 0.884224 0.590123
vt 0.918521 0.885185
vt 0.918521 0.046222
vt 0.918521 0.295062
vt 0.803705 0.885185
vt 0.918521 0.590123
s 0
g ammo_ZombieGirl_body_Material
usemtl ZombieGirl_body_Material
f 2/1/1 3/2/1 1/3/1
f 4/4/2 7/5/2 3/2/2
f 8/6/3 5/7/3 7/5/3
f 6/8/4 1/9/4 5/10/4
f 1/9/5 12/11/5 5/10/5
f 4/12/6 6/13/6 8/14/6
f 11/15/7 10/16/7 9/17/7
f 7/5/8 9/18/8 3/2/8
f 3/2/9 10/19/9 1/3/9
f 5/7/10 11/20/10 7/5/10
f 14/21/1 15/22/1 13/23/1
f 16/24/2 19/25/2 15/9/2
f 20/26/3 17/27/3 19/28/3
f 18/29/4 13/30/4 17/31/4
f 13/30/5 24/32/5 17/31/5
f 16/33/6 18/34/6 20/35/6
f 23/36/7 22/37/7 21/38/7
f 19/25/8 21/39/8 15/9/8
f 15/22/9 22/40/9 13/23/9
f 17/27/10 23/41/10 19/28/10
f 26/42/1 27/43/1 25/44/1
f 28/45/2 31/46/2 27/27/2
f 32/47/3 29/48/3 31/49/3
f 30/50/4 25/51/4 29/30/4
f 25/51/5 36/52/5 29/30/5
f 28/53/6 30/54/6 32/55/6
f 35/56/7 34/57/7 33/58/7
f 31/46/8 33/59/8 27/27/8
f 27/43/9 34/60/9 25/44/9
f 29/48/10 35/61/10 31/49/10
f 38/62/1 39/63/1 37/64/1
f 40/65/2 43/66/2 39/67/2
f 44/68/3 41/69/3 43/66/3
f 42/70/4 37/71/4 41/51/4
f 37/71/5 48/72/5 41/51/5
f 40/73/6 42/74/6 44/75/6
f 47/76/7 46/77/7 45/78/7
f 43/66/8 45/79/8 39/67/8
f 39/63/9 46/80/9 37/64/9
f 41/69/10 47/81/10 43/66/10
f 50/82/1 51/83/1 49/69/1
f 52/84/2 55/85/2 51/83/2
f 56/86/3 53/87/3 55/88/3
f 54/89/4 49/90/4 53/91/4
f 49/90/5 60/92/5 53/91/5
f 52/93/6 54/94/6 56/95/6
f 59/56/7 58/96/7 57/97/7
f 55/85/8 57/37/8 51/83/8
f 51/83/9 58/98/9 49/69/9
f 53/87/10 59/99/10 55/88/10
f 62/100/1 63/101/1 61/85/1
f 64/102/2 67/103/2 63/104/2
f 68/105/3 65/106/3 67/107/3
f 66/108/4 61/109/4 65/101/4
f 61/109/5 72/110/5 65/101/5
f 64/111/6 66/112/6 68/113/6
f 71/97/7 70/114/7 69/36/7
f 67/103/8 69/115/8 63/104/8
f 63/101/9 70/116/9 61/85/9
f 65/106/10 71/117/10 67/107/10
f 2/1/1 4/118/1 3/2/1
f 4/4/2 8/119/2 7/5/2
f 8/6/3 6/120/3 5/7/3
f 6/8/4 2/121/4 1/9/4
f 1/9/5 10/39/5 12/11/5
f 4/12/6 2/122/6 6/13/6
f 11/15/7 12/123/7 10/16/7
f 7/5/8 11/20/8 9/18/8
f 3/2/9 9/18/9 10/19/9
f 5/7/10 12/124/10 11/20/10
f 14/21/1 16/125/1 15/22/1
f 16/24/2 20/126/2 19/25/2
f 20/26/3 18/127/3 17/27/3
f 18/29/4 14/128/4 13/30/4
f 13/30/5 22/52/5 24/32/5
f 16/33/6 14/129/6 18/34/6
f 23/36/7 24/130/7 22/37/7
f 19/25/8 23/131/8 21/39/8
f 15/22/9 21/41/9 22/40/9
f 17/27/10 24/59/10 23/41/10
f 26/42/1 28/132/1 27/43/1
f 28/45/2 32/133/2 31/46/2
f 32/47/3 30/134/3 29/48/3
f 30/50/4 26/135/4 25/51/4
f 25/51/5 34/72/5 36/52/5
f 28/53/6 26/136/6 30/54/6
f 35/56/7 36/137/7 34/57/7
f 31/46/8 35/92/8 33/59/8
f 27/43/9 33/99/9 34/60/9
f 29/48/10 36/138/10 35/61/10
f 38/62/1 40/139/1 39/63/1
f 40/65/2 44/140/2 43/66/2
f 44/68/3 42/141/3 41/69/3
f 42/70/4 38/142/4 37/71/4
f 37/71/5 46/143/5 48/72/5
f 40/73/6 38/144/6 42/74/6
f 47/76/7 48/145/7 46/77/7
f 43/66/8 47/81/8 45/79/8
f 39/63/9 45/146/9 46/80/9
f 41/69/10 48/147/10 47/81/10
f 50/82/1 52/148/1 51/83/1
f 52/84/2 56/149/2 55/85/2
f 56/86/3 54/150/3 53/87/3
f 54/89/4 50/151/4 49/90/4
f 49/90/5 58/117/5 60/92/5
f 52/93/6 50/152/6 54/94/6
f 59/56/7 60/58/7 58/96/7
f 55/85/8 59/136/8 57/37/8
f 51/83/9 57/153/9 58/98/9
f 53/87/10 60/115/10 59/99/10
f 62/100/1 64/154/1 63/101/1
f 64/102/2 68/155/2 67/103/2
f 68/105/3 66/156/3 65/106/3
f 66/108/4 62/157/4 61/109/4
f 61/109/5 70/158/5 72/110/5
f 64/111/6 62/159/6 66/112/6
f 71/97/7 72/96/7 70/114/7
f 67/103/8 71/160/8 69/115/8
f 63/101/9 69/161/9 70/116/9
f 65/106/10 72/162/10 71/117/10
