# Blender 4.1.1
# www.blender.org
mtllib drumpart.mtl
o Cube
v 2.977819 4.319925 -0.289531
v 0.980033 -4.291338 -0.289531
v 2.977819 4.319925 0.289531
v 0.980033 -4.291338 0.289531
v -2.977819 4.319925 -0.289531
v -1.049591 -4.291338 -0.289531
v -2.977819 4.319925 0.289531
v -1.049591 -4.291338 0.289531
vn -0.0000 1.0000 -0.0000
vn -0.0000 -0.0000 1.0000
vn -0.9758 -0.2185 -0.0000
vn -0.0000 -1.0000 -0.0000
vn 0.9741 -0.2260 -0.0000
vn -0.0000 -0.0000 -1.0000
vt 0.875000 0.500000
vt 0.625000 0.750000
vt 0.625000 0.500000
vt 0.375000 0.750000
vt 0.625000 1.000000
vt 0.375000 1.000000
vt 0.625000 0.000000
vt 0.375000 0.250000
vt 0.375000 0.000000
vt 0.375000 0.500000
vt 0.125000 0.750000
vt 0.125000 0.500000
vt 0.625000 0.250000
vt 0.875000 0.750000
s 0
usemtl Material
f 5/1/1 3/2/1 1/3/1
f 4/4/2 7/5/2 8/6/2
f 7/7/3 6/8/3 8/9/3
f 2/10/4 8/11/4 6/12/4
f 1/3/5 4/4/5 2/10/5
f 5/13/6 2/10/6 6/8/6
f 5/1/1 7/14/1 3/2/1
f 4/4/2 3/2/2 7/5/2
f 7/7/3 5/13/3 6/8/3
f 2/10/4 4/4/4 8/11/4
f 1/3/5 3/2/5 4/4/5
f 5/13/6 1/3/6 2/10/6
