# Blender 4.1.1
# www.blender.org
mtllib energy-cube.mtl
o Cube
v -0.552068 -0.552068 0.552068
v -0.552068 0.552068 0.552068
v -0.552068 -0.552068 -0.552068
v -0.552068 0.552068 -0.552068
v 0.552068 -0.552068 0.552068
v 0.552068 0.552068 0.552068
v 0.552068 -0.552068 -0.552068
v 0.552068 0.552068 -0.552068
v -0.552068 -0.552068 0.000000
v -0.552068 0.000000 0.552068
v -0.552068 0.552068 0.000000
v -0.552068 0.000000 -0.552068
v 0.000000 -0.552068 -0.552068
v 0.000000 0.552068 -0.552068
v 0.552068 0.000000 -0.552068
v 0.552068 -0.552068 0.000000
v 0.552068 0.552068 0.000000
v 0.552068 0.000000 0.552068
v 0.000000 -0.552068 0.552068
v 0.000000 0.552068 0.552068
v 0.000000 -0.785104 -0.276034
v 0.000000 0.828746 -0.276034
v -0.276034 0.000000 -0.773779
v -0.552068 -0.552068 0.276034
v -0.552068 0.276034 0.552068
v -0.552068 0.552068 -0.276034
v -0.552068 -0.276034 -0.552068
v -0.276034 -0.552068 -0.552068
v 0.276034 0.552068 -0.552068
v 0.552068 -0.276034 -0.552068
v 0.552068 -0.552068 -0.276034
v 0.552068 0.552068 0.276034
v 0.552068 -0.276034 0.552068
v 0.276034 -0.552068 0.552068
v -0.276034 0.552068 0.552068
v -0.552068 -0.552068 -0.276034
v -0.552068 -0.276034 0.552068
v -0.552068 0.552068 0.276034
v -0.552068 0.276034 -0.552068
v 0.276034 -0.552068 -0.552068
v -0.276034 0.552068 -0.552068
v 0.552068 0.276034 -0.552068
v 0.552068 -0.552068 0.276034
v 0.552068 0.552068 -0.276034
v 0.552068 0.276034 0.552068
v -0.276034 -0.552068 0.552068
v 0.276034 0.552068 0.552068
v 0.000000 0.552068 0.276034
v 0.000000 0.552068 -0.276034
v 0.276034 0.552068 0.000000
v -0.276034 0.552068 0.000000
v 0.000000 -0.552068 0.276034
v 0.000000 -0.552068 -0.276034
v -0.276034 -0.552068 0.000000
v 0.276034 -0.552068 0.000000
v -0.276034 0.000000 0.552068
v 0.276034 0.000000 0.552068
v 0.000000 -0.276034 0.552068
v 0.000000 0.276034 0.552068
v 0.552068 0.000000 0.276034
v 0.552068 0.000000 -0.276034
v 0.552068 -0.276034 0.000000
v 0.552068 0.276034 0.000000
v 0.276034 0.000000 -0.552068
v -0.276034 0.000000 -0.552068
v 0.000000 -0.276034 -0.552068
v 0.000000 0.276034 -0.552068
v -0.552068 0.000000 -0.276034
v -0.552068 0.000000 0.276034
v -0.552068 -0.276034 0.000000
v -0.552068 0.276034 0.000000
v -0.552068 0.276034 0.276034
v -0.552068 -0.276034 0.276034
v -0.552068 -0.276034 -0.276034
v -0.276034 0.276034 -0.552068
v -0.276034 -0.276034 -0.552068
v 0.276034 -0.276034 -0.552068
v 0.552068 0.276034 -0.276034
v 0.552068 -0.276034 -0.276034
v 0.552068 -0.276034 0.276034
v 0.276034 0.276034 0.552068
v 0.276034 -0.276034 0.552068
v -0.276034 -0.276034 0.552068
v 0.276034 -0.552068 -0.276034
v -0.276034 -0.552068 -0.276034
v -0.276034 -0.552068 0.276034
v -0.276034 0.552068 -0.276034
v 0.276034 0.552068 -0.276034
v 0.276034 0.552068 0.276034
v -0.276034 0.552068 0.276034
v 0.276034 -0.552068 0.276034
v -0.276034 0.276034 0.552068
v 0.552068 0.276034 0.276034
v 0.276034 0.276034 -0.552068
v -0.552068 0.276034 -0.276034
v 0.869923 0.000000 -0.276034
v 0.869923 0.276034 0.000000
v 0.869923 0.000000 0.276034
v 0.869923 -0.276034 0.000000
v 0.869923 0.276034 -0.276034
v 0.869923 -0.276034 -0.276034
v 0.869923 -0.276034 0.276034
v 0.869923 0.276034 0.276034
v -0.854555 0.000000 0.276034
v -0.854555 0.276034 0.000000
v -0.854555 0.000000 -0.276034
v -0.854555 -0.276034 0.000000
v -0.854555 0.276034 0.276034
v -0.854555 -0.276034 0.276034
v -0.854555 -0.276034 -0.276034
v -0.854555 0.276034 -0.276034
v 0.000000 0.276034 -0.773779
v 0.276034 0.000000 -0.773779
v 0.000000 -0.276034 -0.773779
v -0.276034 0.276034 -0.773779
v -0.276034 -0.276034 -0.773779
v 0.276034 -0.276034 -0.773779
v 0.276034 0.276034 -0.773779
v 0.276034 0.000000 0.779949
v 0.000000 0.276034 0.779949
v -0.276034 0.000000 0.779949
v 0.000000 -0.276034 0.779949
v 0.276034 0.276034 0.779949
v 0.276034 -0.276034 0.779949
v -0.276034 -0.276034 0.779949
v -0.276034 0.276034 0.779949
v -0.276034 0.828746 0.000000
v 0.000000 0.828746 0.276034
v 0.276034 0.828746 0.000000
v -0.276034 0.828746 -0.276034
v 0.276034 0.828746 -0.276034
v 0.276034 0.828746 0.276034
v -0.276034 0.828746 0.276034
v 0.276034 -0.785104 0.000000
v 0.000000 -0.785104 0.276034
v -0.276034 -0.785104 0.000000
v 0.276034 -0.785104 -0.276034
v -0.276034 -0.785104 -0.276034
v -0.276034 -0.785104 0.276034
v 0.276034 -0.785104 0.276034
vn -0.5773 -0.5774 0.5774
vn -0.5773 0.5773 0.5774
vn -0.5774 -0.5774 -0.5773
vn -0.5774 0.5773 -0.5773
vn 0.5774 -0.5773 0.5773
vn 0.5774 0.5774 0.5773
vn 0.5773 -0.5773 -0.5774
vn 0.5773 0.5774 -0.5774
vn -0.7071 -0.7071 -0.0000
vn -0.7071 -0.0000 0.7071
vn -0.7071 0.7071 -0.0000
vn -0.7071 -0.0000 -0.7071
vn -0.0000 -0.7071 -0.7071
vn -0.0000 0.7071 -0.7071
vn 0.7071 -0.0000 -0.7071
vn 0.7071 -0.7071 -0.0000
vn 0.7071 0.7071 -0.0000
vn 0.7071 -0.0000 0.7071
vn -0.0000 -0.7071 0.7071
vn -0.0000 0.7071 0.7071
vn -0.9045 0.3015 0.3015
vn -0.9045 -0.3015 0.3015
vn -0.9045 -0.3015 -0.3015
vn -0.3015 0.3015 -0.9045
vn -0.3015 -0.3015 -0.9045
vn 0.3015 -0.3015 -0.9045
vn 0.9045 0.3015 -0.3015
vn 0.9045 -0.3015 -0.3015
vn 0.9045 -0.3015 0.3015
vn 0.3015 0.3015 0.9045
vn 0.3015 -0.3015 0.9045
vn -0.3015 -0.3015 0.9045
vn 0.3015 -0.9045 -0.3015
vn -0.3015 -0.9045 -0.3015
vn -0.3015 -0.9045 0.3015
vn -0.3015 0.9045 -0.3015
vn 0.3015 0.9045 -0.3015
vn 0.3015 0.9045 0.3015
vn -0.3015 0.9045 0.3015
vn 0.3015 -0.9045 0.3015
vn -0.3015 0.3015 0.9045
vn 0.9045 0.3015 0.3015
vn 0.3015 0.3015 -0.9045
vn -0.9045 0.3015 -0.3015
vn 0.5773 0.5774 -0.5773
vn 0.5773 -0.5774 0.5773
vn 0.5773 0.5773 0.5774
vn -0.5773 0.5774 0.5773
vn -0.5773 -0.5773 0.5774
vn -0.5773 -0.5774 -0.5773
vn -0.5773 0.5773 -0.5774
vn -0.5773 0.5774 -0.5773
vn -0.5774 -0.5773 -0.5773
vn 0.5773 -0.5774 -0.5773
vn 0.5774 0.5773 -0.5773
vn 0.5773 0.5774 0.5773
vn -0.5773 -0.5774 0.5773
vn -0.5774 0.5773 0.5773
vn 0.5773 0.5773 -0.5774
vn 0.5774 0.5773 0.5773
vn 0.5774 -0.5773 -0.5773
vn -0.5773 -0.5773 -0.5774
vn -0.5774 -0.5773 0.5773
vn 0.5773 -0.5773 0.5774
vt 0.180817 0.090909
vt 0.090909 0.180817
vt 0.001001 0.090909
vt 0.819183 0.910092
vt 0.908090 0.998999
vt 0.908090 0.910092
vt 0.364637 0.272727
vt 0.453544 0.272727
vt 0.364637 0.362635
vt 0.910092 0.546456
vt 0.998999 0.635363
vt 0.998999 0.546456
vt 0.364637 0.910092
vt 0.453544 0.998999
vt 0.453544 0.910092
vt 0.091910 0.910092
vt 0.180817 0.998999
vt 0.180817 0.910092
vt 0.819183 0.728274
vt 0.908090 0.817181
vt 0.908090 0.728274
vt 0.546456 0.819183
vt 0.635363 0.908090
vt 0.635363 0.819183
vt 0.273728 0.819183
vt 0.362635 0.908090
vt 0.362635 0.819183
vt 0.728274 0.546456
vt 0.817181 0.635363
vt 0.817181 0.546456
vt 0.546456 0.728274
vt 0.635363 0.817181
vt 0.635363 0.728274
vt 0.728274 0.455546
vt 0.817181 0.544454
vt 0.817181 0.455546
vt 0.455546 0.728274
vt 0.544454 0.817181
vt 0.544454 0.728274
vt 0.728274 0.273728
vt 0.817181 0.362635
vt 0.817181 0.273728
vt 0.544454 0.590909
vt 0.544454 0.613136
vt 0.364637 0.613136
vt 0.590909 0.001001
vt 0.613136 0.001001
vt 0.613136 0.180817
vt 0.273728 0.728274
vt 0.362635 0.817181
vt 0.362635 0.728274
vt 0.091910 0.728274
vt 0.180817 0.817181
vt 0.180817 0.728274
vt 0.728274 0.001001
vt 0.817181 0.089908
vt 0.817181 0.001001
vt 0.637365 0.455546
vt 0.726272 0.544454
vt 0.726272 0.455546
vt 0.364637 0.681818
vt 0.364637 0.659591
vt 0.544454 0.659591
vt 0.637365 0.364637
vt 0.726272 0.453544
vt 0.726272 0.364637
vt 0.546456 0.546456
vt 0.635363 0.635363
vt 0.635363 0.546456
vt 0.637365 0.182819
vt 0.726272 0.271726
vt 0.726272 0.182819
vt 0.637365 0.273728
vt 0.726272 0.362635
vt 0.726272 0.273728
vt 0.637365 0.090909
vt 0.637365 0.045955
vt 0.726272 0.045955
vt 0.272727 0.726272
vt 0.227773 0.726272
vt 0.227773 0.637365
vt 0.637365 0.546456
vt 0.726272 0.635363
vt 0.726272 0.546456
vt 0.546456 0.637365
vt 0.635363 0.726272
vt 0.635363 0.637365
vt 0.637365 0.637365
vt 0.726272 0.726272
vt 0.726272 0.637365
vt 0.001001 0.728274
vt 0.089908 0.817181
vt 0.089908 0.728274
vt 0.590909 0.544454
vt 0.568682 0.544454
vt 0.568682 0.364637
vt 0.180817 0.681818
vt 0.180817 0.704045
vt 0.001001 0.704045
vt 0.728274 0.091910
vt 0.817181 0.180817
vt 0.817181 0.091910
vt 0.728274 0.182819
vt 0.817181 0.271726
vt 0.817181 0.182819
vt 0.182819 0.728274
vt 0.271726 0.817181
vt 0.271726 0.728274
vt 0.546456 0.317681
vt 0.635363 0.272727
vt 0.635363 0.317681
vt 0.362635 0.568682
vt 0.182819 0.590909
vt 0.182819 0.568682
vt 0.364637 0.728274
vt 0.453544 0.817181
vt 0.453544 0.728274
vt 0.728274 0.364637
vt 0.817181 0.453544
vt 0.817181 0.364637
vt 0.500000 0.364637
vt 0.544454 0.544454
vt 0.500000 0.544454
vt 0.544454 0.090909
vt 0.454545 0.180817
vt 0.364637 0.090909
vt 0.273728 0.500000
vt 0.273728 0.477773
vt 0.453544 0.477773
vt 0.910092 0.819183
vt 0.998999 0.908090
vt 0.998999 0.819183
vt 0.728274 0.637365
vt 0.817181 0.726272
vt 0.817181 0.637365
vt 0.637365 0.728274
vt 0.726272 0.817181
vt 0.726272 0.728274
vt 0.728274 0.728274
vt 0.817181 0.817181
vt 0.817181 0.728274
vt 0.819183 0.001001
vt 0.908090 0.089908
vt 0.908090 0.001001
vt 0.001001 0.819183
vt 0.089908 0.908090
vt 0.089908 0.819183
vt 0.819183 0.091910
vt 0.908090 0.180817
vt 0.908090 0.091910
vt 0.091910 0.819183
vt 0.180817 0.908090
vt 0.180817 0.819183
vt 0.182819 0.819183
vt 0.271726 0.908090
vt 0.271726 0.819183
vt 0.819183 0.182819
vt 0.908090 0.271726
vt 0.908090 0.182819
vt 0.819183 0.273728
vt 0.908090 0.362635
vt 0.908090 0.273728
vt 0.090909 0.362635
vt 0.001001 0.272727
vt 0.090909 0.182819
vt 0.364637 0.819183
vt 0.453544 0.908090
vt 0.453544 0.819183
vt 0.819183 0.364637
vt 0.908090 0.453544
vt 0.908090 0.364637
vt 0.819183 0.455546
vt 0.908090 0.544454
vt 0.908090 0.455546
vt 0.455546 0.819183
vt 0.544454 0.908090
vt 0.544454 0.819183
vt 0.272727 0.001001
vt 0.362635 0.090909
vt 0.272727 0.180817
vt 0.819183 0.546456
vt 0.908090 0.635363
vt 0.908090 0.546456
vt 0.637365 0.819183
vt 0.726272 0.908090
vt 0.726272 0.819183
vt 0.819183 0.637365
vt 0.908090 0.726272
vt 0.908090 0.637365
vt 0.728274 0.819183
vt 0.817181 0.908090
vt 0.817181 0.819183
vt 0.182819 0.272727
vt 0.272727 0.182819
vt 0.362635 0.272727
vt 0.819183 0.819183
vt 0.908090 0.908090
vt 0.908090 0.819183
vt 0.910092 0.001001
vt 0.998999 0.089908
vt 0.998999 0.001001
vt 0.001001 0.910092
vt 0.089908 0.998999
vt 0.089908 0.910092
vt 0.910092 0.091910
vt 0.998999 0.180817
vt 0.998999 0.091910
vt 0.500000 0.182819
vt 0.500000 0.362635
vt 0.455546 0.182819
vt 0.182819 0.910092
vt 0.271726 0.998999
vt 0.271726 0.910092
vt 0.910092 0.182819
vt 0.998999 0.271726
vt 0.998999 0.182819
vt 0.273728 0.910092
vt 0.362635 0.998999
vt 0.362635 0.910092
vt 0.910092 0.273728
vt 0.998999 0.362635
vt 0.998999 0.273728
vt 0.090909 0.364637
vt 0.180817 0.454545
vt 0.090909 0.544454
vt 0.910092 0.364637
vt 0.998999 0.453544
vt 0.998999 0.364637
vt 0.910092 0.455546
vt 0.998999 0.544454
vt 0.998999 0.455546
vt 0.455546 0.910092
vt 0.544454 0.998999
vt 0.544454 0.910092
vt 0.546456 0.910092
vt 0.635363 0.998999
vt 0.635363 0.910092
vt 0.180817 0.590909
vt 0.001001 0.635363
vt 0.001001 0.590909
vt 0.910092 0.637365
vt 0.998999 0.726272
vt 0.998999 0.637365
vt 0.637365 0.910092
vt 0.726272 0.998999
vt 0.726272 0.910092
vt 0.728274 0.910092
vt 0.817181 0.998999
vt 0.817181 0.910092
vt 0.910092 0.728274
vt 0.998999 0.817181
vt 0.998999 0.728274
vt 0.227273 0.364637
vt 0.249499 0.364637
vt 0.249499 0.544454
vt 0.453544 0.409091
vt 0.453544 0.431318
vt 0.273728 0.431318
vt 0.001001 0.001001
vt 0.090909 0.001001
vt 0.180817 0.001001
vt 0.180817 0.180817
vt 0.001001 0.180817
vt 0.819183 0.998999
vt 0.364637 0.182819
vt 0.453544 0.182819
vt 0.453544 0.362635
vt 0.910092 0.635363
vt 0.364637 0.998999
vt 0.091910 0.998999
vt 0.819183 0.817181
vt 0.546456 0.908090
vt 0.273728 0.908090
vt 0.728274 0.635363
vt 0.546456 0.817181
vt 0.728274 0.544454
vt 0.455546 0.817181
vt 0.728274 0.362635
vt 0.364637 0.568682
vt 0.364637 0.546456
vt 0.544454 0.546456
vt 0.544454 0.568682
vt 0.364637 0.590909
vt 0.544454 0.635363
vt 0.364637 0.635363
vt 0.568682 0.180817
vt 0.546456 0.180817
vt 0.546456 0.001001
vt 0.568682 0.001001
vt 0.590909 0.180817
vt 0.635363 0.001001
vt 0.635363 0.180817
vt 0.273728 0.817181
vt 0.091910 0.817181
vt 0.728274 0.089908
vt 0.637365 0.544454
vt 0.544454 0.704045
vt 0.544454 0.726272
vt 0.364637 0.726272
vt 0.364637 0.704045
vt 0.544454 0.681818
vt 0.364637 0.637365
vt 0.544454 0.637365
vt 0.637365 0.453544
vt 0.546456 0.635363
vt 0.637365 0.271726
vt 0.637365 0.362635
vt 0.726272 0.135863
vt 0.726272 0.180817
vt 0.637365 0.180817
vt 0.637365 0.135863
vt 0.726272 0.090909
vt 0.637365 0.001001
vt 0.726272 0.001001
vt 0.317681 0.637365
vt 0.362635 0.637365
vt 0.362635 0.726272
vt 0.317681 0.726272
vt 0.272727 0.637365
vt 0.182819 0.726272
vt 0.182819 0.637365
vt 0.637365 0.635363
vt 0.546456 0.726272
vt 0.637365 0.726272
vt 0.001001 0.817181
vt 0.613136 0.364637
vt 0.635363 0.364637
vt 0.635363 0.544454
vt 0.613136 0.544454
vt 0.590909 0.364637
vt 0.546456 0.544454
vt 0.546456 0.364637
vt 0.001001 0.659591
vt 0.001001 0.637365
vt 0.180817 0.637365
vt 0.180817 0.659591
vt 0.001001 0.681818
vt 0.180817 0.726272
vt 0.001001 0.726272
vt 0.728274 0.180817
vt 0.728274 0.271726
vt 0.182819 0.817181
vt 0.546456 0.227773
vt 0.546456 0.182819
vt 0.635363 0.182819
vt 0.635363 0.227773
vt 0.546456 0.272727
vt 0.635363 0.362635
vt 0.546456 0.362635
vt 0.362635 0.613136
vt 0.362635 0.635363
vt 0.182819 0.635363
vt 0.182819 0.613136
vt 0.362635 0.590909
vt 0.182819 0.546456
vt 0.362635 0.546456
vt 0.364637 0.817181
vt 0.728274 0.453544
vt 0.455546 0.544454
vt 0.455546 0.364637
vt 0.544454 0.364637
vt 0.364637 0.001001
vt 0.454545 0.001001
vt 0.544454 0.001001
vt 0.544454 0.180817
vt 0.364637 0.180817
vt 0.453544 0.522227
vt 0.453544 0.544454
vt 0.273728 0.544454
vt 0.273728 0.522227
vt 0.453544 0.500000
vt 0.273728 0.455546
vt 0.453544 0.455546
vt 0.910092 0.908090
vt 0.728274 0.726272
vt 0.637365 0.817181
vt 0.728274 0.817181
vt 0.819183 0.089908
vt 0.001001 0.908090
vt 0.819183 0.180817
vt 0.091910 0.908090
vt 0.182819 0.908090
vt 0.819183 0.271726
vt 0.819183 0.362635
vt 0.180817 0.182819
vt 0.180817 0.272727
vt 0.180817 0.362635
vt 0.001001 0.362635
vt 0.001001 0.182819
vt 0.364637 0.908090
vt 0.819183 0.453544
vt 0.819183 0.544454
vt 0.455546 0.908090
vt 0.182819 0.180817
vt 0.182819 0.090909
vt 0.182819 0.001001
vt 0.362635 0.001001
vt 0.362635 0.180817
vt 0.819183 0.635363
vt 0.637365 0.908090
vt 0.819183 0.726272
vt 0.728274 0.908090
vt 0.362635 0.362635
vt 0.272727 0.362635
vt 0.182819 0.362635
vt 0.182819 0.182819
vt 0.362635 0.182819
vt 0.819183 0.908090
vt 0.910092 0.089908
vt 0.001001 0.998999
vt 0.910092 0.180817
vt 0.544454 0.182819
vt 0.544454 0.362635
vt 0.455546 0.362635
vt 0.182819 0.998999
vt 0.910092 0.271726
vt 0.273728 0.998999
vt 0.910092 0.362635
vt 0.001001 0.544454
vt 0.001001 0.454545
vt 0.001001 0.364637
vt 0.180817 0.364637
vt 0.180817 0.544454
vt 0.910092 0.453544
vt 0.910092 0.544454
vt 0.455546 0.998999
vt 0.546456 0.998999
vt 0.001001 0.546456
vt 0.180817 0.546456
vt 0.180817 0.635363
vt 0.910092 0.726272
vt 0.637365 0.998999
vt 0.728274 0.998999
vt 0.910092 0.817181
vt 0.205046 0.544454
vt 0.182819 0.544454
vt 0.182819 0.364637
vt 0.205046 0.364637
vt 0.227273 0.544454
vt 0.271726 0.364637
vt 0.271726 0.544454
vt 0.273728 0.386864
vt 0.273728 0.364637
vt 0.453544 0.364637
vt 0.453544 0.386864
vt 0.273728 0.409091
vt 0.453544 0.453544
vt 0.273728 0.453544
s 1
usemtl Material
f 127/1/11 128/2/20 129/3/17
f 90/4/39 127/5/11 51/6/11
f 13/7/13 53/8/13 28/9/13
f 86/10/35 135/11/19 52/12/19
f 82/13/31 122/14/19 58/15/19
f 47/16/20 59/17/20 81/18/30
f 80/19/29 98/20/18 60/21/18
f 44/22/17 63/23/17 78/24/27
f 94/25/43 112/26/14 67/27/14
f 41/28/14 67/29/14 75/30/24
f 71/31/11 108/32/48 72/33/21
f 38/34/11 71/35/11 72/36/21
f 74/37/23 106/38/12 68/39/12
f 73/40/22 9/41/9 24/42/9
f 10/43/10 37/44/10 83/45/32
f 69/46/10 73/47/22 37/48/10
f 70/49/9 36/50/9 9/51/9
f 72/52/21 104/53/10 69/54/10
f 75/55/24 23/56/12 65/57/12
f 76/58/25 13/59/13 28/60/13
f 65/61/12 76/62/25 27/63/12
f 66/64/13 40/65/13 13/66/13
f 76/67/25 114/68/13 66/69/13
f 78/70/27 96/71/15 61/72/15
f 79/73/28 16/74/16 31/75/16
f 15/76/15 30/77/15 77/78/26
f 61/79/15 79/80/28 30/81/15
f 62/82/16 43/83/16 16/84/16
f 79/85/28 99/86/16 62/87/16
f 92/88/41 120/89/20 59/90/20
f 82/91/31 19/92/19 34/93/19
f 18/94/18 33/95/18 80/96/29
f 57/97/18 82/98/31 33/99/18
f 58/100/19 46/101/19 19/102/19
f 57/103/18 124/104/5 82/105/31
f 84/106/33 21/107/13 53/108/13
f 85/109/34 9/110/9 36/111/9
f 88/112/37 17/113/17 44/114/17
f 85/115/34 136/116/9 54/117/9
f 88/118/37 129/119/17 50/120/17
f 48/121/20 35/122/20 20/123/20
f 97/124/17 98/125/18 99/126/16
f 51/127/11 87/128/36 26/129/11
f 48/130/20 133/131/2 90/132/39
f 49/133/14 131/134/59 88/135/37
f 52/136/19 140/137/64 91/138/40
f 58/139/19 125/140/57 83/141/32
f 20/142/20 92/143/41 59/144/20
f 93/145/42 97/146/17 63/147/17
f 17/148/17 93/149/42 63/150/17
f 64/151/15 118/152/55 94/153/43
f 14/154/14 94/155/43 67/156/14
f 73/157/22 107/158/9 70/159/9
f 11/160/11 95/161/44 71/162/11
f 112/163/14 113/164/15 114/165/13
f 63/166/17 100/167/45 78/168/27
f 62/169/16 102/170/46 80/171/29
f 60/172/18 103/173/47 93/174/42
f 61/175/15 101/176/7 79/177/28
f 120/178/20 121/179/10 122/180/19
f 70/181/9 110/182/50 74/183/23
f 69/184/10 109/185/49 73/186/22
f 95/187/44 105/188/11 71/189/11
f 68/190/12 111/191/51 95/192/44
f 105/193/11 106/194/12 107/195/9
f 77/196/26 113/197/15 64/198/15
f 67/199/14 115/200/52 75/201/24
f 66/202/13 117/203/54 77/204/26
f 65/205/12 116/206/53 76/207/25
f 14/208/14 49/209/14 29/210/14
f 56/211/10 126/212/58 92/213/41
f 81/214/30 119/215/18 57/216/18
f 83/217/32 121/218/10 56/219/10
f 59/220/20 123/221/56 81/222/30
f 134/223/16 135/224/19 136/225/9
f 87/226/36 22/227/14 49/228/14
f 89/229/38 128/230/20 48/231/20
f 51/232/11 130/233/4 87/234/36
f 50/235/17 132/236/60 89/237/38
f 52/238/19 34/239/19 19/240/19
f 55/241/16 137/242/61 84/243/33
f 54/244/9 139/245/63 86/246/35
f 91/247/40 134/248/16 55/249/16
f 53/250/13 138/251/62 85/252/34
f 12/253/12 27/254/12 74/255/23
f 55/256/16 84/257/33 31/258/16
f 129/3/17 131/259/59 22/260/14
f 22/260/14 130/261/4 127/1/11
f 127/1/11 133/262/2 128/2/20
f 128/2/20 132/263/60 129/3/17
f 129/3/17 22/260/14 127/1/11
f 90/4/39 133/264/2 127/5/11
f 13/7/13 40/265/13 84/266/33
f 53/8/13 85/267/34 28/9/13
f 13/7/13 84/266/33 53/8/13
f 86/10/35 139/268/63 135/11/19
f 82/13/31 124/269/5 122/14/19
f 47/16/20 20/270/20 59/17/20
f 80/19/29 102/271/46 98/20/18
f 44/22/17 17/272/17 63/23/17
f 94/25/43 118/273/55 112/26/14
f 41/28/14 14/274/14 67/29/14
f 71/31/11 105/275/11 108/32/48
f 38/34/11 11/276/11 71/35/11
f 74/37/23 110/277/50 106/38/12
f 73/40/22 70/278/9 9/41/9
f 92/279/41 35/280/20 2/281/2
f 92/279/41 2/281/2 25/282/10
f 56/283/10 92/279/41 25/282/10
f 56/283/10 25/282/10 10/43/10
f 1/284/1 46/285/19 83/45/32
f 83/45/32 56/283/10 10/43/10
f 37/44/10 1/284/1 83/45/32
f 25/286/10 2/287/2 38/288/11
f 25/286/10 38/288/11 72/289/21
f 10/290/10 25/286/10 72/289/21
f 10/290/10 72/289/21 69/46/10
f 24/291/9 1/292/1 37/48/10
f 37/48/10 10/290/10 69/46/10
f 73/47/22 24/291/9 37/48/10
f 70/49/9 74/293/23 36/50/9
f 72/52/21 108/294/48 104/53/10
f 75/55/24 115/295/52 23/56/12
f 76/58/25 66/296/13 13/59/13
f 39/297/12 4/298/4 41/299/14
f 39/297/12 41/299/14 75/300/24
f 12/301/12 39/297/12 75/300/24
f 12/301/12 75/300/24 65/61/12
f 28/302/13 3/303/3 27/63/12
f 27/63/12 12/301/12 65/61/12
f 76/62/25 28/302/13 27/63/12
f 66/64/13 77/304/26 40/65/13
f 76/67/25 116/305/53 114/68/13
f 78/70/27 100/306/45 96/71/15
f 79/73/28 62/307/16 16/74/16
f 94/308/43 29/309/14 8/310/8
f 94/308/43 8/310/8 42/311/15
f 64/312/15 94/308/43 42/311/15
f 64/312/15 42/311/15 15/76/15
f 7/313/7 40/314/13 77/78/26
f 77/78/26 64/312/15 15/76/15
f 30/77/15 7/313/7 77/78/26
f 42/315/15 8/316/8 44/317/17
f 42/315/15 44/317/17 78/318/27
f 15/319/15 42/315/15 78/318/27
f 15/319/15 78/318/27 61/79/15
f 31/320/16 7/321/7 30/81/15
f 30/81/15 15/319/15 61/79/15
f 79/80/28 31/320/16 30/81/15
f 62/82/16 80/322/29 43/83/16
f 79/85/28 101/323/7 99/86/16
f 92/88/41 126/324/58 120/89/20
f 82/91/31 58/325/19 19/92/19
f 93/326/42 32/327/17 6/328/6
f 93/326/42 6/328/6 45/329/18
f 60/330/18 93/326/42 45/329/18
f 60/330/18 45/329/18 18/94/18
f 5/331/5 43/332/16 80/96/29
f 80/96/29 60/330/18 18/94/18
f 33/95/18 5/331/5 80/96/29
f 45/333/18 6/334/6 47/335/20
f 45/333/18 47/335/20 81/336/30
f 18/337/18 45/333/18 81/336/30
f 18/337/18 81/336/30 57/97/18
f 34/338/19 5/339/5 33/99/18
f 33/99/18 18/337/18 57/97/18
f 82/98/31 34/338/19 33/99/18
f 58/100/19 83/340/32 46/101/19
f 57/103/18 119/341/18 124/104/5
f 84/106/33 137/342/61 21/107/13
f 86/343/35 46/344/19 1/345/1
f 86/343/35 1/345/1 24/346/9
f 54/347/9 86/343/35 24/346/9
f 54/347/9 24/346/9 9/110/9
f 3/348/3 28/349/13 85/109/34
f 85/109/34 54/347/9 9/110/9
f 36/111/9 3/348/3 85/109/34
f 89/350/38 47/351/20 6/352/6
f 89/350/38 6/352/6 32/353/17
f 50/354/17 89/350/38 32/353/17
f 50/354/17 32/353/17 17/113/17
f 8/355/8 29/356/14 88/112/37
f 88/112/37 50/354/17 17/113/17
f 44/114/17 8/355/8 88/112/37
f 85/115/34 138/357/62 136/116/9
f 88/118/37 131/358/59 129/119/17
f 47/359/20 89/360/38 48/121/20
f 48/121/20 90/361/39 35/122/20
f 20/123/20 47/359/20 48/121/20
f 99/126/16 101/362/7 96/363/15
f 96/363/15 100/364/45 97/124/17
f 97/124/17 103/365/47 98/125/18
f 98/125/18 102/366/46 99/126/16
f 99/126/16 96/363/15 97/124/17
f 38/367/11 2/368/2 35/369/20
f 38/367/11 35/369/20 90/370/39
f 11/371/11 38/367/11 90/370/39
f 11/371/11 90/370/39 51/127/11
f 41/372/14 4/373/4 26/129/11
f 26/129/11 11/371/11 51/127/11
f 87/128/36 41/372/14 26/129/11
f 48/130/20 128/374/20 133/131/2
f 49/133/14 22/375/14 131/134/59
f 52/136/19 135/376/19 140/137/64
f 58/139/19 122/377/19 125/140/57
f 20/142/20 35/378/20 92/143/41
f 93/145/42 103/379/47 97/146/17
f 17/148/17 32/380/17 93/149/42
f 64/151/15 113/381/15 118/152/55
f 14/154/14 29/382/14 94/155/43
f 73/157/22 109/383/49 107/158/9
f 11/160/11 26/384/11 95/161/44
f 114/165/13 116/385/53 23/386/12
f 23/386/12 115/387/52 112/163/14
f 112/163/14 118/388/55 113/164/15
f 113/164/15 117/389/54 114/165/13
f 114/165/13 23/386/12 112/163/14
f 63/166/17 97/390/17 100/167/45
f 62/169/16 99/391/16 102/170/46
f 60/172/18 98/392/18 103/173/47
f 61/175/15 96/393/15 101/176/7
f 122/180/19 124/394/5 119/395/18
f 119/395/18 123/396/56 120/178/20
f 120/178/20 126/397/58 121/179/10
f 121/179/10 125/398/57 122/180/19
f 122/180/19 119/395/18 120/178/20
f 70/181/9 107/399/9 110/182/50
f 69/184/10 104/400/10 109/185/49
f 95/187/44 111/401/51 105/188/11
f 68/190/12 106/402/12 111/191/51
f 107/195/9 109/403/49 104/404/10
f 104/404/10 108/405/48 105/193/11
f 105/193/11 111/406/51 106/194/12
f 106/194/12 110/407/50 107/195/9
f 107/195/9 104/404/10 105/193/11
f 77/196/26 117/408/54 113/197/15
f 67/199/14 112/409/14 115/200/52
f 66/202/13 114/410/13 117/203/54
f 65/205/12 23/411/12 116/206/53
f 14/208/14 41/412/14 87/413/36
f 49/209/14 88/414/37 29/210/14
f 14/208/14 87/413/36 49/209/14
f 56/211/10 121/415/10 126/212/58
f 81/214/30 123/416/56 119/215/18
f 83/217/32 125/417/57 121/218/10
f 59/220/20 120/418/20 123/221/56
f 136/225/9 138/419/62 21/420/13
f 21/420/13 137/421/61 134/223/16
f 134/223/16 140/422/64 135/224/19
f 135/224/19 139/423/63 136/225/9
f 136/225/9 21/420/13 134/223/16
f 87/226/36 130/424/4 22/227/14
f 89/229/38 132/425/60 128/230/20
f 51/232/11 127/426/11 130/233/4
f 50/235/17 129/427/17 132/236/60
f 46/428/19 86/429/35 52/238/19
f 52/238/19 91/430/40 34/239/19
f 19/240/19 46/428/19 52/238/19
f 55/241/16 134/431/16 137/242/61
f 54/244/9 136/432/9 139/245/63
f 91/247/40 140/433/64 134/248/16
f 53/250/13 21/434/13 138/251/62
f 95/435/44 26/436/11 4/437/4
f 95/435/44 4/437/4 39/438/12
f 68/439/12 95/435/44 39/438/12
f 68/439/12 39/438/12 12/253/12
f 3/440/3 36/441/9 74/255/23
f 74/255/23 68/439/12 12/253/12
f 27/254/12 3/440/3 74/255/23
f 43/442/16 5/443/5 34/444/19
f 43/442/16 34/444/19 91/445/40
f 16/446/16 43/442/16 91/445/40
f 16/446/16 91/445/40 55/256/16
f 40/447/13 7/448/7 31/258/16
f 31/258/16 16/446/16 55/256/16
f 84/257/33 40/447/13 31/258/16
