# Blender 4.1.1
# www.blender.org
mtllib facemask.mtl
o Halloween_Joker_Mask
v -0.476408 0.793163 4.140041
v 0.044258 -0.000724 3.885217
v -1.785662 5.700953 0.000256
v -3.303394 5.291493 -2.425770
v -2.858656 4.264558 -1.232458
v -0.563513 1.386356 3.756083
v -2.749497 3.685978 1.749112
v -2.906966 2.529682 1.037674
v -2.277412 4.817179 0.935705
v -0.766202 4.815133 1.574463
v -3.075068 1.672739 -0.577460
v 0.044258 4.481020 3.502725
v -2.827997 0.000633 0.284104
v -0.535179 -0.000633 3.610573
v 0.044258 1.514702 3.562831
v -0.524038 1.594110 3.439819
v 0.044258 1.117407 3.676192
v -0.550140 4.106110 3.224320
v -0.211915 4.338758 3.198183
v -0.359637 4.138999 2.635847
v -0.173430 4.884603 1.961516
v -0.501637 4.508723 2.118788
v -0.802809 3.781864 2.687160
v -1.595331 5.525897 1.269745
v -2.069380 2.838925 1.905219
v 0.044258 2.910379 3.462158
v -0.952200 3.049174 3.335996
v -1.794618 4.042840 1.555805
v -0.421137 2.667365 3.147743
v -0.953724 2.719426 3.123050
v -0.508206 1.041358 3.652474
v -2.488346 2.479087 1.625515
v -0.169478 5.212904 2.060100
v 0.044258 2.682261 3.310506
v 0.044258 6.688377 0.380273
v -2.520142 6.084393 -0.945777
v 0.044258 1.387183 3.757278
v 0.044258 0.759777 4.365225
v 0.044258 3.959539 3.654991
v 0.044258 3.337137 3.087559
v 0.044258 5.839202 1.235623
v 0.044258 6.302742 0.774956
v 0.044258 5.993675 0.910680
v 0.044258 5.227184 1.641837
v -3.033067 4.013692 -1.439195
v -3.126740 3.426167 -0.031045
v 0.564923 0.793163 4.140041
v 1.874177 5.700953 0.000256
v 3.391910 5.291493 -2.425770
v 2.947171 4.264558 -1.232458
v 0.652028 1.386356 3.756083
v 2.838012 3.685978 1.749112
v 2.995482 2.529682 1.037674
v 2.365927 4.817179 0.935705
v 0.854718 4.815133 1.574463
v 3.163583 1.672739 -0.577460
v 2.916512 0.000633 0.284104
v 0.623695 -0.000633 3.610573
v 0.612553 1.594110 3.439819
v 0.638656 4.106110 3.224320
v 0.300431 4.338758 3.198183
v 0.448152 4.138999 2.635847
v 0.261945 4.884603 1.961516
v 0.590152 4.508723 2.118788
v 0.891324 3.781864 2.687160
v 1.683846 5.525897 1.269745
v 2.157895 2.838925 1.905219
v 1.040715 3.049174 3.335996
v 1.883133 4.042840 1.555805
v 0.509652 2.667365 3.147743
v 1.042240 2.719426 3.123050
v 0.596721 1.041358 3.652474
v 2.576862 2.479087 1.625515
v 0.257993 5.212904 2.060100
v 2.608657 6.084393 -0.945777
v 3.121582 4.013692 -1.439195
v 3.215256 3.426167 -0.031045
vn -0.3720 -0.4959 0.7847
vn -0.3714 -0.4956 0.7852
vn -0.0015 -0.2878 0.9577
vn -0.3177 0.7669 0.5575
vn -0.9007 0.1010 0.4226
vn -0.9644 0.1445 0.2217
vn -0.9311 0.3434 0.1226
vn -0.8401 -0.2751 0.4676
vn 0.1123 0.8240 0.5553
vn -0.6952 0.5508 0.4619
vn -0.4206 -0.1736 0.8905
vn -0.4317 -0.1838 0.8831
vn -0.9451 -0.2284 0.2336
vn -0.9872 -0.0732 0.1416
vn -0.9800 0.0323 -0.1962
vn -0.8530 0.1937 0.4846
vn -0.8823 0.4549 0.1206
vn -0.4653 0.6553 0.5950
vn -0.9872 -0.0730 0.1415
vn -0.8072 -0.1916 0.5583
vn -0.8317 -0.2642 0.4884
vn -0.6940 0.6664 0.2725
vn -0.6747 0.6851 0.2747
vn -0.5105 -0.2417 0.8252
vn -0.0627 0.5998 0.7977
vn -0.8083 -0.1907 0.5570
vn -0.0019 0.8362 0.5484
vn -0.0022 0.8359 0.5488
vn -0.1409 0.8787 0.4561
vn -0.1405 0.8786 0.4564
vn -0.6988 -0.3858 0.6023
vn -0.3292 0.1995 0.9230
vn -0.5685 0.8109 -0.1387
vn -0.6305 0.7592 -0.1617
vn -0.7919 0.1712 0.5862
vn -0.3628 0.6068 0.7072
vn -0.4646 0.6550 0.5959
vn -0.4606 0.6573 0.5965
vn 0.1537 0.9818 0.1120
vn 0.1532 0.9818 0.1124
vn -0.7513 0.6291 0.1994
vn -0.7387 -0.0942 0.6675
vn -0.0052 0.6636 0.7481
vn -0.0033 0.6597 0.7515
vn -0.4875 0.6542 0.5783
vn -0.2434 0.8764 0.4155
vn -0.1832 -0.6278 0.7565
vn -0.0916 -0.5399 0.8367
vn -0.1668 0.2738 0.9472
vn -0.0189 0.2642 0.9643
vn -0.6430 0.1679 0.7472
vn 0.1932 0.8794 0.4351
vn -0.5743 -0.5515 0.6050
vn -0.5752 -0.5520 0.6037
vn -0.5172 0.4733 0.7131
vn -0.3371 0.8503 0.4042
vn -0.6992 0.4704 0.5384
vn -0.3887 -0.0593 0.9195
vn -0.4612 0.3568 0.8124
vn 0.8831 -0.1447 0.4463
vn -0.2638 -0.5340 0.8033
vn -0.4682 0.6320 0.6175
vn -0.4692 0.6294 0.6194
vn 0.3720 -0.4959 0.7847
vn 0.3714 -0.4956 0.7852
vn 0.0015 -0.2878 0.9577
vn 0.3177 0.7669 0.5575
vn 0.9007 0.1010 0.4226
vn 0.9644 0.1445 0.2217
vn 0.9311 0.3434 0.1226
vn 0.8401 -0.2751 0.4676
vn -0.1123 0.8240 0.5553
vn 0.6952 0.5508 0.4619
vn 0.4206 -0.1736 0.8905
vn 0.4317 -0.1838 0.8831
vn 0.9451 -0.2284 0.2336
vn 0.9872 -0.0732 0.1416
vn 0.9800 0.0323 -0.1962
vn 0.8530 0.1937 0.4846
vn 0.8823 0.4549 0.1206
vn 0.4653 0.6553 0.5950
vn 0.9872 -0.0730 0.1415
vn 0.8072 -0.1916 0.5583
vn 0.8317 -0.2642 0.4884
vn 0.6940 0.6664 0.2725
vn 0.6747 0.6851 0.2747
vn 0.5105 -0.2417 0.8252
vn 0.0627 0.5998 0.7977
vn 0.8083 -0.1907 0.5570
vn 0.0019 0.8362 0.5484
vn 0.0022 0.8359 0.5488
vn 0.1409 0.8787 0.4561
vn 0.1405 0.8786 0.4564
vn 0.6988 -0.3858 0.6023
vn 0.3292 0.1995 0.9230
vn 0.5685 0.8109 -0.1387
vn 0.6305 0.7592 -0.1617
vn 0.7919 0.1712 0.5862
vn 0.3628 0.6068 0.7072
vn 0.4646 0.6550 0.5959
vn 0.4606 0.6573 0.5965
vn -0.1537 0.9818 0.1120
vn -0.1532 0.9818 0.1124
vn 0.7513 0.6291 0.1994
vn 0.7387 -0.0942 0.6675
vn 0.0052 0.6636 0.7481
vn 0.0033 0.6597 0.7515
vn 0.4875 0.6542 0.5783
vn 0.2434 0.8764 0.4155
vn 0.1832 -0.6278 0.7565
vn 0.0916 -0.5399 0.8367
vn 0.1668 0.2738 0.9472
vn 0.0189 0.2642 0.9643
vn 0.6430 0.1679 0.7472
vn -0.1932 0.8794 0.4351
vn 0.5743 -0.5515 0.6050
vn 0.5752 -0.5520 0.6037
vn 0.5172 0.4733 0.7131
vn 0.3371 0.8503 0.4042
vn 0.6992 0.4704 0.5384
vn 0.3887 -0.0593 0.9195
vn 0.4612 0.3568 0.8124
vn -0.8831 -0.1447 0.4463
vn 0.2638 -0.5340 0.8033
vn 0.4682 0.6320 0.6175
vn 0.4692 0.6294 0.6194
vt 0.442706 0.033076
vt 0.500963 -0.000000
vt 0.533871 0.098002
vt 0.582592 0.065434
vt 0.537902 0.125418
vt 0.523660 0.176911
vt 0.500176 0.141263
vt 0.854488 0.397003
vt 0.616226 0.276694
vt 0.771738 0.273130
vt 0.219104 0.908026
vt 0.000000 0.903928
vt 0.082586 0.738113
vt 0.340555 0.703188
vt 0.766296 0.929962
vt 0.715581 0.850997
vt 0.766296 0.803304
vt 0.341626 0.453418
vt 0.854488 0.051743
vt 0.889507 0.079326
vt 0.924146 0.369164
vt 0.532632 0.475478
vt 0.546322 0.383211
vt 0.330704 0.576874
vt 0.274135 0.441703
vt 0.134348 0.621951
vt 0.000000 0.451025
vt 0.199207 0.483401
vt 0.041235 0.725387
vt 0.742226 0.549740
vt 0.792297 0.534222
vt 0.790197 0.614017
vt 0.008824 0.235578
vt 0.965472 0.186077
vt 0.960962 0.025826
vt 0.991055 0.000000
vt 0.991055 0.237434
vt 0.890949 0.403320
vt 0.931085 0.397003
vt 0.880282 0.481189
vt 0.608138 0.778858
vt 0.698146 0.700582
vt 0.759856 0.803304
vt 0.904628 -0.000000
vt 0.924146 0.019016
vt 0.792297 0.452988
vt 0.828894 0.397003
vt 0.880282 0.473217
vt 0.825405 0.508825
vt 0.510403 0.355057
vt 0.547477 0.171230
vt 0.582956 0.303280
vt 0.540667 0.326409
vt 0.619099 0.484855
vt 0.651492 0.457576
vt 0.686833 0.497865
vt 0.640596 0.531348
vt 0.049578 0.908026
vt 0.049578 0.969502
vt -0.000000 0.964887
vt 0.608138 0.397003
vt 0.608138 0.007850
vt 0.659987 0.000000
vt 0.643194 0.201392
vt 0.507598 0.207419
vt 0.668608 0.814027
vt 0.715581 0.924333
vt 0.608138 0.923274
vt 0.608138 0.803304
vt 0.608138 0.322662
vt 0.987464 0.369164
vt 0.924146 0.366003
vt 0.987464 0.284072
vt 0.792297 0.880321
vt 0.784856 0.885659
vt 0.880282 0.880321
vt 0.854977 0.961885
vt 0.784856 1.000000
vt 0.880282 0.940802
vt 0.880282 0.648586
vt 0.937956 0.701426
vt 0.924146 0.250467
vt 0.924146 0.000000
vt 0.960962 0.021534
vt 0.964100 0.575810
vt 0.880282 0.648586
vt 0.937955 0.864475
vt 0.937956 0.648586
vt 0.973900 0.658507
vt 0.089210 0.917033
vt 0.049578 0.963739
vt 0.049578 0.908026
vt 0.796910 0.051970
vt 0.854488 0.073736
vt 0.558759 0.151478
s 0
usemtl Mask.Joker.Yellow
f 14/1/1 2/2/1 1/3/1
f 36/11/5 4/12/5 5/13/5
f 5/13/6 9/14/6 36/11/6
f 23/22/10 25/18/10 27/23/10
f 7/24/11 25/18/11 23/22/11
f 32/25/12 25/18/12 7/24/12
f 7/24/13 46/26/13 32/25/13
f 11/27/14 8/28/14 46/26/14
f 11/27/15 46/26/15 5/13/15
f 5/13/16 4/12/16 45/29/16
f 9/14/17 46/26/17 7/24/17
f 22/30/18 21/31/18 10/32/18
f 13/33/19 8/28/19 11/27/19
f 21/34/22 19/35/22 12/36/22
f 32/25/26 13/33/26 14/1/26
f 1/46/29 38/47/29 17/48/29
f 20/56/34 23/57/34 18/54/34
f 20/56/37 21/31/37 22/30/37
f 22/30/38 23/57/38 20/56/38
f 40/66/43 23/67/43 27/68/43
f 26/69/44 40/66/44 27/68/44
f 31/7/51 25/18/51 32/25/51
f 32/74/52 1/46/52 31/49/52
f 40/75/53 39/76/53 18/77/53
f 3/79/55 44/80/55 41/81/55
f 3/82/56 41/83/56 43/84/56
f 3/87/59 43/88/59 42/89/59
f 36/8/62 42/93/62 35/94/62
f 11/27/16 5/13/16 45/29/16
f 58/1/64 47/3/64 2/2/64
f 75/11/68 50/13/68 49/12/68
f 50/13/69 75/11/69 54/14/69
f 65/22/73 68/23/73 67/18/73
f 52/24/74 65/22/74 67/18/74
f 73/25/75 52/24/75 67/18/75
f 52/24/76 73/25/76 77/26/76
f 56/27/77 77/26/77 53/28/77
f 56/27/78 50/13/78 77/26/78
f 50/13/79 76/29/79 49/12/79
f 54/14/80 52/24/80 77/26/80
f 64/30/81 55/32/81 63/31/81
f 57/33/82 56/27/82 53/28/82
f 63/34/85 12/36/85 61/35/85
f 73/25/89 58/1/89 57/33/89
f 47/46/92 17/48/92 38/47/92
f 62/56/97 60/54/97 65/57/97
f 62/56/100 64/30/100 63/31/100
f 64/30/101 62/56/101 65/57/101
f 40/66/106 68/68/106 65/67/106
f 26/69/107 68/68/107 40/66/107
f 72/7/114 73/25/114 67/18/114
f 73/74/115 72/49/115 47/46/115
f 40/75/116 60/77/116 39/76/116
f 48/79/118 41/81/118 44/80/118
f 48/82/119 43/84/119 41/83/119
f 48/87/122 42/89/122 43/88/122
f 75/8/125 35/94/125 42/93/125
f 56/27/79 76/29/79 50/13/79
usemtl Mask.Joker.Red
f 17/5/3 6/6/3 31/7/3
f 21/15/7 20/16/7 19/17/7
f 25/18/8 31/7/8 6/6/8
f 6/19/9 16/20/9 25/21/9
f 12/36/23 44/37/23 21/34/23
f 37/44/27 15/45/27 16/20/27
f 37/44/28 16/20/28 6/19/28
f 27/23/31 25/18/31 30/50/31
f 18/54/33 19/55/33 20/56/33
f 39/58/35 12/59/35 19/60/35
f 19/55/36 18/54/36 39/61/36
f 33/62/39 44/63/39 3/10/39
f 29/53/47 26/70/47 27/23/47
f 27/23/48 30/50/48 29/53/48
f 40/75/54 18/77/54 23/78/54
f 21/90/60 44/91/60 33/92/60
f 26/70/61 29/53/61 34/52/61
f 42/93/63 36/8/63 3/10/63
f 6/6/3 17/5/3 37/95/3
f 17/5/66 72/7/66 51/6/66
f 63/15/70 61/17/70 62/16/70
f 67/18/71 51/6/71 72/7/71
f 51/19/72 67/21/72 59/20/72
f 12/36/86 63/34/86 44/37/86
f 37/44/90 59/20/90 15/45/90
f 37/44/91 51/19/91 59/20/91
f 68/23/94 71/50/94 67/18/94
f 60/54/96 62/56/96 61/55/96
f 39/58/98 61/60/98 12/59/98
f 61/55/99 39/61/99 60/54/99
f 74/62/102 48/10/102 44/63/102
f 70/53/110 68/23/110 26/70/110
f 68/23/111 70/53/111 71/50/111
f 40/75/117 65/78/117 60/77/117
f 63/90/123 74/92/123 44/91/123
f 26/70/124 34/52/124 70/53/124
f 42/93/126 48/10/126 75/8/126
f 51/6/66 37/95/66 17/5/66
usemtl Mask.Joker.Blue
f 1/3/2 2/2/2 38/4/2
f 36/8/4 9/9/4 3/10/4
f 13/33/20 32/25/20 8/28/20
f 14/1/21 1/3/21 32/25/21
f 21/38/24 33/39/24 10/40/24
f 7/41/25 28/42/25 9/43/25
f 1/46/30 17/48/30 31/49/30
f 3/10/40 24/64/40 33/62/40
f 9/9/41 24/64/41 3/10/41
f 23/57/45 22/30/45 28/42/45
f 28/42/46 7/41/46 23/57/46
f 8/28/57 32/25/57 46/26/57
f 10/40/24 33/39/24 24/85/24
f 24/85/58 9/86/58 10/40/58
f 46/26/17 9/14/17 5/13/17
f 47/3/65 38/4/65 2/2/65
f 75/8/67 48/10/67 54/9/67
f 57/33/83 53/28/83 73/25/83
f 58/1/84 73/25/84 47/3/84
f 63/38/87 55/40/87 74/39/87
f 52/41/88 54/43/88 69/42/88
f 47/46/93 72/49/93 17/48/93
f 48/10/103 74/62/103 66/64/103
f 54/9/104 48/10/104 66/64/104
f 65/57/108 69/42/108 64/30/108
f 69/42/109 65/57/109 52/41/109
f 53/28/120 77/26/120 73/25/120
f 55/40/87 66/85/87 74/39/87
f 66/85/121 55/40/121 54/86/121
f 77/26/80 50/13/80 54/14/80
usemtl Mask.Joker.White
f 30/50/42 25/18/42 16/65/42
f 16/65/49 15/51/49 29/53/49
f 71/50/105 59/65/105 67/18/105
f 59/65/112 70/53/112 15/51/112
usemtl Mask.Joker.Black
f 15/51/32 34/52/32 29/53/32
f 29/71/50 30/72/50 16/73/50
f 15/51/95 70/53/95 34/52/95
f 70/71/113 59/73/113 71/72/113
o Cube
