# Blender 4.1.1
# www.blender.org
mtllib proj.mtl
o PROJECTILE
v 0.047039 2.087935 -0.078637
v 0.047867 2.087974 -0.083714
v -0.402598 -1.430848 -0.190232
v -0.413274 -1.430848 -0.144909
v 0.054101 2.087695 -0.084676
v 0.055545 -1.474547 -0.492707
v -0.047245 -1.474547 -0.484173
v 0.056796 -1.430848 -0.504029
v -0.048513 -1.430848 -0.495286
v 0.042929 -2.414330 -0.065983
v 0.037399 -2.414330 -0.065524
v 0.036127 -2.414330 -0.060122
v 0.040871 -2.414330 -0.057243
v 0.045075 -2.414330 -0.060865
v 0.452439 -1.457142 -0.260227
v 0.469741 -1.457209 -0.215218
v 0.363433 -1.462763 0.188419
v 0.247772 -1.462223 0.289259
v -0.129358 -1.460140 0.323928
v -0.203220 -1.459513 0.287815
v -0.404965 -1.460090 -0.145226
v -0.394065 -1.460047 -0.186684
v 0.055531 2.087935 -0.079579
v 0.476851 -1.432010 -0.216046
v 0.457567 -1.432148 -0.262912
v 0.051171 2.087935 -0.075801
v 0.372980 -1.421780 0.198287
v 0.253031 -1.420972 0.295965
v -0.131549 -1.428616 0.333351
v -0.207651 -1.430256 0.294167
v -0.261055 0.947392 -0.158939
v -0.273141 0.947392 -0.107631
v -0.050579 0.951735 -0.377248
v 0.099400 0.933209 -0.400106
v 0.359806 0.949835 -0.156446
v 0.342285 0.933209 -0.252696
v 0.276104 0.947403 0.118499
v 0.182754 0.947582 0.198803
v -0.145153 0.946701 0.188064
v -0.094095 0.947435 0.221892
v -0.253087 0.986306 -0.104916
v 0.096859 0.972709 -0.379804
v 0.340905 0.988748 -0.150652
v 0.173763 0.986337 0.182102
v -0.133761 0.985605 0.171974
v -0.241664 0.986306 -0.153409
v -0.045601 0.990649 -0.359301
v 0.323621 0.972708 -0.242178
v 0.261412 0.986308 0.106609
v -0.085755 0.986313 0.203664
vn 0.4993 -0.2307 -0.8352
vn 0.6514 0.0504 0.7571
vn -0.5333 0.2697 0.8018
vn -0.9716 0.0608 -0.2288
vn 0.0836 -0.3568 0.9304
vn -0.8468 -0.3562 0.3950
vn -0.6145 -0.3665 -0.6986
vn 0.0987 -0.1719 0.9802
vn 0.9023 -0.3628 0.2327
vn -0.1446 0.0488 -0.9883
vn -0.9228 -0.2992 -0.2429
vn 0.9399 0.2587 -0.2228
vn -0.0802 -0.2478 -0.9655
vn -0.7198 0.0337 -0.6933
vn -0.0000 -1.0000 -0.0000
vn 0.8438 -0.4270 -0.3250
vn 0.6023 -0.3853 0.6991
vn -0.4760 -0.3982 0.7842
vn -0.8812 -0.4248 -0.2076
vn 0.4820 -0.3676 -0.7953
vn 0.5186 0.0282 -0.8545
vn -0.8826 -0.2235 0.4136
vn 0.9554 0.0489 0.2913
vn 0.6431 -0.2021 0.7387
vn -0.8926 0.2340 0.3853
vn -0.4267 -0.2531 0.8683
vn 0.0804 0.2357 0.9685
vn 0.9095 -0.2242 -0.3500
vn 0.9310 -0.2747 0.2402
vn -0.6281 -0.2721 -0.7290
vn -0.0754 -0.4114 -0.9083
vn 0.0830 0.0433 0.9956
vn 0.0031 1.0000 0.0036
vn -0.9169 0.0418 0.3970
vn 0.8696 0.4117 0.2726
vn 0.4691 0.4274 -0.7729
vn -0.6742 0.3787 -0.6341
vn 0.9237 0.0467 -0.3802
vn -0.0762 0.4256 -0.9017
vn -0.8644 0.4597 -0.2036
vn -0.4580 0.0517 0.8874
vn 0.5889 0.4313 0.6835
vn 0.6352 0.2426 0.7332
vn -0.9533 0.2602 -0.1534
vn -0.1365 0.2522 -0.9580
vn -0.7075 0.2282 -0.6689
vn 0.5038 0.2390 -0.8301
vn 0.9308 0.2229 0.2897
vn 0.0755 0.4093 0.9093
vn -0.8417 0.3975 0.3653
vn 0.8529 0.4658 -0.2357
vn -0.4968 0.4535 0.7400
vn 0.5053 -0.1940 -0.8409
vn 0.6308 0.0519 0.7742
vn -0.5449 0.2699 0.7939
vn 0.0864 -0.2798 0.9562
vn -0.0827 0.0453 -0.9956
vn -0.9387 -0.2643 -0.2211
vn 0.9269 0.2583 -0.2723
vn -0.6519 0.0488 -0.7567
vn -0.0001 -1.0000 -0.0000
vn 0.8341 -0.4265 -0.3497
vn 0.6055 -0.3850 0.6965
vn -0.4051 -0.4010 0.8216
vn -0.8753 -0.4251 -0.2306
vn 0.5154 0.0288 -0.8565
vn -0.8767 -0.2535 0.4088
vn 0.9694 0.0416 0.2420
vn 0.5977 -0.3166 0.7366
vn -0.4338 -0.2856 0.8545
vn 0.8923 -0.2638 -0.3664
vn 0.9357 -0.2560 0.2429
vn -0.6420 -0.2064 -0.7384
vn 0.0958 0.0451 0.9944
vn -0.0047 1.0000 0.0069
vn 0.0358 0.9977 -0.0571
vn -0.9047 0.0467 0.4236
vn 0.8810 0.3875 0.2716
vn -0.6584 0.4171 -0.6265
vn 0.9808 0.0529 -0.1877
vn -0.0797 0.4516 -0.8886
vn -0.5522 0.0477 0.8324
vn 0.5889 0.4312 0.6836
vn 0.6332 0.2425 0.7350
vn -0.9396 0.2613 -0.2213
vn -0.1069 0.2506 -0.9622
vn 0.0756 0.4099 0.9090
vn -0.8385 0.4068 0.3624
vn 0.8583 0.4528 -0.2414
vn -0.4961 0.4519 0.7414
vt 0.265118 0.855652
vt 0.308870 0.849485
vt 0.309104 0.853453
vt 0.167474 0.646214
vt 0.158997 0.845997
vt 0.156989 0.648419
vt 0.131303 0.642903
vt 0.149254 0.607909
vt 0.135917 0.644816
vt 0.366852 0.855156
vt 0.345043 0.633777
vt 0.350053 0.631633
vt 0.158487 0.849808
vt 0.142094 0.943563
vt 0.125776 0.848443
vt 0.118480 0.849034
vt 0.140426 0.943924
vt 0.074560 0.857860
vt 0.361544 0.857037
vt 0.313814 0.936895
vt 0.318507 0.853547
vt 0.125650 0.845578
vt 0.210630 0.860092
vt 0.143737 0.943947
vt 0.172149 0.851198
vt 0.318649 0.849549
vt 0.305528 0.645225
vt 0.318665 0.642930
vt 0.362346 0.854404
vt 0.365572 0.858098
vt 0.276020 0.628115
vt 0.309756 0.603917
vt 0.282564 0.636128
vt 0.313253 0.939853
vt 0.311347 0.938537
vt 0.312272 0.936788
vt 0.260315 0.857310
vt 0.314832 0.938354
vt 0.280945 0.639968
vt 0.073492 0.855096
vt 0.118109 0.846236
vt 0.193527 0.633004
vt 0.172403 0.847206
vt 0.104680 0.627037
vt 0.148615 0.607603
vt 0.156447 0.644854
vt 0.264148 0.853411
vt 0.211637 0.857717
vt 0.135162 0.648348
vt 0.310456 0.603828
vt 0.309491 0.603218
vt 0.310170 0.602703
vt 0.101284 0.630528
vt 0.130063 0.646965
vt 0.190322 0.629248
vt 0.166239 0.642301
vt 0.305721 0.641240
vt 0.342823 0.630167
vt 0.318176 0.639068
vt 0.259035 0.854464
vt 0.347403 0.626883
vt 0.149911 0.607670
vt 0.310752 0.603161
vt 0.272805 0.632975
s 0
usemtl crystal
f 15/1/1 6/3/1 8/2/1
f 37/4/2 38/6/2 28/5/2
f 45/7/3 50/9/3 26/8/3
f 4/10/4 32/12/4 31/11/4
f 18/13/5 19/15/5 13/14/5
f 20/16/6 21/18/6 12/17/6
f 22/19/7 7/21/7 11/20/7
f 18/13/8 28/5/8 29/22/8
f 16/23/9 17/25/9 14/24/9
f 9/26/10 33/28/10 34/27/10
f 3/29/11 22/19/11 21/30/11
f 43/31/12 48/33/12 5/32/12
f 6/3/13 7/21/13 9/26/13
f 31/11/14 33/28/14 9/26/14
f 11/20/15 14/35/15 13/34/15
f 10/36/16 15/1/16 16/37/16
f 18/13/17 13/14/17 14/24/17
f 12/17/18 13/14/18 19/15/18
f 22/19/19 11/20/19 12/38/19
f 6/3/20 15/1/20 10/36/20
f 8/2/21 34/27/21 36/39/21
f 20/16/22 30/41/22 4/40/22
f 35/42/23 37/4/23 27/43/23
f 28/5/24 18/13/24 17/25/24
f 45/7/25 1/45/25 41/44/25
f 30/41/26 20/16/26 19/15/26
f 44/46/27 26/8/27 50/9/27
f 16/37/28 15/1/28 25/47/28
f 24/48/29 27/43/29 17/25/29
f 22/19/30 3/29/30 9/26/30
f 6/3/31 10/36/31 11/20/31
f 28/5/32 38/6/32 40/49/32
f 2/50/33 26/52/33 23/51/33
f 30/41/34 39/54/34 32/53/34
f 43/55/35 49/56/35 37/4/35
f 34/27/36 42/57/36 48/33/36
f 46/58/37 47/59/37 33/28/37
f 24/60/38 25/47/38 36/39/38
f 33/28/39 47/59/39 42/57/39
f 41/61/40 46/58/40 31/11/40
f 39/54/41 30/41/41 29/22/41
f 37/4/42 49/56/42 44/46/42
f 49/56/43 23/62/43 26/8/43
f 1/63/44 2/50/44 46/58/44
f 47/59/45 2/50/45 5/32/45
f 2/50/46 47/59/46 46/58/46
f 5/32/47 48/33/47 42/57/47
f 23/62/48 49/56/48 43/55/48
f 38/6/49 44/46/49 50/9/49
f 32/53/50 39/54/50 45/7/50
f 35/64/51 36/39/51 48/33/51
f 39/54/52 40/49/52 50/9/52
f 15/1/53 8/2/53 25/47/53
f 37/4/54 28/5/54 27/43/54
f 45/7/55 26/8/55 1/45/55
f 4/10/4 31/11/4 3/29/4
f 18/13/56 29/22/56 19/15/56
f 9/26/57 34/27/57 8/2/57
f 3/29/58 21/30/58 4/10/58
f 43/31/59 5/32/59 23/51/59
f 6/3/13 9/26/13 8/2/13
f 31/11/60 9/26/60 3/29/60
f 14/35/61 11/20/61 10/36/61
f 11/20/15 13/34/15 12/38/15
f 10/36/62 16/37/62 14/35/62
f 18/13/63 14/24/63 17/25/63
f 12/17/64 19/15/64 20/16/64
f 22/19/65 12/38/65 21/30/65
f 8/2/66 36/39/66 25/47/66
f 20/16/67 4/40/67 21/18/67
f 35/42/68 27/43/68 24/48/68
f 28/5/69 17/25/69 27/43/69
f 30/41/70 19/15/70 29/22/70
f 16/37/71 25/47/71 24/60/71
f 24/48/72 17/25/72 16/23/72
f 22/19/73 9/26/73 7/21/73
f 6/3/31 11/20/31 7/21/31
f 28/5/74 40/49/74 29/22/74
f 26/52/75 2/50/75 1/63/75
f 2/50/76 23/51/76 5/32/76
f 30/41/77 32/53/77 4/40/77
f 43/55/78 37/4/78 35/42/78
f 34/27/36 48/33/36 36/39/36
f 46/58/79 33/28/79 31/11/79
f 24/60/80 36/39/80 35/64/80
f 33/28/81 42/57/81 34/27/81
f 41/61/40 31/11/40 32/12/40
f 39/54/82 29/22/82 40/49/82
f 37/4/83 44/46/83 38/6/83
f 49/56/84 26/8/84 44/46/84
f 1/63/85 46/58/85 41/61/85
f 47/59/86 5/32/86 42/57/86
f 38/6/87 50/9/87 40/49/87
f 32/53/88 45/7/88 41/44/88
f 35/64/89 48/33/89 43/31/89
f 39/54/90 50/9/90 45/7/90
