# Blender 4.1.1
# www.blender.org
mtllib reel.mtl
o Cylinder
v -0.335338 0.000000 -1.000000
v 0.335338 -0.000000 -1.000000
v -0.335338 -0.500000 -0.866025
v 0.335338 -0.500000 -0.866025
v -0.335338 -0.866025 -0.500000
v 0.335338 -0.866025 -0.500000
v -0.335338 -1.000000 0.000000
v 0.335338 -1.000000 0.000000
v -0.335338 -0.866025 0.500000
v 0.335338 -0.866025 0.500000
v -0.335338 -0.500000 0.866025
v 0.335338 -0.500000 0.866025
v -0.335338 0.000000 1.000000
v 0.335338 -0.000000 1.000000
v -0.335338 0.500000 0.866025
v 0.335338 0.500000 0.866025
v -0.335338 0.866025 0.500000
v 0.335338 0.866025 0.500000
v -0.335338 1.000000 0.000000
v 0.335338 1.000000 0.000000
v -0.335338 0.866025 -0.500000
v 0.335338 0.866025 -0.500000
v -0.335338 0.500000 -0.866025
v 0.335338 0.500000 -0.866025
vn -0.0000 -0.2588 -0.9659
vn -0.0000 -0.7071 -0.7071
vn -0.0000 -0.9659 -0.2588
vn -0.0000 -0.9659 0.2588
vn -0.0000 -0.7071 0.7071
vn -0.0000 -0.2588 0.9659
vn -0.0000 0.2588 0.9659
vn -0.0000 0.7071 0.7071
vn -0.0000 0.9659 0.2588
vn -0.0000 0.9659 -0.2588
vn 1.0000 -0.0000 -0.0000
vn -0.0000 0.7071 -0.7071
vn -0.0000 0.2588 -0.9659
vn -1.0000 -0.0000 -0.0000
vt 0.001001 0.001001
vt 0.248999 0.248999
vt 0.248999 0.001001
vt 0.001001 0.251001
vt 0.248999 0.498999
vt 0.248999 0.251001
vt 0.251001 0.001001
vt 0.498999 0.248999
vt 0.498999 0.001001
vt 0.251001 0.251001
vt 0.498999 0.498999
vt 0.498999 0.251001
vt 0.001001 0.501001
vt 0.248999 0.748999
vt 0.248999 0.501001
vt 0.501001 0.001001
vt 0.748999 0.248999
vt 0.748999 0.001001
vt 0.501001 0.251001
vt 0.748999 0.498999
vt 0.748999 0.251001
vt 0.251001 0.501001
vt 0.498999 0.748999
vt 0.498999 0.501001
vt 0.501001 0.501001
vt 0.748999 0.748999
vt 0.748999 0.501001
vt 0.001001 0.751001
vt 0.248999 0.998999
vt 0.248999 0.751001
vt 0.841775 0.001001
vt 0.998999 0.158225
vt 0.784226 0.215774
vt 0.251001 0.751001
vt 0.498999 0.998999
vt 0.498999 0.751001
vt 0.751001 0.251001
vt 0.998999 0.498999
vt 0.998999 0.251001
vt 0.534226 0.965774
vt 0.591775 0.751001
vt 0.748999 0.908225
vt 0.001001 0.248999
vt 0.001001 0.498999
vt 0.251001 0.248999
vt 0.251001 0.498999
vt 0.001001 0.748999
vt 0.501001 0.248999
vt 0.501001 0.498999
vt 0.251001 0.748999
vt 0.501001 0.748999
vt 0.001001 0.998999
vt 0.751001 0.158225
vt 0.751001 0.091775
vt 0.784226 0.034226
vt 0.908225 0.001001
vt 0.965774 0.034226
vt 0.998999 0.091775
vt 0.965774 0.215774
vt 0.908225 0.248999
vt 0.841775 0.248999
vt 0.251001 0.998999
vt 0.751001 0.498999
vt 0.715774 0.965774
vt 0.658225 0.998999
vt 0.591775 0.998999
vt 0.501001 0.908225
vt 0.501001 0.841775
vt 0.534226 0.784226
vt 0.658225 0.751001
vt 0.715774 0.784226
vt 0.748999 0.841775
s 0
usemtl Material
f 2/1/1 3/2/1 1/3/1
f 4/4/2 5/5/2 3/6/2
f 6/7/3 7/8/3 5/9/3
f 8/10/4 9/11/4 7/12/4
f 10/13/5 11/14/5 9/15/5
f 12/16/6 13/17/6 11/18/6
f 14/19/7 15/20/7 13/21/7
f 16/22/8 17/23/8 15/24/8
f 18/25/9 19/26/9 17/27/9
f 20/28/10 21/29/10 19/30/10
f 22/31/11 14/32/11 6/33/11
f 22/34/12 23/35/12 21/36/12
f 24/37/13 1/38/13 23/39/13
f 7/40/14 15/41/14 23/42/14
f 2/1/1 4/43/1 3/2/1
f 4/4/2 6/44/2 5/5/2
f 6/7/3 8/45/3 7/8/3
f 8/10/4 10/46/4 9/11/4
f 10/13/5 12/47/5 11/14/5
f 12/16/6 14/48/6 13/17/6
f 14/19/7 16/49/7 15/20/7
f 16/22/8 18/50/8 17/23/8
f 18/25/9 20/51/9 19/26/9
f 20/28/10 22/52/10 21/29/10
f 6/33/11 4/53/11 2/54/11
f 2/54/11 24/55/11 22/31/11
f 22/31/11 20/56/11 18/57/11
f 18/57/11 16/58/11 14/32/11
f 14/32/11 12/59/11 10/60/11
f 10/60/11 8/61/11 6/33/11
f 6/33/11 2/54/11 22/31/11
f 22/31/11 18/57/11 14/32/11
f 14/32/11 10/60/11 6/33/11
f 22/34/12 24/62/12 23/35/12
f 24/37/13 2/63/13 1/38/13
f 23/42/14 1/64/14 3/65/14
f 3/65/14 5/66/14 7/40/14
f 7/40/14 9/67/14 11/68/14
f 11/68/14 13/69/14 15/41/14
f 15/41/14 17/70/14 19/71/14
f 19/71/14 21/72/14 23/42/14
f 23/42/14 3/65/14 7/40/14
f 7/40/14 11/68/14 15/41/14
f 15/41/14 19/71/14 23/42/14
